                                                                        S0000001
,,31HOpen CASCADE IGES processor 7.8,13HFilename.iges,                  G0000001
16HOpen CASCADE 7.8,31HOpen CASCADE IGES processor 7.8,32,308,15,308,15,G0000002
,1.,2,2HMM,1,0.01,15H20261006.102751,1E-07,75.,,,11,0,                  G0000003
15H20261006.102751,;                                                    G0000004
     402       1       0       0       0       0       0       000000000D0000001
     402       0       0       1       1                               0D0000002
     144       2       0       0       0       0       0       000020000D0000003
     144       0       0       1       0                               0D0000004
     128       3       0       0       0       0       0       000010000D0000005
     128       0       0      20       0                               0D0000006
     142      23       0       0       0       0       0       000010500D0000007
     142       0       0       1       0                               0D0000008
     102      24       0       0       0       0       0       000010000D0000009
     102       0       0       1       0                               0D0000010
     100      25       0       0       0       0       0       000010000D0000011
     100       0       0       1       0                               0D0000012
     126      26       0       0       0       0       0       000010000D0000013
     126       0       0       2       0                               0D0000014
     100      28       0       0       0       0      17       000010000D0000015
     100       0       0       1       0                               0D0000016
     124      29       0       0       0       0       0       000000000D0000017
     124       0       0       1       0                               0D0000018
     126      30       0       0       0       0       0       000010000D0000019
     126       0       0       2       0                               0D0000020
     144      32       0       0       0       0       0       000020000D0000021
     144       0       0       1       0                               0D0000022
     128      33       0       0       0       0       0       000010000D0000023
     128       0       0      21       0                               0D0000024
     142      54       0       0       0       0       0       000010500D0000025
     142       0       0       1       0                               0D0000026
     102      55       0       0       0       0       0       000010000D0000027
     102       0       0       1       0                               0D0000028
     100      56       0       0       0       0      31       000010000D0000029
     100       0       0       1       0                               0D0000030
     124      57       0       0       0       0       0       000000000D0000031
     124       0       0       1       0                               0D0000032
     126      58       0       0       0       0       0       000010000D0000033
     126       0       0       2       0                               0D0000034
     100      60       0       0       0       0      37       000010000D0000035
     100       0       0       1       0                               0D0000036
     124      61       0       0       0       0       0       000000000D0000037
     124       0       0       1       0                               0D0000038
     126      62       0       0       0       0       0       000010000D0000039
     126       0       0       2       0                               0D0000040
     144      64       0       0       0       0       0       000020000D0000041
     144       0       0       1       0                               0D0000042
     108      65       0       0       0       0       0       000010000D0000043
     108       0       0       1       0                               0D0000044
     142      66       0       0       0       0       0       000010500D0000045
     142       0       0       1       0                               0D0000046
     100      67       0       0       0       0      49       000010000D0000047
     100       0       0       1       0                               0D0000048
     124      68       0       0       0       0       0       000000000D0000049
     124       0       0       1       0                               0D0000050
     144      69       0       0       0       0       0       000020000D0000051
     144       0       0       1       0                               0D0000052
     108      70       0       0       0       0       0       000010000D0000053
     108       0       0       1       0                               0D0000054
     142      71       0       0       0       0       0       000010500D0000055
     142       0       0       1       0                               0D0000056
     100      72       0       0       0       0      59       000010000D0000057
     100       0       0       1       0                               0D0000058
     124      73       0       0       0       0       0       000000000D0000059
     124       0       0       1       0                               0D0000060
402,4,3,21,41,51;                                                0000001P0000001
144,5,1,0,7;                                                     0000003P0000002
128,14,1,14,1,1,0,1,0,0,0.,0.,0.,0.,0.,0.,0.,0.,0.,0.,0.,0.,0.,  0000005P0000003
0.,0.,6.283185307,6.283185307,6.283185307,6.283185307,           0000005P0000004
6.283185307,6.283185307,6.283185307,6.283185307,6.283185307,     0000005P0000005
6.283185307,6.283185307,6.283185307,6.283185307,6.283185307,     0000005P0000006
6.283185307,0.,0.,1.,1.,1.,1.,1.,1.,1.,1.,1.,1.,1.,1.,1.,1.,1.,  0000005P0000007
1.,1.,1.,1.,1.,1.,1.,1.,1.,1.,1.,1.,1.,1.,1.,1.,1.,16.,          0000005P0000008
9.505502552E-15,0.,16.,7.180783208,0.,12.529370221,14.361569067, 0000005P0000009
0.,5.588106226,19.725109545,0.,-3.785769836,21.454361533,0.,     0000005P0000010
-13.516410566,18.383629776,0.,-20.944667227,10.654163924,0.,     0000005P0000011
-23.741257633,2.627871254E-10,0.,-20.944667227,-10.654163925,0., 0000005P0000012
-13.516410566,-18.383629776,0.,-3.785769836,-21.454361533,0.,    0000005P0000013
5.588106226,-19.725109545,0.,12.529370221,-14.361569067,0.,16.,  0000005P0000014
-7.180783208,0.,16.,-5.711428478E-15,0.,15.,-5.630214214E-15,    0000005P0000015
35.,15.,4.936788456,35.,12.613942027,9.873578734,35.,7.84182303, 0000005P0000016
13.561012812,35.,1.397283238,14.749873554,35.,-5.292532264,      0000005P0000017
12.638745471,35.,-10.399458718,7.324737698,35.,-12.322114623,    0000005P0000018
1.88776994E-10,35.,-10.399458718,-7.324737698,35.,-5.292532264,  0000005P0000019
-12.638745471,35.,1.397283238,-14.749873554,35.,7.84182303,      0000005P0000020
-13.561012812,35.,12.613942027,-9.873578734,35.,15.,             0000005P0000021
-4.936788456,35.,15.,-6.76598089E-15,35.,0.,6.283185307,0.,1.;   0000005P0000022
142,0,5,0,9,2;                                                   0000007P0000023
102,4,11,13,15,19;                                               0000009P0000024
100,0.,0.,0.,16.,0.,16.,0.;                                      0000011P0000025
126,1,1,1,0,1,0,0.,0.,1.,1.,1.,1.,16.,9.505502552E-15,0.,15.,    0000013P0000026
-5.630214214E-15,35.,0.,1.,0.999592086,-0.,2.85597739E-02;       0000013P0000027
100,0.,0.,0.,11.,0.,11.,0.;                                      0000015P0000028
124,1.,0.,0.,4.,0.,-1.,0.,0.,0.,0.,-1.,35.;                      0000017P0000029
126,1,1,1,0,1,0,0.,0.,1.,1.,1.,1.,15.,-5.630214214E-15,35.,16.,  0000019P0000030
9.505502552E-15,0.,0.,1.,0.999592086,0.,2.85597739E-02;          0000019P0000031
144,23,1,0,25;                                                   0000021P0000032
128,14,1,14,1,1,0,1,0,0,0.,0.,0.,0.,0.,0.,0.,0.,0.,0.,0.,0.,0.,  0000023P0000033
0.,0.,6.283185307,6.283185307,6.283185307,6.283185307,           0000023P0000034
6.283185307,6.283185307,6.283185307,6.283185307,6.283185307,     0000023P0000035
6.283185307,6.283185307,6.283185307,6.283185307,6.283185307,     0000023P0000036
6.283185307,0.,0.,1.,1.,1.,1.,1.,1.,1.,1.,1.,1.,1.,1.,1.,1.,1.,  0000023P0000037
1.,1.,1.,1.,1.,1.,1.,1.,1.,1.,1.,1.,1.,1.,1.,1.,1.,15.,          0000023P0000038
-5.630214214E-15,35.,15.,4.936788456,35.,12.613942027,           0000023P0000039
9.873578734,35.,7.84182303,13.561012812,35.,1.397283238,         0000023P0000040
14.749873554,35.,-5.292532264,12.638745471,35.,-10.399458718,    0000023P0000041
7.324737698,35.,-12.322114623,1.88776994E-10,35.,-10.399458718,  0000023P0000042
-7.324737698,35.,-5.292532264,-12.638745471,35.,1.397283238,     0000023P0000043
-14.749873554,35.,7.84182303,-13.561012812,35.,12.613942027,     0000023P0000044
-9.873578734,35.,15.,-4.936788456,35.,15.,-6.76598089E-15,35.,   0000023P0000045
14.,-2.752208943E-15,75.,14.,2.692793703,75.,12.698513833,       0000023P0000046
5.3855884,75.,10.095539835,7.396916079,75.,6.580336312,          0000023P0000047
8.045385575,75.,2.931346038,6.893861166,75.,0.14574979,          0000023P0000048
3.995311472,75.,-0.902971612,1.167741459E-10,75.,0.14574979,     0000023P0000049
-3.995311472,75.,2.931346038,-6.893861166,75.,6.580336312,       0000023P0000050
-8.045385575,75.,10.095539835,-7.396916079,75.,12.698513833,     0000023P0000051
-5.3855884,75.,14.,-2.692793703,75.,14.,-4.017665981E-15,75.,0., 0000023P0000052
6.283185307,0.,1.;                                               0000023P0000053
142,0,23,0,27,2;                                                 0000025P0000054
102,4,29,33,35,39;                                               0000027P0000055
100,0.,0.,0.,11.,0.,11.,0.;                                      0000029P0000056
124,1.,0.,0.,4.,0.,1.,0.,0.,0.,0.,1.,35.;                        0000031P0000057
126,1,1,1,0,1,0,0.,0.,1.,1.,1.,1.,15.,-5.630214214E-15,35.,14.,  0000033P0000058
-2.752208943E-15,75.,0.,1.,0.999687646,-0.,2.499219116E-02;      0000033P0000059
100,0.,0.,0.,6.,0.,6.,0.;                                        0000035P0000060
124,1.,0.,0.,8.,0.,-1.,0.,0.,0.,0.,-1.,75.;                      0000037P0000061
126,1,1,1,0,1,0,0.,0.,1.,1.,1.,1.,14.,-2.752208943E-15,75.,15.,  0000039P0000062
-5.630214214E-15,35.,0.,1.,0.999687646,0.,2.499219116E-02;       0000039P0000063
144,43,1,0,45;                                                   0000041P0000064
108,-0.,-0.,-1.,-0.,0,0.,0.,0.,0.;                               0000043P0000065
142,0,43,0,47,2;                                                 0000045P0000066
100,0.,0.,0.,16.,0.,16.,0.;                                      0000047P0000067
124,1.,0.,0.,0.,0.,-1.,0.,0.,0.,0.,-1.,0.;                       0000049P0000068
144,53,1,0,55;                                                   0000051P0000069
108,0.,0.,1.,75.,0,8.,0.,75.,0.;                                 0000053P0000070
142,0,53,0,57,2;                                                 0000055P0000071
100,0.,0.,0.,6.,0.,6.,0.;                                        0000057P0000072
124,1.,0.,0.,8.,0.,1.,0.,0.,0.,0.,1.,75.;                        0000059P0000073
S      1G      4D     60P     73                                        T0000001
