# .PCD v0.7 - Point Cloud Data file format
VERSION 0.7
FIELDS x y z intensity
SIZE 4 4 4 4
TYPE F F F F
COUNT 1 1 1 1
WIDTH 1292
HEIGHT 1
VIEWPOINT 0 0 0 1 0 0 0
POINTS 1292
DATA ascii
-30.000 -15.000 -2.000 30.0
-30.000 -13.500 -2.000 30.0
-30.000 -12.000 -2.000 30.0
-30.000 -10.500 -2.000 30.0
-30.000 -9.000 -2.000 30.0
-30.000 -7.500 -2.000 30.0
-30.000 -6.000 -2.000 30.0
-30.000 -4.500 -2.000 200.0
-30.000 -3.000 -2.000 30.0
-30.000 -1.500 -2.000 30.0
-30.000 0.000 -2.000 30.0
-30.000 1.500 -2.000 30.0
-30.000 3.000 -2.000 30.0
-30.000 4.500 -2.000 200.0
-30.000 6.000 -2.000 30.0
-30.000 7.500 -2.000 30.0
-30.000 9.000 -2.000 30.0
-30.000 10.500 -2.000 30.0
-30.000 12.000 -2.000 30.0
-30.000 13.500 -2.000 30.0
-28.500 -15.000 -2.000 30.0
-28.500 -13.500 -2.000 30.0
-28.500 -12.000 -2.000 30.0
-28.500 -10.500 -2.000 30.0
-28.500 -9.000 -2.000 30.0
-28.500 -7.500 -2.000 30.0
-28.500 -6.000 -2.000 30.0
-28.500 -4.500 -2.000 200.0
-28.500 -3.000 -2.000 30.0
-28.500 -1.500 -2.000 30.0
-28.500 0.000 -2.000 30.0
-28.500 1.500 -2.000 30.0
-28.500 3.000 -2.000 30.0
-28.500 4.500 -2.000 200.0
-28.500 6.000 -2.000 30.0
-28.500 7.500 -2.000 30.0
-28.500 9.000 -2.000 30.0
-28.500 10.500 -2.000 30.0
-28.500 12.000 -2.000 30.0
-28.500 13.500 -2.000 30.0
-27.000 -15.000 -2.000 30.0
-27.000 -13.500 -2.000 30.0
-27.000 -12.000 -2.000 30.0
-27.000 -10.500 -2.000 30.0
-27.000 -9.000 -2.000 30.0
-27.000 -7.500 -2.000 30.0
-27.000 -6.000 -2.000 30.0
-27.000 -4.500 -2.000 200.0
-27.000 -3.000 -2.000 30.0
-27.000 -1.500 -2.000 30.0
-27.000 0.000 -2.000 30.0
-27.000 1.500 -2.000 30.0
-27.000 3.000 -2.000 30.0
-27.000 4.500 -2.000 200.0
-27.000 6.000 -2.000 30.0
-27.000 7.500 -2.000 30.0
-27.000 9.000 -2.000 30.0
-27.000 10.500 -2.000 30.0
-27.000 12.000 -2.000 30.0
-27.000 13.500 -2.000 30.0
-25.500 -15.000 -2.000 30.0
-25.500 -13.500 -2.000 30.0
-25.500 -12.000 -2.000 30.0
-25.500 -10.500 -2.000 30.0
-25.500 -9.000 -2.000 30.0
-25.500 -7.500 -2.000 30.0
-25.500 -6.000 -2.000 30.0
-25.500 -4.500 -2.000 200.0
-25.500 -3.000 -2.000 30.0
-25.500 -1.500 -2.000 30.0
-25.500 0.000 -2.000 30.0
-25.500 1.500 -2.000 30.0
-25.500 3.000 -2.000 30.0
-25.500 4.500 -2.000 200.0
-25.500 6.000 -2.000 30.0
-25.500 7.500 -2.000 30.0
-25.500 9.000 -2.000 30.0
-25.500 10.500 -2.000 30.0
-25.500 12.000 -2.000 30.0
-25.500 13.500 -2.000 30.0
-24.000 -15.000 -2.000 30.0
-24.000 -13.500 -2.000 30.0
-24.000 -12.000 -2.000 30.0
-24.000 -10.500 -2.000 30.0
-24.000 -9.000 -2.000 30.0
-24.000 -7.500 -2.000 30.0
-24.000 -6.000 -2.000 30.0
-24.000 -4.500 -2.000 200.0
-24.000 -3.000 -2.000 30.0
-24.000 -1.500 -2.000 30.0
-24.000 0.000 -2.000 30.0
-24.000 1.500 -2.000 30.0
-24.000 3.000 -2.000 30.0
-24.000 4.500 -2.000 200.0
-24.000 6.000 -2.000 30.0
-24.000 7.500 -2.000 30.0
-24.000 9.000 -2.000 30.0
-24.000 10.500 -2.000 30.0
-24.000 12.000 -2.000 30.0
-24.000 13.500 -2.000 30.0
-22.500 -15.000 -2.000 30.0
-22.500 -13.500 -2.000 30.0
-22.500 -12.000 -2.000 30.0
-22.500 -10.500 -2.000 30.0
-22.500 -9.000 -2.000 30.0
-22.500 -7.500 -2.000 30.0
-22.500 -6.000 -2.000 30.0
-22.500 -4.500 -2.000 200.0
-22.500 -3.000 -2.000 30.0
-22.500 -1.500 -2.000 30.0
-22.500 0.000 -2.000 30.0
-22.500 1.500 -2.000 30.0
-22.500 3.000 -2.000 30.0
-22.500 4.500 -2.000 200.0
-22.500 6.000 -2.000 30.0
-22.500 7.500 -2.000 30.0
-22.500 9.000 -2.000 30.0
-22.500 10.500 -2.000 30.0
-22.500 12.000 -2.000 30.0
-22.500 13.500 -2.000 30.0
-21.000 -15.000 -2.000 30.0
-21.000 -13.500 -2.000 30.0
-21.000 -12.000 -2.000 30.0
-21.000 -10.500 -2.000 30.0
-21.000 -9.000 -2.000 30.0
-21.000 -7.500 -2.000 30.0
-21.000 -6.000 -2.000 30.0
-21.000 -4.500 -2.000 200.0
-21.000 -3.000 -2.000 30.0
-21.000 -1.500 -2.000 30.0
-21.000 0.000 -2.000 30.0
-21.000 1.500 -2.000 30.0
-21.000 3.000 -2.000 30.0
-21.000 4.500 -2.000 200.0
-21.000 6.000 -2.000 30.0
-21.000 7.500 -2.000 30.0
-21.000 9.000 -2.000 30.0
-21.000 10.500 -2.000 30.0
-21.000 12.000 -2.000 30.0
-21.000 13.500 -2.000 30.0
-19.500 -15.000 -2.000 30.0
-19.500 -13.500 -2.000 30.0
-19.500 -12.000 -2.000 30.0
-19.500 -10.500 -2.000 30.0
-19.500 -9.000 -2.000 30.0
-19.500 -7.500 -2.000 30.0
-19.500 -6.000 -2.000 30.0
-19.500 -4.500 -2.000 200.0
-19.500 -3.000 -2.000 30.0
-19.500 -1.500 -2.000 30.0
-19.500 0.000 -2.000 30.0
-19.500 1.500 -2.000 30.0
-19.500 3.000 -2.000 30.0
-19.500 4.500 -2.000 200.0
-19.500 6.000 -2.000 30.0
-19.500 7.500 -2.000 30.0
-19.500 9.000 -2.000 30.0
-19.500 10.500 -2.000 30.0
-19.500 12.000 -2.000 30.0
-19.500 13.500 -2.000 30.0
-18.000 -15.000 -2.000 30.0
-18.000 -13.500 -2.000 30.0
-18.000 -12.000 -2.000 30.0
-18.000 -10.500 -2.000 30.0
-18.000 -9.000 -2.000 30.0
-18.000 -7.500 -2.000 30.0
-18.000 -6.000 -2.000 30.0
-18.000 -4.500 -2.000 200.0
-18.000 -3.000 -2.000 30.0
-18.000 -1.500 -2.000 30.0
-18.000 0.000 -2.000 30.0
-18.000 1.500 -2.000 30.0
-18.000 3.000 -2.000 30.0
-18.000 4.500 -2.000 200.0
-18.000 6.000 -2.000 30.0
-18.000 7.500 -2.000 30.0
-18.000 9.000 -2.000 30.0
-18.000 10.500 -2.000 30.0
-18.000 12.000 -2.000 30.0
-18.000 13.500 -2.000 30.0
-16.500 -15.000 -2.000 30.0
-16.500 -13.500 -2.000 30.0
-16.500 -12.000 -2.000 30.0
-16.500 -10.500 -2.000 30.0
-16.500 -9.000 -2.000 30.0
-16.500 -7.500 -2.000 30.0
-16.500 -6.000 -2.000 30.0
-16.500 -4.500 -2.000 200.0
-16.500 -3.000 -2.000 30.0
-16.500 -1.500 -2.000 30.0
-16.500 0.000 -2.000 30.0
-16.500 1.500 -2.000 30.0
-16.500 3.000 -2.000 30.0
-16.500 4.500 -2.000 200.0
-16.500 6.000 -2.000 30.0
-16.500 7.500 -2.000 30.0
-16.500 9.000 -2.000 30.0
-16.500 10.500 -2.000 30.0
-16.500 12.000 -2.000 30.0
-16.500 13.500 -2.000 30.0
-15.000 -15.000 -2.000 30.0
-15.000 -13.500 -2.000 30.0
-15.000 -12.000 -2.000 30.0
-15.000 -10.500 -2.000 30.0
-15.000 -9.000 -2.000 30.0
-15.000 -7.500 -2.000 30.0
-15.000 -6.000 -2.000 30.0
-15.000 -4.500 -2.000 200.0
-15.000 -3.000 -2.000 30.0
-15.000 -1.500 -2.000 30.0
-15.000 0.000 -2.000 30.0
-15.000 1.500 -2.000 30.0
-15.000 3.000 -2.000 30.0
-15.000 4.500 -2.000 200.0
-15.000 6.000 -2.000 30.0
-15.000 7.500 -2.000 30.0
-15.000 9.000 -2.000 30.0
-15.000 10.500 -2.000 30.0
-15.000 12.000 -2.000 30.0
-15.000 13.500 -2.000 30.0
-13.500 -15.000 -2.000 30.0
-13.500 -13.500 -2.000 30.0
-13.500 -12.000 -2.000 30.0
-13.500 -10.500 -2.000 30.0
-13.500 -9.000 -2.000 30.0
-13.500 -7.500 -2.000 30.0
-13.500 -6.000 -2.000 30.0
-13.500 -4.500 -2.000 200.0
-13.500 -3.000 -2.000 30.0
-13.500 -1.500 -2.000 30.0
-13.500 0.000 -2.000 30.0
-13.500 1.500 -2.000 30.0
-13.500 3.000 -2.000 30.0
-13.500 4.500 -2.000 200.0
-13.500 6.000 -2.000 30.0
-13.500 7.500 -2.000 30.0
-13.500 9.000 -2.000 30.0
-13.500 10.500 -2.000 30.0
-13.500 12.000 -2.000 30.0
-13.500 13.500 -2.000 30.0
-12.000 -15.000 -2.000 30.0
-12.000 -13.500 -2.000 30.0
-12.000 -12.000 -2.000 30.0
-12.000 -10.500 -2.000 30.0
-12.000 -9.000 -2.000 30.0
-12.000 -7.500 -2.000 30.0
-12.000 -6.000 -2.000 30.0
-12.000 -4.500 -2.000 200.0
-12.000 -3.000 -2.000 30.0
-12.000 -1.500 -2.000 30.0
-12.000 0.000 -2.000 30.0
-12.000 1.500 -2.000 30.0
-12.000 3.000 -2.000 30.0
-12.000 4.500 -2.000 200.0
-12.000 6.000 -2.000 30.0
-12.000 7.500 -2.000 30.0
-12.000 9.000 -2.000 30.0
-12.000 10.500 -2.000 30.0
-12.000 12.000 -2.000 30.0
-12.000 13.500 -2.000 30.0
-10.500 -15.000 -2.000 30.0
-10.500 -13.500 -2.000 30.0
-10.500 -12.000 -2.000 30.0
-10.500 -10.500 -2.000 30.0
-10.500 -9.000 -2.000 30.0
-10.500 -7.500 -2.000 30.0
-10.500 -6.000 -2.000 30.0
-10.500 -4.500 -2.000 200.0
-10.500 -3.000 -2.000 30.0
-10.500 -1.500 -2.000 30.0
-10.500 0.000 -2.000 30.0
-10.500 1.500 -2.000 30.0
-10.500 3.000 -2.000 30.0
-10.500 4.500 -2.000 200.0
-10.500 6.000 -2.000 30.0
-10.500 7.500 -2.000 30.0
-10.500 9.000 -2.000 30.0
-10.500 10.500 -2.000 30.0
-10.500 12.000 -2.000 30.0
-10.500 13.500 -2.000 30.0
-9.000 -15.000 -2.000 30.0
-9.000 -13.500 -2.000 30.0
-9.000 -12.000 -2.000 30.0
-9.000 -10.500 -2.000 30.0
-9.000 -9.000 -2.000 30.0
-9.000 -7.500 -2.000 30.0
-9.000 -6.000 -2.000 30.0
-9.000 -4.500 -2.000 200.0
-9.000 -3.000 -2.000 30.0
-9.000 -1.500 -2.000 30.0
-9.000 0.000 -2.000 30.0
-9.000 1.500 -2.000 30.0
-9.000 3.000 -2.000 30.0
-9.000 4.500 -2.000 200.0
-9.000 6.000 -2.000 30.0
-9.000 7.500 -2.000 30.0
-9.000 9.000 -2.000 30.0
-9.000 10.500 -2.000 30.0
-9.000 12.000 -2.000 30.0
-9.000 13.500 -2.000 30.0
-7.500 -15.000 -2.000 30.0
-7.500 -13.500 -2.000 30.0
-7.500 -12.000 -2.000 30.0
-7.500 -10.500 -2.000 30.0
-7.500 -9.000 -2.000 30.0
-7.500 -7.500 -2.000 30.0
-7.500 -6.000 -2.000 30.0
-7.500 -4.500 -2.000 200.0
-7.500 -3.000 -2.000 30.0
-7.500 -1.500 -2.000 30.0
-7.500 0.000 -2.000 30.0
-7.500 1.500 -2.000 30.0
-7.500 3.000 -2.000 30.0
-7.500 4.500 -2.000 200.0
-7.500 6.000 -2.000 30.0
-7.500 7.500 -2.000 30.0
-7.500 9.000 -2.000 30.0
-7.500 10.500 -2.000 30.0
-7.500 12.000 -2.000 30.0
-7.500 13.500 -2.000 30.0
-6.000 -15.000 -2.000 30.0
-6.000 -13.500 -2.000 30.0
-6.000 -12.000 -2.000 30.0
-6.000 -10.500 -2.000 30.0
-6.000 -9.000 -2.000 30.0
-6.000 -7.500 -2.000 30.0
-6.000 -6.000 -2.000 30.0
-6.000 -4.500 -2.000 200.0
-6.000 -3.000 -2.000 30.0
-6.000 -1.500 -2.000 30.0
-6.000 0.000 -2.000 30.0
-6.000 1.500 -2.000 30.0
-6.000 3.000 -2.000 30.0
-6.000 4.500 -2.000 200.0
-6.000 6.000 -2.000 30.0
-6.000 7.500 -2.000 30.0
-6.000 9.000 -2.000 30.0
-6.000 10.500 -2.000 30.0
-6.000 12.000 -2.000 30.0
-6.000 13.500 -2.000 30.0
-4.500 -15.000 -2.000 30.0
-4.500 -13.500 -2.000 30.0
-4.500 -12.000 -2.000 30.0
-4.500 -10.500 -2.000 30.0
-4.500 -9.000 -2.000 30.0
-4.500 -7.500 -2.000 30.0
-4.500 -6.000 -2.000 30.0
-4.500 -4.500 -2.000 200.0
-4.500 -3.000 -2.000 30.0
-4.500 -1.500 -2.000 30.0
-4.500 0.000 -2.000 30.0
-4.500 1.500 -2.000 30.0
-4.500 3.000 -2.000 30.0
-4.500 4.500 -2.000 200.0
-4.500 6.000 -2.000 30.0
-4.500 7.500 -2.000 30.0
-4.500 9.000 -2.000 30.0
-4.500 10.500 -2.000 30.0
-4.500 12.000 -2.000 30.0
-4.500 13.500 -2.000 30.0
-3.000 -15.000 -2.000 30.0
-3.000 -13.500 -2.000 30.0
-3.000 -12.000 -2.000 30.0
-3.000 -10.500 -2.000 30.0
-3.000 -9.000 -2.000 30.0
-3.000 -7.500 -2.000 30.0
-3.000 -6.000 -2.000 30.0
-3.000 -4.500 -2.000 200.0
-3.000 -3.000 -2.000 30.0
-3.000 -1.500 -2.000 30.0
-3.000 0.000 -2.000 30.0
-3.000 1.500 -2.000 30.0
-3.000 3.000 -2.000 30.0
-3.000 4.500 -2.000 200.0
-3.000 6.000 -2.000 30.0
-3.000 7.500 -2.000 30.0
-3.000 9.000 -2.000 30.0
-3.000 10.500 -2.000 30.0
-3.000 12.000 -2.000 30.0
-3.000 13.500 -2.000 30.0
-1.500 -15.000 -2.000 30.0
-1.500 -13.500 -2.000 30.0
-1.500 -12.000 -2.000 30.0
-1.500 -10.500 -2.000 30.0
-1.500 -9.000 -2.000 30.0
-1.500 -7.500 -2.000 30.0
-1.500 -6.000 -2.000 30.0
-1.500 -4.500 -2.000 200.0
-1.500 -3.000 -2.000 30.0
-1.500 -1.500 -2.000 30.0
-1.500 0.000 -2.000 30.0
-1.500 1.500 -2.000 30.0
-1.500 3.000 -2.000 30.0
-1.500 4.500 -2.000 200.0
-1.500 6.000 -2.000 30.0
-1.500 7.500 -2.000 30.0
-1.500 9.000 -2.000 30.0
-1.500 10.500 -2.000 30.0
-1.500 12.000 -2.000 30.0
-1.500 13.500 -2.000 30.0
0.000 -15.000 -2.000 30.0
0.000 -13.500 -2.000 30.0
0.000 -12.000 -2.000 30.0
0.000 -10.500 -2.000 30.0
0.000 -9.000 -2.000 30.0
0.000 -7.500 -2.000 30.0
0.000 -6.000 -2.000 30.0
0.000 -4.500 -2.000 200.0
0.000 -3.000 -2.000 30.0
0.000 -1.500 -2.000 30.0
0.000 0.000 -2.000 30.0
0.000 1.500 -2.000 30.0
0.000 3.000 -2.000 30.0
0.000 4.500 -2.000 200.0
0.000 6.000 -2.000 30.0
0.000 7.500 -2.000 30.0
0.000 9.000 -2.000 30.0
0.000 10.500 -2.000 30.0
0.000 12.000 -2.000 30.0
0.000 13.500 -2.000 30.0
1.500 -15.000 -2.000 30.0
1.500 -13.500 -2.000 30.0
1.500 -12.000 -2.000 30.0
1.500 -10.500 -2.000 30.0
1.500 -9.000 -2.000 30.0
1.500 -7.500 -2.000 30.0
1.500 -6.000 -2.000 30.0
1.500 -4.500 -2.000 200.0
1.500 -3.000 -2.000 30.0
1.500 -1.500 -2.000 30.0
1.500 0.000 -2.000 30.0
1.500 1.500 -2.000 30.0
1.500 3.000 -2.000 30.0
1.500 4.500 -2.000 200.0
1.500 6.000 -2.000 30.0
1.500 7.500 -2.000 30.0
1.500 9.000 -2.000 30.0
1.500 10.500 -2.000 30.0
1.500 12.000 -2.000 30.0
1.500 13.500 -2.000 30.0
3.000 -15.000 -2.000 30.0
3.000 -13.500 -2.000 30.0
3.000 -12.000 -2.000 30.0
3.000 -10.500 -2.000 30.0
3.000 -9.000 -2.000 30.0
3.000 -7.500 -2.000 30.0
3.000 -6.000 -2.000 30.0
3.000 -4.500 -2.000 200.0
3.000 -3.000 -2.000 30.0
3.000 -1.500 -2.000 30.0
3.000 0.000 -2.000 30.0
3.000 1.500 -2.000 30.0
3.000 3.000 -2.000 30.0
3.000 4.500 -2.000 200.0
3.000 6.000 -2.000 30.0
3.000 7.500 -2.000 30.0
3.000 9.000 -2.000 30.0
3.000 10.500 -2.000 30.0
3.000 12.000 -2.000 30.0
3.000 13.500 -2.000 30.0
4.500 -15.000 -2.000 30.0
4.500 -13.500 -2.000 30.0
4.500 -12.000 -2.000 30.0
4.500 -10.500 -2.000 30.0
4.500 -9.000 -2.000 30.0
4.500 -7.500 -2.000 30.0
4.500 -6.000 -2.000 30.0
4.500 -4.500 -2.000 200.0
4.500 -3.000 -2.000 30.0
4.500 -1.500 -2.000 30.0
4.500 0.000 -2.000 30.0
4.500 1.500 -2.000 30.0
4.500 3.000 -2.000 30.0
4.500 4.500 -2.000 200.0
4.500 6.000 -2.000 30.0
4.500 7.500 -2.000 30.0
4.500 9.000 -2.000 30.0
4.500 10.500 -2.000 30.0
4.500 12.000 -2.000 30.0
4.500 13.500 -2.000 30.0
6.000 -15.000 -2.000 30.0
6.000 -13.500 -2.000 30.0
6.000 -12.000 -2.000 30.0
6.000 -10.500 -2.000 30.0
6.000 -9.000 -2.000 30.0
6.000 -7.500 -2.000 30.0
6.000 -6.000 -2.000 30.0
6.000 -4.500 -2.000 200.0
6.000 -3.000 -2.000 30.0
6.000 -1.500 -2.000 30.0
6.000 0.000 -2.000 30.0
6.000 1.500 -2.000 30.0
6.000 3.000 -2.000 30.0
6.000 4.500 -2.000 200.0
6.000 6.000 -2.000 30.0
6.000 7.500 -2.000 30.0
6.000 9.000 -2.000 30.0
6.000 10.500 -2.000 30.0
6.000 12.000 -2.000 30.0
6.000 13.500 -2.000 30.0
7.500 -15.000 -2.000 30.0
7.500 -13.500 -2.000 30.0
7.500 -12.000 -2.000 30.0
7.500 -10.500 -2.000 30.0
7.500 -9.000 -2.000 30.0
7.500 -7.500 -2.000 30.0
7.500 -6.000 -2.000 30.0
7.500 -4.500 -2.000 200.0
7.500 -3.000 -2.000 30.0
7.500 -1.500 -2.000 30.0
7.500 0.000 -2.000 30.0
7.500 1.500 -2.000 30.0
7.500 3.000 -2.000 30.0
7.500 4.500 -2.000 200.0
7.500 6.000 -2.000 30.0
7.500 7.500 -2.000 30.0
7.500 9.000 -2.000 30.0
7.500 10.500 -2.000 30.0
7.500 12.000 -2.000 30.0
7.500 13.500 -2.000 30.0
9.000 -15.000 -2.000 30.0
9.000 -13.500 -2.000 30.0
9.000 -12.000 -2.000 30.0
9.000 -10.500 -2.000 30.0
9.000 -9.000 -2.000 30.0
9.000 -7.500 -2.000 30.0
9.000 -6.000 -2.000 30.0
9.000 -4.500 -2.000 200.0
9.000 -3.000 -2.000 30.0
9.000 -1.500 -2.000 30.0
9.000 0.000 -2.000 30.0
9.000 1.500 -2.000 30.0
9.000 3.000 -2.000 30.0
9.000 4.500 -2.000 200.0
9.000 6.000 -2.000 30.0
9.000 7.500 -2.000 30.0
9.000 9.000 -2.000 30.0
9.000 10.500 -2.000 30.0
9.000 12.000 -2.000 30.0
9.000 13.500 -2.000 30.0
10.500 -15.000 -2.000 30.0
10.500 -13.500 -2.000 30.0
10.500 -12.000 -2.000 30.0
10.500 -10.500 -2.000 30.0
10.500 -9.000 -2.000 30.0
10.500 -7.500 -2.000 30.0
10.500 -6.000 -2.000 30.0
10.500 -4.500 -2.000 200.0
10.500 -3.000 -2.000 30.0
10.500 -1.500 -2.000 30.0
10.500 0.000 -2.000 30.0
10.500 1.500 -2.000 30.0
10.500 3.000 -2.000 30.0
10.500 4.500 -2.000 200.0
10.500 6.000 -2.000 30.0
10.500 7.500 -2.000 30.0
10.500 9.000 -2.000 30.0
10.500 10.500 -2.000 30.0
10.500 12.000 -2.000 30.0
10.500 13.500 -2.000 30.0
12.000 -15.000 -2.000 30.0
12.000 -13.500 -2.000 30.0
12.000 -12.000 -2.000 30.0
12.000 -10.500 -2.000 30.0
12.000 -9.000 -2.000 30.0
12.000 -7.500 -2.000 30.0
12.000 -6.000 -2.000 30.0
12.000 -4.500 -2.000 200.0
12.000 -3.000 -2.000 30.0
12.000 -1.500 -2.000 30.0
12.000 0.000 -2.000 30.0
12.000 1.500 -2.000 30.0
12.000 3.000 -2.000 30.0
12.000 4.500 -2.000 200.0
12.000 6.000 -2.000 30.0
12.000 7.500 -2.000 30.0
12.000 9.000 -2.000 30.0
12.000 10.500 -2.000 30.0
12.000 12.000 -2.000 30.0
12.000 13.500 -2.000 30.0
13.500 -15.000 -2.000 30.0
13.500 -13.500 -2.000 30.0
13.500 -12.000 -2.000 30.0
13.500 -10.500 -2.000 30.0
13.500 -9.000 -2.000 30.0
13.500 -7.500 -2.000 30.0
13.500 -6.000 -2.000 30.0
13.500 -4.500 -2.000 200.0
13.500 -3.000 -2.000 30.0
13.500 -1.500 -2.000 30.0
13.500 0.000 -2.000 30.0
13.500 1.500 -2.000 30.0
13.500 3.000 -2.000 30.0
13.500 4.500 -2.000 200.0
13.500 6.000 -2.000 30.0
13.500 7.500 -2.000 30.0
13.500 9.000 -2.000 30.0
13.500 10.500 -2.000 30.0
13.500 12.000 -2.000 30.0
13.500 13.500 -2.000 30.0
15.000 -15.000 -2.000 30.0
15.000 -13.500 -2.000 30.0
15.000 -12.000 -2.000 30.0
15.000 -10.500 -2.000 30.0
15.000 -9.000 -2.000 30.0
15.000 -7.500 -2.000 30.0
15.000 -6.000 -2.000 30.0
15.000 -4.500 -2.000 200.0
15.000 -3.000 -2.000 30.0
15.000 -1.500 -2.000 30.0
15.000 0.000 -2.000 30.0
15.000 1.500 -2.000 30.0
15.000 3.000 -2.000 30.0
15.000 4.500 -2.000 200.0
15.000 6.000 -2.000 30.0
15.000 7.500 -2.000 30.0
15.000 9.000 -2.000 30.0
15.000 10.500 -2.000 30.0
15.000 12.000 -2.000 30.0
15.000 13.500 -2.000 30.0
16.500 -15.000 -2.000 30.0
16.500 -13.500 -2.000 30.0
16.500 -12.000 -2.000 30.0
16.500 -10.500 -2.000 30.0
16.500 -9.000 -2.000 30.0
16.500 -7.500 -2.000 30.0
16.500 -6.000 -2.000 30.0
16.500 -4.500 -2.000 200.0
16.500 -3.000 -2.000 30.0
16.500 -1.500 -2.000 30.0
16.500 0.000 -2.000 30.0
16.500 1.500 -2.000 30.0
16.500 3.000 -2.000 30.0
16.500 4.500 -2.000 200.0
16.500 6.000 -2.000 30.0
16.500 7.500 -2.000 30.0
16.500 9.000 -2.000 30.0
16.500 10.500 -2.000 30.0
16.500 12.000 -2.000 30.0
16.500 13.500 -2.000 30.0
18.000 -15.000 -2.000 30.0
18.000 -13.500 -2.000 30.0
18.000 -12.000 -2.000 30.0
18.000 -10.500 -2.000 30.0
18.000 -9.000 -2.000 30.0
18.000 -7.500 -2.000 30.0
18.000 -6.000 -2.000 30.0
18.000 -4.500 -2.000 200.0
18.000 -3.000 -2.000 30.0
18.000 -1.500 -2.000 30.0
18.000 0.000 -2.000 30.0
18.000 1.500 -2.000 30.0
18.000 3.000 -2.000 30.0
18.000 4.500 -2.000 200.0
18.000 6.000 -2.000 30.0
18.000 7.500 -2.000 30.0
18.000 9.000 -2.000 30.0
18.000 10.500 -2.000 30.0
18.000 12.000 -2.000 30.0
18.000 13.500 -2.000 30.0
19.500 -15.000 -2.000 30.0
19.500 -13.500 -2.000 30.0
19.500 -12.000 -2.000 30.0
19.500 -10.500 -2.000 30.0
19.500 -9.000 -2.000 30.0
19.500 -7.500 -2.000 30.0
19.500 -6.000 -2.000 30.0
19.500 -4.500 -2.000 200.0
19.500 -3.000 -2.000 30.0
19.500 -1.500 -2.000 30.0
19.500 0.000 -2.000 30.0
19.500 1.500 -2.000 30.0
19.500 3.000 -2.000 30.0
19.500 4.500 -2.000 200.0
19.500 6.000 -2.000 30.0
19.500 7.500 -2.000 30.0
19.500 9.000 -2.000 30.0
19.500 10.500 -2.000 30.0
19.500 12.000 -2.000 30.0
19.500 13.500 -2.000 30.0
21.000 -15.000 -2.000 30.0
21.000 -13.500 -2.000 30.0
21.000 -12.000 -2.000 30.0
21.000 -10.500 -2.000 30.0
21.000 -9.000 -2.000 30.0
21.000 -7.500 -2.000 30.0
21.000 -6.000 -2.000 30.0
21.000 -4.500 -2.000 200.0
21.000 -3.000 -2.000 30.0
21.000 -1.500 -2.000 30.0
21.000 0.000 -2.000 30.0
21.000 1.500 -2.000 30.0
21.000 3.000 -2.000 30.0
21.000 4.500 -2.000 200.0
21.000 6.000 -2.000 30.0
21.000 7.500 -2.000 30.0
21.000 9.000 -2.000 30.0
21.000 10.500 -2.000 30.0
21.000 12.000 -2.000 30.0
21.000 13.500 -2.000 30.0
22.500 -15.000 -2.000 30.0
22.500 -13.500 -2.000 30.0
22.500 -12.000 -2.000 30.0
22.500 -10.500 -2.000 30.0
22.500 -9.000 -2.000 30.0
22.500 -7.500 -2.000 30.0
22.500 -6.000 -2.000 30.0
22.500 -4.500 -2.000 200.0
22.500 -3.000 -2.000 30.0
22.500 -1.500 -2.000 30.0
22.500 0.000 -2.000 30.0
22.500 1.500 -2.000 30.0
22.500 3.000 -2.000 30.0
22.500 4.500 -2.000 200.0
22.500 6.000 -2.000 30.0
22.500 7.500 -2.000 30.0
22.500 9.000 -2.000 30.0
22.500 10.500 -2.000 30.0
22.500 12.000 -2.000 30.0
22.500 13.500 -2.000 30.0
24.000 -15.000 -2.000 30.0
24.000 -13.500 -2.000 30.0
24.000 -12.000 -2.000 30.0
24.000 -10.500 -2.000 30.0
24.000 -9.000 -2.000 30.0
24.000 -7.500 -2.000 30.0
24.000 -6.000 -2.000 30.0
24.000 -4.500 -2.000 200.0
24.000 -3.000 -2.000 30.0
24.000 -1.500 -2.000 30.0
24.000 0.000 -2.000 30.0
24.000 1.500 -2.000 30.0
24.000 3.000 -2.000 30.0
24.000 4.500 -2.000 200.0
24.000 6.000 -2.000 30.0
24.000 7.500 -2.000 30.0
24.000 9.000 -2.000 30.0
24.000 10.500 -2.000 30.0
24.000 12.000 -2.000 30.0
24.000 13.500 -2.000 30.0
25.500 -15.000 -2.000 30.0
25.500 -13.500 -2.000 30.0
25.500 -12.000 -2.000 30.0
25.500 -10.500 -2.000 30.0
25.500 -9.000 -2.000 30.0
25.500 -7.500 -2.000 30.0
25.500 -6.000 -2.000 30.0
25.500 -4.500 -2.000 200.0
25.500 -3.000 -2.000 30.0
25.500 -1.500 -2.000 30.0
25.500 0.000 -2.000 30.0
25.500 1.500 -2.000 30.0
25.500 3.000 -2.000 30.0
25.500 4.500 -2.000 200.0
25.500 6.000 -2.000 30.0
25.500 7.500 -2.000 30.0
25.500 9.000 -2.000 30.0
25.500 10.500 -2.000 30.0
25.500 12.000 -2.000 30.0
25.500 13.500 -2.000 30.0
27.000 -15.000 -2.000 30.0
27.000 -13.500 -2.000 30.0
27.000 -12.000 -2.000 30.0
27.000 -10.500 -2.000 30.0
27.000 -9.000 -2.000 30.0
27.000 -7.500 -2.000 30.0
27.000 -6.000 -2.000 30.0
27.000 -4.500 -2.000 200.0
27.000 -3.000 -2.000 30.0
27.000 -1.500 -2.000 30.0
27.000 0.000 -2.000 30.0
27.000 1.500 -2.000 30.0
27.000 3.000 -2.000 30.0
27.000 4.500 -2.000 200.0
27.000 6.000 -2.000 30.0
27.000 7.500 -2.000 30.0
27.000 9.000 -2.000 30.0
27.000 10.500 -2.000 30.0
27.000 12.000 -2.000 30.0
27.000 13.500 -2.000 30.0
28.500 -15.000 -2.000 30.0
28.500 -13.500 -2.000 30.0
28.500 -12.000 -2.000 30.0
28.500 -10.500 -2.000 30.0
28.500 -9.000 -2.000 30.0
28.500 -7.500 -2.000 30.0
28.500 -6.000 -2.000 30.0
28.500 -4.500 -2.000 200.0
28.500 -3.000 -2.000 30.0
28.500 -1.500 -2.000 30.0
28.500 0.000 -2.000 30.0
28.500 1.500 -2.000 30.0
28.500 3.000 -2.000 30.0
28.500 4.500 -2.000 200.0
28.500 6.000 -2.000 30.0
28.500 7.500 -2.000 30.0
28.500 9.000 -2.000 30.0
28.500 10.500 -2.000 30.0
28.500 12.000 -2.000 30.0
28.500 13.500 -2.000 30.0
9.600 3.800 -2.000 120.0
9.600 3.800 -1.500 120.0
9.600 3.800 -1.000 120.0
9.600 3.800 -0.500 120.0
9.600 4.400 -2.000 120.0
9.600 4.400 -1.500 120.0
9.600 4.400 -1.000 120.0
9.600 4.400 -0.500 120.0
9.600 5.000 -2.000 120.0
9.600 5.000 -1.500 120.0
9.600 5.000 -1.000 120.0
9.600 5.000 -0.500 120.0
9.600 5.600 -2.000 120.0
9.600 5.600 -1.500 120.0
9.600 5.600 -1.000 120.0
9.600 5.600 -0.500 120.0
9.600 6.200 -2.000 120.0
9.600 6.200 -1.500 120.0
9.600 6.200 -1.000 120.0
9.600 6.200 -0.500 120.0
10.200 3.800 -2.000 120.0
10.200 3.800 -1.500 120.0
10.200 3.800 -1.000 120.0
10.200 3.800 -0.500 120.0
10.200 4.400 -2.000 120.0
10.200 4.400 -1.500 120.0
10.200 4.400 -1.000 120.0
10.200 4.400 -0.500 120.0
10.200 5.000 -2.000 120.0
10.200 5.000 -1.500 120.0
10.200 5.000 -1.000 120.0
10.200 5.000 -0.500 120.0
10.200 5.600 -2.000 120.0
10.200 5.600 -1.500 120.0
10.200 5.600 -1.000 120.0
10.200 5.600 -0.500 120.0
10.200 6.200 -2.000 120.0
10.200 6.200 -1.500 120.0
10.200 6.200 -1.000 120.0
10.200 6.200 -0.500 120.0
10.800 3.800 -2.000 120.0
10.800 3.800 -1.500 120.0
10.800 3.800 -1.000 120.0
10.800 3.800 -0.500 120.0
10.800 4.400 -2.000 120.0
10.800 4.400 -1.500 120.0
10.800 4.400 -1.000 120.0
10.800 4.400 -0.500 120.0
10.800 5.000 -2.000 120.0
10.800 5.000 -1.500 120.0
10.800 5.000 -1.000 120.0
10.800 5.000 -0.500 120.0
10.800 5.600 -2.000 120.0
10.800 5.600 -1.500 120.0
10.800 5.600 -1.000 120.0
10.800 5.600 -0.500 120.0
10.800 6.200 -2.000 120.0
10.800 6.200 -1.500 120.0
10.800 6.200 -1.000 120.0
10.800 6.200 -0.500 120.0
11.400 3.800 -2.000 120.0
11.400 3.800 -1.500 120.0
11.400 3.800 -1.000 120.0
11.400 3.800 -0.500 120.0
11.400 4.400 -2.000 120.0
11.400 4.400 -1.500 120.0
11.400 4.400 -1.000 120.0
11.400 4.400 -0.500 120.0
11.400 5.000 -2.000 120.0
11.400 5.000 -1.500 120.0
11.400 5.000 -1.000 120.0
11.400 5.000 -0.500 120.0
11.400 5.600 -2.000 120.0
11.400 5.600 -1.500 120.0
11.400 5.600 -1.000 120.0
11.400 5.600 -0.500 120.0
11.400 6.200 -2.000 120.0
11.400 6.200 -1.500 120.0
11.400 6.200 -1.000 120.0
11.400 6.200 -0.500 120.0
12.000 3.800 -2.000 120.0
12.000 3.800 -1.500 120.0
12.000 3.800 -1.000 120.0
12.000 3.800 -0.500 120.0
12.000 4.400 -2.000 120.0
12.000 4.400 -1.500 120.0
12.000 4.400 -1.000 120.0
12.000 4.400 -0.500 120.0
12.000 5.000 -2.000 120.0
12.000 5.000 -1.500 120.0
12.000 5.000 -1.000 120.0
12.000 5.000 -0.500 120.0
12.000 5.600 -2.000 120.0
12.000 5.600 -1.500 120.0
12.000 5.600 -1.000 120.0
12.000 5.600 -0.500 120.0
12.000 6.200 -2.000 120.0
12.000 6.200 -1.500 120.0
12.000 6.200 -1.000 120.0
12.000 6.200 -0.500 120.0
12.600 3.800 -2.000 120.0
12.600 3.800 -1.500 120.0
12.600 3.800 -1.000 120.0
12.600 3.800 -0.500 120.0
12.600 4.400 -2.000 120.0
12.600 4.400 -1.500 120.0
12.600 4.400 -1.000 120.0
12.600 4.400 -0.500 120.0
12.600 5.000 -2.000 120.0
12.600 5.000 -1.500 120.0
12.600 5.000 -1.000 120.0
12.600 5.000 -0.500 120.0
12.600 5.600 -2.000 120.0
12.600 5.600 -1.500 120.0
12.600 5.600 -1.000 120.0
12.600 5.600 -0.500 120.0
12.600 6.200 -2.000 120.0
12.600 6.200 -1.500 120.0
12.600 6.200 -1.000 120.0
12.600 6.200 -0.500 120.0
13.200 3.800 -2.000 120.0
13.200 3.800 -1.500 120.0
13.200 3.800 -1.000 120.0
13.200 3.800 -0.500 120.0
13.200 4.400 -2.000 120.0
13.200 4.400 -1.500 120.0
13.200 4.400 -1.000 120.0
13.200 4.400 -0.500 120.0
13.200 5.000 -2.000 120.0
13.200 5.000 -1.500 120.0
13.200 5.000 -1.000 120.0
13.200 5.000 -0.500 120.0
13.200 5.600 -2.000 120.0
13.200 5.600 -1.500 120.0
13.200 5.600 -1.000 120.0
13.200 5.600 -0.500 120.0
13.200 6.200 -2.000 120.0
13.200 6.200 -1.500 120.0
13.200 6.200 -1.000 120.0
13.200 6.200 -0.500 120.0
13.800 3.800 -2.000 120.0
13.800 3.800 -1.500 120.0
13.800 3.800 -1.000 120.0
13.800 3.800 -0.500 120.0
13.800 4.400 -2.000 120.0
13.800 4.400 -1.500 120.0
13.800 4.400 -1.000 120.0
13.800 4.400 -0.500 120.0
13.800 5.000 -2.000 120.0
13.800 5.000 -1.500 120.0
13.800 5.000 -1.000 120.0
13.800 5.000 -0.500 120.0
13.800 5.600 -2.000 120.0
13.800 5.600 -1.500 120.0
13.800 5.600 -1.000 120.0
13.800 5.600 -0.500 120.0
13.800 6.200 -2.000 120.0
13.800 6.200 -1.500 120.0
13.800 6.200 -1.000 120.0
13.800 6.200 -0.500 120.0
14.400 3.800 -2.000 120.0
14.400 3.800 -1.500 120.0
14.400 3.800 -1.000 120.0
14.400 3.800 -0.500 120.0
14.400 4.400 -2.000 120.0
14.400 4.400 -1.500 120.0
14.400 4.400 -1.000 120.0
14.400 4.400 -0.500 120.0
14.400 5.000 -2.000 120.0
14.400 5.000 -1.500 120.0
14.400 5.000 -1.000 120.0
14.400 5.000 -0.500 120.0
14.400 5.600 -2.000 120.0
14.400 5.600 -1.500 120.0
14.400 5.600 -1.000 120.0
14.400 5.600 -0.500 120.0
14.400 6.200 -2.000 120.0
14.400 6.200 -1.500 120.0
14.400 6.200 -1.000 120.0
14.400 6.200 -0.500 120.0
-12.400 -7.200 -2.000 120.0
-12.400 -7.200 -1.500 120.0
-12.400 -7.200 -1.000 120.0
-12.400 -7.200 -0.500 120.0
-12.400 -6.600 -2.000 120.0
-12.400 -6.600 -1.500 120.0
-12.400 -6.600 -1.000 120.0
-12.400 -6.600 -0.500 120.0
-12.400 -6.000 -2.000 120.0
-12.400 -6.000 -1.500 120.0
-12.400 -6.000 -1.000 120.0
-12.400 -6.000 -0.500 120.0
-12.400 -5.400 -2.000 120.0
-12.400 -5.400 -1.500 120.0
-12.400 -5.400 -1.000 120.0
-12.400 -5.400 -0.500 120.0
-12.400 -4.800 -2.000 120.0
-12.400 -4.800 -1.500 120.0
-12.400 -4.800 -1.000 120.0
-12.400 -4.800 -0.500 120.0
-11.800 -7.200 -2.000 120.0
-11.800 -7.200 -1.500 120.0
-11.800 -7.200 -1.000 120.0
-11.800 -7.200 -0.500 120.0
-11.800 -6.600 -2.000 120.0
-11.800 -6.600 -1.500 120.0
-11.800 -6.600 -1.000 120.0
-11.800 -6.600 -0.500 120.0
-11.800 -6.000 -2.000 120.0
-11.800 -6.000 -1.500 120.0
-11.800 -6.000 -1.000 120.0
-11.800 -6.000 -0.500 120.0
-11.800 -5.400 -2.000 120.0
-11.800 -5.400 -1.500 120.0
-11.800 -5.400 -1.000 120.0
-11.800 -5.400 -0.500 120.0
-11.800 -4.800 -2.000 120.0
-11.800 -4.800 -1.500 120.0
-11.800 -4.800 -1.000 120.0
-11.800 -4.800 -0.500 120.0
-11.200 -7.200 -2.000 120.0
-11.200 -7.200 -1.500 120.0
-11.200 -7.200 -1.000 120.0
-11.200 -7.200 -0.500 120.0
-11.200 -6.600 -2.000 120.0
-11.200 -6.600 -1.500 120.0
-11.200 -6.600 -1.000 120.0
-11.200 -6.600 -0.500 120.0
-11.200 -6.000 -2.000 120.0
-11.200 -6.000 -1.500 120.0
-11.200 -6.000 -1.000 120.0
-11.200 -6.000 -0.500 120.0
-11.200 -5.400 -2.000 120.0
-11.200 -5.400 -1.500 120.0
-11.200 -5.400 -1.000 120.0
-11.200 -5.400 -0.500 120.0
-11.200 -4.800 -2.000 120.0
-11.200 -4.800 -1.500 120.0
-11.200 -4.800 -1.000 120.0
-11.200 -4.800 -0.500 120.0
-10.600 -7.200 -2.000 120.0
-10.600 -7.200 -1.500 120.0
-10.600 -7.200 -1.000 120.0
-10.600 -7.200 -0.500 120.0
-10.600 -6.600 -2.000 120.0
-10.600 -6.600 -1.500 120.0
-10.600 -6.600 -1.000 120.0
-10.600 -6.600 -0.500 120.0
-10.600 -6.000 -2.000 120.0
-10.600 -6.000 -1.500 120.0
-10.600 -6.000 -1.000 120.0
-10.600 -6.000 -0.500 120.0
-10.600 -5.400 -2.000 120.0
-10.600 -5.400 -1.500 120.0
-10.600 -5.400 -1.000 120.0
-10.600 -5.400 -0.500 120.0
-10.600 -4.800 -2.000 120.0
-10.600 -4.800 -1.500 120.0
-10.600 -4.800 -1.000 120.0
-10.600 -4.800 -0.500 120.0
-10.000 -7.200 -2.000 120.0
-10.000 -7.200 -1.500 120.0
-10.000 -7.200 -1.000 120.0
-10.000 -7.200 -0.500 120.0
-10.000 -6.600 -2.000 120.0
-10.000 -6.600 -1.500 120.0
-10.000 -6.600 -1.000 120.0
-10.000 -6.600 -0.500 120.0
-10.000 -6.000 -2.000 120.0
-10.000 -6.000 -1.500 120.0
-10.000 -6.000 -1.000 120.0
-10.000 -6.000 -0.500 120.0
-10.000 -5.400 -2.000 120.0
-10.000 -5.400 -1.500 120.0
-10.000 -5.400 -1.000 120.0
-10.000 -5.400 -0.500 120.0
-10.000 -4.800 -2.000 120.0
-10.000 -4.800 -1.500 120.0
-10.000 -4.800 -1.000 120.0
-10.000 -4.800 -0.500 120.0
-9.400 -7.200 -2.000 120.0
-9.400 -7.200 -1.500 120.0
-9.400 -7.200 -1.000 120.0
-9.400 -7.200 -0.500 120.0
-9.400 -6.600 -2.000 120.0
-9.400 -6.600 -1.500 120.0
-9.400 -6.600 -1.000 120.0
-9.400 -6.600 -0.500 120.0
-9.400 -6.000 -2.000 120.0
-9.400 -6.000 -1.500 120.0
-9.400 -6.000 -1.000 120.0
-9.400 -6.000 -0.500 120.0
-9.400 -5.400 -2.000 120.0
-9.400 -5.400 -1.500 120.0
-9.400 -5.400 -1.000 120.0
-9.400 -5.400 -0.500 120.0
-9.400 -4.800 -2.000 120.0
-9.400 -4.800 -1.500 120.0
-9.400 -4.800 -1.000 120.0
-9.400 -4.800 -0.500 120.0
-8.800 -7.200 -2.000 120.0
-8.800 -7.200 -1.500 120.0
-8.800 -7.200 -1.000 120.0
-8.800 -7.200 -0.500 120.0
-8.800 -6.600 -2.000 120.0
-8.800 -6.600 -1.500 120.0
-8.800 -6.600 -1.000 120.0
-8.800 -6.600 -0.500 120.0
-8.800 -6.000 -2.000 120.0
-8.800 -6.000 -1.500 120.0
-8.800 -6.000 -1.000 120.0
-8.800 -6.000 -0.500 120.0
-8.800 -5.400 -2.000 120.0
-8.800 -5.400 -1.500 120.0
-8.800 -5.400 -1.000 120.0
-8.800 -5.400 -0.500 120.0
-8.800 -4.800 -2.000 120.0
-8.800 -4.800 -1.500 120.0
-8.800 -4.800 -1.000 120.0
-8.800 -4.800 -0.500 120.0
-8.200 -7.200 -2.000 120.0
-8.200 -7.200 -1.500 120.0
-8.200 -7.200 -1.000 120.0
-8.200 -7.200 -0.500 120.0
-8.200 -6.600 -2.000 120.0
-8.200 -6.600 -1.500 120.0
-8.200 -6.600 -1.000 120.0
-8.200 -6.600 -0.500 120.0
-8.200 -6.000 -2.000 120.0
-8.200 -6.000 -1.500 120.0
-8.200 -6.000 -1.000 120.0
-8.200 -6.000 -0.500 120.0
-8.200 -5.400 -2.000 120.0
-8.200 -5.400 -1.500 120.0
-8.200 -5.400 -1.000 120.0
-8.200 -5.400 -0.500 120.0
-8.200 -4.800 -2.000 120.0
-8.200 -4.800 -1.500 120.0
-8.200 -4.800 -1.000 120.0
-8.200 -4.800 -0.500 120.0
-7.600 -7.200 -2.000 120.0
-7.600 -7.200 -1.500 120.0
-7.600 -7.200 -1.000 120.0
-7.600 -7.200 -0.500 120.0
-7.600 -6.600 -2.000 120.0
-7.600 -6.600 -1.500 120.0
-7.600 -6.600 -1.000 120.0
-7.600 -6.600 -0.500 120.0
-7.600 -6.000 -2.000 120.0
-7.600 -6.000 -1.500 120.0
-7.600 -6.000 -1.000 120.0
-7.600 -6.000 -0.500 120.0
-7.600 -5.400 -2.000 120.0
-7.600 -5.400 -1.500 120.0
-7.600 -5.400 -1.000 120.0
-7.600 -5.400 -0.500 120.0
-7.600 -4.800 -2.000 120.0
-7.600 -4.800 -1.500 120.0
-7.600 -4.800 -1.000 120.0
-7.600 -4.800 -0.500 120.0
0.000 8.000 -2.000 80.0
0.000 8.000 -1.500 80.0
0.000 8.000 -1.000 80.0
0.000 8.000 -0.500 80.0
0.000 8.000 0.000 80.0
0.000 8.000 0.500 80.0
0.000 8.000 1.000 80.0
0.000 8.000 1.500 80.0
0.000 8.000 2.000 80.0
1.200 8.000 2.000 95.0
0.849 8.849 2.000 95.0
0.000 9.200 2.000 95.0
-0.849 8.849 2.000 95.0
-1.200 8.000 2.000 95.0
-0.849 7.151 2.000 95.0
-0.000 6.800 2.000 95.0
0.849 7.151 2.000 95.0
0.000 8.000 2.500 80.0
1.200 8.000 2.500 95.0
0.849 8.849 2.500 95.0
0.000 9.200 2.500 95.0
-0.849 8.849 2.500 95.0
-1.200 8.000 2.500 95.0
-0.849 7.151 2.500 95.0
-0.000 6.800 2.500 95.0
0.849 7.151 2.500 95.0
0.000 8.000 3.000 80.0
1.200 8.000 3.000 95.0
0.849 8.849 3.000 95.0
0.000 9.200 3.000 95.0
-0.849 8.849 3.000 95.0
-1.200 8.000 3.000 95.0
-0.849 7.151 3.000 95.0
-0.000 6.800 3.000 95.0
0.849 7.151 3.000 95.0
0.000 8.000 3.500 80.0
1.200 8.000 3.500 95.0
0.849 8.849 3.500 95.0
0.000 9.200 3.500 95.0
-0.849 8.849 3.500 95.0
-1.200 8.000 3.500 95.0
-0.849 7.151 3.500 95.0
-0.000 6.800 3.500 95.0
0.849 7.151 3.500 95.0
15.000 8.000 -2.000 80.0
15.000 8.000 -1.500 80.0
15.000 8.000 -1.000 80.0
15.000 8.000 -0.500 80.0
15.000 8.000 0.000 80.0
15.000 8.000 0.500 80.0
15.000 8.000 1.000 80.0
15.000 8.000 1.500 80.0
15.000 8.000 2.000 80.0
16.200 8.000 2.000 95.0
15.849 8.849 2.000 95.0
15.000 9.200 2.000 95.0
14.151 8.849 2.000 95.0
13.800 8.000 2.000 95.0
14.151 7.151 2.000 95.0
15.000 6.800 2.000 95.0
15.849 7.151 2.000 95.0
15.000 8.000 2.500 80.0
16.200 8.000 2.500 95.0
15.849 8.849 2.500 95.0
15.000 9.200 2.500 95.0
14.151 8.849 2.500 95.0
13.800 8.000 2.500 95.0
14.151 7.151 2.500 95.0
15.000 6.800 2.500 95.0
15.849 7.151 2.500 95.0
15.000 8.000 3.000 80.0
16.200 8.000 3.000 95.0
15.849 8.849 3.000 95.0
15.000 9.200 3.000 95.0
14.151 8.849 3.000 95.0
13.800 8.000 3.000 95.0
14.151 7.151 3.000 95.0
15.000 6.800 3.000 95.0
15.849 7.151 3.000 95.0
15.000 8.000 3.500 80.0
16.200 8.000 3.500 95.0
15.849 8.849 3.500 95.0
15.000 9.200 3.500 95.0
14.151 8.849 3.500 95.0
13.800 8.000 3.500 95.0
14.151 7.151 3.500 95.0
15.000 6.800 3.500 95.0
15.849 7.151 3.500 95.0
-15.000 8.000 -2.000 80.0
-15.000 8.000 -1.500 80.0
-15.000 8.000 -1.000 80.0
-15.000 8.000 -0.500 80.0
-15.000 8.000 0.000 80.0
-15.000 8.000 0.500 80.0
-15.000 8.000 1.000 80.0
-15.000 8.000 1.500 80.0
-15.000 8.000 2.000 80.0
-13.800 8.000 2.000 95.0
-14.151 8.849 2.000 95.0
-15.000 9.200 2.000 95.0
-15.849 8.849 2.000 95.0
-16.200 8.000 2.000 95.0
-15.849 7.151 2.000 95.0
-15.000 6.800 2.000 95.0
-14.151 7.151 2.000 95.0
-15.000 8.000 2.500 80.0
-13.800 8.000 2.500 95.0
-14.151 8.849 2.500 95.0
-15.000 9.200 2.500 95.0
-15.849 8.849 2.500 95.0
-16.200 8.000 2.500 95.0
-15.849 7.151 2.500 95.0
-15.000 6.800 2.500 95.0
-14.151 7.151 2.500 95.0
-15.000 8.000 3.000 80.0
-13.800 8.000 3.000 95.0
-14.151 8.849 3.000 95.0
-15.000 9.200 3.000 95.0
-15.849 8.849 3.000 95.0
-16.200 8.000 3.000 95.0
-15.849 7.151 3.000 95.0
-15.000 6.800 3.000 95.0
-14.151 7.151 3.000 95.0
-15.000 8.000 3.500 80.0
-13.800 8.000 3.500 95.0
-14.151 8.849 3.500 95.0
-15.000 9.200 3.500 95.0
-15.849 8.849 3.500 95.0
-16.200 8.000 3.500 95.0
-15.849 7.151 3.500 95.0
-15.000 6.800 3.500 95.0
-14.151 7.151 3.500 95.0
