ISO-10303-21;
HEADER;
FILE_DESCRIPTION(('FreeCAD Model'),'2;1');
FILE_NAME('Open CASCADE Shape Model','2026-10-06T10:27:52',('FreeCAD'),(
    'FreeCAD'),'Open CASCADE STEP processor 7.8','FreeCAD','Unknown');
FILE_SCHEMA(('AUTOMOTIVE_DESIGN { 1 0 10303 214 1 1 1 1 }'));
ENDSEC;
DATA;
#1 = APPLICATION_PROTOCOL_DEFINITION('international standard',
  'automotive_design',2000,#2);
#2 = APPLICATION_CONTEXT(
  'core data for automotive mechanical design processes');
#3 = SHAPE_DEFINITION_REPRESENTATION(#4,#10);
#4 = PRODUCT_DEFINITION_SHAPE('','',#5);
#5 = PRODUCT_DEFINITION('design','',#6,#9);
#6 = PRODUCT_DEFINITION_FORMATION('','',#7);
#7 = PRODUCT('Open CASCADE STEP translator 7.8 2',
  'Open CASCADE STEP translator 7.8 2','',(#8));
#8 = PRODUCT_CONTEXT('',#2,'mechanical');
#9 = PRODUCT_DEFINITION_CONTEXT('part definition',#2,'design');
#10 = ADVANCED_BREP_SHAPE_REPRESENTATION('',(#11,#15),#644);
#11 = AXIS2_PLACEMENT_3D('',#12,#13,#14);
#12 = CARTESIAN_POINT('',(0.,0.,0.));
#13 = DIRECTION('',(0.,0.,1.));
#14 = DIRECTION('',(1.,0.,-0.));
#15 = MANIFOLD_SOLID_BREP('',#16);
#16 = CLOSED_SHELL('',(#17,#68,#99,#189,#257,#274,#527,#542,#559,#576,
    #593,#610,#627));
#17 = ADVANCED_FACE('',(#18,#52),#63,.F.);
#18 = FACE_BOUND('',#19,.F.);
#19 = EDGE_LOOP('',(#20,#30,#38,#46));
#20 = ORIENTED_EDGE('',*,*,#21,.F.);
#21 = EDGE_CURVE('',#22,#24,#26,.T.);
#22 = VERTEX_POINT('',#23);
#23 = CARTESIAN_POINT('',(0.,0.,0.));
#24 = VERTEX_POINT('',#25);
#25 = CARTESIAN_POINT('',(0.,0.,35.));
#26 = LINE('',#27,#28);
#27 = CARTESIAN_POINT('',(0.,0.,0.));
#28 = VECTOR('',#29,1.);
#29 = DIRECTION('',(0.,0.,1.));
#30 = ORIENTED_EDGE('',*,*,#31,.T.);
#31 = EDGE_CURVE('',#22,#32,#34,.T.);
#32 = VERTEX_POINT('',#33);
#33 = CARTESIAN_POINT('',(0.,50.,0.));
#34 = LINE('',#35,#36);
#35 = CARTESIAN_POINT('',(0.,0.,0.));
#36 = VECTOR('',#37,1.);
#37 = DIRECTION('',(-0.,1.,0.));
#38 = ORIENTED_EDGE('',*,*,#39,.T.);
#39 = EDGE_CURVE('',#32,#40,#42,.T.);
#40 = VERTEX_POINT('',#41);
#41 = CARTESIAN_POINT('',(0.,50.,35.));
#42 = LINE('',#43,#44);
#43 = CARTESIAN_POINT('',(0.,50.,0.));
#44 = VECTOR('',#45,1.);
#45 = DIRECTION('',(0.,0.,1.));
#46 = ORIENTED_EDGE('',*,*,#47,.F.);
#47 = EDGE_CURVE('',#24,#40,#48,.T.);
#48 = LINE('',#49,#50);
#49 = CARTESIAN_POINT('',(0.,0.,35.));
#50 = VECTOR('',#51,1.);
#51 = DIRECTION('',(-0.,1.,0.));
#52 = FACE_BOUND('',#53,.F.);
#53 = EDGE_LOOP('',(#54));
#54 = ORIENTED_EDGE('',*,*,#55,.F.);
#55 = EDGE_CURVE('',#56,#56,#58,.T.);
#56 = VERTEX_POINT('',#57);
#57 = CARTESIAN_POINT('',(0.,25.,5.5));
#58 = CIRCLE('',#59,12.);
#59 = AXIS2_PLACEMENT_3D('',#60,#61,#62);
#60 = CARTESIAN_POINT('',(0.,25.,17.5));
#61 = DIRECTION('',(1.,0.,1.110223024625E-16));
#62 = DIRECTION('',(1.110223024625E-16,0.,-1.));
#63 = PLANE('',#64);
#64 = AXIS2_PLACEMENT_3D('',#65,#66,#67);
#65 = CARTESIAN_POINT('',(0.,0.,0.));
#66 = DIRECTION('',(1.,0.,-0.));
#67 = DIRECTION('',(0.,0.,1.));
#68 = ADVANCED_FACE('',(#69),#94,.F.);
#69 = FACE_BOUND('',#70,.F.);
#70 = EDGE_LOOP('',(#71,#79,#80,#88));
#71 = ORIENTED_EDGE('',*,*,#72,.F.);
#72 = EDGE_CURVE('',#22,#73,#75,.T.);
#73 = VERTEX_POINT('',#74);
#74 = CARTESIAN_POINT('',(60.,0.,0.));
#75 = LINE('',#76,#77);
#76 = CARTESIAN_POINT('',(0.,0.,0.));
#77 = VECTOR('',#78,1.);
#78 = DIRECTION('',(1.,0.,-0.));
#79 = ORIENTED_EDGE('',*,*,#21,.T.);
#80 = ORIENTED_EDGE('',*,*,#81,.T.);
#81 = EDGE_CURVE('',#24,#82,#84,.T.);
#82 = VERTEX_POINT('',#83);
#83 = CARTESIAN_POINT('',(60.,0.,35.));
#84 = LINE('',#85,#86);
#85 = CARTESIAN_POINT('',(0.,0.,35.));
#86 = VECTOR('',#87,1.);
#87 = DIRECTION('',(1.,0.,-0.));
#88 = ORIENTED_EDGE('',*,*,#89,.F.);
#89 = EDGE_CURVE('',#73,#82,#90,.T.);
#90 = LINE('',#91,#92);
#91 = CARTESIAN_POINT('',(60.,0.,0.));
#92 = VECTOR('',#93,1.);
#93 = DIRECTION('',(0.,0.,1.));
#94 = PLANE('',#95);
#95 = AXIS2_PLACEMENT_3D('',#96,#97,#98);
#96 = CARTESIAN_POINT('',(0.,0.,0.));
#97 = DIRECTION('',(-0.,1.,0.));
#98 = DIRECTION('',(0.,0.,1.));
#99 = ADVANCED_FACE('',(#100,#118,#129,#140,#151,#162,#173),#184,.T.);
#100 = FACE_BOUND('',#101,.T.);
#101 = EDGE_LOOP('',(#102,#103,#104,#112));
#102 = ORIENTED_EDGE('',*,*,#47,.F.);
#103 = ORIENTED_EDGE('',*,*,#81,.T.);
#104 = ORIENTED_EDGE('',*,*,#105,.T.);
#105 = EDGE_CURVE('',#82,#106,#108,.T.);
#106 = VERTEX_POINT('',#107);
#107 = CARTESIAN_POINT('',(60.,50.,35.));
#108 = LINE('',#109,#110);
#109 = CARTESIAN_POINT('',(60.,0.,35.));
#110 = VECTOR('',#111,1.);
#111 = DIRECTION('',(-0.,1.,0.));
#112 = ORIENTED_EDGE('',*,*,#113,.F.);
#113 = EDGE_CURVE('',#40,#106,#114,.T.);
#114 = LINE('',#115,#116);
#115 = CARTESIAN_POINT('',(0.,50.,35.));
#116 = VECTOR('',#117,1.);
#117 = DIRECTION('',(1.,0.,-0.));
#118 = FACE_BOUND('',#119,.T.);
#119 = EDGE_LOOP('',(#120));
#120 = ORIENTED_EDGE('',*,*,#121,.F.);
#121 = EDGE_CURVE('',#122,#122,#124,.T.);
#122 = VERTEX_POINT('',#123);
#123 = CARTESIAN_POINT('',(9.3,6.,35.));
#124 = CIRCLE('',#125,3.3);
#125 = AXIS2_PLACEMENT_3D('',#126,#127,#128);
#126 = CARTESIAN_POINT('',(6.,6.,35.));
#127 = DIRECTION('',(0.,0.,1.));
#128 = DIRECTION('',(1.,0.,-0.));
#129 = FACE_BOUND('',#130,.T.);
#130 = EDGE_LOOP('',(#131));
#131 = ORIENTED_EDGE('',*,*,#132,.F.);
#132 = EDGE_CURVE('',#133,#133,#135,.T.);
#133 = VERTEX_POINT('',#134);
#134 = CARTESIAN_POINT('',(57.3,6.,35.));
#135 = CIRCLE('',#136,3.3);
#136 = AXIS2_PLACEMENT_3D('',#137,#138,#139);
#137 = CARTESIAN_POINT('',(54.,6.,35.));
#138 = DIRECTION('',(0.,0.,1.));
#139 = DIRECTION('',(1.,0.,-0.));
#140 = FACE_BOUND('',#141,.T.);
#141 = EDGE_LOOP('',(#142));
#142 = ORIENTED_EDGE('',*,*,#143,.F.);
#143 = EDGE_CURVE('',#144,#144,#146,.T.);
#144 = VERTEX_POINT('',#145);
#145 = CARTESIAN_POINT('',(27.,25.,35.));
#146 = CIRCLE('',#147,9.);
#147 = AXIS2_PLACEMENT_3D('',#148,#149,#150);
#148 = CARTESIAN_POINT('',(18.,25.,35.));
#149 = DIRECTION('',(0.,0.,1.));
#150 = DIRECTION('',(1.,0.,-0.));
#151 = FACE_BOUND('',#152,.T.);
#152 = EDGE_LOOP('',(#153));
#153 = ORIENTED_EDGE('',*,*,#154,.F.);
#154 = EDGE_CURVE('',#155,#155,#157,.T.);
#155 = VERTEX_POINT('',#156);
#156 = CARTESIAN_POINT('',(9.3,44.,35.));
#157 = CIRCLE('',#158,3.3);
#158 = AXIS2_PLACEMENT_3D('',#159,#160,#161);
#159 = CARTESIAN_POINT('',(6.,44.,35.));
#160 = DIRECTION('',(0.,0.,1.));
#161 = DIRECTION('',(1.,0.,-0.));
#162 = FACE_BOUND('',#163,.T.);
#163 = EDGE_LOOP('',(#164));
#164 = ORIENTED_EDGE('',*,*,#165,.F.);
#165 = EDGE_CURVE('',#166,#166,#168,.T.);
#166 = VERTEX_POINT('',#167);
#167 = CARTESIAN_POINT('',(51.,25.,35.));
#168 = CIRCLE('',#169,9.);
#169 = AXIS2_PLACEMENT_3D('',#170,#171,#172);
#170 = CARTESIAN_POINT('',(42.,25.,35.));
#171 = DIRECTION('',(0.,0.,1.));
#172 = DIRECTION('',(1.,0.,-0.));
#173 = FACE_BOUND('',#174,.T.);
#174 = EDGE_LOOP('',(#175));
#175 = ORIENTED_EDGE('',*,*,#176,.F.);
#176 = EDGE_CURVE('',#177,#177,#179,.T.);
#177 = VERTEX_POINT('',#178);
#178 = CARTESIAN_POINT('',(57.3,44.,35.));
#179 = CIRCLE('',#180,3.3);
#180 = AXIS2_PLACEMENT_3D('',#181,#182,#183);
#181 = CARTESIAN_POINT('',(54.,44.,35.));
#182 = DIRECTION('',(0.,0.,1.));
#183 = DIRECTION('',(1.,0.,-0.));
#184 = PLANE('',#185);
#185 = AXIS2_PLACEMENT_3D('',#186,#187,#188);
#186 = CARTESIAN_POINT('',(0.,0.,35.));
#187 = DIRECTION('',(0.,0.,1.));
#188 = DIRECTION('',(1.,0.,-0.));
#189 = ADVANCED_FACE('',(#190,#208,#219,#230,#241),#252,.F.);
#190 = FACE_BOUND('',#191,.F.);
#191 = EDGE_LOOP('',(#192,#193,#194,#202));
#192 = ORIENTED_EDGE('',*,*,#31,.F.);
#193 = ORIENTED_EDGE('',*,*,#72,.T.);
#194 = ORIENTED_EDGE('',*,*,#195,.T.);
#195 = EDGE_CURVE('',#73,#196,#198,.T.);
#196 = VERTEX_POINT('',#197);
#197 = CARTESIAN_POINT('',(60.,50.,0.));
#198 = LINE('',#199,#200);
#199 = CARTESIAN_POINT('',(60.,0.,0.));
#200 = VECTOR('',#201,1.);
#201 = DIRECTION('',(-0.,1.,0.));
#202 = ORIENTED_EDGE('',*,*,#203,.F.);
#203 = EDGE_CURVE('',#32,#196,#204,.T.);
#204 = LINE('',#205,#206);
#205 = CARTESIAN_POINT('',(0.,50.,0.));
#206 = VECTOR('',#207,1.);
#207 = DIRECTION('',(1.,0.,-0.));
#208 = FACE_BOUND('',#209,.F.);
#209 = EDGE_LOOP('',(#210));
#210 = ORIENTED_EDGE('',*,*,#211,.F.);
#211 = EDGE_CURVE('',#212,#212,#214,.T.);
#212 = VERTEX_POINT('',#213);
#213 = CARTESIAN_POINT('',(9.3,6.,0.));
#214 = CIRCLE('',#215,3.3);
#215 = AXIS2_PLACEMENT_3D('',#216,#217,#218);
#216 = CARTESIAN_POINT('',(6.,6.,0.));
#217 = DIRECTION('',(0.,0.,1.));
#218 = DIRECTION('',(1.,0.,-0.));
#219 = FACE_BOUND('',#220,.F.);
#220 = EDGE_LOOP('',(#221));
#221 = ORIENTED_EDGE('',*,*,#222,.F.);
#222 = EDGE_CURVE('',#223,#223,#225,.T.);
#223 = VERTEX_POINT('',#224);
#224 = CARTESIAN_POINT('',(57.3,6.,0.));
#225 = CIRCLE('',#226,3.3);
#226 = AXIS2_PLACEMENT_3D('',#227,#228,#229);
#227 = CARTESIAN_POINT('',(54.,6.,0.));
#228 = DIRECTION('',(0.,0.,1.));
#229 = DIRECTION('',(1.,0.,-0.));
#230 = FACE_BOUND('',#231,.F.);
#231 = EDGE_LOOP('',(#232));
#232 = ORIENTED_EDGE('',*,*,#233,.F.);
#233 = EDGE_CURVE('',#234,#234,#236,.T.);
#234 = VERTEX_POINT('',#235);
#235 = CARTESIAN_POINT('',(9.3,44.,0.));
#236 = CIRCLE('',#237,3.3);
#237 = AXIS2_PLACEMENT_3D('',#238,#239,#240);
#238 = CARTESIAN_POINT('',(6.,44.,0.));
#239 = DIRECTION('',(0.,0.,1.));
#240 = DIRECTION('',(1.,0.,-0.));
#241 = FACE_BOUND('',#242,.F.);
#242 = EDGE_LOOP('',(#243));
#243 = ORIENTED_EDGE('',*,*,#244,.F.);
#244 = EDGE_CURVE('',#245,#245,#247,.T.);
#245 = VERTEX_POINT('',#246);
#246 = CARTESIAN_POINT('',(57.3,44.,0.));
#247 = CIRCLE('',#248,3.3);
#248 = AXIS2_PLACEMENT_3D('',#249,#250,#251);
#249 = CARTESIAN_POINT('',(54.,44.,0.));
#250 = DIRECTION('',(0.,0.,1.));
#251 = DIRECTION('',(1.,0.,-0.));
#252 = PLANE('',#253);
#253 = AXIS2_PLACEMENT_3D('',#254,#255,#256);
#254 = CARTESIAN_POINT('',(0.,0.,0.));
#255 = DIRECTION('',(0.,0.,1.));
#256 = DIRECTION('',(1.,0.,-0.));
#257 = ADVANCED_FACE('',(#258),#269,.T.);
#258 = FACE_BOUND('',#259,.T.);
#259 = EDGE_LOOP('',(#260,#261,#262,#263));
#260 = ORIENTED_EDGE('',*,*,#203,.F.);
#261 = ORIENTED_EDGE('',*,*,#39,.T.);
#262 = ORIENTED_EDGE('',*,*,#113,.T.);
#263 = ORIENTED_EDGE('',*,*,#264,.F.);
#264 = EDGE_CURVE('',#196,#106,#265,.T.);
#265 = LINE('',#266,#267);
#266 = CARTESIAN_POINT('',(60.,50.,0.));
#267 = VECTOR('',#268,1.);
#268 = DIRECTION('',(0.,0.,1.));
#269 = PLANE('',#270);
#270 = AXIS2_PLACEMENT_3D('',#271,#272,#273);
#271 = CARTESIAN_POINT('',(0.,50.,0.));
#272 = DIRECTION('',(-0.,1.,0.));
#273 = DIRECTION('',(0.,0.,1.));
#274 = ADVANCED_FACE('',(#275,#294,#408),#522,.F.);
#275 = FACE_BOUND('',#276,.F.);
#276 = EDGE_LOOP('',(#277,#278,#286,#293));
#277 = ORIENTED_EDGE('',*,*,#55,.T.);
#278 = ORIENTED_EDGE('',*,*,#279,.T.);
#279 = EDGE_CURVE('',#56,#280,#282,.T.);
#280 = VERTEX_POINT('',#281);
#281 = CARTESIAN_POINT('',(60.,25.,5.5));
#282 = LINE('',#283,#284);
#283 = CARTESIAN_POINT('',(-5.,25.,5.5));
#284 = VECTOR('',#285,1.);
#285 = DIRECTION('',(1.,0.,1.110223024625E-16));
#286 = ORIENTED_EDGE('',*,*,#287,.F.);
#287 = EDGE_CURVE('',#280,#280,#288,.T.);
#288 = CIRCLE('',#289,12.);
#289 = AXIS2_PLACEMENT_3D('',#290,#291,#292);
#290 = CARTESIAN_POINT('',(60.,25.,17.5));
#291 = DIRECTION('',(1.,0.,1.110223024625E-16));
#292 = DIRECTION('',(1.110223024625E-16,0.,-1.));
#293 = ORIENTED_EDGE('',*,*,#279,.F.);
#294 = FACE_BOUND('',#295,.F.);
#295 = EDGE_LOOP('',(#296));
#296 = ORIENTED_EDGE('',*,*,#297,.F.);
#297 = EDGE_CURVE('',#298,#298,#300,.T.);
#298 = VERTEX_POINT('',#299);
#299 = CARTESIAN_POINT('',(27.,25.,29.5));
#300 = B_SPLINE_CURVE_WITH_KNOTS('',6,(#301,#302,#303,#304,#305,#306,
    #307,#308,#309,#310,#311,#312,#313,#314,#315,#316,#317,#318,#319,
    #320,#321,#322,#323,#324,#325,#326,#327,#328,#329,#330,#331,#332,
    #333,#334,#335,#336,#337,#338,#339,#340,#341,#342,#343,#344,#345,
    #346,#347,#348,#349,#350,#351,#352,#353,#354,#355,#356,#357,#358,
    #359,#360,#361,#362,#363,#364,#365,#366,#367,#368,#369,#370,#371,
    #372,#373,#374,#375,#376,#377,#378,#379,#380,#381,#382,#383,#384,
    #385,#386,#387,#388,#389,#390,#391,#392,#393,#394,#395,#396,#397,
    #398,#399,#400,#401,#402,#403,#404,#405,#406,#407),.UNSPECIFIED.,.T.
  ,.F.,(7,5,5,5,5,5,5,5,5,5,5,5,5,5,5,5,5,5,5,5,5,7),(0.,
    5.032729635109E-02,7.542776656471E-02,0.142296382377,0.202109754144,
    0.250440748417,0.281901157749,0.299076628645,0.358459916733,
    0.425536509338,0.470766733398,0.521846409972,0.5756801494,
    0.642438243073,0.702152753787,0.750403865372,0.781812276145,
    0.798959358989,0.858244496878,0.925210223597,0.97036569,1.),
  .UNSPECIFIED.);
#301 = CARTESIAN_POINT('',(27.,25.,29.5));
#302 = CARTESIAN_POINT('',(27.,25.615535648039,29.5));
#303 = CARTESIAN_POINT('',(26.949482578073,26.224395222474,
    29.462111333338));
#304 = CARTESIAN_POINT('',(26.850498822023,26.817516284859,
    29.387876423619));
#305 = CARTESIAN_POINT('',(26.707913074896,27.386031649612,
    29.281627388988));
#306 = CARTESIAN_POINT('',(26.529354787707,27.92192345864,
    29.150328240057));
#307 = CARTESIAN_POINT('',(26.224147773608,28.665367014499,
    28.929422343643));
#308 = CARTESIAN_POINT('',(26.115700372663,28.904420582494,
    28.851441453567));
#309 = CARTESIAN_POINT('',(26.001057668028,29.13525085441,
    28.769634066968));
#310 = CARTESIAN_POINT('',(25.880830470182,29.358008838737,
    28.684588630657));
#311 = CARTESIAN_POINT('',(25.755553879083,29.572873477012,
    28.596839452984));
#312 = CARTESIAN_POINT('',(25.279718906945,30.331980187109,
    28.267175344471));
#313 = CARTESIAN_POINT('',(24.900560911458,30.830333674711,
    28.011276279761));
#314 = CARTESIAN_POINT('',(24.496265631479,31.279294397169,
    27.747852650751));
#315 = CARTESIAN_POINT('',(24.071229492161,31.683449326774,
    27.483119477667));
#316 = CARTESIAN_POINT('',(23.627116189292,32.046707808838,
    27.221797564205));
#317 = CARTESIAN_POINT('',(22.748620779597,32.662053203437,
    26.742754518661));
#318 = CARTESIAN_POINT('',(22.318319169915,32.92171199728,
    26.523430418781));
#319 = CARTESIAN_POINT('',(21.873477931091,33.151348059809,
    26.315300146118));
#320 = CARTESIAN_POINT('',(21.414734261205,33.351044961798,
    26.123120913137));
#321 = CARTESIAN_POINT('',(20.942321952897,33.520459330836,
    25.952305101174));
#322 = CARTESIAN_POINT('',(20.063129788832,33.769852064564,
    25.692411612531));
#323 = CARTESIAN_POINT('',(19.660276991772,33.861006583555,
    25.593676645603));
#324 = CARTESIAN_POINT('',(19.250490969369,33.930159297057,
    25.516446620436));
#325 = CARTESIAN_POINT('',(18.836023367778,33.976630672329,
    25.463752044728));
#326 = CARTESIAN_POINT('',(18.418655611376,34.,25.437253933194));
#327 = CARTESIAN_POINT('',(17.727481772283,34.,25.437253933194));
#328 = CARTESIAN_POINT('',(17.455142388956,33.990097855091,
    25.448481900412));
#329 = CARTESIAN_POINT('',(17.183611115892,33.970317847308,
    25.470910364705));
#330 = CARTESIAN_POINT('',(16.913534431747,33.940755325982,
    25.504219244701));
#331 = CARTESIAN_POINT('',(16.645627743059,33.901583910718,
    25.547791952625));
#332 = CARTESIAN_POINT('',(16.236106207492,33.826680766024,
    25.629652024356));
#333 = CARTESIAN_POINT('',(16.092329584465,33.797453672562,
    25.661366247519));
#334 = CARTESIAN_POINT('',(15.949443530695,33.765484403477,
    25.695764088865));
#335 = CARTESIAN_POINT('',(15.807502566375,33.730807408168,
    25.732711905067));
#336 = CARTESIAN_POINT('',(15.666568658083,33.693460537974,
    25.77206581714));
#337 = CARTESIAN_POINT('',(15.043161613242,33.515282010211,
    25.957527242818));
#338 = CARTESIAN_POINT('',(14.573352614736,33.345930241307,
    26.128057519628));
#339 = CARTESIAN_POINT('',(14.117095953262,33.146598551814,
    26.31963948521));
#340 = CARTESIAN_POINT('',(13.674619093125,32.917618062122,
    26.526949268124));
#341 = CARTESIAN_POINT('',(13.246544254973,32.658896719134,
    26.745306606604));
#342 = CARTESIAN_POINT('',(12.367643080952,32.042775265394,
    27.224751288002));
#343 = CARTESIAN_POINT('',(11.92130499273,31.677108732244,
    27.487573568728));
#344 = CARTESIAN_POINT('',(11.494257798152,31.270076627104,
    27.753792569726));
#345 = CARTESIAN_POINT('',(11.088199530744,30.817679098342,
    28.018620345835));
#346 = CARTESIAN_POINT('',(10.707637192703,30.315231410771,
    28.275718940839));
#347 = CARTESIAN_POINT('',(10.126984194032,29.383063780578,
    28.678371463135));
#348 = CARTESIAN_POINT('',(9.907567973581,28.981484154484,
    28.833617788651));
#349 = CARTESIAN_POINT('',(9.706102720305,28.553296499489,
    28.978586795632));
#350 = CARTESIAN_POINT('',(9.526481699592,28.098339021608,
    29.109569854459));
#351 = CARTESIAN_POINT('',(9.373058194534,27.61687219124,29.22251567155)
  );
#352 = CARTESIAN_POINT('',(9.112666415415,26.537006629558,
    29.415371914319));
#353 = CARTESIAN_POINT('',(9.013842221728,25.929756819119,
    29.489439767648));
#354 = CARTESIAN_POINT('',(8.965177211661,25.302471877784,
    29.526264453926));
#355 = CARTESIAN_POINT('',(8.971061334897,24.67034314,29.521713530686));
#356 = CARTESIAN_POINT('',(9.02996903002,24.048800724775,29.477338570744
    ));
#357 = CARTESIAN_POINT('',(9.24367300302,22.824332170606,29.318117986578
    ));
#358 = CARTESIAN_POINT('',(9.402601748561,22.229179702304,
    29.200246355255));
#359 = CARTESIAN_POINT('',(9.602487892496,21.66999191763,29.053330055812
    ));
#360 = CARTESIAN_POINT('',(9.835762545897,21.148376544447,
    28.884393713044));
#361 = CARTESIAN_POINT('',(10.095323151714,20.665024645614,
    28.700153613522));
#362 = CARTESIAN_POINT('',(10.720281093055,19.668019812892,
    28.267175344471));
#363 = CARTESIAN_POINT('',(11.099439088543,19.169666325288,
    28.011276279761));
#364 = CARTESIAN_POINT('',(11.503734368519,18.720705602833,
    27.747852650752));
#365 = CARTESIAN_POINT('',(11.92877050784,18.316550673225,
    27.483119477666));
#366 = CARTESIAN_POINT('',(12.372883810708,17.953292191162,
    27.221797564205));
#367 = CARTESIAN_POINT('',(13.251379220406,17.337946796561,
    26.74275451866));
#368 = CARTESIAN_POINT('',(13.681680830087,17.078288002718,
    26.523430418779));
#369 = CARTESIAN_POINT('',(14.126522068906,16.848651940195,
    26.315300146121));
#370 = CARTESIAN_POINT('',(14.585265738787,16.648955038203,
    26.123120913139));
#371 = CARTESIAN_POINT('',(15.057678047112,16.479540669162,
    25.952305101171));
#372 = CARTESIAN_POINT('',(15.936870211168,16.230147935436,
    25.692411612531));
#373 = CARTESIAN_POINT('',(16.339723008227,16.138993416446,
    25.593676645603));
#374 = CARTESIAN_POINT('',(16.749509030631,16.069840702942,
    25.516446620436));
#375 = CARTESIAN_POINT('',(17.163976632222,16.023369327671,
    25.463752044728));
#376 = CARTESIAN_POINT('',(17.581344388624,16.,25.437253933194));
#377 = CARTESIAN_POINT('',(18.272518227716,16.,25.437253933194));
#378 = CARTESIAN_POINT('',(18.544857611047,16.00990214491,
    25.448481900413));
#379 = CARTESIAN_POINT('',(18.816388884105,16.029682152691,
    25.470910364705));
#380 = CARTESIAN_POINT('',(19.086465568256,16.059244674018,
    25.504219244701));
#381 = CARTESIAN_POINT('',(19.35437225694,16.098416089281,
    25.547791952625));
#382 = CARTESIAN_POINT('',(19.763893792509,16.173319233976,
    25.629652024357));
#383 = CARTESIAN_POINT('',(19.907670415535,16.202546327438,
    25.661366247518));
#384 = CARTESIAN_POINT('',(20.050556469305,16.234515596523,
    25.695764088865));
#385 = CARTESIAN_POINT('',(20.192497433626,16.269192591832,
    25.732711905067));
#386 = CARTESIAN_POINT('',(20.333431341917,16.306539462026,
    25.77206581714));
#387 = CARTESIAN_POINT('',(20.956838386758,16.484717989789,
    25.957527242818));
#388 = CARTESIAN_POINT('',(21.426647385267,16.654069758694,
    26.128057519629));
#389 = CARTESIAN_POINT('',(21.882904046735,16.853401448184,
    26.319639485209));
#390 = CARTESIAN_POINT('',(22.325380906876,17.082381937879,
    26.526949268125));
#391 = CARTESIAN_POINT('',(22.753455745026,17.341103280865,
    26.745306606604));
#392 = CARTESIAN_POINT('',(23.632356919049,17.957224734607,
    27.224751288003));
#393 = CARTESIAN_POINT('',(24.078695007268,18.322891267755,
    27.487573568727));
#394 = CARTESIAN_POINT('',(24.50574220185,18.729923372897,
    27.753792569726));
#395 = CARTESIAN_POINT('',(24.911800469254,19.182320901656,
    28.018620345834));
#396 = CARTESIAN_POINT('',(25.292362807297,19.68476858923,28.27571894084
    ));
#397 = CARTESIAN_POINT('',(25.873015805966,20.616936219419,
    28.678371463134));
#398 = CARTESIAN_POINT('',(26.092432026428,21.018515845528,
    28.833617788657));
#399 = CARTESIAN_POINT('',(26.293897279687,21.446703500508,
    28.978586795626));
#400 = CARTESIAN_POINT('',(26.473518300405,21.901660978365,
    29.109569854456));
#401 = CARTESIAN_POINT('',(26.626941805472,22.383127808784,
    29.222515671554));
#402 = CARTESIAN_POINT('',(26.829484682991,23.22308934266,
    29.372526775938));
#403 = CARTESIAN_POINT('',(26.896284212085,23.566780938025,
    29.422296477591));
#404 = CARTESIAN_POINT('',(26.947730563611,23.918885363071,
    29.46079795377));
#405 = CARTESIAN_POINT('',(26.982537193243,24.27685829405,29.48690288664
    ));
#406 = CARTESIAN_POINT('',(27.,24.638101296103,29.5));
#407 = CARTESIAN_POINT('',(27.,25.,29.5));
#408 = FACE_BOUND('',#409,.F.);
#409 = EDGE_LOOP('',(#410));
#410 = ORIENTED_EDGE('',*,*,#411,.F.);
#411 = EDGE_CURVE('',#412,#412,#414,.T.);
#412 = VERTEX_POINT('',#413);
#413 = CARTESIAN_POINT('',(51.,25.,29.5));
#414 = B_SPLINE_CURVE_WITH_KNOTS('',6,(#415,#416,#417,#418,#419,#420,
    #421,#422,#423,#424,#425,#426,#427,#428,#429,#430,#431,#432,#433,
    #434,#435,#436,#437,#438,#439,#440,#441,#442,#443,#444,#445,#446,
    #447,#448,#449,#450,#451,#452,#453,#454,#455,#456,#457,#458,#459,
    #460,#461,#462,#463,#464,#465,#466,#467,#468,#469,#470,#471,#472,
    #473,#474,#475,#476,#477,#478,#479,#480,#481,#482,#483,#484,#485,
    #486,#487,#488,#489,#490,#491,#492,#493,#494,#495,#496,#497,#498,
    #499,#500,#501,#502,#503,#504,#505,#506,#507,#508,#509,#510,#511,
    #512,#513,#514,#515,#516,#517,#518,#519,#520,#521),.UNSPECIFIED.,.T.
  ,.F.,(7,5,5,5,5,5,5,5,5,5,5,5,5,5,5,5,5,5,5,5,5,7),(0.,
    5.032729621262E-02,7.542776642692E-02,0.142296382248,0.202109754023,
    0.250440748303,0.28190115764,0.299076628538,0.358459916635,
    0.425536509252,0.47076673332,0.521846409902,0.575680149336,
    0.64243824302,0.702152753744,0.750403865338,0.781812276116,
    0.798959358962,0.85824449686,0.925210223587,0.970365689996,1.),
  .UNSPECIFIED.);
#415 = CARTESIAN_POINT('',(51.,25.,29.5));
#416 = CARTESIAN_POINT('',(51.,25.615535649753,29.5));
#417 = CARTESIAN_POINT('',(50.949482578586,26.224395217191,
    29.462111333712));
#418 = CARTESIAN_POINT('',(50.85049882072,26.817516291932,29.38787642267
    ));
#419 = CARTESIAN_POINT('',(50.70791307621,27.386031644916,
    29.281627389942));
#420 = CARTESIAN_POINT('',(50.529354787166,27.921923459958,
    29.150328239665));
#421 = CARTESIAN_POINT('',(50.224147773595,28.665367014529,
    28.929422343634));
#422 = CARTESIAN_POINT('',(50.115700372664,28.904420582485,
    28.851441453568));
#423 = CARTESIAN_POINT('',(50.001057668041,29.135250854383,
    28.769634066978));
#424 = CARTESIAN_POINT('',(49.880830470188,29.358008838732,
    28.684588630661));
#425 = CARTESIAN_POINT('',(49.755553879069,29.572873477035,
    28.596839452974));
#426 = CARTESIAN_POINT('',(49.279718906946,30.331980187108,
    28.267175344471));
#427 = CARTESIAN_POINT('',(48.900560911457,30.830333674713,
    28.01127627976));
#428 = CARTESIAN_POINT('',(48.496265631481,31.279294397167,
    27.747852650752));
#429 = CARTESIAN_POINT('',(48.07122949216,31.683449326775,
    27.483119477666));
#430 = CARTESIAN_POINT('',(47.627116189292,32.046707808837,
    27.221797564206));
#431 = CARTESIAN_POINT('',(46.748620779595,32.662053203438,
    26.74275451866));
#432 = CARTESIAN_POINT('',(46.318319169914,32.921711997281,
    26.52343041878));
#433 = CARTESIAN_POINT('',(45.873477931092,33.151348059807,
    26.315300146119));
#434 = CARTESIAN_POINT('',(45.414734261209,33.351044961797,
    26.123120913138));
#435 = CARTESIAN_POINT('',(44.942321952892,33.520459330837,
    25.952305101173));
#436 = CARTESIAN_POINT('',(44.063129788832,33.769852064564,
    25.692411612531));
#437 = CARTESIAN_POINT('',(43.660276991772,33.861006583554,
    25.593676645603));
#438 = CARTESIAN_POINT('',(43.250490969369,33.930159297058,
    25.516446620436));
#439 = CARTESIAN_POINT('',(42.836023367778,33.976630672328,
    25.463752044728));
#440 = CARTESIAN_POINT('',(42.418655611376,34.,25.437253933194));
#441 = CARTESIAN_POINT('',(41.727481772283,34.,25.437253933194));
#442 = CARTESIAN_POINT('',(41.455142388954,33.990097855091,
    25.448481900412));
#443 = CARTESIAN_POINT('',(41.183611115893,33.970317847308,
    25.470910364705));
#444 = CARTESIAN_POINT('',(40.913534431746,33.940755325982,
    25.504219244701));
#445 = CARTESIAN_POINT('',(40.64562774306,33.901583910719,
    25.547791952625));
#446 = CARTESIAN_POINT('',(40.236106207492,33.826680766024,
    25.629652024357));
#447 = CARTESIAN_POINT('',(40.092329584465,33.797453672562,
    25.661366247519));
#448 = CARTESIAN_POINT('',(39.949443530695,33.765484403477,
    25.695764088865));
#449 = CARTESIAN_POINT('',(39.807502566375,33.730807408168,
    25.732711905067));
#450 = CARTESIAN_POINT('',(39.666568658083,33.693460537974,
    25.77206581714));
#451 = CARTESIAN_POINT('',(39.043161613233,33.515282010209,
    25.957527242821));
#452 = CARTESIAN_POINT('',(38.573352614743,33.345930241308,
    26.128057519626));
#453 = CARTESIAN_POINT('',(38.117095953265,33.146598551818,
    26.319639485207));
#454 = CARTESIAN_POINT('',(37.674619093123,32.917618062121,
    26.526949268125));
#455 = CARTESIAN_POINT('',(37.24654425497,32.658896719132,
    26.745306606606));
#456 = CARTESIAN_POINT('',(36.367643080952,32.042775265394,
    27.224751288002));
#457 = CARTESIAN_POINT('',(35.92130499273,31.677108732243,
    27.487573568729));
#458 = CARTESIAN_POINT('',(35.494257798153,31.270076627105,
    27.753792569725));
#459 = CARTESIAN_POINT('',(35.088199530744,30.817679098341,
    28.018620345836));
#460 = CARTESIAN_POINT('',(34.707637192704,30.315231410772,
    28.275718940839));
#461 = CARTESIAN_POINT('',(34.126984194033,29.383063780578,
    28.678371463135));
#462 = CARTESIAN_POINT('',(33.90756797358,28.981484154484,
    28.833617788651));
#463 = CARTESIAN_POINT('',(33.706102720305,28.553296499489,
    28.978586795632));
#464 = CARTESIAN_POINT('',(33.526481699592,28.098339021608,
    29.109569854459));
#465 = CARTESIAN_POINT('',(33.373058194534,27.61687219124,29.22251567155
    ));
#466 = CARTESIAN_POINT('',(33.112666415415,26.537006629558,
    29.415371914319));
#467 = CARTESIAN_POINT('',(33.013842221728,25.929756819119,
    29.489439767648));
#468 = CARTESIAN_POINT('',(32.965177211661,25.302471877784,
    29.526264453926));
#469 = CARTESIAN_POINT('',(32.971061334897,24.67034314,29.521713530686)
  );
#470 = CARTESIAN_POINT('',(33.02996903002,24.048800724776,
    29.477338570744));
#471 = CARTESIAN_POINT('',(33.243673003015,22.824332170638,
    29.318117986583));
#472 = CARTESIAN_POINT('',(33.402601748567,22.229179702246,
    29.20024635525));
#473 = CARTESIAN_POINT('',(33.60248789251,21.669991917644,
    29.053330055802));
#474 = CARTESIAN_POINT('',(33.835762545868,21.148376544484,
    28.884393713065));
#475 = CARTESIAN_POINT('',(34.09532315173,20.665024645589,
    28.700153613511));
#476 = CARTESIAN_POINT('',(34.720281093055,19.668019812892,
    28.267175344471));
#477 = CARTESIAN_POINT('',(35.099439088543,19.169666325288,
    28.011276279761));
#478 = CARTESIAN_POINT('',(35.503734368519,18.720705602833,
    27.747852650752));
#479 = CARTESIAN_POINT('',(35.92877050784,18.316550673225,
    27.483119477666));
#480 = CARTESIAN_POINT('',(36.372883810708,17.953292191162,
    27.221797564205));
#481 = CARTESIAN_POINT('',(37.251379220407,17.337946796561,
    26.742754518659));
#482 = CARTESIAN_POINT('',(37.681680830087,17.078288002719,
    26.52343041878));
#483 = CARTESIAN_POINT('',(38.126522068906,16.848651940195,
    26.315300146121));
#484 = CARTESIAN_POINT('',(38.585265738786,16.648955038203,
    26.123120913139));
#485 = CARTESIAN_POINT('',(39.057678047113,16.479540669162,
    25.952305101171));
#486 = CARTESIAN_POINT('',(39.936870211167,16.230147935436,
    25.692411612532));
#487 = CARTESIAN_POINT('',(40.339723008228,16.138993416445,
    25.593676645603));
#488 = CARTESIAN_POINT('',(40.74950903063,16.069840702942,
    25.516446620437));
#489 = CARTESIAN_POINT('',(41.163976632223,16.023369327671,
    25.463752044728));
#490 = CARTESIAN_POINT('',(41.581344388623,16.,25.437253933194));
#491 = CARTESIAN_POINT('',(42.272518227717,16.,25.437253933194));
#492 = CARTESIAN_POINT('',(42.544857611047,16.00990214491,
    25.448481900413));
#493 = CARTESIAN_POINT('',(42.816388884103,16.029682152691,
    25.470910364705));
#494 = CARTESIAN_POINT('',(43.086465568256,16.059244674018,
    25.504219244701));
#495 = CARTESIAN_POINT('',(43.354372256941,16.098416089282,
    25.547791952625));
#496 = CARTESIAN_POINT('',(43.763893792509,16.173319233976,
    25.629652024357));
#497 = CARTESIAN_POINT('',(43.907670415535,16.202546327438,
    25.661366247519));
#498 = CARTESIAN_POINT('',(44.050556469305,16.234515596523,
    25.695764088865));
#499 = CARTESIAN_POINT('',(44.192497433625,16.269192591832,
    25.732711905067));
#500 = CARTESIAN_POINT('',(44.333431341917,16.306539462026,
    25.77206581714));
#501 = CARTESIAN_POINT('',(44.956838386747,16.484717989786,
    25.957527242815));
#502 = CARTESIAN_POINT('',(45.426647385263,16.654069758691,
    26.128057519626));
#503 = CARTESIAN_POINT('',(45.882904046753,16.853401448191,
    26.319639485216));
#504 = CARTESIAN_POINT('',(46.32538090688,17.082381937885,
    26.526949268128));
#505 = CARTESIAN_POINT('',(46.753455745013,17.341103280856,
    26.745306606597));
#506 = CARTESIAN_POINT('',(47.632356919049,17.957224734607,
    27.224751288003));
#507 = CARTESIAN_POINT('',(48.078695007269,18.322891267756,
    27.487573568728));
#508 = CARTESIAN_POINT('',(48.505742201847,18.729923372895,
    27.753792569725));
#509 = CARTESIAN_POINT('',(48.911800469256,19.182320901658,
    28.018620345835));
#510 = CARTESIAN_POINT('',(49.292362807297,19.68476858923,28.27571894084
    ));
#511 = CARTESIAN_POINT('',(49.873015805967,20.616936219421,
    28.678371463135));
#512 = CARTESIAN_POINT('',(50.092432026427,21.018515845527,
    28.833617788657));
#513 = CARTESIAN_POINT('',(50.293897279686,21.446703500507,
    28.978586795626));
#514 = CARTESIAN_POINT('',(50.473518300405,21.901660978364,
    29.109569854456));
#515 = CARTESIAN_POINT('',(50.626941805473,22.383127808787,
    29.222515671555));
#516 = CARTESIAN_POINT('',(50.829484682991,23.22308934266,
    29.372526775938));
#517 = CARTESIAN_POINT('',(50.896284212085,23.566780938024,
    29.422296477591));
#518 = CARTESIAN_POINT('',(50.947730563612,23.918885363071,
    29.460797953771));
#519 = CARTESIAN_POINT('',(50.982537193243,24.27685829405,29.48690288664
    ));
#520 = CARTESIAN_POINT('',(51.,24.638101296103,29.5));
#521 = CARTESIAN_POINT('',(51.,25.,29.5));
#522 = CYLINDRICAL_SURFACE('',#523,12.);
#523 = AXIS2_PLACEMENT_3D('',#524,#525,#526);
#524 = CARTESIAN_POINT('',(-5.,25.,17.5));
#525 = DIRECTION('',(1.,0.,1.110223024625E-16));
#526 = DIRECTION('',(1.110223024625E-16,0.,-1.));
#527 = ADVANCED_FACE('',(#528,#534),#537,.T.);
#528 = FACE_BOUND('',#529,.T.);
#529 = EDGE_LOOP('',(#530,#531,#532,#533));
#530 = ORIENTED_EDGE('',*,*,#89,.F.);
#531 = ORIENTED_EDGE('',*,*,#195,.T.);
#532 = ORIENTED_EDGE('',*,*,#264,.T.);
#533 = ORIENTED_EDGE('',*,*,#105,.F.);
#534 = FACE_BOUND('',#535,.T.);
#535 = EDGE_LOOP('',(#536));
#536 = ORIENTED_EDGE('',*,*,#287,.F.);
#537 = PLANE('',#538);
#538 = AXIS2_PLACEMENT_3D('',#539,#540,#541);
#539 = CARTESIAN_POINT('',(60.,0.,0.));
#540 = DIRECTION('',(1.,0.,-0.));
#541 = DIRECTION('',(0.,0.,1.));
#542 = ADVANCED_FACE('',(#543),#554,.F.);
#543 = FACE_BOUND('',#544,.F.);
#544 = EDGE_LOOP('',(#545,#546,#552,#553));
#545 = ORIENTED_EDGE('',*,*,#121,.F.);
#546 = ORIENTED_EDGE('',*,*,#547,.F.);
#547 = EDGE_CURVE('',#212,#122,#548,.T.);
#548 = LINE('',#549,#550);
#549 = CARTESIAN_POINT('',(9.3,6.,-2.));
#550 = VECTOR('',#551,1.);
#551 = DIRECTION('',(0.,0.,1.));
#552 = ORIENTED_EDGE('',*,*,#211,.T.);
#553 = ORIENTED_EDGE('',*,*,#547,.T.);
#554 = CYLINDRICAL_SURFACE('',#555,3.3);
#555 = AXIS2_PLACEMENT_3D('',#556,#557,#558);
#556 = CARTESIAN_POINT('',(6.,6.,-2.));
#557 = DIRECTION('',(0.,0.,1.));
#558 = DIRECTION('',(1.,0.,-0.));
#559 = ADVANCED_FACE('',(#560),#571,.F.);
#560 = FACE_BOUND('',#561,.F.);
#561 = EDGE_LOOP('',(#562,#563,#569,#570));
#562 = ORIENTED_EDGE('',*,*,#132,.F.);
#563 = ORIENTED_EDGE('',*,*,#564,.F.);
#564 = EDGE_CURVE('',#223,#133,#565,.T.);
#565 = LINE('',#566,#567);
#566 = CARTESIAN_POINT('',(57.3,6.,-2.));
#567 = VECTOR('',#568,1.);
#568 = DIRECTION('',(0.,0.,1.));
#569 = ORIENTED_EDGE('',*,*,#222,.T.);
#570 = ORIENTED_EDGE('',*,*,#564,.T.);
#571 = CYLINDRICAL_SURFACE('',#572,3.3);
#572 = AXIS2_PLACEMENT_3D('',#573,#574,#575);
#573 = CARTESIAN_POINT('',(54.,6.,-2.));
#574 = DIRECTION('',(0.,0.,1.));
#575 = DIRECTION('',(1.,0.,-0.));
#576 = ADVANCED_FACE('',(#577),#588,.F.);
#577 = FACE_BOUND('',#578,.F.);
#578 = EDGE_LOOP('',(#579,#580,#586,#587));
#579 = ORIENTED_EDGE('',*,*,#143,.F.);
#580 = ORIENTED_EDGE('',*,*,#581,.F.);
#581 = EDGE_CURVE('',#298,#144,#582,.T.);
#582 = LINE('',#583,#584);
#583 = CARTESIAN_POINT('',(27.,25.,17.5));
#584 = VECTOR('',#585,1.);
#585 = DIRECTION('',(0.,0.,1.));
#586 = ORIENTED_EDGE('',*,*,#297,.T.);
#587 = ORIENTED_EDGE('',*,*,#581,.T.);
#588 = CYLINDRICAL_SURFACE('',#589,9.);
#589 = AXIS2_PLACEMENT_3D('',#590,#591,#592);
#590 = CARTESIAN_POINT('',(18.,25.,17.5));
#591 = DIRECTION('',(0.,0.,1.));
#592 = DIRECTION('',(1.,0.,-0.));
#593 = ADVANCED_FACE('',(#594),#605,.F.);
#594 = FACE_BOUND('',#595,.F.);
#595 = EDGE_LOOP('',(#596,#597,#603,#604));
#596 = ORIENTED_EDGE('',*,*,#154,.F.);
#597 = ORIENTED_EDGE('',*,*,#598,.F.);
#598 = EDGE_CURVE('',#234,#155,#599,.T.);
#599 = LINE('',#600,#601);
#600 = CARTESIAN_POINT('',(9.3,44.,-2.));
#601 = VECTOR('',#602,1.);
#602 = DIRECTION('',(0.,0.,1.));
#603 = ORIENTED_EDGE('',*,*,#233,.T.);
#604 = ORIENTED_EDGE('',*,*,#598,.T.);
#605 = CYLINDRICAL_SURFACE('',#606,3.3);
#606 = AXIS2_PLACEMENT_3D('',#607,#608,#609);
#607 = CARTESIAN_POINT('',(6.,44.,-2.));
#608 = DIRECTION('',(0.,0.,1.));
#609 = DIRECTION('',(1.,0.,-0.));
#610 = ADVANCED_FACE('',(#611),#622,.F.);
#611 = FACE_BOUND('',#612,.F.);
#612 = EDGE_LOOP('',(#613,#614,#620,#621));
#613 = ORIENTED_EDGE('',*,*,#165,.F.);
#614 = ORIENTED_EDGE('',*,*,#615,.F.);
#615 = EDGE_CURVE('',#412,#166,#616,.T.);
#616 = LINE('',#617,#618);
#617 = CARTESIAN_POINT('',(51.,25.,17.5));
#618 = VECTOR('',#619,1.);
#619 = DIRECTION('',(0.,0.,1.));
#620 = ORIENTED_EDGE('',*,*,#411,.T.);
#621 = ORIENTED_EDGE('',*,*,#615,.T.);
#622 = CYLINDRICAL_SURFACE('',#623,9.);
#623 = AXIS2_PLACEMENT_3D('',#624,#625,#626);
#624 = CARTESIAN_POINT('',(42.,25.,17.5));
#625 = DIRECTION('',(0.,0.,1.));
#626 = DIRECTION('',(1.,0.,-0.));
#627 = ADVANCED_FACE('',(#628),#639,.F.);
#628 = FACE_BOUND('',#629,.F.);
#629 = EDGE_LOOP('',(#630,#631,#637,#638));
#630 = ORIENTED_EDGE('',*,*,#176,.F.);
#631 = ORIENTED_EDGE('',*,*,#632,.F.);
#632 = EDGE_CURVE('',#245,#177,#633,.T.);
#633 = LINE('',#634,#635);
#634 = CARTESIAN_POINT('',(57.3,44.,-2.));
#635 = VECTOR('',#636,1.);
#636 = DIRECTION('',(0.,0.,1.));
#637 = ORIENTED_EDGE('',*,*,#244,.T.);
#638 = ORIENTED_EDGE('',*,*,#632,.T.);
#639 = CYLINDRICAL_SURFACE('',#640,3.3);
#640 = AXIS2_PLACEMENT_3D('',#641,#642,#643);
#641 = CARTESIAN_POINT('',(54.,44.,-2.));
#642 = DIRECTION('',(0.,0.,1.));
#643 = DIRECTION('',(1.,0.,-0.));
#644 = ( GEOMETRIC_REPRESENTATION_CONTEXT(3) 
GLOBAL_UNCERTAINTY_ASSIGNED_CONTEXT((#648)) GLOBAL_UNIT_ASSIGNED_CONTEXT
((#645,#646,#647)) REPRESENTATION_CONTEXT('Context #1',
  '3D Context with UNIT and UNCERTAINTY') );
#645 = ( LENGTH_UNIT() NAMED_UNIT(*) SI_UNIT(.MILLI.,.METRE.) );
#646 = ( NAMED_UNIT(*) PLANE_ANGLE_UNIT() SI_UNIT($,.RADIAN.) );
#647 = ( NAMED_UNIT(*) SI_UNIT($,.STERADIAN.) SOLID_ANGLE_UNIT() );
#648 = UNCERTAINTY_MEASURE_WITH_UNIT(LENGTH_MEASURE(1.E-07),#645,
  'distance_accuracy_value','confusion accuracy');
#649 = PRODUCT_RELATED_PRODUCT_CATEGORY('part',$,(#7));
ENDSEC;
END-ISO-10303-21;
