DBRep_DrawableShape

CASCADE Topology V1, (c) Matra-Datavision
Locations 26
1
              1               0               0               0 
              0 1.11022302462516e-16              -1               0 
              0               1 1.11022302462516e-16               0 
1
              1               0               0              42 
              0               1               0              18 
              0               0               1               6 
2  1 1 2 1 0
1
              1               0               0               0 
              0 1.11022302462516e-16              -1               0 
              0               1 1.11022302462516e-16               0 
1
              1               0               0              47 
              0               1               0              18 
              0               0               1               6 
2  4 1 5 1 0
1
              1               0               0               0 
              0 1.11022302462516e-16              -1               0 
              0               1 1.11022302462516e-16               0 
1
              1               0               0              52 
              0               1               0              18 
              0               0               1               6 
2  7 1 8 1 0
1
              1               0               0               0 
              0 1.11022302462516e-16              -1               0 
              0               1 1.11022302462516e-16               0 
1
              1               0               0              57 
              0               1               0              18 
              0               0               1               6 
2  10 1 11 1 0
1
              1               0               0               0 
              0 1.11022302462516e-16              -1               0 
              0               1 1.11022302462516e-16               0 
1
              1               0               0              62 
              0               1               0              18 
              0               0               1               6 
2  13 1 14 1 0
1
0.866025403784439            -0.5               0               0 
            0.5 0.866025403784439               0               0 
              0               0               1               0 
1
              1               0               0              55 
              0               1               0              12 
              0               0               1              -2 
2  16 1 17 1 0
1
              1               0               0              10 
              0               1               0               9 
              0               0               1              -2 
2  8 -1 7 -1 0
2  2 -1 1 -1 0
2  5 -1 4 -1 0
2  11 -1 10 -1 0
2  14 -1 13 -1 0
2  17 -1 16 -1 0
2  19 -1 0
Curve2ds 78
1 0 0 1 0 
1 0 0 1 0 
1 12 0 0 -1 
1 0 0 0 1 
1 0 -18 1 0 
1 0 0 1 0 
1 0 0 0 -1 
1 0 0 0 1 
1 0 0 0 1 
1 0 0 1 0 
1 0 0 1 0 
1 0 70 1 0 
1 12 0 0 1 
1 0 0 1 0 
2 6.0000000000000018 42 0 1 1 -0 1.2
1 0 18 1 0 
2 6.0000000000000018 47 0 1 1 -0 1.2
1 0 18 1 0 
2 6.0000000000000018 52 0 1 1 -0 1.2
1 0 18 1 0 
2 6.0000000000000018 57 0 1 1 -0 1.2
1 0 18 1 0 
2 6.0000000000000018 62 0 1 1 -0 1.2
1 0 18 1 0 
1 12 0 0 1 
1 0 18 1 0 
8 -8.553847577293368 -1.625644347017857
1 50.723076211353316 19.407849302036031 -0.49999999999999994 0.86602540378443871 
8 -8.553847577293368 -1.625644347017857
1 14 -8.553847577293368 0 -1 
8 -38.815698604072075 -26.815698604072061
1 31.776923788646684 -1.4078493020360305 -0.86602540378443871 -0.49999999999999994 
8 -38.815698604072075 -26.815698604072061
1 14 -26.815698604072061 0 -1 
1 12 0 0 -1 
1 70 0 0 1 
2 10 9 1 0 -0 1 3.5
1 0 14 1 0 
1 0 0 0 1 
1 0 18 1 0 
8 -13 -1
1 -1 51.53589838486225 -1 0 
8 -13 -1
1 1 -6.928203230275507 -1 0 
1 0 0 1 0 
2 0 0 1 0 -0 1 1.2
1 0 0 1 0 
2 0 0 1 0 -0 1 1.2
1 0 0 1 0 
2 0 0 1 0 -0 1 1.2
8 -8.553847577293368 -1.625644347017857
1 50.723076211353316 19.407849302036031 -0.49999999999999994 0.86602540378443871 
8 -8.553847577293368 -1.625644347017857
1 2 -8.553847577293368 0 -1 
8 -38.815698604072075 -26.815698604072061
1 31.776923788646684 -1.4078493020360305 -0.86602540378443871 -0.49999999999999994 
8 -38.815698604072075 -26.815698604072061
1 2 -26.815698604072061 0 -1 
1 0 0 0 -1 
1 70 0 0 1 
2 10 9 1 0 -0 1 3.5
1 0 2 1 0 
1 0 -18 1 0 
1 0 70 1 0 
1 6.2831853071795862 -0 0 1 
1 0 -0 0 1 
1 6.2831853071795862 -0 0 1 
1 0 -0 0 1 
1 6.2831853071795862 -0 0 1 
1 0 -0 0 1 
3 8 -6 1.2819751242557092e-16 1 -1 1.2819751242557092e-16 2.4000000000000004 1.2
7 0 0  8 9 2  6.2831853071795862 2.8823085463760201  6.0371974526438281 2.8823085463760201  5.7912095981088427 2.7385732238844867  5.5452217435706856 2.4511095388816102  5.2992338890419646 2.0384426861601241  5.0532460344986916 1.5377606629499496  4.8072581799661052 0.99857111122832976  4.561270325429283 0.47149004583101645  4.3152824708935249 -5.9999999635351742e-07 
 2.5639502485114194e-16 9 1.9679028362860642 9
3 8 -6 1.2819751242557092e-16 1 -1 1.2819751242557092e-16 2.4000000000000004 1.2
7 0 0  8 9 2  1.9679028362860618 -5.9999999635351742e-07  1.7219149817503037 0.47149004583101645  1.4759271272125716 0.99857111123219511  1.2299392726818041 1.5377606629390357  0.98395141813853115 2.038442686178314  0.73796356361253856 2.4511095388743342  0.49197570906937926 2.7385732238876699  0.24598785453575875 2.8823085463760201  7.4014868308343595e-16 2.8823085463760201 
 4.3152824708935222 9 6.2831853071795862 9
1 6.2831853071795862 -0 0 1 
1 0 -0 0 1 
3 8 2.3094010767585034 2.2204460492503136e-16 -1 1 2.2204460492503136e-16 1.3856406460551016 1.2
7 0 0  8 23 4  6.2831853071795862 4.152479138593197  6.0868357663302239 4.152479138593197  5.8904862254810038 4.1830058443449589  5.6941366846310899 4.2440555655165895  5.4977871437819417 4.3331288056785979  5.301437602932932 4.4451846185720569  5.1050880620832553 4.5732300304557345  4.908738521234052 4.7092645093031811  4.4178646691106467 5.0493518900970971  4.1233403578378542 5.2534050579961331  3.8288160465829364 5.4304798713092168  3.5342917352784511 5.5536364103063534  3.2397674240321734 5.6032880345956073  2.9452431127399663 5.5752037734300757  2.6507188014663865 5.4794842660705925  2.0616701789183001 5.1909105542841729  1.7671458676448069 4.9980553041577878  1.4726215563871605 4.7757179627406003  1.1780972451045031 4.5518966907584399  0.88357293383457858 4.3585221512985299  0.58904862254919266 4.2211644809967765  0.29452431127404388 4.152479138593197  8.8817841970012523e-16 4.152479138593197 
 3.1415926535897936 9 4.7123889803846906 7 7.0685834705770336 7 9.4247779607693793 9
1 6.2831853071795862 -0 0 1 
1 0 -0 0 1 
3 8 8.0829037686547611 2.2204460492503136e-16 -1 1 2.2204460492503136e-16 1.3856406460551016 1.2
7 0 0  8 23 4  6.2831853071795862 1.2657277926450696  6.0868357663302239 1.2657277926450696  5.8904862254809185 1.2962544983966078  5.6941366846312604 1.3573042195675598  5.4977871437820554 1.4463774597296037  5.3014376029329036 1.5584332726235672  5.1050880620833405 1.6864786845074691  4.908738521234052 1.8225131633550542  4.4178646691106467 2.1626005441489697  4.123340357840128 2.3666537120557223  3.8288160465520136 2.5437285253601658  3.5342917353130119 2.6668850643709447  3.2397674240030696 2.7165366886238189  2.9452431127445138 2.6884524274919386  2.6507188014663869 2.5927329201224651  2.061670178918301 2.3041592083360456  1.7671458676543566 2.1113039582053261  1.4726215563344098 1.8889666168115582  1.1780972451445209 1.6651453447802851  0.88357293379092283 1.4717708053631213  0.58904862255737811 1.3344131350484076  0.29452431127405543 1.2657277926450696  1.2434497875801753e-14 1.2657277926450696 
 3.1415926535897927 9 4.7123889803846897 7 7.0685834705770345 7 9.4247779607693793 9
1 0 0 1 0 
1 0 0 1 0 
8 1 13
1 -1 65.392304845413264 1 0 
8 1 13
1 1 12 1 0 
1 6.2831853071795862 -0 0 1 
1 0 -0 0 1 
Curves 39
1 0 0 0 0 0 1 
1 0 0 12 -0 1 0 
1 0 18 0 0 0 1 
1 0 0 0 -0 1 0 
1 0 0 0 1 0 -0 
1 70 0 0 0 0 1 
1 0 0 12 1 0 -0 
2 42 0 6.0000000000000018 0 -1 1.1102230246251565e-16 1 0 0 -0 1.1102230246251565e-16 1 1.2
2 47 0 6.0000000000000018 0 -1 1.1102230246251565e-16 1 0 0 -0 1.1102230246251565e-16 1 1.2
2 52 0 6.0000000000000018 0 -1 1.1102230246251565e-16 1 0 0 -0 1.1102230246251565e-16 1 1.2
2 57 0 6.0000000000000018 0 -1 1.1102230246251565e-16 1 0 0 -0 1.1102230246251565e-16 1 1.2
2 62 0 6.0000000000000018 0 -1 1.1102230246251565e-16 1 0 0 -0 1.1102230246251565e-16 1 1.2
1 0 18 12 1 0 -0 
1 50.723076211353316 19.407849302036031 12 -0.49999999999999994 0.86602540378443871 0 
1 31.776923788646684 -1.4078493020360305 12 -0.86602540378443871 -0.49999999999999994 0 
1 70 0 12 -0 1 0 
2 10 9 12 0 0 1 1 0 -0 -0 1 0 3.5
1 0 18 0 1 0 -0 
1 51.53589838486225 18 -1 0 0 -1 
2 0 0 0 0 0 1 1 0 -0 -0 1 0 1.2
2 0 0 0 0 0 1 1 0 -0 -0 1 0 1.2
2 0 0 0 0 0 1 1 0 -0 -0 1 0 1.2
1 50.723076211353316 19.407849302036031 0 -0.49999999999999994 0.86602540378443871 0 
1 31.776923788646684 -1.4078493020360305 0 -0.86602540378443871 -0.49999999999999994 0 
1 70 0 0 -0 1 0 
2 10 9 0 0 0 1 1 0 -0 -0 1 0 3.5
1 70 18 0 0 0 1 
1 1.2 -2.9391523179536476e-16 0 0 0 1 
1 1.2 -2.9391523179536476e-16 0 0 0 1 
1 1.2 -2.9391523179536476e-16 0 0 0 1 
3 52 17.196152422706632 6 0.86602540378443871 0.49999999999999994 -6.1629758220391547e-33 0.49999999999999994 -0.86602540378443871 1.2819751242557092e-16 6.4098756212785448e-17 -1.1102230246251565e-16 -1 2.4000000000000004 1.2
3 52 17.196152422706632 6 0.86602540378443871 0.49999999999999994 -6.1629758220391547e-33 0.49999999999999994 -0.86602540378443871 1.2819751242557092e-16 6.4098756212785448e-17 -1.1102230246251565e-16 -1 2.4000000000000004 1.2
1 1.2 -2.9391523179536476e-16 0 0 0 1 
3 57 13.154700538379252 6.0000000000000009 -0.49999999999999994 0.86602540378443871 1.2325951644078309e-32 -0.86602540378443871 -0.49999999999999994 2.2204460492503136e-16 1.9229626863835646e-16 1.1102230246251565e-16 1 1.3856406460551016 1.2
1 1.2 -2.9391523179536476e-16 0 0 0 1 
3 62 16.04145188432738 6 -0.49999999999999994 0.86602540378443871 1.2325951644078309e-32 -0.86602540378443871 -0.49999999999999994 2.2204460492503136e-16 1.9229626863835646e-16 1.1102230246251565e-16 1 1.3856406460551016 1.2
1 0 0 0 0 0 1 
1 65.392304845413264 18 -1 0 0 1 
1 3.5 -8.5725275940314722e-16 0 0 0 1 
Polygon3D 0
PolygonOnTriangulations 0
Surfaces 17
1 0 0 0 1 0 -0 0 0 1 0 -1 0 
1 0 0 0 -0 1 0 0 0 1 1 0 -0 
1 0 0 12 0 0 1 1 0 -0 -0 1 0 
1 0 18 0 -0 1 0 0 0 1 1 0 -0 
1 0 0 0 0 0 1 1 0 -0 -0 1 0 
1 70 0 0 1 0 -0 0 0 1 0 -1 0 
2 0 0 0 0 0 1 1 0 -0 -0 1 0 1.2
2 0 0 0 0 0 1 1 0 -0 -0 1 0 1.2
2 0 0 0 0 0 1 1 0 -0 -0 1 0 1.2
2 0 0 0 0 0 1 1 0 -0 -0 1 0 1.2
2 0 0 0 0 0 1 1 0 -0 -0 1 0 1.2
1 0 0 0 1 0 -0 0 0 1 0 -1 0 
1 0 0 0 -0 1 0 0 0 1 1 0 -0 
2 0 0 0 0 0 1 1 0 -0 -0 1 0 3.5
1 0 0 0 0 0 1 1 0 -0 -0 1 0 
1 0 0 0 0 0 1 1 0 -0 -0 1 0 
1 0 0 0 0 0 1 1 0 -0 -0 1 0 
Triangulations 0

TShapes 120
Ve
1e-07
0 0 12
0 0

0101101
*
Ve
1e-07
0 0 0
0 0

0101101
*
Ed
 1e-07 1 1 0
1  1 0 0 12
2  1 1 0 0 12
2  2 2 0 0 12
0

0101000
-120 0 +119 0 *
Ve
1e-07
0 18 12
0 0

0101101
*
Ed
 1e-07 1 1 0
1  2 0 0 18
2  3 1 0 0 18
2  4 3 0 0 18
0

0101000
-117 0 +120 0 *
Ve
1e-07
0 18 0
0 0

0101101
*
Ed
 1e-07 1 1 0
1  3 0 0 12
2  5 1 0 0 12
2  6 4 0 0 12
0

0101000
-117 0 +115 0 *
Ed
 1e-07 1 1 0
1  4 0 0 18
2  7 1 0 0 18
2  8 5 0 0 18
0

0101000
-115 0 +119 0 *
Wi

0101100
-118 0 -116 0 +114 0 +113 0 *
Fa
0  1e-07 1 0

0111000
+112 0 *
Ve
1e-07
70 0 0
0 0

0101101
*
Ed
 1e-07 1 1 0
1  5 0 0 70
2  9 2 0 0 70
2  10 5 0 0 70
0

0101000
-110 0 +119 0 *
Ve
1e-07
70 0 12
0 0

0101101
*
Ed
 1e-07 1 1 0
1  6 0 0 12
2  11 6 0 0 12
2  12 2 0 0 12
0

0101000
-108 0 +110 0 *
Ed
 1e-07 1 1 0
1  7 0 0 70
2  13 2 0 0 70
2  14 3 0 0 70
0

0101000
-108 0 +120 0 *
Wi

0101100
-109 0 -107 0 +118 0 +106 0 *
Ve
1e-07
43.2 0 6
0 0

0101101
*
Ed
 1e-07 1 1 0
1  8 0 0 6.28318530717959
2  15 2 0 0 6.28318530717959
2  16 7 3 0 6.28318530717959
0

0101100
+104 0 -104 0 *
Wi

0101100
+103 0 *
Ve
1e-07
48.2 0 6
0 0

0101101
*
Ed
 1e-07 1 1 0
1  9 0 0 6.28318530717959
2  17 2 0 0 6.28318530717959
2  18 8 6 0 6.28318530717959
0

0101100
+101 0 -101 0 *
Wi

0101100
+100 0 *
Ve
1e-07
53.2 0 6
0 0

0101101
*
Ed
 1e-07 1 1 0
1  10 0 0 6.28318530717959
2  19 2 0 0 6.28318530717959
2  20 9 9 0 6.28318530717959
0

0101100
+98 0 -98 0 *
Wi

0101100
+97 0 *
Ve
1e-07
58.2 0 6
0 0

0101101
*
Ed
 1e-07 1 1 0
1  11 0 0 6.28318530717959
2  21 2 0 0 6.28318530717959
2  22 10 12 0 6.28318530717959
0

0101100
+95 0 -95 0 *
Wi

0101100
+94 0 *
Ve
1e-07
63.2 0 6
0 0

0101101
*
Ed
 1e-07 1 1 0
1  12 0 0 6.28318530717959
2  23 2 0 0 6.28318530717959
2  24 11 15 0 6.28318530717959
0

0101100
+92 0 -92 0 *
Wi

0101100
+91 0 *
Fa
0  1e-07 2 0

0101000
+105 0 +102 0 +99 0 +96 0 +93 0 +90 0 *
Ve
1.50000007105427e-07
51.5358983848623 18 12
0 0

0101101
*
Ed
 1e-07 1 1 0
1  13 0 0 51.5358983848623
2  25 4 0 0 51.5358983848623
2  26 3 0 0 51.5358983848623
0

0101000
+117 0 -88 0 *
Ve
1.50000001776357e-07
55 12 12
0 0

0101101
*
Ed
 1.5e-07 1 1 0
1  14 0 -8.55384757729337 -1.62564434701786
2  27 3 0 -8.55384757729337 -1.62564434701786
2  28 12 18 -8.55384757729337 -1.62564434701786
0

0101000
+86 0 -88 0 *
Ve
1.50000014648214e-07
65.3923048454133 18 12
0 0

0101101
*
Ed
 1.5e-07 1 1 0
1  15 0 -38.8156986040721 -26.8156986040721
2  29 3 0 -38.8156986040721 -26.8156986040721
2  30 13 18 -38.8156986040721 -26.8156986040721
0

0101000
+84 0 -86 0 *
Ve
1e-07
70 18 12
0 0

0101101
*
Ed
 1e-07 1 1 0
1  16 0 0 18
2  31 6 0 0 18
2  32 3 0 0 18
0

0101000
-82 0 +108 0 *
Ed
 1e-07 1 1 0
1  13 0 65.3923048454133 70
2  25 4 0 65.3923048454133 70
2  26 3 0 65.3923048454133 70
0

0101000
+84 0 -82 0 *
Wi

0101100
-87 0 -116 0 +85 0 +106 0 +83 0 +81 0 -80 0 *
Ve
1e-07
13.5 9 12
0 0

0101101
*
Ed
 1e-07 1 1 0
1  17 0 0 6.28318530717959
2  33 3 0 0 6.28318530717959
2  34 14 19 0 6.28318530717959
0

0101100
+78 0 -78 0 *
Wi

0101100
-77 0 *
Fa
0  1e-07 3 0

0101000
+79 0 +76 0 *
Ve
1.50000007105427e-07
51.5358983848623 18 0
0 0

0101101
*
Ed
 1e-07 1 1 0
1  18 0 0 51.5358983848623
2  35 4 0 0 51.5358983848623
2  36 5 0 0 51.5358983848623
0

0101000
+115 0 -74 0 *
Ve
1.50001e-07
51.5358983848622 18 4.89337915669978
0 0

0101101
*
Ed
 1.5e-07 1 1 0
1  19 0 -5.89337915669978 -1
2  37 4 0 -5.89337915669978 -1
2  38 12 18 -5.89337915669978 -1
0

0101000
+72 0 -74 0 *
Ve
1.50001e-07
51.5358983848622 18 7.10662084330022
0 0

0101101
*
Ed
 1e-07 1 1 0
1  20 0 1.96790252325187 4.31528278392772
2  39 9 0 1.96790252325187 4.31528278392772
2  40 15 0 1.96790252325187 4.31528278392772
0

0101000
+70 20 -72 20 *
Ed
 1.5e-07 1 1 0
1  19 0 -13 -8.10662084330022
2  37 4 0 -13 -8.10662084330022
2  38 12 18 -13 -8.10662084330022
0

0101000
+88 0 -70 0 *
Wi

0101100
-73 0 +71 0 +69 9 +68 0 +87 0 +114 0 *
Ve
1e-07
43.2 18 6
0 0

0101101
*
Ed
 1e-07 1 1 0
1  21 0 0 6.28318530717959
2  41 7 0 0 6.28318530717959
2  42 16 0 0 6.28318530717959
0

0101000
+66 21 -66 21 *
Wi

0101100
+65 3 *
Ve
1e-07
48.2 18 6
0 0

0101101
*
Ed
 1e-07 1 1 0
1  22 0 0 6.28318530717959
2  43 8 0 0 6.28318530717959
2  44 17 0 0 6.28318530717959
0

0101000
+63 22 -63 22 *
Wi

0101100
+62 6 *
Fa
0  1e-07 4 0

0101000
+67 0 +64 0 +61 0 *
Ve
1.50000001776357e-07
55 12 0
0 0

0101101
*
Ed
 1.5e-07 1 1 0
1  23 0 -8.55384757729337 -1.62564434701786
2  45 5 0 -8.55384757729337 -1.62564434701786
2  46 12 18 -8.55384757729337 -1.62564434701786
0

0101000
+59 0 -74 0 *
Ve
1.50000014648214e-07
65.3923048454133 18 0
0 0

0101101
*
Ed
 1.5e-07 1 1 0
1  24 0 -38.8156986040721 -26.8156986040721
2  47 5 0 -38.8156986040721 -26.8156986040721
2  48 13 18 -38.8156986040721 -26.8156986040721
0

0101000
+57 0 -59 0 *
Ve
1e-07
70 18 0
0 0

0101101
*
Ed
 1e-07 1 1 0
1  25 0 0 18
2  49 6 0 0 18
2  50 5 0 0 18
0

0101000
-55 0 +110 0 *
Ed
 1e-07 1 1 0
1  18 0 65.3923048454133 70
2  35 4 0 65.3923048454133 70
2  36 5 0 65.3923048454133 70
0

0101000
+57 0 -55 0 *
Wi

0101100
-73 0 -113 0 +58 0 +109 0 +56 0 +54 0 -53 0 *
Ve
1e-07
13.5 9 0
0 0

0101101
*
Ed
 1e-07 1 1 0
1  26 0 0 6.28318530717959
2  51 5 0 0 6.28318530717959
2  52 14 19 0 6.28318530717959
0

0101100
+51 0 -51 0 *
Wi

0101100
-50 0 *
Fa
0  1e-07 5 0

0101000
+52 0 +49 0 *
Ed
 1e-07 1 1 0
1  27 0 0 12
2  53 6 0 0 12
2  54 4 0 0 12
0

0101000
-82 0 +55 0 *
Wi

0101100
-107 0 -81 0 +47 0 +54 0 *
Fa
0  1e-07 6 0

0111000
+46 0 *
Ed
 1e-07 1 1 0
1  28 0 0 18
3  55 56CN 7 0 0 18
0

0101000
+66 21 -104 21 *
Wi

0101100
-103 0 +44 3 +65 3 -44 3 *
Fa
0  1e-07 7 3

0101000
+43 0 *
Ed
 1e-07 1 1 0
1  29 0 0 18
3  57 58CN 8 0 0 18
0

0101000
+63 22 -101 22 *
Wi

0101100
-100 0 +41 6 +62 6 -41 6 *
Fa
0  1e-07 8 6

0101000
+40 0 *
Ve
1.00000003662053e-07
53.2 15.117691453624 6
0 0

0101101
*
Ed
 1e-07 1 1 0
1  30 0 2.88230854637602 18
3  59 60CN 9 0 2.88230854637602 18
0

0101000
+38 20 -98 20 *
Ed
 1e-07 1 1 0
1  31 0 2.56395024851142e-16 1.96790252325186
2  61 12 18 2.56395024851142e-16 1.96790252325186
2  62 9 9 2.56395024851142e-16 1.96790252325186
0

0101000
+38 0 -72 0 *
Ed
 1e-07 1 1 0
1  32 0 4.31528278392773 6.28318530717959
2  63 12 18 4.31528278392773 6.28318530717959
2  64 9 9 4.31528278392773 6.28318530717959
0

0101000
+70 0 -38 0 *
Wi

0101100
-97 0 +37 9 -36 0 +69 9 -35 0 -37 9 *
Fa
0  1e-07 9 9

0101000
+34 0 *
Ve
1.00000000888178e-07
58.2 13.8475208614068 6
0 0

0101101
*
Ed
 1e-07 1 1 0
1  33 0 4.1524791385932 18
3  65 66CN 10 0 4.1524791385932 18
0

0101000
+32 23 -95 23 *
Ed
 1e-07 1 1 0
1  34 0 3.14159265358979 9.42477796076938
2  67 13 18 3.14159265358979 9.42477796076938
2  68 10 12 3.14159265358979 9.42477796076938
0

0101100
+32 0 -32 0 *
Wi

0101100
-94 0 +31 12 -30 0 -31 12 *
Fa
0  1e-07 10 12

0101000
+29 0 *
Ve
1.00000003552714e-07
63.2 16.7342722073549 6
0 0

0101101
*
Ed
 1e-07 1 1 0
1  35 0 1.26572779264507 18
3  69 70CN 11 0 1.26572779264507 18
0

0101000
+27 24 -92 24 *
Ed
 1e-07 1 1 0
1  36 0 3.14159265358979 9.42477796076938
2  71 13 18 3.14159265358979 9.42477796076938
2  72 11 15 3.14159265358979 9.42477796076938
0

0101100
+27 0 -27 0 *
Wi

0101100
-91 0 +26 15 -25 0 -26 15 *
Fa
0  1e-07 11 15

0101000
+24 0 *
Ed
 1e-07 1 1 0
1  37 0 2 14
2  73 12 0 2 14
2  74 13 0 2 14
0

0101000
+59 25 -86 25 *
Wi

0101100
-22 18 -85 0 -68 0 -35 0 -36 0 -71 0 +58 0 *
Fa
0  1e-07 12 18

0101000
+21 0 *
Ed
 1.5e-07 1 1 0
1  38 0 1 13
2  75 4 0 1 13
2  76 13 18 1 13
0

0101000
+57 0 -84 0 *
Wi

0101100
+56 0 -19 0 +22 18 -83 0 *
Wi

0101100
-30 0 *
Wi

0101100
-25 0 *
Fa
0  1e-07 13 18

0101000
+18 0 +17 0 +16 0 *
Wi

0101100
-53 0 -47 0 +80 0 +19 0 *
Fa
0  1e-07 4 0

0101000
+14 0 *
Ed
 1e-07 1 1 0
1  39 0 2 14
3  77 78CN 14 0 2 14
0

0101000
+51 26 -78 26 *
Wi

0101100
-77 0 +12 19 +50 0 -12 19 *
Fa
0  1e-07 14 19

0101000
+11 0 *
Sh

0101100
-111 0 -89 0 +75 0 +60 0 -48 0 +45 0 -42 0 -39 0 -33 0 -28 0 
-23 0 +20 0 +15 0 +13 0 -10 0 *
So

0100000
+9 0 *
Co

0100000
+8 0 *
Co

0100000
+7 0 *
Co

0100000
+6 0 *
Co

0100000
+5 0 *
Co

0100000
+4 0 *
Co

0100000
+3 0 *
Co

1100000
+2 0 *

+1 0 