                                                                        S0000001
,,31HOpen CASCADE IGES processor 7.8,13HFilename.iges,                  G0000001
16HOpen CASCADE 7.8,31HOpen CASCADE IGES processor 7.8,32,308,15,308,15,G0000002
,1.,2,2HMM,1,0.01,15H20261006.102751,1E-07,80.,,,11,0,                  G0000003
15H20261006.102751,;                                                    G0000004
     402       1       0       0       0       0       0       000000000D0000001
     402       0       0       1       1                               0D0000002
     144       2       0       0       0       0       0       000020000D0000003
     144       0       0       1       0                               0D0000004
     120       3       0       0       0       0       7       000010000D0000005
     120       0       0       1       0                               0D0000006
     124       4       0       0       0       0       0       000000000D0000007
     124       0       0       1       0                               0D0000008
     110       5       0       0       0       0       0       000010000D0000009
     110       0       0       1       0                               0D0000010
     110       6       0       0       0       0       0       000010000D0000011
     110       0       0       1       0                               0D0000012
     142       7       0       0       0       0       0       000010500D0000013
     142       0       0       1       0                               0D0000014
     102       8       0       0       0       0       0       000010000D0000015
     102       0       0       1       0                               0D0000016
     100       9       0       0       0       0      19       000010000D0000017
     100       0       0       1       0                               0D0000018
     124      10       0       0       0       0       0       000000000D0000019
     124       0       0       1       0                               0D0000020
     110      11       0       0       0       0       0       000010000D0000021
     110       0       0       1       0                               0D0000022
     100      12       0       0       0       0       0       000010000D0000023
     100       0       0       1       0                               0D0000024
     110      13       0       0       0       0       0       000010000D0000025
     110       0       0       1       0                               0D0000026
     144      14       0       0       0       0       0       000020000D0000027
     144       0       0       1       0                               0D0000028
     120      15       0       0       0       0      31       000010000D0000029
     120       0       0       1       0                               0D0000030
     124      16       0       0       0       0       0       000000000D0000031
     124       0       0       1       0                               0D0000032
     110      17       0       0       0       0       0       000010000D0000033
     110       0       0       1       0                               0D0000034
     110      18       0       0       0       0       0       000010000D0000035
     110       0       0       1       0                               0D0000036
     142      19       0       0       0       0       0       000010500D0000037
     142       0       0       1       0                               0D0000038
     102      20       0       0       0       0       0       000010000D0000039
     102       0       0       1       0                               0D0000040
     100      21       0       0       0       0      43       000010000D0000041
     100       0       0       1       0                               0D0000042
     124      22       0       0       0       0       0       000000000D0000043
     124       0       0       1       0                               0D0000044
     110      23       0       0       0       0       0       000010000D0000045
     110       0       0       1       0                               0D0000046
     100      24       0       0       0       0      49       000010000D0000047
     100       0       0       1       0                               0D0000048
     124      25       0       0       0       0       0       000000000D0000049
     124       0       0       1       0                               0D0000050
     110      26       0       0       0       0       0       000010000D0000051
     110       0       0       1       0                               0D0000052
     144      27       0       0       0       0       0       000020000D0000053
     144       0       0       1       0                               0D0000054
     108      28       0       0       0       0       0       000010000D0000055
     108       0       0       1       0                               0D0000056
     142      29       0       0       0       0       0       000010500D0000057
     142       0       0       1       0                               0D0000058
     100      30       0       0       0       0      61       000010000D0000059
     100       0       0       1       0                               0D0000060
     124      31       0       0       0       0       0       000000000D0000061
     124       0       0       1       0                               0D0000062
     142      32       0       0       0       0       0       000010500D0000063
     142       0       0       1       0                               0D0000064
     100      33       0       0       0       0       0       000010000D0000065
     100       0       0       1       0                               0D0000066
     144      34       0       0       0       0       0       000020000D0000067
     144       0       0       1       0                               0D0000068
     108      35       0       0       0       0       0       000010000D0000069
     108       0       0       1       0                               0D0000070
     142      36       0       0       0       0       0       000010500D0000071
     142       0       0       1       0                               0D0000072
     100      37       0       0       0       0      75       000010000D0000073
     100       0       0       1       0                               0D0000074
     124      38       0       0       0       0       0       000000000D0000075
     124       0       0       1       0                               0D0000076
     142      39       0       0       0       0       0       000010500D0000077
     142       0       0       1       0                               0D0000078
     100      40       0       0       0       0      81       000010000D0000079
     100       0       0       1       0                               0D0000080
     124      41       0       0       0       0       0       000000000D0000081
     124       0       0       1       0                               0D0000082
     144      42       0       0       0       0       0       000020000D0000083
     144       0       0       1       0                               0D0000084
     120      43       0       0       0       0      87       000010000D0000085
     120       0       0       1       0                               0D0000086
     124      44       0       0       0       0       0       000000000D0000087
     124       0       0       1       1                               0D0000088
     110      45       0       0       0       0       0       000010000D0000089
     110       0       0       1       0                               0D0000090
     110      46       0       0       0       0       0       000010000D0000091
     110       0       0       1       0                               0D0000092
     142      47       0       0       0       0       0       000010500D0000093
     142       0       0       1       0                               0D0000094
     102      48       0       0       0       0       0       000010000D0000095
     102       0       0       1       0                               0D0000096
     100      49       0       0       0       0      99       000010000D0000097
     100       0       0       2       0                               0D0000098
     124      51       0       0       0       0       0       000000000D0000099
     124       0       0       1       0                               0D0000100
     110      52       0       0       0       0       0       000010000D0000101
     110       0       0       2       0                               0D0000102
     100      54       0       0       0       0     105       000010000D0000103
     100       0       0       1       0                               0D0000104
     124      55       0       0       0       0       0       000000000D0000105
     124       0       0       1       0                               0D0000106
     110      56       0       0       0       0       0       000010000D0000107
     110       0       0       2       0                               0D0000108
     144      58       0       0       0       0       0       000020000D0000109
     144       0       0       1       0                               0D0000110
     120      59       0       0       0       0     113       000010000D0000111
     120       0       0       1       0                               0D0000112
     124      60       0       0       0       0       0       000000000D0000113
     124       0       0       1       1                               0D0000114
     110      61       0       0       0       0       0       000010000D0000115
     110       0       0       1       0                               0D0000116
     110      62       0       0       0       0       0       000010000D0000117
     110       0       0       1       0                               0D0000118
     142      63       0       0       0       0       0       000010500D0000119
     142       0       0       1       0                               0D0000120
     102      64       0       0       0       0       0       000010000D0000121
     102       0       0       1       0                               0D0000122
     110      65       0       0       0       0       0       000010000D0000123
     110       0       0       2       0                               0D0000124
     100      67       0       0       0       0     127       000010000D0000125
     100       0       0       2       0                               0D0000126
     124      69       0       0       0       0       0       000000000D0000127
     124       0       0       1       0                               0D0000128
     110      70       0       0       0       0       0       000010000D0000129
     110       0       0       2       0                               0D0000130
     100      72       0       0       0       0     133       000010000D0000131
     100       0       0       1       0                               0D0000132
     124      73       0       0       0       0       0       000000000D0000133
     124       0       0       1       0                               0D0000134
402,6,3,27,53,67,83,109;                                         0000001P0000001
144,5,1,0,13;                                                    0000003P0000002
120,9,11,6.283185307,12.566370614;                               0000005P0000003
124,1.,0.,0.,0.,0.,-1.,0.,0.,0.,0.,-1.,0.;                       0000007P0000004
110,0.,0.,1.,0.,0.,0.;                                           0000009P0000005
110,10.,0.,-30.,25.,0.,0.;                                       0000011P0000006
142,0,5,0,15,2;                                                  0000013P0000007
102,4,17,21,23,25;                                               0000015P0000008
100,0.,0.,0.,10.,0.,10.,0.;                                      0000017P0000009
124,1.,0.,0.,0.,0.,-1.,0.,0.,0.,0.,-1.,30.;                      0000019P0000010
110,10.,-2.449293598E-15,30.,25.,-6.123233996E-15,0.;            0000021P0000011
100,0.,0.,0.,25.,0.,25.,0.;                                      0000023P0000012
110,25.,-6.123233996E-15,0.,10.,-2.449293598E-15,30.;            0000025P0000013
144,29,1,0,37;                                                   0000027P0000014
120,33,35,0.,6.283185307;                                        0000029P0000015
124,1.,0.,0.,0.,0.,1.,0.,0.,0.,0.,1.,30.;                        0000031P0000016
110,0.,0.,1.,0.,0.,0.;                                           0000033P0000017
110,10.,0.,0.,32.,0.,50.;                                        0000035P0000018
142,0,29,0,39,2;                                                 0000037P0000019
102,4,41,45,47,51;                                               0000039P0000020
100,0.,0.,0.,32.,0.,32.,0.;                                      0000041P0000021
124,1.,0.,0.,0.,0.,-1.,0.,0.,0.,0.,-1.,80.;                      0000043P0000022
110,32.,-7.837739515E-15,80.,10.,-2.449293598E-15,30.;           0000045P0000023
100,0.,0.,0.,10.,0.,10.,0.;                                      0000047P0000024
124,1.,0.,0.,0.,0.,1.,0.,0.,0.,0.,1.,30.;                        0000049P0000025
110,10.,-2.449293598E-15,30.,32.,-7.837739515E-15,80.;           0000051P0000026
144,55,1,1,57,63;                                                0000053P0000027
108,-0.,-0.,-1.,-0.,0,0.,0.,0.,0.;                               0000055P0000028
142,0,55,0,59,2;                                                 0000057P0000029
100,0.,0.,0.,25.,0.,25.,0.;                                      0000059P0000030
124,1.,0.,0.,0.,0.,-1.,0.,0.,0.,0.,-1.,0.;                       0000061P0000031
142,0,55,0,65,2;                                                 0000063P0000032
100,0.,0.,0.,21.774193548,0.,21.774193548,0.;                    0000065P0000033
144,69,1,1,71,77;                                                0000067P0000034
108,0.,0.,1.,80.,0,0.,0.,80.,0.;                                 0000069P0000035
142,0,69,0,73,2;                                                 0000071P0000036
100,0.,0.,0.,32.,0.,32.,0.;                                      0000073P0000037
124,1.,0.,0.,0.,0.,1.,0.,0.,0.,0.,1.,80.;                        0000075P0000038
142,0,69,0,79,2;                                                 0000077P0000039
100,0.,0.,0.,29.078431373,0.,29.078431373,0.;                    0000079P0000040
124,1.,0.,0.,0.,0.,-1.,0.,0.,0.,0.,-1.,80.;                      0000081P0000041
144,85,1,0,93;                                                   0000083P0000042
120,89,91,-6.283185307,0.;                                       0000085P0000043
124,1.,0.,0.,0.,0.,1.,0.,0.,0.,0.,-1.,-0.5;                      0000087P0000044
110,0.,0.,1.,0.,0.,0.;                                           0000089P0000045
110,8.109018472,0.,-30.758601956,21.774193548,0.,-0.5;           0000091P0000046
142,0,85,0,95,2;                                                 0000093P0000047
102,4,97,101,103,107;                                            0000095P0000048
100,0.,0.,0.,2.297097979E-15,8.109018472,2.297097979E-15,        0000097P0000049
8.109018472;                                                     0000097P0000050
124,0.,1.,0.,0.,-1.,0.,0.,0.,0.,0.,1.,30.258601956;              0000099P0000051
110,8.109018472,-1.986136703E-15,30.258601956,21.774193548,      0000101P0000052
-5.333139287E-15,3.330669074E-16;                                0000101P0000053
100,0.,0.,0.,21.774193548,0.,21.774193548,0.;                    0000103P0000054
124,1.,0.,0.,0.,0.,-1.,0.,0.,0.,0.,-1.,0.;                       0000105P0000055
110,21.774193548,-5.333139287E-15,3.330669074E-16,8.109018472,   0000107P0000056
-1.986136703E-15,30.258601956;                                   0000107P0000057
144,111,1,0,119;                                                 0000109P0000058
120,115,117,0.,6.283185307;                                      0000111P0000059
124,1.,0.,0.,0.,0.,-1.,0.,0.,0.,0.,1.,30.;                       0000113P0000060
110,0.,0.,1.,0.,0.,0.;                                           0000115P0000061
110,8.109018472,0.,0.258601956,29.078431373,0.,50.;              0000117P0000062
142,0,111,0,121,2;                                               0000119P0000063
102,4,123,125,129,131;                                           0000121P0000064
110,29.078431373,-7.122161581E-15,80.,8.109018472,               0000123P0000065
-1.986136703E-15,30.258601956;                                   0000123P0000066
100,0.,0.,0.,4.965341758E-16,-8.109018472,4.965341758E-16,       0000125P0000067
-8.109018472;                                                    0000125P0000068
124,0.,-1.,0.,0.,-1.,0.,0.,0.,0.,0.,-1.,30.258601956;            0000127P0000069
110,8.109018472,-1.986136703E-15,30.258601956,29.078431373,      0000129P0000070
-7.122161581E-15,80.;                                            0000129P0000071
100,0.,0.,0.,29.078431373,0.,29.078431373,0.;                    0000131P0000072
124,1.,0.,0.,0.,0.,1.,0.,0.,0.,0.,1.,80.;                        0000133P0000073
S      1G      4D    134P     73                                        T0000001
