0
SECTION
2
HEADER
9
$ACADVER
1
AC1009
0
ENDSEC
0
SECTION
2
TABLES
0
TABLE
2
LAYER
70
3
0
LAYER
2
WALLS
70
0
62
7
6
CONTINUOUS
0
LAYER
2
DOORS
70
0
62
1
6
CONTINUOUS
0
LAYER
2
ANNOTATIONS
70
0
62
3
6
CONTINUOUS
0
ENDTAB
0
ENDSEC
0
SECTION
2
ENTITIES
0
LINE
8
WALLS
10
0.0
20
0.0
30
0.0
11
120.0
21
0.0
31
0.0
0
LINE
8
WALLS
10
120.0
20
0.0
30
0.0
11
120.0
21
80.0
31
0.0
0
LINE
8
WALLS
10
120.0
20
80.0
30
0.0
11
0.0
21
80.0
31
0.0
0
LINE
8
WALLS
10
0.0
20
80.0
30
0.0
11
0.0
21
0.0
31
0.0
0
LINE
8
WALLS
10
60.0
20
0.0
30
0.0
11
60.0
21
80.0
31
0.0
0
CIRCLE
8
DOORS
10
60.0
20
20.0
30
0.0
40
8.0
0
CIRCLE
8
DOORS
10
30.0
20
40.0
30
0.0
40
6.0
0
CIRCLE
8
DOORS
10
90.0
20
40.0
30
0.0
40
6.0
0
TEXT
8
ANNOTATIONS
10
20.0
20
40.0
30
0.0
40
4.0
1
OFFICE A
0
TEXT
8
ANNOTATIONS
10
80.0
20
40.0
30
0.0
40
4.0
1
CONFERENCE ROOM
0
ENDSEC
0
EOF
