# Wavefront OBJ - Low Poly Crystal
o Crystal
v 0.0000 35.0000 0.0000
v 12.0000 10.0000 8.0000
v 0.0000 10.0000 15.0000
v -12.0000 10.0000 8.0000
v -12.0000 10.0000 -8.0000
v 0.0000 10.0000 -15.0000
v 12.0000 10.0000 -8.0000
v 10.0000 -18.0000 6.0000
v 0.0000 -18.0000 12.0000
v -10.0000 -18.0000 6.0000
v -10.0000 -18.0000 -6.0000
v 0.0000 -18.0000 -12.0000
v 10.0000 -18.0000 -6.0000
v 0.0000 -30.0000 0.0000
s 1
f 1 2 3
f 1 3 4
f 1 4 5
f 1 5 6
f 1 6 7
f 1 7 2
f 2 8 9 3
f 3 9 10 4
f 4 10 11 5
f 5 11 12 6
f 6 12 13 7
f 7 13 8 2
f 14 9 8
f 14 10 9
f 14 11 10
f 14 12 11
f 14 13 12
f 14 8 13
