# .PCD v0.7 - Point Cloud Data file format
VERSION 0.7
FIELDS x y z
SIZE 4 4 4
TYPE F F F
COUNT 1 1 1
WIDTH 4000
HEIGHT 1
VIEWPOINT 0 0 0 1 0 0 0
POINTS 4000
DATA ascii
48.000 0.000 -30.000
45.087 0.283 -22.690
38.518 0.484 -19.584
32.487 0.612 -21.173
29.180 0.734 -25.013
28.145 0.885 -29.019
28.476 1.074 -32.772
30.120 1.326 -36.310
33.247 1.673 -39.072
37.375 2.116 -40.257
41.492 2.610 -39.612
44.726 3.096 -37.620
46.756 3.532 -35.092
47.751 3.909 -32.738
48.098 4.242 -30.976
48.160 4.552 -29.980
48.158 4.858 -29.795
48.129 5.161 -30.425
47.929 5.444 -31.850
47.246 5.667 -33.963
45.685 5.771 -36.458
42.958 5.701 -38.744
39.156 5.447 -40.008
34.942 5.085 -39.570
31.340 4.762 -37.355
29.109 4.610 -34.007
28.290 4.663 -30.292
28.700 4.916 -26.375
30.906 5.494 -22.287
35.814 6.599 -19.386
42.504 8.108 -20.331
47.326 9.337 -26.203
46.790 9.537 -34.110
41.301 8.688 -39.246
34.701 7.528 -39.380
30.264 6.765 -36.105
28.430 6.543 -32.002
28.219 6.681 -28.131
29.216 7.111 -24.446
31.628 7.909 -21.227
35.291 9.061 -19.281
39.363 10.371 -19.156
42.868 11.583 -20.650
45.260 12.535 -23.024
46.538 13.204 -25.489
47.024 13.662 -27.500
47.101 14.006 -28.795
47.048 14.312 -29.289
46.977 14.614 -28.967
46.820 14.888 -27.837
46.340 15.057 -25.957
45.180 14.994 -23.536
42.995 14.570 -21.043
39.693 13.729 -19.223
35.680 12.593 -18.869
31.845 11.465 -20.358
29.096 10.682 -23.311
27.753 10.388 -26.906
27.609 10.532 -30.690
28.831 11.206 -34.736
32.321 12.797 -38.388
38.184 15.396 -39.320
43.914 18.028 -35.353
45.657 19.080 -27.686
42.048 17.883 -20.863
35.736 15.464 -18.628
30.480 13.418 -20.796
27.797 12.446 -24.762
27.029 12.306 -28.721
27.442 12.703 -32.446
29.082 13.685 -35.910
32.030 15.318 -38.456
35.728 17.364 -39.328
39.240 19.376 -38.408
41.855 20.996 -36.267
43.379 22.103 -33.727
44.024 22.781 -31.450
44.148 23.198 -29.810
44.062 23.507 -28.949
43.935 23.795 -28.901
43.775 24.065 -29.668
43.427 24.231 -31.220
42.600 24.122 -33.425
40.956 23.531 -35.935
38.285 22.318 -38.108
34.757 20.555 -39.123
31.030 18.615 -38.370
27.995 17.035 -35.904
26.209 16.174 -32.452
25.607 16.026 -28.710
26.084 16.553 -24.744
28.239 18.171 -20.708
32.715 21.343 -18.264
38.292 25.326 -20.058
41.642 27.919 -26.580
40.227 27.338 -34.339
35.068 24.156 -38.672
29.595 20.661 -38.047
26.189 18.529 -34.478
24.863 17.827 -30.389
24.779 18.003 -26.557
25.711 18.928 -22.911
27.822 20.753 -19.845
30.866 23.327 -18.186
34.084 26.097 -18.368
36.708 28.473 -20.068
38.377 30.157 -22.508
39.161 31.172 -24.926
39.350 31.729 -26.829
39.252 32.058 -27.992
39.073 32.324 -28.349
38.880 32.578 -27.890
38.595 32.754 -26.627
38.011 32.672 -24.637
36.838 32.068 -22.162
34.826 30.703 -19.724
31.967 28.542 -18.100
28.664 25.918 -18.048
25.655 23.492 -19.830
23.597 21.882 -22.950
22.636 21.257 -26.588
22.591 21.483 -30.409
23.691 22.814 -34.479
26.637 25.975 -37.872
31.210 30.821 -38.076
35.153 35.153 -33.283
35.646 36.097 -25.398
32.220 33.040 -19.176
27.282 28.330 -17.802
23.521 24.734 -20.467
21.711 23.120 -24.506
21.219 22.882 -28.416
21.579 23.566 -32.114
22.876 25.299 -35.484
25.093 28.104 -37.791
27.734 31.458 -38.348
30.106 34.584 -37.169
31.752 36.941 -34.904
32.600 38.413 -32.369
32.843 39.196 -30.182
32.750 39.588 -28.666
32.532 39.832 -27.941
32.295 40.052 -28.031
32.023 40.230 -28.933
31.590 40.201 -30.609
30.780 39.681 -32.897
29.366 38.354 -35.403
27.243 36.048 -37.439
24.596 32.974 -38.186
21.936 29.796 -37.119
19.867 27.345 -34.426
18.691 26.069 -30.891
18.304 25.871 -27.122
18.682 26.760 -23.107
20.290 29.455 -19.170
23.418 34.459 -17.266
26.943 40.186 -19.930
28.557 43.178 -26.995
26.934 41.285 -34.461
23.192 36.042 -37.947
19.644 30.955 -36.630
17.576 28.084 -32.841
16.784 27.197 -28.785
16.736 27.504 -24.988
17.352 28.925 -21.391
18.710 31.637 -18.505
20.574 35.293 -17.145
22.431 39.041 -17.623
23.834 42.092 -19.507
24.615 44.116 -21.991
24.862 45.223 -24.349
24.771 45.737 -26.137
24.530 45.978 -27.167
24.252 46.153 -27.387
23.963 46.309 -26.791
23.604 46.326 -25.397
23.042 45.934 -23.302
22.109 44.773 -20.789
20.682 42.554 -18.428
18.802 39.314 -17.023
16.754 35.604 -17.282
14.976 32.352 -19.342
13.797 30.304 -22.601
13.236 29.562 -26.273
13.185 29.952 -30.137
13.823 31.944 -34.207
15.500 36.445 -37.265
17.898 42.828 -36.680
19.632 47.820 -31.117
19.329 47.937 -23.161
17.088 43.160 -17.637
14.366 36.960 -17.095
12.447 32.630 -20.173
11.534 30.816 -24.243
11.243 30.623 -28.105
11.376 31.597 -31.775
11.978 33.939 -35.028
12.991 37.557 -37.074
14.125 41.683 -37.317
15.050 45.348 -35.899
15.584 47.963 -33.534
15.734 49.478 -31.022
15.612 50.187 -28.932
15.351 50.463 -27.546
15.044 50.594 -26.957
14.731 50.704 -27.184
14.396 50.739 -28.221
13.978 50.472 -30.015
13.386 49.541 -32.376
12.535 47.578 -34.858
11.412 44.446 -36.733
10.129 40.504 -37.196
8.916 36.632 -35.820
8.002 33.797 -32.924
7.457 32.404 -29.325
7.213 32.270 -25.526
7.271 33.516 -21.467
7.801 37.082 -17.688
8.817 43.260 -16.406
9.796 49.653 -19.937
9.945 52.135 -27.422
9.003 48.862 -34.461
7.525 42.333 -37.079
6.274 36.630 -35.145
5.545 33.643 -31.201
5.195 32.800 -27.189
5.055 33.265 -23.422
5.101 35.055 -19.890
5.329 38.309 -17.209
5.639 42.488 -16.158
5.884 46.574 -16.920
5.966 49.738 -18.963
5.873 51.708 -21.470
5.649 52.680 -23.755
5.350 53.042 -25.423
5.024 53.146 -26.318
4.691 53.196 -26.401
4.356 53.215 -25.669
4.007 53.039 -24.147
3.623 52.343 -21.954
3.192 50.730 -19.419
2.713 47.924 -17.160
2.217 44.065 -15.994
1.754 39.863 -16.568
1.371 36.360 -18.888
1.077 34.269 -22.263
0.844 33.580 -25.963
0.644 34.147 -29.875
0.460 36.631 -33.912
0.263 41.895 -36.552
0.000 48.755 -35.134
-0.335 53.338 -28.877
-0.657 52.306 -21.000
-0.876 46.465 -16.250
-1.002 39.854 -16.493
-1.119 35.600 -19.902
-1.280 33.938 -23.971
-1.490 33.859 -27.791
-1.762 35.029 -31.426
-2.133 37.672 -34.538
-2.615 41.556 -36.305
-3.169 45.779 -36.237
-3.728 49.352 -34.602
-4.237 51.762 -32.160
-4.678 53.044 -29.688
-5.061 53.544 -27.703
-5.412 53.653 -26.447
-5.752 53.643 -25.996
-6.090 53.616 -26.360
-6.415 53.484 -27.530
-6.694 52.987 -29.439
-6.867 51.742 -31.859
-6.872 49.397 -34.297
-6.678 45.891 -35.987
-6.336 41.696 -36.152
-5.982 37.772 -34.477
-5.776 35.040 -31.403
-5.785 33.775 -27.755
-6.000 33.754 -23.921
-6.492 35.235 -19.831
-7.478 39.199 -16.276
-8.990 45.570 -15.689
-10.489 51.462 -20.066
-11.118 52.848 -27.836
-10.553 48.646 -34.326
-9.373 41.931 -36.075
-8.421 36.591 -33.605
-8.046 33.983 -29.564
-8.110 33.318 -25.601
-8.474 33.887 -21.860
-9.191 35.796 -18.413
-10.298 39.088 -15.960
-11.649 43.113 -15.224
-12.979 46.863 -16.253
-14.077 49.616 -18.432
-14.877 51.208 -20.942
-15.429 51.887 -23.142
-15.830 52.038 -24.687
-16.172 51.985 -25.447
-16.502 51.896 -25.392
-16.819 51.763 -24.524
-17.060 51.403 -22.877
-17.109 50.488 -20.596
-16.827 48.649 -18.056
-16.123 45.681 -15.922
-15.052 41.810 -15.016
-13.875 37.793 -15.905
-12.951 34.602 -18.463
-12.509 32.792 -21.932
-12.537 32.255 -25.658
-13.037 32.928 -29.620
-14.332 35.544 -33.580
-16.718 40.723 -35.720
-19.591 46.879 -33.439
-21.366 50.238 -26.587
-20.876 48.243 -18.935
-18.649 42.362 -15.014
-16.318 36.444 -15.982
-14.986 32.913 -19.646
-14.635 31.614 -23.689
-14.889 31.641 -27.472
-15.697 32.821 -31.064
-17.172 35.332 -34.008
-19.180 38.842 -35.481
-21.306 42.473 -35.112
-23.127 45.390 -33.282
-24.439 47.228 -30.786
-25.270 48.092 -28.368
-25.778 48.319 -26.495
-26.131 48.247 -25.372
-26.442 48.097 -25.057
-26.743 47.930 -25.558
-26.977 47.642 -26.860
-26.996 46.985 -28.877
-26.594 45.620 -31.344
-25.591 43.273 -33.714
-23.975 39.964 -35.196
-22.024 36.195 -35.055
-20.262 32.833 -33.094
-19.151 30.601 -29.868
-18.796 29.617 -26.181
-19.102 29.686 -22.308
-20.323 31.152 -18.204
-23.034 34.827 -14.948
-27.007 40.281 -15.122
-30.381 44.704 -20.299
-30.927 44.898 -28.210
-28.365 40.631 -34.045
-24.684 34.888 -34.947
-22.010 30.698 -32.024
-20.901 28.767 -27.934
-20.845 28.315 -24.019
-21.530 28.863 -20.305
-23.084 30.544 -16.964
-25.498 33.302 -14.762
-28.318 36.507 -14.341
-30.913 39.339 -15.619
-32.865 41.288 -17.909
-34.105 42.297 -20.404
-34.802 42.610 -22.511
-35.197 42.546 -23.929
-35.484 42.348 -24.552
-35.755 42.131 -24.360
-35.983 41.863 -23.357
-36.020 41.378 -21.589
-35.622 40.405 -19.230
-34.523 38.666 -16.704
-32.596 36.049 -14.720
-30.047 32.814 -14.091
-27.461 29.614 -15.291
-25.530 27.186 -18.065
-24.594 25.862 -21.606
-24.554 25.498 -25.360
-25.468 26.116 -29.369
-27.995 28.349 -33.200
-32.473 32.473 -34.757
-37.364 36.897 -31.605
-39.670 38.685 -24.272
-37.769 36.371 -16.985
-33.217 31.588 -13.925
-29.023 27.254 -15.547
-26.777 24.831 -19.395
-26.173 23.966 -23.399
-26.569 24.023 -27.150
-27.950 24.955 -30.684
-30.458 26.852 -33.436
-33.744 29.375 -34.604
-37.052 31.847 -33.944
-39.716 33.705 -31.943
-41.482 34.758 -29.415
-42.468 35.133 -27.064
-42.962 35.089 -25.308
-43.237 34.863 -24.320
-43.464 34.597 -24.142
-43.669 34.315 -24.780
-43.735 33.925 -26.211
-43.411 33.238 -28.329
-42.373 32.023 -30.826
-40.375 30.116 -33.106
-37.482 27.594 -34.358
-34.225 24.866 -33.903
-31.441 22.542 -31.674
-29.760 21.056 -28.320
-29.230 20.406 -24.604
-29.721 20.473 -20.684
-31.731 21.564 -16.597
-36.047 24.168 -13.718
-41.902 27.714 -14.708
-46.191 30.134 -20.617
-45.910 29.541 -28.520
-41.371 26.255 -33.615
-35.850 22.436 -33.706
-32.169 19.853 -30.414
-30.725 18.696 -26.311
-30.686 18.409 -22.442
-31.717 18.757 -18.759
-34.018 19.831 -15.548
-37.457 21.521 -13.617
-41.291 23.380 -13.508
-44.644 24.910 -15.013
-47.016 25.847 -17.392
-48.393 26.210 -19.854
-49.060 26.173 -21.860
-49.356 25.934 -23.148
-49.534 25.632 -23.635
-49.695 25.321 -23.305
-49.774 24.969 -22.168
-49.546 24.466 -20.283
-48.666 23.652 -17.859
-46.796 22.381 -15.368
-43.836 20.628 -13.557
-40.166 18.593 -13.219
-36.638 16.682 -14.724
-34.134 15.283 -17.687
-32.977 14.517 -21.284
-32.983 14.273 -25.070
-34.341 14.605 -29.117
-37.972 15.868 -32.757
-43.995 18.062 -33.653
-49.913 20.126 -29.642
-51.844 20.526 -21.959
-48.379 18.804 -15.165
-42.160 16.082 -12.976
-36.984 13.843 -15.173
-34.401 12.630 -19.144
-33.762 12.155 -23.100
-34.338 12.119 -26.823
-36.204 12.523 -30.283
-39.459 13.371 -32.817
-43.530 14.447 -33.673
-47.437 15.413 -32.738
-50.422 16.033 -30.590
-52.268 16.260 -28.050
-53.188 16.180 -25.778
-53.556 15.925 -24.144
-53.699 15.601 -23.290
-53.800 15.264 -23.250
-53.863 14.917 -24.024
-53.716 14.514 -25.582
-53.031 13.972 -27.792
-51.420 13.202 -30.302
-48.640 12.163 -32.468
-44.865 10.920 -33.470
-40.832 9.667 -32.700
-37.554 8.642 -30.222
-35.674 7.974 -26.765
-35.137 7.623 -23.021
-35.846 7.541 -19.053
-38.528 7.853 -15.020
-43.955 8.672 -12.603
-50.711 9.674 -14.443
-54.864 10.109 -20.996
-53.378 9.489 -28.743
-47.424 8.123 -33.032
-41.063 6.769 -32.369
-37.146 5.883 -28.787
-35.707 5.426 -24.699
-35.764 5.205 -20.869
-37.072 5.157 -17.225
-39.854 5.289 -14.169
-43.820 5.536 -12.525
-48.036 5.762 -12.722
-51.547 5.855 -14.433
-53.888 5.778 -16.876
-55.131 5.561 -19.291
-55.631 5.259 -21.188
-55.769 4.918 -22.344
-55.807 4.569 -22.694
-55.826 4.217 -22.228
-55.723 3.857 -20.958
-55.221 3.474 -18.961
-53.930 3.053 -16.485
-51.505 2.591 -14.050
-47.919 2.109 -12.437
-43.699 1.648 -12.401
-39.837 1.252 -14.199
-37.231 0.936 -17.326
-36.096 0.680 -20.966
-36.210 0.455 -24.790
-37.923 0.238 -28.860
-42.241 0.000 -32.237
-48.886 -0.307 -32.401
-54.683 -0.687 -27.566
-55.617 -1.048 -19.673
-50.967 -1.281 -13.486
-44.119 -1.386 -12.157
-38.916 -1.468 -14.846
-36.490 -1.606 -18.888
-35.959 -1.809 -22.795
-36.681 -2.076 -26.492
-38.807 -2.442 -29.856
-42.337 -2.931 -32.149
-46.544 -3.516 -32.689
-50.392 -4.125 -31.498
-53.179 -4.690 -29.227
-54.778 -5.178 -26.693
-55.466 -5.595 -24.510
-55.643 -5.966 -23.002
-55.629 -6.318 -22.284
-55.586 -6.668 -22.381
-55.487 -7.010 -23.290
-55.125 -7.316 -24.972
-54.147 -7.533 -27.265
-52.170 -7.592 -29.770
-49.002 -7.446 -31.798
-44.928 -7.116 -32.530
-40.780 -6.722 -31.446
-37.570 -6.435 -28.742
-35.821 -6.368 -25.203
-35.387 -6.520 -21.432
-36.263 -6.918 -17.415
-39.291 -7.751 -13.485
-45.015 -9.175 -11.612
-51.498 -10.833 -14.322
-54.667 -11.859 -21.412
-52.105 -11.647 -28.859
-45.718 -10.521 -32.300
-39.614 -9.379 -30.948
-36.124 -8.793 -27.149
-34.922 -8.733 -23.095
-35.082 -9.008 -19.300
-36.497 -9.616 -15.706
-39.344 -10.631 -12.830
-43.205 -11.966 -11.486
-47.117 -13.368 -11.980
-50.211 -14.588 -13.873
-52.142 -15.505 -16.359
-53.053 -16.139 -18.713
-53.311 -16.584 -20.495
-53.274 -16.940 -21.517
-53.165 -17.275 -21.730
-53.036 -17.601 -21.127
-52.757 -17.878 -19.727
-52.044 -18.001 -17.626
-50.524 -17.832 -15.111
-47.911 -17.249 -12.755
-44.264 -16.251 -11.362
-40.175 -15.037 -11.637
-36.609 -13.965 -13.712
-34.316 -13.338 -16.978
-33.374 -13.214 -20.651
-33.589 -13.544 -24.518
-35.424 -14.543 -28.587
-39.758 -16.615 -31.625
-45.903 -19.523 -30.997
-50.567 -21.882 -25.395
-50.350 -22.165 -17.440
-45.348 -20.304 -11.955
-39.044 -17.777 -11.456
-34.638 -16.034 -14.553
-32.704 -15.389 -18.624
-32.339 -15.466 -22.484
-33.092 -16.083 -26.152
-35.138 -17.351 -29.398
-38.365 -19.245 -31.430
-42.025 -21.413 -31.656
-45.206 -23.393 -30.226
-47.373 -24.892 -27.856
-48.497 -25.873 -25.347
-48.867 -26.466 -23.262
-48.839 -26.849 -21.882
-48.678 -27.160 -21.300
-48.498 -27.461 -21.535
-48.249 -27.722 -22.579
-47.728 -27.823 -24.379
-46.615 -27.568 -26.744
-44.595 -26.753 -29.224
-41.563 -25.291 -31.090
-37.857 -23.363 -31.537
-34.260 -21.441 -30.145
-31.604 -20.057 -27.239
-30.221 -19.446 -23.637
-29.930 -19.526 -19.836
-30.823 -20.386 -15.776
-33.682 -22.582 -12.007
-38.705 -26.304 -10.759
-43.823 -30.187 -14.336
-45.591 -31.828 -21.840
-42.562 -30.114 -28.853
-36.908 -26.462 -31.424
-32.016 -23.261 -29.459
-29.398 -21.642 -25.510
-28.539 -21.288 -21.500
-28.741 -21.721 -17.734
-30.005 -22.973 -14.207
-32.418 -25.146 -11.537
-35.530 -27.919 -10.502
-38.524 -30.665 -11.278
-40.754 -32.861 -13.330
-42.025 -34.323 -15.837
-42.507 -35.165 -18.118
-42.514 -35.623 -19.780
-42.322 -35.917 -20.668
-42.090 -36.177 -20.743
-41.833 -36.416 -20.004
-41.429 -36.524 -18.475
-40.635 -36.281 -16.278
-39.163 -35.412 -13.741
-36.826 -33.721 -11.488
-33.743 -31.290 -10.336
-30.451 -28.595 -10.926
-27.710 -26.351 -13.259
-26.022 -25.059 -16.640
-25.354 -24.725 -20.341
-25.588 -25.269 -24.256
-27.179 -27.179 -28.290
-30.703 -31.092 -30.906
-35.277 -36.175 -29.443
-38.181 -39.649 -23.152
-37.167 -39.084 -15.283
-32.888 -35.022 -10.576
-28.164 -30.372 -10.859
-25.102 -27.413 -14.283
-23.812 -26.335 -18.351
-23.589 -26.420 -22.169
-24.194 -27.442 -25.803
-25.757 -29.588 -28.906
-28.104 -32.697 -30.657
-30.629 -36.090 -30.574
-32.693 -39.017 -28.927
-33.979 -41.073 -26.482
-34.529 -42.276 -24.013
-34.577 -42.882 -22.034
-34.376 -43.186 -20.785
-34.103 -43.399 -20.340
-33.818 -43.598 -20.712
-33.469 -43.713 -21.889
-32.897 -43.529 -23.803
-31.876 -42.734 -26.227
-30.207 -41.032 -28.661
-27.871 -38.361 -30.341
-25.164 -35.098 -30.491
-22.660 -32.028 -28.800
-20.887 -29.919 -25.718
-19.984 -29.011 -22.066
-19.800 -29.135 -18.231
-20.472 -30.535 -14.139
-22.528 -34.062 -10.598
-25.880 -39.670 -10.050
-28.888 -44.893 -14.471
-29.357 -46.260 -22.252
-26.787 -42.801 -28.710
-22.924 -37.146 -30.413
-19.871 -32.656 -27.917
-18.312 -30.525 -23.873
-17.791 -30.083 -19.913
-17.915 -30.732 -16.173
-18.724 -32.589 -12.731
-20.218 -35.706 -10.291
-22.045 -39.510 -9.571
-23.691 -43.094 -10.613
-24.805 -45.800 -12.799
-25.323 -47.466 -15.308
-25.384 -48.308 -17.504
-25.185 -48.670 -19.043
-24.888 -48.846 -19.795
-24.575 -48.989 -19.733
-24.240 -49.090 -18.858
-23.801 -48.972 -17.204
-23.110 -48.321 -14.919
-22.010 -46.774 -12.379
-20.425 -44.123 -10.253
-18.473 -40.574 -9.361
-16.501 -36.853 -10.266
-14.927 -33.909 -12.837
-13.974 -32.291 -16.309
-13.572 -31.911 -20.037
-13.677 -32.729 -24.001
-14.575 -35.501 -27.956
-16.479 -40.870 -30.068
-18.708 -47.250 -27.741
-19.755 -50.827 -20.860
-18.685 -48.982 -13.224
-16.158 -43.172 -9.347
-13.693 -37.296 -10.352
-12.181 -33.835 -14.027
-11.523 -32.648 -18.069
-11.355 -32.829 -21.850
-11.597 -34.223 -25.439
-12.291 -37.035 -28.374
-13.298 -40.928 -29.831
-14.304 -44.982 -29.446
-15.027 -48.305 -27.607
-15.362 -50.499 -25.108
-15.362 -51.663 -22.694
-15.150 -52.148 -20.827
-14.843 -52.313 -19.711
-14.511 -52.395 -19.403
-14.174 -52.457 -19.911
-13.802 -52.385 -21.220
-13.324 -51.894 -23.243
-12.653 -50.600 -25.711
-11.727 -48.180 -28.077
-10.570 -44.646 -29.547
-9.334 -40.557 -29.390
-8.248 -36.900 -27.415
-7.487 -34.511 -24.181
-7.056 -33.542 -20.493
-6.886 -33.788 -16.617
-7.039 -35.680 -12.514
-7.669 -40.201 -9.275
-8.634 -46.859 -9.492
-9.301 -52.322 -14.709
-9.038 -52.761 -22.623
-7.888 -47.854 -28.421
-6.517 -41.147 -29.279
-5.512 -36.275 -26.335
-4.964 -34.112 -22.243
-4.693 -33.732 -18.331
-4.590 -34.586 -14.618
-4.656 -36.859 -11.284
-4.858 -40.500 -9.096
-5.081 -44.735 -8.691
-5.204 -48.539 -9.981
-5.170 -51.258 -12.277
-4.992 -52.808 -14.770
-4.717 -53.484 -16.872
-4.395 -53.683 -18.283
-4.058 -53.713 -18.899
-3.719 -53.718 -18.700
-3.376 -53.656 -17.690
-3.017 -53.303 -15.915
-2.631 -52.293 -13.553
-2.211 -50.241 -11.028
-1.772 -46.984 -9.053
-1.347 -42.856 -8.438
-0.974 -38.736 -9.655
-0.672 -35.635 -12.439
-0.428 -34.019 -15.984
-0.212 -33.713 -19.739
-0.000 -34.781 -23.750
0.240 -38.141 -27.573
0.556 -44.212 -29.097
0.957 -50.753 -25.899
1.347 -53.567 -18.545
1.587 -50.508 -11.280
1.654 -43.866 -8.266
1.665 -37.827 -9.921
1.737 -34.523 -13.776
1.895 -33.470 -17.778
2.125 -33.771 -21.528
2.450 -35.389 -25.059
2.907 -38.485 -27.799
3.484 -42.563 -28.951
4.111 -46.611 -28.277
4.704 -49.766 -26.267
5.217 -51.716 -23.738
5.644 -52.640 -21.391
6.011 -52.924 -19.641
6.349 -52.928 -18.659
6.679 -52.870 -18.489
7.006 -52.786 -19.134
7.307 -52.525 -20.572
7.535 -51.777 -22.695
7.620 -50.147 -25.193
7.500 -47.353 -27.468
7.169 -43.496 -28.707
6.722 -39.245 -28.236
6.333 -35.624 -25.993
6.150 -33.375 -22.633
6.205 -32.528 -18.915
6.492 -32.907 -14.993
7.152 -35.090 -10.908
8.408 -39.968 -8.052
10.104 -46.574 -9.085
11.454 -51.242 -15.030
11.633 -50.547 -22.929
10.648 -44.974 -27.983
9.340 -38.373 -28.033
8.491 -33.957 -24.724
8.246 -32.117 -20.621
8.398 -31.874 -16.754
8.871 -32.834 -13.073
9.749 -35.201 -9.869
11.008 -38.800 -7.953
12.430 -42.786 -7.861
13.736 -46.193 -9.377
14.751 -48.489 -11.759
15.455 -49.683 -14.220
15.930 -50.097 -16.220
16.282 -50.112 -17.501
16.594 -50.000 -17.980
16.900 -49.871 -17.644
17.175 -49.654 -16.500
17.334 -49.112 -14.608
17.241 -47.889 -12.181
16.758 -45.645 -9.692
15.831 -42.298 -7.892
14.595 -38.259 -7.569
13.377 -34.417 -9.090
12.536 -31.663 -12.062
12.218 -30.302 -15.662
12.367 -30.125 -19.450
13.085 -31.311 -23.499
14.783 -34.758 -27.127
17.540 -40.532 -27.985
20.297 -46.107 -23.930
21.348 -47.680 -16.232
20.021 -43.973 -9.467
17.435 -37.664 -7.324
15.271 -32.453 -9.549
14.247 -29.789 -13.525
14.095 -29.002 -17.479
14.506 -29.376 -21.201
15.534 -30.967 -24.656
17.245 -33.844 -27.178
19.378 -37.448 -28.017
21.465 -40.849 -27.069
23.131 -43.357 -24.914
24.257 -44.788 -22.373
24.935 -45.356 -20.105
25.341 -45.417 -18.478
25.636 -45.274 -17.631
25.909 -45.094 -17.598
26.162 -44.879 -18.379
26.303 -44.475 -19.944
26.153 -43.595 -22.159
25.497 -41.903 -24.669
24.192 -39.200 -26.829
22.319 -35.662 -27.816
20.272 -31.944 -27.030
18.612 -28.924 -24.539
17.704 -27.137 -21.077
17.536 -26.514 -17.332
18.072 -26.955 -13.361
19.752 -29.064 -9.333
23.043 -33.453 -6.942
27.142 -38.878 -8.828
29.751 -42.050 -15.412
29.054 -40.522 -23.147
25.694 -35.365 -27.392
22.057 -29.961 -26.690
19.849 -26.611 -23.095
19.112 -25.289 -19.009
19.277 -25.177 -15.181
20.217 -26.064 -11.539
22.088 -28.109 -8.492
24.722 -31.058 -6.863
27.544 -34.160 -7.077
29.950 -36.670 -8.798
31.635 -38.241 -11.244
32.633 -38.946 -13.656
33.162 -39.075 -15.547
33.460 -38.928 -16.696
33.693 -38.704 -17.038
33.913 -38.467 -16.565
34.052 -38.138 -15.288
33.919 -37.512 -13.286
33.244 -36.305 -10.807
31.785 -34.276 -8.376
29.510 -31.425 -6.774
26.771 -28.151 -6.755
24.250 -25.181 -8.567
22.575 -23.150 -11.702
21.911 -22.188 -15.344
22.119 -22.119 -19.170
23.472 -23.178 -23.241
26.710 -26.047 -26.602
31.651 -30.479 -26.725
36.008 -34.242 -21.848
36.851 -34.606 -13.949
33.618 -31.174 -7.796
28.750 -26.326 -6.512
25.061 -22.660 -9.224
23.398 -20.891 -13.269
23.130 -20.392 -17.173
23.804 -20.721 -20.869
25.552 -21.963 -24.227
28.390 -24.094 -26.507
31.774 -26.624 -27.031
34.910 -28.880 -25.826
37.253 -30.426 -23.549
38.692 -31.198 -21.016
39.432 -31.388 -18.839
39.777 -31.257 -17.337
39.975 -31.008 -16.626
40.149 -30.741 -16.730
40.278 -30.440 -17.647
40.191 -29.979 -19.335
39.598 -29.152 -21.632
38.177 -27.737 -24.136
35.761 -25.640 -26.156
32.571 -23.044 -26.874
29.291 -20.449 -25.774
26.765 -18.436 -23.058
25.439 -17.288 -19.515
25.206 -16.899 -15.743
26.085 -17.252 -11.724
28.817 -18.800 -7.801
33.889 -21.806 -5.959
39.641 -25.157 -8.715
42.550 -26.629 -15.830
40.487 -24.986 -23.257
35.078 -21.345 -26.652
29.889 -17.930 -25.266
26.965 -15.947 -21.458
26.039 -15.179 -17.406
26.318 -15.122 -13.612
27.730 -15.702 -10.021
30.451 -16.991 -7.156
34.116 -18.756 -5.828
37.857 -20.503 -6.337
40.878 -21.809 -8.239
42.856 -22.519 -10.726
43.908 -22.721 -13.077
44.364 -22.604 -14.853
44.549 -22.348 -15.868
44.669 -22.058 -16.073
44.769 -21.758 -15.463
44.725 -21.390 -14.056
44.261 -20.827 -11.950
43.011 -19.910 -9.433
40.689 -18.526 -7.083
37.339 -16.718 -5.702
33.530 -14.761 -5.994
30.202 -13.070 -8.082
28.102 -11.952 -11.355
27.318 -11.416 -15.030
27.679 -11.363 -18.899
29.676 -11.966 -22.967
34.216 -13.547 -25.985
40.617 -15.787 -25.314
45.540 -17.372 -19.673
45.498 -17.029 -11.719
40.555 -14.889 -6.273
34.251 -12.331 -5.817
29.872 -10.543 -8.933
28.024 -9.693 -13.005
27.797 -9.419 -16.862
28.746 -9.540 -20.529
31.078 -10.098 -23.768
34.688 -11.030 -25.785
38.792 -12.067 -25.995
42.414 -12.902 -24.553
44.971 -13.372 -22.179
46.422 -13.487 -19.671
47.066 -13.354 -17.591
47.282 -13.095 -16.218
47.354 -12.795 -15.644
47.406 -12.490 -15.886
47.381 -12.165 -16.937
47.046 -11.765 -18.743
46.035 -11.205 -21.111
43.981 -10.413 -23.590
40.753 -9.379 -25.446
36.723 -8.209 -25.878
32.784 -7.112 -24.470
29.902 -6.291 -21.554
28.472 -5.803 -17.949
28.304 -5.584 -14.147
29.534 -5.634 -10.084
33.113 -6.101 -6.325
39.300 -6.986 -5.113
45.633 -7.817 -8.735
47.970 -7.907 -16.257
44.535 -7.054 -23.244
37.905 -5.760 -25.769
32.165 -4.681 -23.774
29.161 -4.057 -19.818
28.289 -3.755 -15.811
28.724 -3.629 -12.046
30.494 -3.658 -8.523
33.729 -3.831 -5.864
37.875 -4.061 -4.847
41.908 -4.227 -5.637
45.006 -4.254 -7.696
46.906 -4.137 -10.204
47.812 -3.914 -12.481
48.113 -3.635 -14.136
48.160 -3.334 -15.017
48.156 -3.030 -15.085
48.119 -2.724 -14.339
47.883 -2.409 -12.803
47.121 -2.074 -10.601
45.432 -1.714 -8.064
42.550 -1.337 -5.817
38.621 -0.971 -4.678
34.368 -0.648 -5.285
30.833 -0.387 -7.631
28.719 -0.180 -11.017
28.003 -0.000 -14.720
28.548 0.179 -18.637
31.028 0.390 -22.668
36.291 0.684 -25.260
43.099 1.083 -23.751
47.550 1.494 -17.427
46.362 1.749 -9.567
40.424 1.779 -4.902
33.794 1.700 -5.225
29.550 1.673 -8.665
27.880 1.754 -12.732
27.778 1.923 -16.547
28.926 2.185 -20.179
31.546 2.582 -23.273
35.393 3.121 -25.010
39.558 3.739 -24.910
43.060 4.344 -23.253
45.397 4.868 -20.805
46.612 5.294 -18.338
47.056 5.644 -16.364
47.115 5.952 -15.122
47.060 6.246 -14.685
46.988 6.537 -15.064
46.809 6.812 -16.248
46.259 7.029 -18.168
44.959 7.121 -20.595
42.559 7.015 -23.026
39.007 6.682 -24.695
34.784 6.183 -24.829
30.851 5.684 -23.123
28.118 5.364 -20.032
26.845 5.296 -16.378
26.808 5.464 -12.541
28.281 5.949 -8.448
32.238 6.994 -4.921
38.563 8.620 -4.412
44.338 10.204 -8.876
45.576 10.790 -16.668
41.280 10.048 -23.093
34.563 8.643 -24.751
29.266 7.514 -22.229
26.684 7.030 -18.181
26.015 7.029 -14.224
26.570 7.359 -10.486
28.460 8.075 -7.049
31.718 9.215 -4.621
35.687 10.611 -3.918
39.364 11.975 -4.974
42.044 13.079 -7.166
43.573 13.856 -9.675
44.201 14.362 -11.866
44.314 14.707 -13.398
44.228 14.988 -14.143
44.109 15.257 -14.074
43.945 15.510 -13.192
43.552 15.680 -11.531
42.603 15.641 -9.242
40.733 15.246 -6.702
37.745 14.398 -4.583
33.873 13.166 -3.706
29.875 11.828 -4.628
26.713 10.771 -7.210
24.922 10.231 -10.687
24.388 10.192 -14.416
25.058 10.657 -18.383
27.669 11.973 -22.332
32.811 14.444 -24.415
38.866 17.402 -22.042
42.084 19.161 -15.133
39.996 18.515 -7.513
34.126 16.058 -3.682
28.286 13.528 -4.723
24.824 12.065 -8.409
23.554 11.631 -12.449
23.584 11.831 -16.228
24.756 12.614 -19.815
27.243 14.097 -22.740
30.704 16.133 -24.181
34.266 18.281 -23.780
37.112 20.100 -21.931
38.891 21.381 -19.431
39.715 22.159 -17.020
39.915 22.601 -15.158
39.828 22.883 -14.049
39.666 23.123 -13.749
39.487 23.352 -14.265
39.187 23.509 -15.580
38.518 23.438 -17.608
37.147 22.924 -20.079
34.806 21.783 -22.441
31.525 20.006 -23.899
27.806 17.892 -23.725
24.504 15.986 -21.735
22.325 14.766 -18.495
21.373 14.330 -14.804
21.456 14.582 -10.926
22.926 15.792 -6.823
26.578 18.555 -3.603
31.949 22.604 -3.861
36.240 25.984 -9.119
36.339 26.402 -17.036
32.087 23.622 -22.797
26.452 19.731 -23.610
22.378 16.912 -20.645
20.519 15.711 -16.552
20.097 15.589 -12.642
20.656 16.231 -8.932
22.329 17.774 -5.603
25.051 20.199 -3.429
28.197 23.029 -3.041
30.964 25.615 -4.343
32.859 27.533 -6.644
33.836 28.715 -9.136
34.137 29.342 -11.233
34.074 29.662 -12.637
33.884 29.873 -13.246
33.677 30.068 -13.040
33.419 30.217 -12.022
32.945 30.167 -10.241
31.989 29.664 -7.875
30.282 28.437 -5.352
27.720 26.361 -3.385
24.564 23.655 -2.786
21.459 20.926 -4.019
19.121 18.882 -6.814
17.861 17.861 -10.361
17.536 17.758 -14.119
18.177 18.639 -18.132
20.404 21.188 -21.946
24.465 25.727 -23.437
28.771 30.638 -20.193
30.460 32.848 -12.817
28.157 30.749 -5.576
23.501 25.990 -2.608
19.329 21.649 -4.294
17.025 19.311 -8.158
16.225 18.639 -12.157
16.317 18.984 -15.905
17.261 20.340 -19.433
19.142 22.845 -22.162
21.619 26.133 -23.298
24.034 29.426 -22.609
25.845 32.053 -20.591
26.874 33.761 -18.060
27.250 34.678 -15.717
27.224 35.097 -13.974
27.026 35.298 -12.999
26.791 35.450 -12.836
26.540 35.581 -13.489
26.184 35.567 -14.934
25.538 35.149 -17.061
24.377 33.999 -19.561
22.549 31.870 -21.830
20.132 28.837 -23.056
17.530 25.449 -22.568
15.330 22.558 -20.312
13.944 20.798 -16.946
13.364 20.206 -13.226
13.475 20.655 -9.302
14.584 22.664 -5.219
17.149 27.022 -2.385
20.594 32.906 -3.463
22.913 37.128 -9.444
22.318 36.677 -17.338
19.164 31.944 -22.350
15.543 26.282 -22.359
13.128 22.520 -19.033
12.076 21.018 -14.930
11.852 20.931 -11.066
12.236 21.930 -7.386
13.315 24.220 -4.190
14.978 27.655 -2.289
16.791 31.473 -2.213
18.280 34.789 -3.741
19.201 37.105 -6.127
19.574 38.417 -8.585
19.571 39.014 -10.580
19.378 39.242 -11.854
19.126 39.354 -12.326
18.867 39.450 -11.982
18.569 39.460 -10.831
18.125 39.154 -8.934
17.385 38.183 -6.503
16.211 36.206 -4.017
14.585 33.130 -2.226
12.701 29.350 -1.920
10.944 25.732 -3.456
9.680 23.163 -6.438
9.014 21.957 -10.040
8.840 21.923 -13.830
9.213 23.269 -17.881
10.465 26.925 -21.496
12.580 32.978 -22.317
14.543 38.855 -18.217
14.923 40.648 -10.506
13.324 37.008 -3.770
10.822 30.662 -1.673
8.794 25.424 -3.926
7.728 22.806 -7.907
7.345 22.132 -11.858
7.369 22.680 -15.579
7.801 24.534 -19.029
8.643 27.783 -21.539
9.686 31.840 -22.361
10.619 35.712 -21.399
11.228 38.645 -19.237
11.472 40.433 -16.696
11.436 41.293 -14.433
11.241 41.603 -12.812
10.985 41.693 -11.973
10.718 41.742 -11.947
10.441 41.753 -12.735
10.113 41.547 -14.306
9.658 40.794 -16.526
8.999 39.105 -19.036
8.100 36.238 -21.189
7.025 32.381 -22.163
5.950 28.284 -21.360
5.088 24.964 -18.857
4.549 23.057 -15.390
4.291 22.495 -11.643
4.273 23.191 -7.670
4.602 25.889 -3.646
5.369 31.345 -1.282
6.277 38.081 -3.213
6.672 42.125 -9.829
6.152 40.488 -17.550
5.009 34.423 -21.752
3.899 28.025 -21.012
3.199 24.106 -17.404
2.862 22.659 -13.319
2.723 22.701 -9.493
2.726 24.002 -5.854
2.872 26.783 -2.815
3.101 30.738 -1.202
3.301 34.926 -1.432
3.386 38.391 -3.163
3.330 40.682 -5.611
3.163 41.875 -8.021
2.930 42.332 -9.906
2.670 42.434 -11.048
2.402 42.437 -11.383
2.134 42.423 -10.902
1.861 42.284 -9.619
1.574 41.740 -7.611
1.270 40.399 -5.129
0.953 37.921 -2.702
0.646 34.286 -1.111
0.377 30.033 -1.108
0.164 26.159 -2.935
0.000 23.554 -6.078
-0.141 22.419 -9.722
-0.283 22.532 -13.550
-0.457 24.261 -17.622
-0.719 28.608 -20.967
-1.108 35.248 -21.049
-1.545 40.964 -16.130
-1.838 41.768 -8.224
-1.863 37.024 -2.107
-1.708 30.164 -0.867
-1.573 24.998 -3.603
-1.565 22.601 -7.650
-1.668 22.081 -11.552
-1.867 22.808 -15.246
-2.200 24.943 -18.599
-2.691 28.471 -20.865
-3.294 32.658 -21.372
-3.910 36.468 -20.154
-4.454 39.212 -17.872
-4.891 40.774 -15.340
-5.234 41.434 -13.167
-5.520 41.592 -11.672
-5.782 41.566 -10.969
-6.041 41.511 -11.080
-6.291 41.399 -12.004
-6.497 41.021 -13.698
-6.597 40.024 -15.999
-6.513 38.025 -18.503
-6.194 34.843 -20.515
-5.670 30.770 -21.218
-5.083 26.644 -20.101
-4.630 23.469 -17.374
-4.434 21.753 -13.828
-4.489 21.341 -10.054
-4.825 22.241 -6.032
-5.655 25.300 -2.116
-7.142 31.033 -0.305
-8.869 37.458 -3.107
-9.862 40.518 -10.247
-9.471 37.874 -17.655
-8.087 31.497 -21.004
-6.710 25.469 -19.584
-5.959 22.055 -15.766
-5.787 20.897 -11.716
-5.982 21.084 -7.924
-6.543 22.521 -4.337
-7.547 25.379 -1.481
-8.892 29.231 -0.170
-10.301 33.113 -0.694
-11.503 36.173 -2.605
-12.372 38.077 -5.094
-12.935 38.974 -7.441
-13.294 39.232 -9.210
-13.560 39.202 -10.219
-13.802 39.105 -10.417
-14.036 38.987 -9.799
-14.215 38.718 -8.385
-14.227 38.013 -6.274
-13.925 36.503 -3.756
-13.180 33.909 -1.410
-11.996 30.297 -0.041
-10.591 26.266 -0.350
-9.348 22.770 -2.452
-8.586 20.545 -5.732
-8.359 19.655 -9.408
-8.616 19.911 -13.280
-9.591 21.786 -17.347
-11.705 26.141 -20.344
-14.684 32.250 -19.630
-17.045 36.822 -13.951
-17.190 36.530 -5.998
-15.089 31.550 -0.592
-12.323 25.357 -0.178
-10.407 21.075 -3.313
-9.645 19.228 -7.386
-9.638 18.916 -11.241
-10.199 19.710 -14.906
-11.446 21.783 -18.138
-13.345 25.013 -20.141
-15.519 28.654 -20.333
-17.487 31.809 -18.880
-18.946 33.956 -16.501
-19.863 35.078 -13.995
-20.376 35.464 -11.921
-20.673 35.463 -10.555
-20.897 35.334 -9.988
-21.110 35.189 -10.237
-21.281 34.974 -11.295
-21.282 34.486 -13.107
-20.910 33.411 -15.479
-19.951 31.438 -17.955
-18.322 28.473 -19.802
-16.217 24.857 -20.219
-14.131 21.365 -18.795
-12.614 18.814 -15.869
-11.904 17.516 -12.261
-11.909 17.289 -8.457
-12.731 18.236 -4.392
-14.949 21.129 -0.644
-18.739 26.135 0.533
-22.651 31.176 -3.135
-24.200 32.872 -10.674
-22.278 29.866 -17.634
-18.398 24.344 -20.114
-15.024 19.622 -18.089
-13.293 17.138 -14.126
-12.860 16.365 -10.122
-13.237 16.629 -6.359
-14.463 17.937 -2.839
-16.637 20.369 -0.192
-19.419 23.473 0.809
-22.159 26.446 0.004
-24.324 28.662 -2.063
-25.733 29.939 -4.571
-26.506 30.448 -6.844
-26.888 30.498 -8.493
-27.105 30.358 -9.367
-27.289 30.180 -9.427
-27.450 29.978 -8.673
-27.475 29.629 -7.132
-27.134 28.895 -4.924
-26.146 27.495 -2.387
-24.314 25.249 -0.146
-21.729 22.282 0.980
-18.888 19.127 0.356
-16.524 16.524 -2.003
-15.143 14.954 -5.395
-14.743 14.377 -9.099
-15.246 14.682 -13.019
-17.164 16.322 -17.047
-21.135 19.847 -19.614
-26.267 24.358 -18.060
-29.692 27.189 -11.702
-28.961 26.186 -3.851
-24.693 22.047 0.771
-19.881 17.528 0.409
-16.825 14.646 -3.046
-15.682 13.479 -7.112
-15.718 13.340 -10.925
-16.716 14.007 -14.555
-18.863 15.605 -17.641
-21.984 17.955 -19.362
-25.380 20.465 -19.246
-28.287 22.517 -17.579
-30.303 23.812 -15.127
-31.450 24.395 -12.663
-31.995 24.497 -10.695
-32.236 24.363 -9.460
-32.389 24.160 -9.030
-32.528 23.947 -9.416
-32.578 23.669 -10.607
-32.320 23.173 -12.533
-31.435 22.241 -14.962
-29.623 20.681 -17.390
-26.829 18.481 -19.049
-23.446 15.934 -19.167
-20.278 13.596 -17.446
-18.099 11.971 -14.346
-17.142 11.183 -10.690
-17.233 11.089 -6.851
-18.633 11.825 -2.757
-22.210 13.900 0.756
-27.878 17.204 1.226
-33.090 20.135 -3.281
-34.334 20.597 -11.083
-30.698 18.155 -17.476
-24.901 14.516 -19.089
-20.336 11.684 -16.541
-18.164 10.285 -12.490
-17.691 9.871 -8.535
-18.324 10.074 -4.798
-20.185 10.932 -1.366
-23.320 12.441 1.048
-27.135 14.259 1.735
-30.712 15.892 0.665
-33.390 17.013 -1.533
-35.016 17.565 -4.042
-35.813 17.684 -6.228
-36.130 17.560 -7.753
-36.264 17.344 -8.491
-36.367 17.113 -8.415
-36.425 16.862 -7.525
-36.259 16.509 -5.859
-35.548 15.916 -3.565
-33.925 14.934 -1.026
-31.187 13.496 1.086
-27.551 11.717 1.949
-23.760 9.929 1.011
-20.772 8.528 -1.583
-19.129 7.713 -5.064
-18.733 7.417 -8.795
-19.555 7.601 -12.764
-22.370 8.533 -16.708
-27.802 10.406 -18.761
-34.199 12.556 -16.342
-37.695 13.571 -9.406
-35.707 12.602 -1.803
-29.778 10.300 1.984
-23.852 8.083 0.907
-20.383 6.765 -2.790
-19.194 6.236 -6.829
-19.373 6.160 -10.606
-20.780 6.464 -14.190
-23.617 7.184 -17.105
-27.531 8.186 -18.531
-31.587 9.177 -18.114
-34.895 9.901 -16.256
-37.063 10.264 -13.753
-38.198 10.321 -11.345
-38.657 10.185 -9.490
-38.801 9.962 -8.388
-38.863 9.719 -8.095
-38.907 9.470 -8.618
-38.811 9.189 -9.941
-38.290 8.812 -11.974
-36.954 8.260 -14.447
-34.484 7.481 -16.804
-30.899 6.500 -18.251
-26.773 5.457 -18.060
-23.102 4.558 -16.056
-20.717 3.952 -12.808
-19.758 3.641 -9.116
-20.020 3.559 -5.236
-21.952 3.760 -1.133
-26.537 4.374 2.069
-33.232 5.263 1.769
-38.649 5.873 -3.529
-38.976 5.672 -11.449
-33.973 4.726 -17.172
-27.244 3.616 -17.942
-22.401 2.830 -14.955
-20.270 2.431 -10.861
-19.912 2.262 -6.954
-20.791 2.229 -3.245
-23.098 2.330 0.078
-26.769 2.530 2.238
-31.017 2.735 2.609
-34.815 2.850 1.294
-37.520 2.834 -1.012
-39.056 2.704 -3.502
-39.723 2.499 -5.594
-39.920 2.260 -6.991
-39.952 2.010 -7.593
-39.961 1.759 -7.379
-39.901 1.505 -6.355
-39.544 1.243 -4.567
-38.524 0.968 -2.198
-36.456 0.687 0.324
-33.185 0.417 2.282
-29.055 0.183 2.866
-24.955 0.000 1.617
-21.889 -0.138 -1.188
-20.312 -0.255 -4.739
-20.041 -0.378 -8.498
-21.155 -0.532 -12.514
-24.578 -0.772 -16.319
-30.698 -1.158 -17.776
-37.220 -1.638 -14.487
-39.948 -2.010 -7.090
-36.811 -2.084 0.128
-30.169 -1.898 3.050
-24.196 -1.675 1.331
-20.965 -1.584 -2.540
-19.964 -1.634 -6.537
-20.308 -1.791 -10.283
-21.970 -2.077 -13.807
-25.105 -2.532 -16.526
-29.205 -3.131 -17.645
-33.255 -3.777 -16.941
-36.403 -4.367 -14.915
-38.350 -4.845 -12.383
-39.279 -5.213 -10.044
-39.577 -5.506 -8.307
-39.602 -5.763 -7.340
-39.568 -6.012 -7.184
-39.508 -6.257 -7.843
-39.268 -6.473 -9.295
-38.537 -6.601 -11.428
-36.922 -6.564 -13.928
-34.146 -6.292 -16.192
-30.320 -5.784 -17.405
-26.121 -5.153 -16.901
-22.568 -4.600 -14.631
-20.389 -4.289 -11.259
-19.602 -4.252 -7.538
-20.037 -4.479 -3.611
-22.284 -5.128 0.470
-27.217 -6.444 3.281
-33.822 -8.233 2.159
-38.425 -9.609 -3.858
-37.662 -9.670 -11.746
-32.102 -8.458 -16.717
-25.598 -6.916 -16.685
-21.297 -5.898 -13.342
-19.545 -5.546 -9.240
-19.365 -5.626 -5.378
-20.381 -6.060 -1.700
-22.796 -6.935 1.488
-26.424 -8.220 3.375
-30.418 -9.672 3.434
-33.822 -10.989 1.895
-36.119 -11.987 -0.495
-37.326 -12.649 -2.951
-37.767 -13.063 -4.940
-37.817 -13.347 -6.207
-37.747 -13.590 -6.672
-37.660 -13.826 -6.321
-37.484 -14.030 -5.163
-36.981 -14.107 -3.259
-35.796 -13.913 -0.826
-33.598 -13.302 1.658
-30.310 -12.221 3.439
-26.351 -10.818 3.729
-22.606 -9.447 2.177
-19.952 -8.486 -0.813
-18.677 -8.082 -4.418
-18.571 -8.175 -8.210
-19.825 -8.876 -12.262
-23.330 -10.622 -15.865
-29.116 -13.478 -16.649
-34.637 -16.299 -12.505
-36.146 -17.287 -4.779
-32.453 -15.772 1.926
-26.259 -12.966 3.978
-21.202 -10.636 1.697
-18.665 -9.510 -2.288
-17.965 -9.296 -6.237
-18.407 -9.672 -9.956
-20.054 -10.699 -13.402
-22.967 -12.439 -15.899
-26.581 -14.613 -16.705
-29.979 -16.727 -15.729
-32.486 -18.394 -13.560
-33.932 -19.496 -11.019
-34.532 -20.131 -8.760
-34.639 -20.486 -7.146
-34.549 -20.727 -6.314
-34.424 -20.947 -6.295
-34.265 -21.146 -7.091
-33.915 -21.226 -8.669
-33.090 -21.000 -10.893
-31.462 -20.245 -13.403
-28.840 -18.815 -15.549
-25.404 -16.802 -16.509
-21.807 -14.621 -15.689
-18.913 -12.854 -13.174
-17.238 -11.874 -9.702
-16.702 -11.660 -5.955
-17.217 -12.181 -1.978
-19.386 -13.899 2.041
-23.793 -17.287 4.378
-29.173 -21.477 2.401
-32.275 -24.075 -4.245
-30.749 -23.238 -11.954
-25.710 -19.685 -16.111
-20.489 -15.893 -15.333
-17.303 -13.596 -11.712
-16.095 -12.812 -7.629
-16.063 -12.952 -3.805
-17.014 -13.896 -0.168
-19.099 -15.800 2.862
-22.059 -18.483 4.459
-25.154 -21.347 4.213
-27.656 -23.771 2.472
-29.236 -25.450 0.021
-29.972 -26.424 -2.385
-30.150 -26.919 -4.264
-30.062 -27.182 -5.399
-29.901 -27.380 -5.727
-29.728 -27.567 -5.239
-29.462 -27.666 -3.949
-28.901 -27.484 -1.935
-27.768 -26.741 0.548
-25.831 -25.190 2.972
-23.095 -22.807 4.552
-19.960 -19.960 4.538
-17.136 -17.353 2.696
-15.236 -15.624 -0.455
-14.378 -14.931 -4.100
-14.390 -15.132 -7.931
-15.511 -16.517 -12.003
-18.402 -19.845 -15.332
-22.793 -24.891 -15.373
-26.477 -29.282 -10.412
-26.818 -30.036 -2.500
-23.489 -26.643 3.582
-18.837 -21.639 4.777
-15.368 -17.879 2.018
-13.739 -16.189 -2.031
-13.334 -15.914 -5.930
-13.731 -16.598 -9.623
-15.016 -18.385 -12.970
-17.158 -21.279 -15.223
-19.673 -24.715 -15.714
-21.911 -27.884 -14.483
-23.454 -30.237 -12.195
-24.248 -31.670 -9.663
-24.483 -32.395 -7.496
-24.409 -32.723 -6.007
-24.224 -32.905 -5.311
-24.023 -33.065 -5.430
-23.787 -33.177 -6.361
-23.395 -33.066 -8.061
-22.644 -32.435 -10.366
-21.324 -30.957 -12.869
-19.346 -28.467 -14.873
-16.895 -25.200 -15.561
-14.458 -21.860 -14.428
-12.592 -19.301 -11.690
-11.561 -17.966 -8.140
-11.259 -17.741 -4.365
-11.674 -18.653 -0.340
-13.247 -21.465 3.568
-16.214 -26.646 5.347
-19.475 -32.464 2.499
-20.894 -35.329 -4.665
-19.320 -33.143 -12.052
-15.869 -27.620 -15.355
-12.673 -22.381 -13.901
-10.856 -19.456 -10.074
-10.195 -18.544 -6.027
-10.207 -18.846 -2.236
-10.831 -20.301 1.348
-12.129 -23.083 4.193
-13.872 -26.808 5.488
-15.587 -30.592 4.949
-16.873 -33.636 3.029
-17.590 -35.621 0.539
-17.824 -36.674 -1.804
-17.758 -37.130 -3.568
-17.560 -37.318 -4.569
-17.332 -37.442 -4.760
-17.094 -37.545 -4.135
-16.790 -37.500 -2.714
-16.299 -37.024 -0.598
-15.470 -35.749 1.922
-14.199 -33.387 4.262
-12.534 -29.993 5.619
-10.736 -26.152 5.294
-9.200 -22.816 3.177
-8.207 -20.730 -0.109
-7.762 -19.971 -3.787
-7.771 -20.371 -7.661
-8.399 -22.440 -11.727
-9.944 -27.084 -14.704
-12.085 -33.569 -13.946
-13.583 -38.485 -8.229
-13.266 -38.353 -0.277
-11.290 -33.318 5.089
-8.956 -26.986 5.461
-7.354 -22.634 2.306
-6.622 -20.826 -1.766
-6.420 -20.636 -5.619
-6.581 -21.635 -9.282
-7.145 -24.030 -12.507
-8.049 -27.705 -14.496
-9.039 -31.857 -14.672
-9.834 -35.509 -13.207
-10.290 -38.083 -10.823
-10.419 -39.545 -8.319
-10.322 -40.202 -6.250
-10.111 -40.434 -4.891
-9.864 -40.526 -4.332
-9.612 -40.599 -4.588
-9.341 -40.592 -5.653
-9.001 -40.267 -7.472
-8.516 -39.258 -9.846
-7.824 -37.194 -12.321
-6.920 -33.953 -14.159
-5.902 -29.919 -14.560
-4.959 -25.997 -13.120
-4.266 -23.152 -10.184
-3.870 -21.768 -6.573
-3.708 -21.648 -2.767
-3.782 -22.945 1.299
-4.216 -26.619 5.037
-4.998 -32.893 6.178
-5.711 -39.244 2.465
-5.776 -41.518 -5.091
-5.044 -38.008 -12.024
-3.962 -31.366 -14.458
-3.080 -25.679 -12.403
-2.583 -22.744 -8.435
-2.351 -21.931 -4.433
-2.262 -22.422 -0.671
-2.293 -24.256 2.844
-2.430 -27.555 5.479
-2.599 -31.751 6.464
-2.706 -35.816 5.645
-2.695 -38.932 3.570
-2.570 -40.848 1.061
-2.365 -41.773 -1.206
-2.118 -42.100 -2.849
-1.856 -42.178 -3.716
-1.592 -42.207 -3.769
-1.326 -42.203 -3.008
-1.056 -41.994 -1.460
-0.778 -41.253 0.752
-0.497 -39.578 3.290
-0.231 -36.708 5.525
-0.000 -32.800 6.637
0.180 -28.587 5.997
0.316 -25.112 3.625
0.435 -23.063 0.228
0.563 -22.409 -3.477
0.723 -23.019 -7.400
0.965 -25.582 -11.425
1.361 -30.929 -13.967
1.900 -37.766 -12.367
2.387 -42.170 -5.976
2.574 -40.916 1.865
2.421 -34.973 6.444
2.147 -28.417 6.042
1.987 -24.272 2.573
2.000 -22.683 -1.492
2.141 -22.646 -5.303
2.407 -23.858 -8.931
2.846 -26.539 -12.009
3.457 -30.434 -13.715
4.153 -34.625 -13.583
4.818 -38.140 -11.904
5.374 -40.489 -9.449
5.805 -41.724 -6.988
6.141 -42.197 -5.026
6.426 -42.292 -3.798
6.696 -42.277 -3.375
6.963 -42.246 -3.768
7.212 -42.104 -4.966
7.393 -41.589 -6.898
7.429 -40.318 -9.330
7.239 -37.949 -11.755
6.794 -34.438 -13.403
6.170 -30.274 -13.505
5.557 -26.418 -11.768
5.156 -23.769 -8.660
5.045 -22.572 -5.002
5.201 -22.601 -1.161
5.717 -24.145 2.934
6.858 -28.174 6.433
8.635 -34.531 6.864
10.338 -40.265 2.313
10.917 -41.435 -5.499
10.032 -37.130 -11.859
8.446 -30.496 -13.426
7.185 -25.325 -10.853
6.638 -22.849 -6.799
6.618 -22.256 -2.846
6.958 -22.873 0.889
7.721 -24.820 4.316
8.941 -28.118 6.717
10.431 -32.104 7.387
11.876 -35.783 6.304
13.034 -38.464 4.100
13.837 -40.004 1.592
14.349 -40.657 -0.590
14.691 -40.804 -2.109
14.965 -40.760 -2.839
15.227 -40.684 -2.756
15.473 -40.561 -1.859
15.627 -40.207 -0.186
15.558 -39.295 2.112
15.107 -37.467 4.651
14.176 -34.531 6.755
12.842 -30.730 7.604
11.408 -26.823 6.649
10.281 -23.759 4.043
9.709 -22.055 0.558
9.668 -21.592 -3.174
10.164 -22.324 -7.146
11.569 -24.993 -11.084
14.192 -30.159 -13.108
17.299 -36.171 -10.643
19.105 -39.311 -3.679
18.367 -37.196 3.907
15.754 -31.404 7.649
13.099 -25.707 6.536
11.579 -22.377 2.828
11.137 -21.194 -1.208
11.356 -21.286 -4.984
12.190 -22.507 -8.565
13.758 -25.026 -11.471
15.897 -28.491 -12.880
18.142 -32.039 -12.448
20.034 -34.868 -10.580
21.360 -36.642 -8.076
22.164 -37.478 -5.671
22.620 -37.705 -3.822
22.912 -37.653 -2.727
23.161 -37.531 -2.442
23.400 -37.390 -2.972
23.562 -37.128 -4.301
23.484 -36.496 -6.340
22.943 -35.168 -8.814
21.748 -32.883 -11.167
19.897 -29.677 -12.602
17.707 -26.055 -12.395
15.747 -22.861 -10.376
14.506 -20.779 -7.121
14.080 -19.900 -3.428
14.367 -20.038 0.455
15.658 -21.552 4.557
18.564 -25.216 7.741
22.777 -30.536 7.398
26.249 -34.732 2.060
26.627 -34.776 -5.861
23.720 -30.580 -11.547
19.717 -25.092 -12.273
16.852 -21.171 -9.266
15.654 -19.414 -5.170
15.562 -19.053 -1.265
16.258 -19.653 2.442
17.886 -21.346 5.758
20.418 -24.059 7.904
23.354 -27.171 8.259
26.027 -29.898 6.932
28.005 -31.765 4.621
29.227 -32.735 2.132
29.882 -33.048 0.045
30.226 -33.009 -1.346
30.462 -32.850 -1.940
30.682 -32.673 -1.719
30.853 -32.444 -0.687
30.816 -32.000 1.106
30.310 -31.082 3.480
29.057 -29.425 6.000
26.935 -26.935 7.949
24.177 -23.876 8.518
21.411 -20.880 7.253
19.360 -18.644 4.437
18.361 -17.460 0.883
18.299 -17.184 -2.878
19.254 -17.854 -6.895
21.930 -20.081 -10.692
26.633 -24.081 -12.115
31.665 -28.272 -8.780
33.879 -29.869 -1.362
31.688 -27.585 5.831
26.833 -23.063 8.707
22.455 -19.056 6.957
20.135 -16.871 3.078
19.503 -16.135 -0.916
19.906 -16.258 -4.661
21.344 -17.210 -8.181
23.954 -19.068 -10.889
27.350 -21.492 -11.991
30.736 -23.841 -11.272
33.431 -25.597 -9.238
35.189 -26.594 -6.706
36.143 -26.960 -4.371
36.596 -26.942 -2.640
36.832 -26.760 -1.680
37.020 -26.543 -1.531
37.185 -26.309 -2.198
37.199 -25.970 -3.656
36.798 -25.348 -5.794
35.646 -24.225 -8.295
33.497 -22.458 -10.553
30.435 -20.129 -11.754
27.027 -17.632 -11.233
24.143 -15.535 -8.949
22.415 -14.225 -5.572
21.873 -13.689 -1.849
22.390 -13.817 2.080
24.508 -14.913 6.159
29.016 -17.407 8.948
35.033 -20.718 7.781
39.293 -22.906 1.728
38.780 -22.282 -6.154
33.965 -19.232 -11.084
28.276 -15.777 -11.011
24.546 -13.494 -7.651
23.098 -12.510 -3.549
23.071 -12.309 0.311
24.148 -12.689 3.986
26.536 -13.731 7.167
30.074 -15.323 9.039
33.981 -17.046 9.082
37.365 -18.451 7.531
39.732 -19.310 5.138
41.085 -19.649 2.684
41.720 -19.632 0.701
41.988 -19.437 -0.560
42.141 -19.187 -1.017
42.278 -18.930 -0.659
42.327 -18.633 0.506
42.050 -18.197 2.415
41.094 -17.477 4.852
39.117 -16.347 7.333
36.033 -14.793 9.104
32.250 -13.004 9.379
28.650 -11.344 7.811
26.124 -10.154 4.811
24.974 -9.527 1.204
25.005 -9.359 -2.590
26.441 -9.707 -6.644
30.226 -10.882 -10.234
36.407 -12.850 -10.980
42.341 -14.645 -6.792
44.094 -14.942 0.947
40.382 -13.402 7.622
34.015 -11.052 9.628
28.820 -9.164 7.320
26.270 -8.172 3.330
25.662 -7.807 -0.616
26.281 -7.815 -4.334
28.221 -8.199 -7.775
31.562 -8.955 -10.260
35.698 -9.887 -11.049
39.630 -10.708 -10.059
42.608 -11.226 -7.883
44.430 -11.408 -5.342
45.326 -11.335 -3.088
45.674 -11.117 -1.480
45.805 -10.845 -0.655
45.897 -10.562 -0.644
45.948 -10.271 -1.446
45.777 -9.931 -3.031
45.049 -9.477 -5.260
43.373 -8.840 -7.770
40.512 -7.992 -9.909
36.666 -6.994 -10.855
32.597 -6.006 -10.019
29.327 -5.213 -7.491
27.482 -4.707 -4.015
26.984 -4.448 -0.266
27.754 -4.396 3.713
30.553 -4.643 7.728
36.120 -5.256 10.038
42.915 -5.970 8.015
46.931 -6.229 1.338
45.224 -5.713 -6.357
39.137 -4.694 -10.469
32.788 -3.724 -9.655
28.951 -3.104 -6.021
27.577 -2.782 -1.939
27.684 -2.617 1.883
29.056 -2.563 5.518
31.912 -2.612 8.538
35.932 -2.714 10.120
40.163 -2.780 9.858
43.657 -2.747 8.107
45.969 -2.602 5.653
47.187 -2.374 3.250
47.673 -2.098 1.377
47.810 -1.803 0.249
47.851 -1.504 -0.072
47.873 -1.203 0.423
47.767 -0.901 1.721
47.250 -0.594 3.740
45.927 -0.289 6.226
43.463 -0.000 8.646
39.847 0.250 10.215
35.629 0.448 10.185
31.810 0.600 8.328
29.270 0.736 5.169
28.198 0.886 1.521
28.371 1.070 -2.311
30.174 1.328 -6.383
34.605 1.741 -9.696
41.294 2.338 -9.696
46.981 2.956 -4.694
47.709 3.303 3.224
42.930 3.243 9.271
36.119 2.957 10.421
31.045 2.738 7.639
28.731 2.716 3.588
28.271 2.852 -0.309
29.053 3.115 -4.000
31.243 3.549 -7.341
34.815 4.176 -9.581
39.025 4.930 -10.055
42.840 5.686 -8.811
45.584 6.342 -6.517
47.151 6.862 -3.987
47.825 7.267 -1.824
48.005 7.603 -0.343
48.005 7.913 0.346
47.977 8.218 0.220
47.891 8.513 -0.718
47.533 8.758 -2.425
46.552 8.880 -4.734
44.568 8.792 -7.235
41.407 8.439 -9.231
37.370 7.861 -9.904
33.299 7.224 -8.755
30.191 6.749 -6.006
28.535 6.567 -2.452
28.173 6.670 1.325
29.122 7.088 5.351
32.236 8.061 9.252
37.997 9.756 11.000
44.382 11.693 8.106
47.351 12.794 0.918
44.649 12.366 -6.448
38.307 10.869 -9.706
32.376 9.406 -8.218
29.055 8.640 -4.382
27.957 8.505 -0.337
28.183 8.767 3.452
29.654 9.430 7.033
32.533 10.571 9.867
36.382 12.074 11.146
40.242 13.637 10.592
43.273 14.968 8.663
45.156 15.937 6.171
46.045 16.577 3.832
46.306 17.000 2.075
46.287 17.324 1.080
46.202 17.624 0.897
46.095 17.916 1.529
45.835 18.147 2.957
45.137 18.200 5.079
43.635 17.914 7.599
41.056 17.157 9.935
37.477 15.939 11.279
33.498 14.496 10.937
30.067 13.236 8.807
27.901 12.492 5.514
27.051 12.317 1.835
27.335 12.654 -2.042
29.235 13.757 -6.107
33.592 16.066 -9.062
39.643 19.267 -8.261
44.102 21.777 -2.506
43.720 21.932 5.443
38.747 19.743 10.770
32.647 16.893 11.099
28.468 14.959 7.926
26.683 14.236 3.853
26.399 14.298 0.003
27.205 14.956 -3.659
29.276 16.335 -6.877
32.478 18.390 -8.851
36.067 20.723 -9.011
39.160 22.828 -7.533
41.254 24.398 -5.146
42.340 25.400 -2.643
42.705 25.986 -0.580
42.694 26.348 0.772
42.560 26.636 1.325
42.409 26.914 1.061
42.187 27.146 -0.011
41.691 27.199 -1.836
40.610 26.859 -4.214
38.642 25.908 -6.686
35.701 24.262 -8.515
32.129 22.131 -8.900
28.696 20.034 -7.444
26.200 18.537 -4.499
24.936 17.878 -0.885
24.720 17.960 2.922
25.666 18.895 6.991
28.535 21.285 10.718
33.463 25.289 11.823
38.365 29.375 8.065
39.931 30.974 0.491
36.894 28.991 -6.414
31.447 25.032 -8.801
26.834 21.637 -6.717
24.419 19.944 -2.743
23.667 19.579 1.256
23.924 20.046 5.017
25.207 21.392 8.528
27.587 23.712 11.151
30.610 26.646 12.119
33.488 29.524 11.285
35.617 31.800 9.204
36.825 33.297 6.694
37.287 34.143 4.431
37.303 34.591 2.794
37.137 34.874 1.935
36.934 35.123 1.889
36.706 35.348 2.657
36.331 35.429 4.212
35.575 35.131 6.429
34.164 34.164 8.968
31.926 32.330 11.196
28.993 29.731 12.295
25.889 26.883 11.638
23.336 24.539 9.253
21.793 23.208 5.851
21.216 22.879 2.144
21.498 23.478 -1.781
23.092 25.538 -5.803
26.519 29.701 -8.319
30.867 35.012 -6.675
33.528 38.515 -0.251
32.444 37.747 7.581
28.350 33.405 12.117
23.938 28.568 11.675
21.135 25.548 8.192
19.987 24.472 4.128
19.827 24.590 0.319
20.450 25.690 -3.307
21.975 27.965 -6.376
24.219 31.223 -8.067
26.603 34.745 -7.919
28.534 37.756 -6.230
29.727 39.853 -3.772
30.233 41.067 -1.313
30.276 41.672 0.643
30.094 41.973 1.864
29.847 42.186 2.280
29.589 42.384 1.880
29.268 42.489 0.675
28.731 42.276 -1.263
27.769 41.418 -3.698
26.200 39.614 -6.119
24.017 36.814 -7.757
21.510 33.428 -7.842
19.215 30.278 -6.090
17.614 28.145 -2.974
16.818 27.252 0.686
16.686 27.423 4.529
17.358 28.934 8.626
19.320 32.668 12.109
22.444 38.501 12.501
25.168 43.803 7.907
25.496 45.027 0.086
23.056 41.322 -6.241
19.512 35.492 -7.763
16.767 30.958 -5.165
15.392 28.852 -1.107
14.950 28.451 2.842
15.093 29.167 6.576
15.863 31.132 9.998
17.247 34.382 12.386
18.914 38.303 13.039
20.396 41.966 11.943
21.383 44.709 9.732
21.828 46.388 7.225
21.864 47.232 5.048
21.671 47.597 3.536
21.393 47.779 2.813
21.100 47.931 2.904
20.787 48.037 3.807
20.376 47.910 5.487
19.735 47.224 7.789
18.726 45.612 10.328
17.287 42.872 12.424
15.534 39.235 13.259
13.782 35.460 12.287
12.402 32.510 9.670
11.574 30.923 6.180
11.231 30.592 2.447
11.339 31.495 -1.528
12.151 34.427 -5.460
13.834 39.995 -7.454
15.750 46.478 -4.942
16.581 49.961 2.048
15.564 47.900 9.617
13.332 41.927 13.313
11.207 36.026 12.165
9.923 32.621 8.446
9.365 31.495 4.412
9.221 31.739 0.638
9.426 33.222 -2.940
10.011 36.146 -5.836
10.845 40.139 -7.229
11.660 44.256 -6.782
12.223 47.605 -4.905
12.454 49.803 -2.398
12.405 50.966 0.003
12.182 51.454 1.846
11.882 51.629 2.934
11.562 51.725 3.212
11.238 51.801 2.675
10.883 51.733 1.339
10.441 51.230 -0.706
9.844 49.900 -3.182
9.047 47.428 -5.530
8.078 43.840 -6.954
7.062 39.724 -6.730
6.181 36.085 -4.697
5.563 33.747 -1.435
5.201 32.837 2.261
5.038 33.153 6.146
5.117 35.163 10.248
5.543 39.845 13.413
6.185 46.606 13.027
6.570 52.005 7.650
6.267 52.251 -0.273
5.359 47.186 -5.921
4.339 40.469 -6.604
3.600 35.687 -3.576
3.178 33.616 0.521
2.937 33.305 4.423
2.802 34.233 8.129
2.764 36.595 11.439
2.791 40.314 13.571
2.805 44.592 13.909
2.740 48.401 12.569
2.571 51.106 10.253
2.317 52.642 7.766
2.011 53.315 5.684
1.682 53.522 4.300
1.347 53.568 3.713
1.010 53.591 3.942
0.673 53.542 4.980
0.334 53.189 6.780
0.000 52.165 9.157
-0.315 50.088 11.676
-0.588 46.809 13.616
-0.805 42.682 14.170
-0.970 38.604 12.888
-1.118 35.576 10.062
-1.284 34.036 6.505
-1.487 33.798 2.743
-1.758 34.951 -1.277
-2.175 38.430 -5.065
-2.805 44.586 -6.454
-3.536 51.074 -3.073
-4.057 53.704 4.365
-4.133 50.481 11.534
-3.866 43.832 14.365
-3.584 37.915 12.583
-3.505 34.743 8.697
-3.622 33.777 4.705
-3.878 34.144 0.961
-4.298 35.830 -2.555
-4.924 38.981 -5.252
-5.717 43.077 -6.338
-6.553 47.103 -5.604
-7.308 50.217 -3.562
-7.921 52.132 -1.028
-8.400 53.038 1.303
-8.789 53.321 3.027
-9.136 53.337 3.980
-9.474 53.296 4.121
-9.807 53.226 3.448
-10.105 52.973 1.982
-10.303 52.224 -0.161
-10.310 50.587 -2.663
-10.054 47.793 -4.915
-9.537 43.962 -6.103
-8.891 39.776 -5.565
-8.342 36.250 -3.268
-8.073 34.099 0.115
-8.112 33.327 3.839
-8.445 33.771 7.771
-9.252 36.033 11.848
-10.794 40.968 14.613
-12.839 47.518 13.402
-14.401 51.998 7.313
-14.504 51.119 -0.562
-13.226 45.524 -5.450
-11.616 39.064 -5.337
-10.594 34.826 -1.960
-10.298 33.104 2.141
-10.470 32.927 5.999
-11.027 33.937 9.673
-12.060 36.338 12.846
-13.531 39.929 14.702
-15.172 43.863 14.729
-16.657 47.196 13.168
-17.795 49.427 10.770
-18.569 50.578 8.319
-19.080 50.977 6.341
-19.452 50.994 5.087
-19.781 50.893 4.637
-20.104 50.776 5.002
-20.389 50.566 6.175
-20.538 50.027 8.090
-20.396 48.807 10.529
-19.809 46.577 13.008
-18.726 43.273 14.769
-17.308 39.317 15.028
-15.936 35.591 13.444
-15.005 32.956 10.435
-14.667 31.684 6.826
-14.853 31.564 3.030
-15.687 32.799 -1.025
-17.629 36.273 -4.603
-20.728 41.977 -5.311
-23.754 47.352 -1.078
-24.818 48.708 6.674
-23.256 44.943 13.318
-20.376 38.777 15.278
-18.024 33.785 12.943
-16.941 31.280 8.949
-16.806 30.571 5.005
-17.288 30.983 1.289
-18.453 32.589 -2.147
-20.360 35.436 -4.620
-22.710 38.958 -5.393
-24.986 42.249 -4.389
-26.788 44.653 -2.206
-27.997 46.011 0.335
-28.721 46.540 2.584
-29.157 46.588 4.185
-29.476 46.446 5.003
-29.774 46.270 5.007
-30.048 46.058 4.198
-30.195 45.655 2.606
-30.021 44.777 0.373
-29.294 43.104 -2.137
-27.865 40.453 -4.269
-25.837 37.009 -5.201
-23.648 33.424 -4.348
-21.899 30.543 -1.808
-20.971 28.863 1.673
-20.833 28.299 5.423
-21.460 28.770 9.405
-23.337 30.879 13.415
-26.938 35.183 15.697
-31.332 40.392 13.628
-34.029 43.306 6.922
-33.164 41.664 -0.759
-29.532 36.626 -4.828
-25.702 31.469 -3.975
-23.432 28.325 -0.329
-22.712 27.106 3.751
-22.938 27.029 7.571
-23.994 27.915 11.203
-26.039 29.912 14.215
-28.876 32.753 15.780
-31.884 35.710 15.503
-34.428 38.075 13.742
-36.202 39.535 11.286
-37.252 40.172 8.885
-37.814 40.268 7.018
-38.140 40.107 5.897
-38.402 39.878 5.584
-38.651 39.634 6.086
-38.807 39.298 7.391
-38.669 38.669 9.415
-37.951 37.477 11.904
-36.402 35.499 14.320
-34.003 32.745 15.877
-31.140 29.613 15.831
-28.538 26.799 13.959
-26.845 24.893 10.792
-26.210 24.000 7.143
-26.490 23.953 3.308
-27.994 24.994 -0.764
-31.492 27.764 -4.060
-36.723 31.968 -4.019
-41.221 35.431 1.025
-41.962 35.611 8.948
-38.486 32.248 14.959
-33.427 27.654 16.065
-29.677 24.238 13.260
-28.037 22.607 9.207
-27.827 22.150 5.312
-28.594 22.469 1.623
-30.490 23.650 -1.713
-33.507 25.655 -3.939
-37.061 28.009 -4.396
-40.328 30.081 -3.139
-42.754 31.475 -0.840
-44.243 32.145 1.689
-45.016 32.276 3.847
-45.389 32.113 5.322
-45.615 31.845 6.004
-45.819 31.561 5.870
-45.972 31.243 4.925
-45.894 30.770 3.212
-45.279 29.947 0.899
-43.798 28.573 -1.602
-41.288 26.567 -3.589
-37.998 24.114 -4.248
-34.650 21.685 -3.082
-32.111 19.816 -0.322
-30.816 18.751 3.236
-30.645 18.384 7.014
-31.635 18.709 11.043
-34.570 20.153 14.937
-39.901 22.925 16.652
-45.819 25.944 13.712
-48.676 27.159 6.500
-46.404 25.511 -0.845
-40.808 22.102 -4.057
-35.561 18.972 -2.535
-32.673 17.168 1.309
-31.808 16.460 5.352
-32.166 16.389 9.140
-33.694 16.902 12.717
-36.565 18.055 15.541
-40.376 19.623 16.804
-44.227 21.152 16.234
-47.317 22.266 14.297
-49.332 22.836 11.804
-50.408 22.951 9.468
-50.885 22.783 7.717
-51.095 22.493 6.730
-51.242 22.174 6.554
-51.366 21.846 7.193
-51.336 21.453 8.627
-50.864 20.882 10.755
-49.577 19.990 13.277
-47.189 18.683 15.607
-43.764 17.010 16.939
-39.904 15.222 16.581
-36.572 13.688 14.436
-34.509 12.669 11.137
-33.783 12.163 7.456
-34.227 12.080 3.577
-36.370 12.580 -0.486
-41.119 13.934 -3.421
-47.682 15.825 -2.576
-52.586 17.086 3.216
-52.361 16.650 11.163
-47.235 14.694 16.450
-40.876 12.435 16.737
-36.549 10.868 13.545
-34.776 10.103 9.472
-34.618 9.822 5.624
-35.656 9.875 1.964
-38.103 10.295 -1.246
-41.828 11.020 -3.206
-46.015 11.815 -3.349
-49.680 12.423 -1.860
-52.253 12.719 0.532
-53.709 12.716 3.032
-54.361 12.510 5.090
-54.591 12.202 6.436
-54.682 11.863 6.981
-54.754 11.519 6.710
-54.742 11.157 5.631
-54.406 10.733 3.800
-53.372 10.181 1.418
-51.274 9.448 -1.052
-47.994 8.532 -2.871
-43.931 7.525 -3.241
-39.999 6.593 -1.769
-37.163 5.886 1.186
-35.794 5.439 4.803
-35.691 5.194 8.612
-37.020 5.150 12.682
-40.751 5.408 16.398
-47.072 5.947 17.468
-53.398 6.405 13.665
-55.567 6.311 6.074
-51.944 5.570 -0.803
-45.255 4.565 -3.145
-39.584 3.742 -1.031
-36.678 3.235 2.949
-35.879 2.937 6.945
-36.380 2.748 10.704
-38.231 2.647 14.211
-41.545 2.614 16.823
-45.740 2.589 17.774
-49.783 2.504 16.926
-52.865 2.327 14.837
-54.744 2.065 12.327
-55.635 1.748 10.068
-55.934 1.406 8.438
-55.989 1.055 7.586
-55.995 0.704 7.547
-55.966 0.352 8.322
-55.727 0.000 9.884
-54.948 -0.345 12.106
-53.228 -0.669 14.645
-50.312 -0.948 16.867
-46.366 -1.166 17.952
-42.134 -1.324 17.278
-38.656 -1.458 14.880
-36.610 -1.611 11.473
-35.953 -1.809 7.765
-36.561 -2.070 3.837
-39.138 -2.462 -0.180
-44.495 -3.080 -2.672
-51.288 -3.874 -0.982
-55.571 -4.549 5.475
-54.181 -4.778 13.296
-48.167 -4.553 17.789
-41.617 -4.198 17.308
-37.500 -4.021 13.811
-35.918 -4.080 9.748
-35.869 -4.303 5.941
-37.068 -4.683 2.317
-39.733 -5.273 -0.744
-43.595 -6.065 -2.419
-47.730 -6.946 -2.255
-51.177 -7.776 -0.555
-53.456 -8.467 1.906
-54.629 -9.005 4.362
-55.049 -9.429 6.313
-55.098 -9.795 7.527
-55.040 -10.142 7.935
-54.965 -10.485 7.527
-54.777 -10.806 6.315
-54.209 -11.049 4.372
-52.883 -11.125 1.935
-50.460 -10.947 -0.484
-46.904 -10.484 -2.110
-42.713 -9.830 -2.180
-38.849 -9.198 -0.413
-36.196 -8.810 2.712
-34.984 -8.748 6.374
-34.989 -8.984 10.220
-36.512 -9.620 14.317
-40.517 -10.948 17.786
-46.807 -12.963 18.137
-52.403 -14.868 13.501
-53.410 -15.517 5.671
-49.007 -14.572 -0.623
-42.367 -12.888 -2.100
-37.229 -11.581 0.523
-34.763 -11.054 4.584
-34.147 -11.095 8.531
-34.729 -11.526 12.264
-36.633 -12.414 15.680
-39.871 -13.791 18.055
-43.773 -15.449 18.692
-47.352 -17.048 17.582
-49.932 -18.332 15.365
-51.382 -19.231 12.858
-51.958 -19.820 10.686
-52.040 -20.227 9.181
-51.936 -20.563 8.465
-51.800 -20.887 8.563
-51.617 -21.191 9.474
-51.198 -21.396 11.160
-50.222 -21.359 13.466
-48.332 -20.915 16.004
-45.347 -19.963 18.093
-41.515 -18.588 18.913
-37.597 -17.118 17.925
-34.527 -15.983 15.296
-32.807 -15.438 11.803
-32.307 -15.451 8.068
-32.995 -16.036 4.091
-35.613 -17.585 0.165
-40.691 -20.412 -1.799
-46.549 -23.718 0.758
-49.503 -25.616 7.775
-47.258 -24.832 15.327
-41.443 -22.110 18.978
-35.785 -19.381 17.794
-32.478 -17.855 14.065
-31.275 -17.450 10.032
-31.319 -17.734 6.260
-32.480 -18.662 2.685
-34.918 -20.356 -0.201
-38.277 -22.637 -1.578
-41.699 -25.016 -1.116
-44.400 -27.017 0.771
-46.059 -28.424 3.279
-46.797 -29.287 5.677
-46.943 -29.791 7.514
-46.817 -30.125 8.595
-46.624 -30.417 8.866
-46.413 -30.697 8.321
-46.078 -30.893 6.978
-45.374 -30.836 4.929
-43.979 -30.294 2.451
-41.642 -29.072 0.107
-38.406 -27.173 -1.305
-34.774 -24.932 -1.065
-31.579 -22.943 0.983
-29.484 -21.705 4.252
-28.568 -21.310 7.949
-28.651 -21.653 11.836
-30.096 -23.044 15.938
-33.659 -26.109 19.084
-38.815 -30.500 18.656
-42.804 -34.072 13.239
-42.686 -34.419 5.314
-38.444 -31.399 -0.295
-32.998 -27.298 -0.934
-29.120 -24.400 2.114
-27.358 -23.218 6.212
-26.949 -23.163 10.111
-27.479 -23.921 13.816
-29.083 -25.640 17.119
-31.676 -28.282 19.237
-34.644 -31.325 19.558
-37.222 -34.083 18.207
-38.953 -36.121 15.886
-39.809 -37.383 13.400
-40.027 -38.064 11.324
-39.906 -38.429 9.947
-39.670 -38.685 9.367
-39.418 -38.925 9.602
-39.113 -39.113 10.648
-38.594 -39.083 12.454
-37.608 -38.565 14.835
-35.898 -37.278 17.352
-33.379 -35.101 19.283
-30.314 -32.281 19.822
-27.326 -29.468 18.524
-25.089 -27.399 15.688
-23.878 -26.408 12.127
-23.547 -26.373 8.363
-24.143 -27.385 4.341
-26.264 -30.171 0.563
-30.098 -35.017 -0.792
-34.070 -40.146 2.635
-35.476 -42.339 10.093
-33.118 -40.032 17.237
-28.635 -35.060 20.021
-24.695 -30.627 18.208
-22.529 -28.303 14.315
-21.757 -27.688 10.326
-21.813 -28.121 6.584
-22.674 -29.614 3.071
-24.410 -32.299 0.386
-26.682 -35.771 -0.684
-28.869 -39.215 0.064
-30.474 -41.945 2.115
-31.345 -43.717 4.649
-31.608 -44.675 6.976
-31.504 -45.127 8.694
-31.245 -45.361 9.640
-30.954 -45.547 9.774
-30.646 -45.709 9.093
-30.234 -45.714 7.621
-29.546 -45.289 5.473
-28.373 -44.094 2.970
-26.581 -41.885 0.723
-24.254 -38.754 -0.451
-21.776 -35.285 0.103
-19.694 -32.366 2.414
-18.374 -30.627 5.802
-17.795 -30.089 9.528
-17.855 -30.628 13.462
-18.850 -32.807 17.537
-21.186 -37.416 20.279
-24.278 -43.511 19.023
-26.253 -47.754 12.899
-25.523 -47.126 5.030
-22.503 -42.180 0.184
-19.135 -36.417 0.338
-16.904 -32.668 3.730
-15.908 -31.221 7.831
-15.652 -31.201 11.687
-15.949 -32.299 15.359
-16.877 -34.727 18.524
-18.321 -38.308 20.366
-19.878 -42.244 20.376
-21.125 -45.635 18.803
-21.850 -47.991 16.402
-22.084 -49.323 13.953
-21.982 -49.935 11.981
-21.715 -50.180 10.735
-21.397 -50.311 10.292
-21.073 -50.426 10.664
-20.711 -50.448 11.844
-20.215 -50.136 13.765
-19.452 -49.129 16.207
-18.302 -47.087 18.683
-16.757 -43.930 20.433
-15.001 -40.079 20.676
-13.376 -36.433 19.078
-12.198 -33.882 16.060
-11.548 -32.720 12.448
-11.327 -32.747 8.650
-11.590 -34.203 4.594
-12.626 -38.044 1.029
-14.387 -44.277 0.358
-15.959 -50.189 4.635
-16.122 -51.826 12.400
-14.593 -47.971 19.014
-12.344 -41.514 20.928
-10.544 -36.292 18.566
-9.572 -33.737 14.567
-9.173 -33.120 10.627
-9.115 -33.734 6.912
-9.401 -35.682 3.480
-10.023 -39.035 1.020
-10.796 -43.172 0.264
-11.460 -47.083 1.282
-11.843 -50.023 3.471
-11.921 -51.801 6.012
-11.769 -52.652 8.256
-11.489 -52.958 9.851
-11.160 -53.050 10.662
-10.823 -53.104 10.659
-10.478 -53.114 9.842
-10.090 -52.896 8.244
-9.602 -52.111 6.006
-8.954 -50.367 3.496
-8.125 -47.432 1.371
-7.173 -43.517 0.453
-6.240 -39.395 1.323
-5.485 -36.095 3.875
-4.981 -34.229 7.360
-4.690 -33.711 11.112
-4.575 -34.471 15.096
-4.710 -37.286 19.102
-5.143 -42.875 21.356
-5.638 -49.638 19.241
-5.740 -53.535 12.505
-5.213 -51.676 4.838
-4.300 -45.484 0.814
-3.449 -39.104 1.704
-2.887 -35.265 5.362
-2.559 -33.879 9.441
-2.351 -33.964 13.259
-2.222 -35.320 16.889
-2.160 -38.162 19.891
-2.121 -42.156 21.441
-2.039 -46.341 21.148
-1.877 -49.773 19.377
-1.635 -52.018 16.918
-1.337 -53.171 14.521
-1.010 -53.600 12.660
-0.675 -53.683 11.546
-0.337 -53.674 11.240
-0.000 -53.645 11.749
0.336 -53.484 13.061
0.665 -52.905 15.091
0.971 -51.514 17.581
1.231 -48.977 19.994
1.423 -45.295 21.540
1.547 -41.026 21.477
1.636 -37.177 19.590
1.741 -34.616 16.416
1.897 -33.519 12.765
2.118 -33.665 8.928
2.454 -35.453 4.855
3.012 -39.878 1.576
3.808 -46.522 1.658
4.594 -52.087 6.743
4.977 -52.654 14.672
4.817 -47.757 20.646
4.387 -40.912 21.708
4.072 -35.847 18.881
4.022 -33.530 14.825
4.174 -33.043 10.934
4.485 -33.794 7.246
5.001 -35.951 3.916
5.745 -39.478 1.704
6.628 -43.621 1.263
7.500 -47.354 2.533
8.243 -50.011 4.838
8.821 -51.496 7.366
9.262 -52.100 9.518
9.621 -52.217 10.986
9.950 -52.159 11.661
10.273 -52.075 11.520
10.584 -51.929 10.568
10.836 -51.509 8.848
10.947 -50.461 6.532
10.821 -48.410 4.032
10.400 -45.190 2.053
9.733 -41.110 1.409
9.010 -37.016 2.591
8.476 -33.895 5.362
8.273 -32.220 8.923
8.385 -31.826 12.703
8.847 -32.743 16.735
9.923 -35.829 20.620
11.784 -41.534 22.304
13.886 -47.794 19.318
15.044 -50.593 12.083
14.529 -47.760 4.759
12.872 -41.379 1.593
11.280 -35.474 3.148
10.453 -32.170 7.001
10.307 -31.055 11.042
10.588 -31.246 14.828
11.302 -32.674 18.402
12.528 -35.497 21.215
14.137 -39.266 22.462
15.797 -43.028 21.877
17.200 -45.956 19.931
18.213 -47.744 17.436
18.871 -48.553 15.104
19.300 -48.746 13.360
19.623 -48.666 12.380
19.921 -48.525 12.211
20.210 -48.360 12.857
20.432 -48.040 14.298
20.460 -47.281 16.431
20.127 -45.720 18.954
19.294 -43.093 21.280
17.977 -39.483 22.599
16.430 -35.494 22.224
15.088 -32.064 20.066
14.297 -29.893 16.760
14.104 -29.021 13.078
14.453 -29.269 9.196
15.616 -31.130 5.134
18.050 -35.425 2.221
21.398 -41.352 3.110
23.979 -45.635 8.939
24.065 -45.107 16.883
21.712 -40.089 22.129
18.707 -34.029 22.374
16.682 -29.898 19.165
15.922 -28.120 15.092
15.977 -27.808 11.246
16.656 -28.571 7.588
18.087 -30.583 4.384
20.218 -33.702 2.440
22.626 -37.184 2.313
24.786 -40.163 3.813
26.382 -42.154 6.210
27.386 -43.154 8.708
27.959 -43.450 10.760
28.301 -43.381 12.099
28.569 -43.195 12.637
28.825 -42.993 12.359
29.032 -42.719 11.273
29.048 -42.171 9.435
28.653 -41.042 7.051
27.621 -39.039 4.583
25.870 -36.081 2.774
23.625 -32.517 2.419
21.428 -29.106 3.907
19.862 -26.627 6.872
19.165 -25.359 10.491
19.231 -25.117 14.302
20.187 -26.024 18.374
22.656 -28.832 22.079
26.779 -33.642 23.112
30.939 -38.370 19.264
32.487 -39.776 11.657
30.346 -36.681 4.808
26.215 -31.287 2.512
22.706 -26.755 4.655
20.957 -24.382 8.640
20.564 -23.623 12.634
21.024 -23.847 16.392
22.391 -25.078 19.894
24.757 -27.379 22.494
27.741 -30.296 23.429
30.653 -33.056 22.567
32.938 -35.076 20.470
34.421 -36.196 17.960
35.237 -36.591 15.705
35.649 -36.557 14.082
35.894 -36.348 13.237
36.106 -36.106 13.205
36.291 -35.838 13.988
36.325 -35.424 15.556
35.965 -34.634 17.782
34.914 -33.202 20.322
32.975 -30.966 22.537
30.258 -28.059 23.609
27.301 -24.999 22.919
24.874 -22.491 20.508
23.488 -20.971 17.096
23.125 -20.387 13.386
23.713 -20.643 9.456
25.811 -22.185 5.442
30.057 -25.509 2.976
35.434 -29.691 4.712
38.902 -32.183 11.201
37.987 -31.026 19.011
33.467 -26.985 23.460
28.501 -22.687 22.941
25.411 -19.968 19.429
24.295 -18.845 15.368
24.386 -18.672 11.562
25.481 -19.257 7.941
27.774 -20.717 4.889
31.059 -22.865 3.229
34.595 -25.135 3.410
37.597 -26.956 5.119
39.664 -28.063 7.584
40.834 -28.507 10.037
41.389 -28.510 11.982
41.640 -28.298 13.189
41.802 -28.027 13.590
41.950 -27.745 13.175
42.001 -27.401 11.956
41.722 -26.847 10.006
40.781 -25.880 7.567
38.875 -24.330 5.152
35.961 -22.193 3.536
32.465 -19.754 3.483
29.226 -17.533 5.265
27.030 -15.986 8.398
26.093 -15.211 12.062
26.234 -15.073 15.910
27.748 -15.712 20.008
31.529 -17.592 23.462
37.412 -20.567 23.774
42.690 -23.121 19.095
43.781 -23.357 11.255
39.898 -20.965 4.996
33.931 -17.558 3.564
29.325 -14.942 6.211
27.177 -13.633 10.275
26.740 -13.204 14.220
27.432 -13.332 17.951
29.393 -14.057 21.362
32.647 -15.363 23.724
36.564 -16.926 24.344
40.202 -18.304 23.221
42.902 -19.209 20.998
44.524 -19.601 18.492
45.309 -19.607 16.324
45.614 -19.400 14.826
45.740 -19.115 14.117
45.835 -18.817 14.222
45.882 -18.500 15.141
45.688 -18.089 16.833
44.924 -17.461 19.144
43.219 -16.486 21.681
40.375 -15.112 23.762
36.635 -13.450 24.568
32.774 -11.799 23.563
29.763 -10.505 20.922
28.131 -9.730 17.425
27.762 -9.408 13.689
28.645 -9.507 9.709
31.593 -10.265 5.790
37.192 -11.827 3.856
43.654 -13.580 6.459
47.020 -14.304 13.503
44.787 -13.318 21.036
38.677 -11.237 24.641
32.707 -9.280 23.422
29.269 -8.106 19.683
28.112 -7.596 15.653
28.323 -7.462 11.882
29.786 -7.648 8.310
32.698 -8.177 5.434
36.673 -8.926 4.073
40.753 -9.649 4.551
44.046 -10.136 6.447
46.179 -10.322 8.957
47.276 -10.256 11.351
47.701 -10.035 13.182
47.817 -9.746 14.255
47.856 -9.441 14.519
47.874 -9.132 13.968
47.743 -8.797 12.618
47.169 -8.385 10.563
45.758 -7.838 8.083
43.196 -7.120 5.744
39.521 -6.259 4.344
35.332 -5.369 4.601
31.641 -4.605 6.663
29.267 -4.072 9.939
28.324 -3.759 13.637
28.612 -3.614 17.527
30.615 -3.672 21.628
35.309 -4.010 24.755
42.050 -4.509 24.284
47.346 -4.776 18.828
47.429 -4.483 10.902
42.229 -3.724 5.332
35.452 -2.902 4.735
30.657 -2.316 7.804
28.571 -1.978 11.903
28.232 -1.776 15.800
29.134 -1.649 19.503
31.476 -1.584 22.799
35.168 -1.548 24.903
39.400 -1.486 25.208
43.146 -1.356 23.844
45.780 -1.151 21.518
47.247 -0.891 19.034
47.857 -0.601 16.963
48.007 -0.302 15.593
48.000 -0.000 15.020
47.971 0.301 15.263
47.867 0.602 16.316
47.456 0.895 18.128
46.366 1.166 20.512
44.219 1.390 23.028
40.872 1.542 24.950
36.692 1.615 25.473
32.581 1.639 24.159
29.535 1.672 21.313
27.977 1.760 17.749
27.715 1.919 13.984
28.853 2.180 9.959
32.330 2.647 6.191
38.465 3.392 4.870
44.863 4.241 8.342
47.342 4.775 15.820
43.987 4.716 22.939
37.287 4.235 25.678
31.383 3.764 23.834
28.226 3.566 19.933
27.250 3.617 15.946
27.596 3.839 12.206
29.261 4.258 8.697
32.383 4.921 6.023
36.432 5.770 4.970
40.391 6.658 5.733
43.431 7.439 7.791
45.276 8.049 10.326
46.122 8.498 12.649
46.355 8.843 14.360
46.328 9.140 15.299
46.246 9.426 15.426
46.135 9.705 14.738
45.838 9.944 13.259
45.041 10.068 11.106
43.356 9.978 8.603
40.518 9.593 6.362
36.658 8.923 5.200
32.464 8.118 5.771
28.945 7.432 8.095
26.800 7.061 11.489
26.021 7.031 15.216
26.454 7.326 19.154
28.711 8.146 23.226
33.626 9.769 25.944
40.098 11.923 24.643
44.440 13.519 18.484
43.432 13.511 10.622
37.793 12.018 5.819
31.374 10.194 6.013
27.188 9.023 9.421
25.488 8.637 13.522
25.306 8.753 17.375
26.303 9.283 21.045
28.681 10.326 24.202
32.229 11.833 26.029
36.098 13.511 26.023
39.357 15.013 24.439
41.520 16.138 22.035
42.617 16.873 19.588
42.975 17.328 17.622
42.962 17.638 16.382
42.837 17.901 15.946
42.695 18.158 16.326
42.460 18.374 17.512
41.894 18.442 19.440
40.648 18.200 21.885
38.401 17.484 24.358
35.095 16.246 26.098
31.160 14.663 26.325
27.470 13.138 24.711
24.872 12.088 21.684
23.620 11.664 18.070
23.505 11.791 14.270
24.741 12.606 10.212
28.202 14.593 6.661
33.842 17.783 6.028
39.091 20.855 10.349
40.321 21.838 18.126
36.515 20.075 24.708
30.411 16.968 26.577
25.515 14.447 24.189
23.074 13.257 20.186
22.387 13.051 16.248
22.803 13.486 12.534
24.399 14.637 9.107
27.214 16.559 6.660
30.678 18.932 5.920
33.899 21.216 6.952
36.239 22.998 9.148
37.549 24.162 11.689
38.050 24.823 13.929
38.083 25.188 15.517
37.934 25.433 16.320
37.754 25.657 16.310
37.537 25.856 15.486
37.128 25.920 13.881
36.249 25.647 11.639
34.584 24.796 9.129
31.959 23.219 7.011
28.565 21.029 6.107
25.048 18.684 6.994
22.239 16.807 9.558
20.613 15.782 13.048
20.078 15.574 16.801
20.565 16.160 20.788
22.674 18.048 24.788
26.931 21.715 27.014
32.031 26.161 24.854
34.821 28.806 18.088
33.135 27.764 10.436
28.173 23.909 6.457
23.151 19.899 7.383
20.119 17.514 11.054
18.961 16.716 15.131
18.911 16.884 18.947
19.806 17.909 22.574
21.788 19.951 25.567
24.585 22.798 27.101
27.479 25.805 26.793
29.785 28.325 25.012
31.205 30.050 22.551
31.825 31.035 20.156
31.922 31.523 18.301
31.773 31.773 17.194
31.560 31.959 16.895
31.334 32.131 17.412
31.015 32.207 18.731
30.408 31.976 20.766
29.248 31.146 23.259
27.320 29.462 25.667
24.643 26.912 27.202
21.611 23.901 27.123
18.904 21.172 25.221
17.088 19.382 22.040
16.257 18.675 18.387
16.247 18.902 14.547
17.306 20.392 10.474
20.052 23.931 7.213
24.166 29.212 7.336
27.510 33.683 12.463
27.638 34.276 20.395
24.351 30.592 26.333
19.924 25.355 27.351
16.670 21.491 24.502
15.143 19.777 20.444
14.743 19.508 16.555
15.094 20.235 12.868
16.281 22.115 9.545
18.260 25.132 7.346
20.563 28.680 6.923
22.584 31.920 8.205
23.944 34.298 10.515
24.606 35.722 13.042
24.753 36.423 15.189
24.621 36.722 16.651
24.389 36.876 17.318
24.144 37.009 17.170
23.865 37.088 16.211
23.435 36.927 14.485
22.666 36.216 12.164
21.365 34.620 9.666
19.459 31.980 7.695
17.133 28.559 7.066
14.842 25.096 8.265
13.098 22.469 11.047
12.129 21.110 14.611
11.827 20.886 18.392
12.191 21.850 22.426
13.636 24.803 26.304
16.343 30.176 27.955
19.252 36.086 24.923
20.403 38.829 17.665
18.820 36.370 10.364
15.595 30.607 7.243
12.670 25.258 8.831
11.017 22.311 12.693
10.400 21.399 16.731
10.386 21.716 20.515
10.928 23.224 24.086
12.076 26.088 26.889
13.609 29.890 28.119
15.096 33.715 27.519
16.182 36.759 25.565
16.753 38.713 23.069
16.894 39.723 20.741
16.772 40.134 19.003
16.537 40.281 18.030
16.276 40.366 17.868
16.007 40.429 18.521
15.676 40.331 19.969
15.175 39.782 22.107
14.374 38.404 24.632
13.185 35.912 26.952
11.658 32.382 28.259
10.034 28.428 27.867
8.657 25.027 25.695
7.766 22.916 22.383
7.351 22.151 18.699
7.333 22.567 14.815
7.859 24.715 10.755
9.176 29.497 7.863
10.971 36.066 8.796
12.158 40.886 14.662
11.767 40.501 22.603
9.994 35.223 27.808
7.971 28.780 28.012
6.598 24.420 24.784
5.960 22.623 20.711
5.761 22.437 16.868
5.866 23.456 13.211
6.304 25.898 10.015
7.012 29.615 8.085
7.773 33.778 7.975
8.360 37.401 9.487
8.660 39.920 11.887
8.692 41.319 14.384
8.543 41.916 16.430
8.305 42.096 17.762
8.039 42.141 18.293
7.770 42.167 18.008
7.485 42.107 16.915
7.145 41.715 15.071
6.695 40.617 12.683
6.089 38.445 10.217
5.332 35.091 8.418
4.506 30.963 8.079
3.755 26.989 9.583
3.202 24.130 12.557
2.873 22.744 16.179
2.714 22.625 19.992
2.721 23.955 24.066
2.971 27.713 27.759
3.435 34.049 28.756
3.811 40.317 24.863
3.735 42.353 17.240
3.160 38.597 10.419
2.406 31.844 8.170
1.812 26.172 10.341
1.464 23.276 14.332
1.272 22.473 18.323
1.155 22.967 22.079
1.092 24.818 25.578
1.061 28.132 28.165
1.015 32.310 29.084
0.913 36.316 28.207
0.742 39.351 26.103
0.518 41.183 23.593
0.264 42.033 21.343
-0.000 42.298 19.726
-0.266 42.324 18.888
-0.532 42.304 18.863
-0.796 42.248 19.653
-1.055 41.979 21.228
-1.294 41.162 23.459
-1.486 39.401 25.999
-1.604 36.444 28.208
-1.633 32.468 29.266
-1.598 28.225 28.559
-1.557 24.754 26.136
-1.573 22.721 22.719
-1.667 22.071 19.008
-1.857 22.689 15.075
-2.231 25.292 11.064
-2.899 30.671 8.625
-3.775 37.428 10.405
-4.461 41.604 16.927
-4.554 40.097 24.726
-4.083 34.038 29.131
-3.477 27.520 28.574
-3.113 23.456 25.048
-3.047 21.906 20.987
-3.183 21.870 17.184
-3.507 23.082 13.566
-4.079 25.756 10.522
-4.881 29.610 8.877
-5.776 33.718 9.074
-6.600 37.126 10.794
-7.254 39.368 13.261
-7.728 40.512 15.712
-8.072 40.915 17.651
-8.347 40.955 18.851
-8.603 40.893 19.244
-8.854 40.814 18.822
-9.080 40.620 17.596
-9.215 40.043 15.641
-9.164 38.707 13.199
-8.830 36.276 10.788
-8.183 32.725 9.183
-7.332 28.558 9.146
-6.517 24.736 10.943
-5.980 22.130 14.085
-5.804 20.956 17.751
-5.955 20.989 21.600
-6.550 22.544 25.699
-7.903 26.578 29.137
-9.994 32.851 29.410
-11.934 38.363 24.688
-12.487 39.269 16.840
-11.318 34.832 10.615
-9.377 28.253 9.228
-7.866 23.213 11.900
-7.202 20.823 15.966
-7.147 20.250 19.908
-7.511 20.862 23.638
-8.367 22.790 27.043
-9.744 26.034 29.393
-11.413 29.918 29.996
-13.008 33.466 28.860
-14.260 36.017 26.631
-15.101 37.450 24.125
-15.611 38.026 21.963
-15.930 38.118 20.471
-16.174 38.031 19.769
-16.407 37.915 19.882
-16.618 37.750 20.807
-16.722 37.349 22.506
-16.569 36.390 24.821
-15.981 34.524 27.357
-14.859 31.576 29.431
-13.297 27.803 30.222
-11.646 23.962 29.201
-10.358 20.977 26.549
-9.696 19.328 23.047
-9.621 18.882 19.310
-10.151 19.616 15.327
-11.703 22.272 11.414
-14.592 27.352 9.511
-17.951 33.145 12.160
-19.795 36.007 19.230
-18.822 33.734 26.745
-15.854 27.998 30.305
-12.916 22.481 29.051
-11.250 19.298 25.301
-10.748 18.174 21.273
-10.962 18.272 17.504
-11.849 19.474 13.935
-13.536 21.934 11.069
-15.826 25.287 9.724
-18.205 28.686 10.217
-20.182 31.364 12.122
-21.539 33.016 14.634
-22.332 33.765 17.025
-22.754 33.938 18.850
-23.004 33.850 19.916
-23.212 33.697 20.173
-23.407 33.528 19.614
-23.514 33.234 18.257
-23.354 32.573 16.197
-22.689 31.229 13.715
-21.318 28.957 11.381
-19.251 25.809 9.993
-16.843 22.287 10.266
-14.709 19.211 12.343
-13.360 17.224 15.626
-12.880 16.392 19.326
-13.165 16.539 23.218
-14.543 18.036 27.318
-17.655 21.617 30.425
-22.110 26.726 29.912
-25.666 30.631 24.416
-25.868 30.480 16.491
-22.626 26.323 10.959
-18.324 21.050 10.405
-15.291 17.344 13.494
-14.021 15.704 17.594
-13.902 15.375 21.488
-14.619 15.965 25.190
-16.326 17.606 28.479
-18.977 20.208 30.569
-22.026 23.162 30.857
-24.769 25.721 29.481
-26.768 27.449 27.151
-27.971 28.324 24.668
-28.583 28.583 22.602
-28.876 28.515 21.239
-29.060 28.338 20.673
-29.228 28.147 20.923
-29.342 27.903 21.983
-29.229 27.447 23.802
-28.612 26.532 26.190
-27.203 24.910 28.703
-24.887 22.503 30.617
-21.923 19.574 31.125
-18.983 16.736 29.794
-16.816 14.639 26.938
-15.755 13.542 23.371
-15.669 13.298 19.604
-16.661 13.961 15.578
-19.480 16.116 11.819
-24.392 19.922 10.533
-29.536 23.816 14.051
-31.630 25.178 21.547
-29.136 22.895 28.641
-23.981 18.601 31.334
-19.427 14.875 29.459
-17.034 12.873 25.552
-16.369 12.210 21.567
-16.768 12.345 17.828
-18.252 13.261 14.323
-20.948 15.019 11.661
-24.431 17.285 10.624
-27.870 19.457 11.401
-30.573 21.060 13.467
-32.301 21.952 16.003
-33.205 22.262 18.322
-33.600 22.222 20.027
-33.778 22.036 20.959
-33.911 21.820 21.078
-34.018 21.588 20.383
-33.962 21.255 18.898
-33.465 20.652 16.740
-32.180 19.581 14.235
-29.864 17.916 12.000
-26.621 15.743 10.852
-23.052 13.438 11.440
-20.057 11.524 13.777
-18.269 10.344 17.177
-17.695 9.873 20.905
-18.218 10.016 24.845
-20.422 11.061 28.914
-25.093 13.387 31.608
-31.227 16.409 30.263
-35.413 18.325 24.070
-34.636 17.648 16.215
-29.531 14.814 11.454
-23.670 11.688 11.688
-19.878 9.661 15.112
-18.407 8.803 19.212
-18.368 8.643 23.064
-19.463 9.010 26.731
-21.907 9.974 29.880
-25.507 11.421 31.692
-29.449 12.964 31.670
-32.825 14.205 30.075
-35.150 14.949 27.667
-36.444 15.230 25.223
-37.017 15.197 23.262
-37.225 15.010 22.030
-37.323 14.777 21.601
-37.404 14.538 21.988
-37.390 14.263 23.181
-37.033 13.861 25.114
-35.969 13.205 27.562
-33.856 12.189 30.032
-30.622 10.808 31.762
-26.703 9.236 31.974
-23.010 7.798 30.344
-20.437 6.782 27.308
-19.263 6.259 23.692
-19.288 6.133 19.890
-20.767 6.460 15.831
-24.665 7.503 12.293
-30.952 9.204 11.699
-36.843 10.704 16.063
-38.368 10.886 23.852
-34.382 9.522 30.403
-27.850 7.525 32.226
-22.618 5.959 29.811
-20.072 5.154 25.804
-19.461 4.867 21.869
-20.085 4.889 18.157
-22.056 5.222 14.735
-25.437 5.854 12.300
-29.589 6.614 11.577
-33.496 7.267 12.623
-36.418 7.661 14.825
-38.173 7.780 17.365
-39.002 7.694 19.601
-39.291 7.495 21.182
-39.370 7.254 21.979
-39.412 7.006 21.961
-39.411 6.751 21.130
-39.175 6.457 19.519
-38.364 6.076 17.272
-36.585 5.559 14.762
-33.610 4.891 12.651
-29.662 4.126 11.762
-25.527 3.388 12.665
-22.234 2.809 15.241
-20.386 2.445 18.735
-19.888 2.259 22.490
-20.677 2.217 26.479
-23.547 2.375 30.475
-29.197 2.760 32.673
-35.965 3.172 30.466
-39.785 3.257 23.672
-37.818 2.857 16.035
-31.574 2.186 12.100
-25.216 1.586 13.063
-21.426 1.213 16.745
-20.077 1.010 20.821
-20.191 0.889 24.635
-21.581 0.814 28.260
-24.461 0.769 31.243
-28.479 0.716 32.761
-32.670 0.616 32.437
-36.094 0.454 30.646
-38.327 0.241 28.183
-39.474 0.000 25.792
-39.902 -0.251 23.943
-39.992 -0.503 22.843
-39.993 -0.754 22.551
-39.975 -1.005 23.075
-39.822 -1.251 24.401
-39.245 -1.480 26.442
-37.851 -1.666 28.937
-35.310 -1.776 31.341
-31.630 -1.791 32.864
-27.381 -1.723 32.769
-23.572 -1.632 30.852
-21.062 -1.591 27.663
-20.011 -1.638 24.008
-20.200 -1.781 20.167
-22.044 -2.084 16.094
-26.533 -2.676 12.850
-33.201 -3.560 13.014
-38.714 -4.397 18.182
-39.193 -4.701 26.119
-34.260 -4.328 32.020
-27.463 -3.645 32.994
-22.489 -3.129 30.122
-20.248 -2.947 26.063
-19.814 -3.011 22.177
-20.613 -3.265 18.491
-22.817 -3.761 15.174
-26.378 -4.518 12.989
-30.534 -5.428 12.582
-34.264 -6.313 13.877
-36.917 -7.042 16.192
-38.405 -7.577 18.718
-39.023 -7.954 20.861
-39.164 -8.239 22.315
-39.135 -8.490 22.975
-39.082 -8.736 22.820
-38.966 -8.967 21.854
-38.572 -9.132 20.121
-37.548 -9.139 17.797
-35.522 -8.883 15.300
-32.336 -8.302 13.337
-28.307 -7.458 12.724
-24.285 -6.562 13.938
-21.246 -5.884 16.731
-19.646 -5.574 20.299
-19.315 -5.611 24.082
-20.294 -6.035 28.118
-23.445 -7.132 31.988
-29.184 -9.079 33.606
-35.412 -11.261 30.528
-38.136 -12.391 23.248
-35.272 -11.706 15.968
-28.958 -9.813 12.894
-23.179 -8.017 14.514
-19.994 -7.057 18.384
-18.961 -6.826 22.421
-19.215 -7.055 26.203
-20.700 -7.748 29.771
-23.565 -8.989 32.563
-27.353 -10.632 33.777
-31.115 -12.319 33.162
-34.041 -13.726 31.199
-35.837 -14.712 28.702
-36.668 -15.323 26.377
-36.896 -15.692 24.645
-36.861 -15.951 23.679
-36.766 -16.185 23.525
-36.649 -16.409 24.186
-36.374 -16.561 25.640
-35.659 -16.507 27.783
-34.147 -16.068 30.309
-31.578 -15.103 32.624
-28.046 -13.631 33.918
-24.156 -11.928 33.510
-20.837 -10.453 31.324
-18.769 -9.563 28.006
-17.981 -9.305 24.321
-18.301 -9.616 20.434
-20.229 -10.792 16.375
-24.564 -13.304 13.505
-30.470 -16.751 14.482
-34.685 -19.353 20.386
-34.122 -19.321 28.323
-29.173 -16.762 33.487
-23.266 -13.563 33.649
-19.294 -11.410 30.404
-17.631 -10.577 26.331
-17.400 -10.588 22.489
-18.229 -11.250 18.835
-20.290 -12.698 15.646
-23.432 -14.870 13.731
-26.914 -17.318 13.637
-29.888 -19.498 15.160
-31.883 -21.087 17.565
-32.907 -22.063 20.059
-33.244 -22.593 22.100
-33.228 -22.888 23.425
-33.100 -23.108 23.949
-32.957 -23.317 23.657
-32.741 -23.475 22.556
-32.251 -23.432 20.707
-31.186 -22.959 18.316
-29.259 -21.825 15.852
-26.398 -19.950 14.062
-22.953 -17.574 13.739
-19.676 -15.262 15.258
-17.325 -13.614 18.242
-16.161 -12.864 21.867
-16.003 -12.903 25.682
-16.979 -13.868 29.757
-19.832 -16.406 33.439
-24.628 -20.636 34.399
-29.288 -24.856 30.462
-30.645 -26.340 22.823
-27.606 -24.032 16.031
-22.376 -19.727 13.828
-18.037 -16.104 16.027
-15.812 -14.298 20.023
-15.153 -13.875 24.012
-15.451 -14.328 27.767
-16.736 -15.716 31.261
-19.063 -18.128 33.837
-21.978 -21.164 34.738
-24.725 -24.111 33.848
-26.741 -26.407 31.737
-27.879 -27.879 29.226
-28.314 -28.672 26.980
-28.334 -29.056 25.370
-28.188 -29.272 24.539
-28.011 -29.455 24.522
-27.808 -29.612 25.318
-27.459 -29.611 26.900
-26.740 -29.202 29.136
-25.392 -28.082 31.676
-23.261 -26.053 33.878
-20.485 -23.236 34.923
-17.575 -20.190 34.199
-15.214 -17.700 31.763
-13.817 -16.281 28.341
-13.327 -15.905 24.629
-13.655 -16.506 20.693
-15.243 -18.664 16.687
-18.559 -23.016 14.273
-22.670 -28.480 16.100
-25.093 -31.933 22.653
-23.964 -30.895 30.441
-20.081 -26.226 34.802
-15.995 -21.165 34.206
-13.456 -18.040 30.667
-12.453 -16.916 26.607
-12.360 -17.012 22.806
-13.003 -18.135 19.190
-14.489 -20.479 16.155
-16.631 -23.823 14.526
-18.878 -27.406 14.738
-20.682 -30.433 16.469
-21.794 -32.506 18.939
-22.269 -33.670 21.387
-22.321 -34.214 23.320
-22.170 -34.454 24.513
-21.963 -34.609 24.899
-21.747 -34.748 24.470
-21.468 -34.786 23.237
-20.984 -34.485 21.276
-20.101 -33.507 18.832
-18.656 -31.546 16.423
-16.653 -28.566 14.830
-14.370 -25.010 14.809
-12.306 -21.733 16.621
-10.895 -19.527 19.771
-10.223 -18.596 23.439
-10.160 -18.758 27.290
-10.844 -20.327 31.390
-12.719 -24.206 34.813
-15.622 -30.190 35.045
-18.084 -35.491 30.281
-18.311 -36.502 22.426
-16.048 -32.498 16.235
-12.858 -26.457 14.892
-10.445 -21.840 17.588
-9.275 -19.710 21.658
-8.933 -19.298 25.597
-9.118 -20.025 29.325
-9.868 -22.040 32.725
-11.164 -25.359 35.061
-12.693 -29.331 35.648
-14.037 -33.004 34.498
-14.928 -35.721 32.263
-15.334 -37.351 29.759
-15.378 -38.140 27.601
-15.224 -38.451 26.116
-14.997 -38.585 25.421
-14.759 -38.691 25.541
-14.502 -38.746 26.474
-14.155 -38.555 28.179
-13.602 -37.781 30.498
-12.724 -36.052 33.034
-11.475 -33.175 35.100
-9.965 -29.405 35.876
-8.474 -25.533 34.838
-7.322 -22.535 32.175
-6.656 -20.932 28.670
-6.408 -20.599 24.930
-6.551 -21.535 20.946
-7.306 -24.572 17.039
-8.795 -30.273 15.167
-10.437 -36.784 17.862
-11.107 -40.103 24.957
-10.207 -37.776 32.453
-8.328 -31.609 35.968
-6.587 -25.653 34.679
-5.567 -22.263 30.920
-5.149 -21.153 26.893
-5.069 -21.410 23.126
-5.277 -22.931 19.560
-5.792 -25.910 16.704
-6.496 -29.943 15.375
-7.166 -34.062 15.884
-7.618 -37.379 17.798
-7.798 -39.527 20.312
-7.752 -40.638 22.699
-7.569 -41.080 24.518
-7.327 -41.219 25.577
-7.071 -41.283 25.827
-6.812 -41.326 25.260
-6.528 -41.216 23.897
-6.177 -40.655 21.831
-5.712 -39.247 19.348
-5.103 -36.681 17.018
-4.380 -33.005 15.643
-3.642 -28.831 15.932
-3.020 -25.176 18.023
-2.596 -22.853 21.312
-2.355 -21.963 25.014
-2.250 -22.307 28.909
-2.306 -24.390 33.008
-2.573 -29.180 36.096
-2.946 -35.982 35.539
-3.117 -41.256 30.005
-2.856 -41.263 22.079
-2.266 -36.018 16.586
-1.657 -29.273 16.076
-1.235 -24.556 19.184
-0.992 -22.543 23.285
-0.840 -22.264 27.177
-0.730 -23.226 30.877
-0.644 -25.635 34.159
-0.554 -29.385 36.235
-0.423 -33.656 36.506
-0.235 -37.424 35.118
-0.000 -40.073 32.783
0.261 -41.558 30.302
0.530 -42.192 28.242
0.799 -42.373 26.885
1.066 -42.401 26.327
1.333 -42.409 26.584
1.597 -42.339 27.651
1.847 -41.956 29.476
2.057 -40.889 31.867
2.194 -38.761 34.379
2.230 -35.437 36.284
2.166 -31.294 36.776
2.058 -27.241 35.430
1.986 -24.266 32.563
2.009 -22.778 28.993
2.134 -22.579 25.225
2.400 -23.789 21.196
2.933 -27.351 17.447
3.810 -33.547 16.196
4.790 -39.936 19.759
5.350 -42.348 27.275
5.169 -38.951 34.343
4.493 -32.293 36.989
3.855 -26.492 35.084
3.561 -23.436 31.170
3.569 -22.536 27.188
3.782 -22.946 23.451
4.227 -24.675 19.949
4.951 -27.851 17.298
5.884 -31.933 16.278
6.850 -35.908 17.070
7.685 -38.955 19.144
8.318 -40.813 21.681
8.769 -41.682 23.995
9.100 -41.949 25.694
9.379 -41.961 26.618
9.648 -41.922 26.731
9.909 -41.852 26.028
10.124 -41.593 24.536
10.210 -40.830 22.373
10.059 -39.179 19.868
9.585 -36.381 17.639
8.802 -32.575 16.504
7.881 -28.455 17.108
7.100 -25.024 19.458
6.672 -22.965 22.864
6.619 -22.258 26.594
6.923 -22.758 30.536
7.803 -25.085 34.603
9.557 -30.054 37.273
11.866 -36.519 35.882
13.539 -40.795 29.655
13.465 -39.735 21.808
11.807 -34.136 17.089
9.824 -27.834 17.364
8.561 -23.778 20.804
8.140 -22.173 24.902
8.256 -22.059 28.752
8.817 -23.114 32.417
9.927 -25.540 35.558
11.527 -29.113 37.355
13.300 -32.984 37.317
14.877 -36.238 35.711
16.047 -38.400 33.299
16.804 -39.512 30.857
17.265 -39.898 28.903
17.575 -39.923 27.677
17.837 -39.839 27.256
18.093 -39.739 27.650
18.305 -39.544 28.850
18.360 -39.016 30.789
18.083 -37.810 33.240
17.307 -35.611 35.707
15.984 -32.369 37.427
14.306 -28.518 37.622
12.702 -24.929 35.977
11.606 -22.429 32.932
11.170 -21.258 29.313
11.314 -21.206 25.510
12.186 -22.499 21.450
14.294 -26.001 17.925
17.648 -31.629 17.370
20.840 -36.805 21.778
21.813 -37.965 29.578
19.925 -34.179 36.097
16.675 -28.195 37.875
14.068 -23.450 35.434
12.854 -21.124 31.423
12.658 -20.511 27.490
13.130 -20.980 23.779
14.351 -22.613 20.362
16.371 -25.443 17.940
18.850 -28.894 17.234
21.224 -32.090 18.293
23.070 -34.410 20.503
24.274 -35.717 23.042
24.959 -36.234 25.273
25.339 -36.296 26.848
25.600 -36.183 27.637
25.839 -36.039 27.612
26.052 -35.858 26.774
26.123 -35.484 25.156
25.841 -34.643 22.905
24.959 -33.025 20.395
23.326 -30.465 18.292
21.066 -27.158 17.416
18.660 -23.747 18.336
16.751 -21.044 20.924
15.728 -19.506 24.423
15.545 -19.033 28.179
16.186 -19.566 32.171
18.183 -21.701 36.161
22.011 -25.936 38.330
26.603 -30.951 36.078
29.287 -33.644 29.255
28.163 -31.944 21.633
24.185 -27.088 17.743
20.100 -22.229 18.743
17.702 -19.332 22.437
16.928 -18.255 26.511
17.140 -18.252 30.323
18.234 -19.174 33.945
20.374 -21.157 36.919
23.331 -23.925 38.421
26.438 -26.772 38.081
29.034 -29.034 36.281
30.812 -30.428 33.815
31.834 -31.044 31.428
32.351 -31.154 29.585
32.629 -31.029 28.492
32.844 -30.842 28.207
33.044 -30.642 28.739
33.144 -30.350 30.071
32.925 -29.771 32.118
32.088 -28.650 34.614
30.377 -26.781 37.014
27.784 -24.186 38.526
24.733 -21.259 38.414
21.987 -18.659 36.483
20.210 -16.934 33.287
19.538 -16.163 29.630
19.821 -16.189 25.786
21.407 -17.261 21.713
25.092 -19.974 18.487
30.528 -23.989 18.693
35.075 -27.207 23.901
35.626 -27.277 31.842
31.843 -24.065 37.707
26.540 -19.797 38.636
22.677 -16.694 35.743
21.000 -15.258 31.682
20.783 -14.901 27.798
21.579 -15.268 24.114
23.553 -16.443 20.803
26.677 -18.376 18.632
30.326 -20.610 18.242
33.647 -22.559 19.549
36.083 -23.865 21.870
37.552 -24.499 24.394
38.290 -24.639 26.532
38.625 -24.512 27.979
38.817 -24.293 28.632
38.988 -24.061 28.470
39.102 -23.793 27.497
38.969 -23.378 25.758
38.271 -22.634 23.429
36.670 -21.377 20.934
34.011 -19.542 18.980
30.570 -17.310 18.381
27.106 -15.124 19.612
24.503 -13.471 22.416
23.189 -12.559 25.987
23.024 -12.283 29.771
24.070 -12.648 33.810
27.150 -14.049 37.671
32.671 -16.647 39.257
38.676 -19.401 36.133
41.408 -20.447 28.830
38.871 -18.891 21.573
33.052 -15.807 18.545
27.714 -13.041 20.198
24.819 -11.489 24.076
23.968 -10.913 28.110
24.353 -10.904 31.891
25.946 -11.422 35.455
28.909 -12.510 38.236
32.806 -13.953 39.434
36.708 -15.340 38.804
39.808 -16.343 36.833
41.807 -16.857 34.334
42.854 -16.967 32.014
43.304 -16.831 30.288
43.492 -16.590 29.329
43.620 -16.326 29.182
43.724 -16.053 29.850
43.663 -15.720 31.312
43.139 -15.226 33.460
41.773 -14.449 35.987
39.281 -13.311 38.296
35.748 -11.864 39.578
31.806 -10.334 39.153
28.440 -9.043 36.953
26.382 -8.207 33.629
25.678 -7.811 29.942
26.167 -7.781 26.053
28.418 -8.256 21.996
33.329 -9.456 19.148
39.996 -11.077 20.169
44.824 -12.111 26.109
44.375 -11.691 34.042
39.045 -10.025 39.165
32.619 -8.157 39.286
28.325 -6.894 36.023
26.599 -6.298 31.950
26.480 -6.094 28.111
27.574 -6.164 24.458
30.101 -6.530 21.277
33.901 -7.132 19.376
38.130 -7.771 19.299
41.798 -8.246 20.834
44.351 -8.460 23.242
45.782 -8.436 25.735
46.413 -8.251 27.770
46.631 -7.988 29.088
46.717 -7.700 29.605
46.784 -7.410 29.305
46.762 -7.105 28.198
46.400 -6.753 26.342
45.323 -6.305 23.948
43.164 -5.729 21.487
39.820 -5.030 19.707
35.714 -4.284 19.399
31.782 -3.610 20.935
28.982 -3.108 23.928
27.660 -2.790 27.555
27.605 -2.609 31.371
29.016 -2.559 35.449
32.876 -2.691 39.118
39.298 -2.969 40.042
45.580 -3.155 36.060
47.556 -2.992 28.407
43.744 -2.476 21.643
37.006 -1.862 19.486
31.410 -1.382 21.714
28.598 -1.079 25.715
27.863 -0.876 29.701
28.420 -0.714 33.455
30.340 -0.572 36.944
33.718 -0.424 39.508
37.943 -0.238 40.393