  0
SECTION
  2
ENTITIES
  0
LINE
  8
OUTLINE
 10
-80
 20
-50
 30
0
 11
80
 21
-50
 31
0
  0
LINE
  8
OUTLINE
 10
80
 20
-50
 30
0
 11
80
 21
50
 31
0
  0
LINE
  8
OUTLINE
 10
80
 20
50
 30
0
 11
-80
 21
50
 31
0
  0
LINE
  8
OUTLINE
 10
-80
 20
50
 30
0
 11
-80
 21
-50
 31
0
  0
CIRCLE
  8
CENTER_BORE
 10
0.0
 20
0.0
 30
0.0
 40
25.0
  0
CIRCLE
  8
CENTER_BORE_RING
 10
0.0
 20
0.0
 30
0.0
 40
35.0
  0
CIRCLE
  8
BOLT_HOLES
 10
-60
 20
-35
 30
0.0
 40
6.0
  0
CIRCLE
  8
BOLT_HOLES_COUNTERSINK
 10
-60
 20
-35
 30
0.0
 40
9.0
  0
CIRCLE
  8
BOLT_HOLES
 10
60
 20
-35
 30
0.0
 40
6.0
  0
CIRCLE
  8
BOLT_HOLES_COUNTERSINK
 10
60
 20
-35
 30
0.0
 40
9.0
  0
CIRCLE
  8
BOLT_HOLES
 10
60
 20
35
 30
0.0
 40
6.0
  0
CIRCLE
  8
BOLT_HOLES_COUNTERSINK
 10
60
 20
35
 30
0.0
 40
9.0
  0
CIRCLE
  8
BOLT_HOLES
 10
-60
 20
35
 30
0.0
 40
6.0
  0
CIRCLE
  8
BOLT_HOLES_COUNTERSINK
 10
-60
 20
35
 30
0.0
 40
9.0
  0
LINE
  8
CENTERLINES
 10
-70.0
 20
0.0
 30
0.0
 11
70.0
 21
0.0
 31
0.0
  0
LINE
  8
CENTERLINES
 10
0.0
 20
-45.0
 30
0.0
 11
0.0
 21
45.0
 31
0.0
  0
3DFACE
  8
3D_BOSS
 10
-15.0
 20
-15.0
 30
10.0
 11
15.0
 21
-15.0
 31
10.0
 12
15.0
 22
15.0
 32
10.0
 13
-15.0
 23
15.0
 33
10.0
  0
ENDSEC
  0
EOF
