DBRep_DrawableShape

CASCADE Topology V1, (c) Matra-Datavision
Locations 0
Curve2ds 24
1 9.4247779607693793 5 -1 0 
1 9.4247779607693793 5 -1 0 
1 3.1415926535897931 5 -1 0 
1 3.1415926535897931 5 -1 0 
1 9.4247779607693793 -225.00000000000028 -1 0 
1 3.141592653589802 -185.00000000000028 1 0 
1 6.2831853071795862 80 -1 0 
1 6.2831853071795862 -225.00000000000028 0 -1 
1 4.7123889803846897 0 0 1 
1 6.2831853071795862 0 -1 0 
1 6.2831853071795862 0 0 1 
1 0 0 0 1 
1 1.5707963267948966 5 0 1 
1 1.5707963267948966 0 0 -1 
1 6.2831853071795862 5 0 1 
1 0 0 0 -1 
1 4.7123889803846897 0 0 -1 
1 4.7123889803846897 5 0 1 
1 3.1415926535897931 0 0 -1 
1 3.1415926535895942 5 0 1 
1 3.1415926535897931 0 1 0 
1 -3.1415926535897931 0 1 0 
1 -3.1415926535897931 0 1 0 
1 3.1415926535897931 0 1 0 
Curves 72
1 153 -25 53.999999999999503 -1 0 3.53883589099269e-15 
2 58.000000000000199 -25 58.999999999999801 0 1 0 0 -0 1 1 0 -0 5
1 53.000000000000199 -25 53.999999999999801 3.4694469519536099e-15 0 1 
2 58.000000000000497 -25 141 0 1 0 0 -0 1 1 0 -0 5
1 53.000000000000497 -25 146 1 0 -3.6082248300317603e-15 
2 148 -25 140.99999999999901 0 1 0 0 -0 1 1 0 -0 5
1 153.00000000000099 -25 145.99999999999901 -3.6202924716037699e-15 0 -1 
2 148 -25 58.999999999999503 0 1 0 0 -0 1 1 0 -0 5
1 78.4489877029947 -25 225 -3.4694469519536099e-15 0 -1 
1 0 -25 225 1 0 0 
1 0 -25 0 0 0 1 
1 315 -25 0 -1 0 0 
1 315 -25 225 0 0 -1 
1 274.849214681695 -25 46.014571472613497 1 0 -6.9128350530605104e-16 
1 274.849214681695 -25 185 0 0 -1 
1 78.4489877029947 -25 185 1 0 -9.8925053345520599e-16 
1 78.4489877029947 -105 225 0 1 0 
2 83.4489877029947 -100 225 0 0 1 1 0 -0 -0 1 0 5
1 315 -105 225 -1 0 0 
1 315 -25 225 0 1 0 
1 0 0 225 1 0 0 
1 0 -25 225 0 1 0 
1 315 0 225 0 0 -1 
1 315 -105 46.014571472613497 6.2028682097731805e-16 0 1 
1 315 -105 46.014571472613497 0 1 0 
1 315 -25 0 0 1 0 
1 315 0 0 -1 0 0 
1 0 -25 0 0 1 0 
1 0 0 0 0 0 1 
1 78.4489877029947 -105 185 1 0 -9.8925053345520599e-16 
2 83.4489877029946 -100 185 -9.8925053345520599e-16 0 -1 1 0 -9.8925053345520599e-16 0 -1 -0 5
1 78.4489877029947 -105 185 0 1 0 
1 274.849214681695 -105 185 0 1 0 
2 274.849214681695 -73.297326908187003 87.872007039147604 -1 0 0 0 0 -1 -0 -1 -0 23.128323604818501
1 274.849214681695 -105 46.014571472613497 0 1 0 
1 274.849214681695 -105 185 0 0 -1 
1 274.849214681695 -105 46.014571472613497 1 0 -6.9128350530605104e-16 
1 78.4489877029947 -100 225 3.4694469519536099e-15 0 1 
1 83.448987702994003 -105 -2.89521836029767e-13 -3.4694469519536099e-15 0 -1 
2 194.849214681695 -73.297326908187003 87.872007039147604 -1 0 0 0 0 -1 -0 -1 -0 23.128323604818501
7 0 0  1 2 2  194.849214681695 -73.297326908187003 64.7436834343291  274.849214681695 -73.297326908187003 64.7436834343291 
 0 2 80 2
1 153.00000000000099 -20 145.99999999999901 3.6202924716037699e-15 0 1 
1 153 -25 58.999999999999503 0 -1 0 
1 153 -20 140.99999999999901 0 1 0 
1 153 -20 53.999999999999503 1 0 -3.53883589099269e-15 
1 58.000000000000199 -25 53.999999999999801 0 -1 0 
1 148 -20 53.999999999999503 0 1 0 
1 53.000000000000199 -20 58.999999999999801 0 1 0 
1 53.000000000000199 -20 53.999999999999801 -3.4694469519536099e-15 0 -1 
1 53.000000000000497 -25 141 0 -1 0 
1 58.000000000000497 -20 146 0 1 0 
1 53.000000000000497 -20 146 -1 0 3.6082248300317603e-15 
1 148.00000000000099 -25 145.99999999999901 0 -1 0 
2 58.000000000000199 -20 58.999999999999801 0 -1 0 0 0 1 -1 0 0 5
2 148 -20 58.999999999999503 0 -1 0 0 0 1 -1 0 0 5
2 148 -20 140.99999999999901 0 -1 0 0 0 1 -1 0 0 5
2 58.000000000000497 -20 141 0 -1 0 0 0 1 -1 0 0 5
1 0 0 0 1 0 0 
1 315 0 0 0 0 1 
1 315 0 225 -1 0 0 
1 0 0 225 0 0 -1 
1 315 -25 46.014571472613497 6.3517370468077397e-16 0 1 
1 78.4489877029947 -25 225 -3.5527136788005001e-15 0 -1 
1 274.849214681695 -25 185 0 0 -1 
1 315 -25 46.014571472613497 -1 0 7.0787430943339604e-16 
1 274.849214681695 -25 185 -1 0 1.0129925462581301e-15 
1 78.4489877029947 -25 225 1 0 0 
1 153.00000000000099 -25 145.99999999999901 -3.3982478666787401e-15 0 -1 
1 153 -25 53.999999999999503 -1 0 3.4816594052244901e-15 
1 53.000000000000199 -25 53.999999999999801 3.4754807727396197e-15 0 1 
1 53.000000000000497 -25 146 1 0 -3.6948222259525203e-15 
2 274.849214681695 -73.297326908187003 87.872007039147604 -1 0 0 0 0 -1 -0 -1 -0 23.128323604818501
Polygon3D 0
PolygonOnTriangulations 0
Surfaces 23
1 0 -25 0 0 1 0 0 -0 1 1 0 -0 
1 153 -20 53.999999999999503 3.53883589099269e-15 0 1 1 0 -3.53883589099269e-15 -0 1 0 
2 58.000000000000199 -20 58.999999999999801 0 -1 0 0 0 -1 1 0 0 5
1 53.000000000000199 -20 53.999999999999801 1 0 -3.4694469519536099e-15 -3.4694469519536099e-15 0 -1 0 1 0 
2 58.000000000000497 -20 141 0 -1 0 0 0 -1 1 0 0 5
1 53.000000000000497 -20 146 -3.6082248300317603e-15 0 -1 -1 0 3.6082248300317603e-15 0 1 0 
2 148 -20 140.99999999999901 0 -1 0 0 0 -1 1 0 0 5
1 153.00000000000099 -20 145.99999999999901 -1 0 3.6202924716037699e-15 3.6202924716037699e-15 0 1 0 1 -0 
2 148 -20 58.999999999999503 0 -1 0 0 0 -1 1 0 0 5
1 78.4489877029947 -105 225 1 0 -3.4694469519536099e-15 -3.4694469519536099e-15 0 -1 0 1 0 
1 0 -25 225 0 0 1 1 0 -0 -0 1 0 
1 0 -25 0 -1 0 0 0 0 1 0 1 -0 
1 315 -25 0 0 0 -1 -1 0 0 0 1 0 
1 315 -25 225 1 0 0 0 0 -1 -0 1 0 
1 274.849214681695 -105 46.014571472613497 6.9128350530605104e-16 0 1 1 0 -6.9128350530605104e-16 -0 1 0 
1 274.849214681695 -105 185 1 0 0 0 0 -1 -0 1 0 
1 78.4489877029947 -105 185 9.8925053345520599e-16 0 1 1 0 -9.8925053345520599e-16 -0 1 0 
2 83.448987702994003 -100 -2.89521836029767e-13 -3.4694469519536099e-15 0 -1 -1 0 3.4694469519536099e-15 0 1 0 5
1 0 -105 0 0 1 0 0 -0 1 1 0 -0 
1 0 0 0 0 1 0 0 -0 1 1 0 -0 
10 0 6.2831853071795862 0 80
2 194.849214681695 -73.297326908187003 87.872007039147604 1 0 0 0 0 -1 -0 1 0 23.128323604818501
1 194.849214681695 -73.297326908187003 87.872007039147604 -1 0 0 0 0 1 0 1 -0 
1 0 -20 0 0 1 0 0 -0 1 1 0 -0 
Triangulations 0

TShapes 192
Ve
1e-07
148 -25 53.9999999999995
0 0

0101101
*
Ve
1e-07
58.0000000000002 -25 53.9999999999998
0 0

0101101
*
Ed
 1e-07 1 1 0
1  1 0 5 94.9999999999998
4 C0 1 0 2 0
0

0101000
+192 0 -191 0 *
Ve
1e-07
53.0000000000002 -25 58.9999999999998
0 0

0101101
*
Ed
 1e-07 1 1 0
1  2 0 3.14159265358979 4.71238898038469
2  1 3 0 3.14159265358979 4.71238898038469
4 C0 1 0 3 0
0

0101000
+191 0 -189 0 *
Ve
1e-07
53.0000000000005 -25 141
0 0

0101101
*
Ed
 1e-07 1 1 0
1  3 0 5 87.0000000000002
4 C0 1 0 4 0
0

0101000
+189 0 -187 0 *
Ve
1e-07
58.0000000000005 -25 146
0 0

0101101
*
Ed
 1e-07 1 1 0
1  4 0 4.71238898038469 6.28318530717959
2  2 5 0 4.71238898038469 6.28318530717959
4 C0 1 0 5 0
0

0101000
+187 0 -185 0 *
Ve
1e-07
148.000000000001 -25 145.999999999999
0 0

0101101
*
Ed
 1e-07 1 1 0
1  5 0 5 95.0000000000005
4 C0 1 0 6 0
0

0101000
+185 0 -183 0 *
Ve
1e-07
153 -25 140.999999999999
0 0

0101101
*
Ed
 1e-07 1 1 0
1  6 0 0 1.5707963267949
2  3 7 0 0 1.5707963267949
4 C0 1 0 7 0
0

0101000
+183 0 -181 0 *
Ve
1e-07
153 -25 58.9999999999995
0 0

0101101
*
Ed
 1e-07 1 1 0
1  7 0 5 86.9999999999995
4 C0 1 0 8 0
0

0101000
+181 0 -179 0 *
Ed
 1e-07 1 1 0
1  8 0 1.5707963267949 3.14159265358979
2  4 9 0 1.5707963267949 3.14159265358979
4 C0 1 0 9 0
0

0101000
+179 0 -192 0 *
Wi

0101100
+190 0 +188 0 +186 0 +184 0 +182 0 +180 0 +178 0 +177 0 *
Ve
1e-07
78.4489877029947 -25 225
0 0

0101101
*
Ve
1e-07
78.4489877029947 -25 185
0 0

0101101
*
Ed
 1e-07 1 1 0
1  9 0 0 40
4 C0 1 0 10 0
0

0101000
+175 0 -174 0 *
Ve
1e-07
0 -25 225
0 0

0101101
*
Ed
 1e-07 1 1 0
1  10 0 0 78.4489877029947
4 C0 1 0 11 0
0

0101000
+172 0 -175 0 *
Ve
1e-07
0 -25 0
0 0

0101101
*
Ed
 1e-07 1 1 0
1  11 0 0 225
4 C0 1 0 12 0
0

0101000
+170 0 -172 0 *
Ve
1e-07
315 -25 0
0 0

0101101
*
Ed
 1e-07 1 1 0
1  12 0 0 315
4 C0 1 0 13 0
0

0101000
+168 0 -170 0 *
Ve
1e-07
315 -25 46.0145714726135
0 0

0101101
*
Ed
 1e-07 1 1 0
1  13 0 178.985428527386 225
4 C0 1 0 14 0
0

0101000
+166 0 -168 0 *
Ve
1e-07
274.849214681695 -25 46.0145714726135
0 0

0101101
*
Ed
 1e-07 1 1 0
1  14 0 0 40.150785318305
4 C0 1 0 15 0
0

0101000
+164 0 -166 0 *
Ve
1e-07
274.849214681695 -25 185
0 0

0101101
*
Ed
 1e-07 1 1 0
1  15 0 0 138.985428527386
4 C0 1 0 16 0
0

0101000
+162 0 -164 0 *
Ed
 1e-07 1 1 0
1  16 0 0 196.4002269787
4 C0 1 0 17 0
0

0101000
+174 0 -162 0 *
Wi

0101100
-173 0 -171 0 -169 0 -167 0 -165 0 -163 0 -161 0 -160 0 *
Fa
0  1e-07 1 0

0111000
-176 0 -159 0 *
Ve
1e-07
78.4489877029947 -100 225
0 0

0101101
*
Ed
 1e-07 1 1 0
1  17 0 5 80
4 C0 11 0 10 0
0

0101000
+157 0 -175 0 *
Ve
1e-07
83.4489877029947 -105 225
0 0

0101101
*
Ed
 1e-07 1 1 0
1  18 0 3.14159265358979 4.71238898038469
2  5 18 0 3.14159265358979 4.71238898038469
4 C0 11 0 18 0
0

0101000
+157 0 -155 0 *
Ve
1e-07
315 -105 225
0 0

0101101
*
Ed
 1e-07 1 1 0
1  19 0 0 231.551012297005
4 C0 11 0 19 0
0

0101000
+153 0 -155 0 *
Ve
1e-07
315 0 225
0 0

0101101
*
Ed
 1e-07 1 1 0
1  20 0 -80 25
4 C0 11 0 14 0
0

0101000
+153 0 -151 0 *
Ve
1e-07
0 0 225
0 0

0101101
*
Ed
 1e-07 1 1 0
1  21 0 0 315
4 C0 11 0 20 0
0

0101000
+149 0 -151 0 *
Ed
 1e-07 1 1 0
1  22 0 0 25
4 C0 11 0 12 0
0

0101000
+172 0 -149 0 *
Wi

0101100
-156 0 +154 0 -152 0 +150 0 -148 0 -147 0 +171 0 *
Fa
0  1e-07 11 0

0111000
+146 0 *
Ve
1e-07
315 0 0
0 0

0101101
*
Ed
 1e-07 1 1 0
1  23 0 0 225
4 C0 14 0 20 0
0

0101000
+151 0 -144 0 *
Ve
1e-07
315 -105 46.0145714726135
0 0

0101101
*
Ed
 1e-07 1 1 0
1  24 0 0 178.985428527386
4 C0 14 0 19 0
0

0101000
+142 0 -153 0 *
Ed
 1e-07 1 1 0
1  25 0 0 80
4 C0 14 0 15 0
0

0101000
+142 0 -166 0 *
Ed
 1e-07 1 1 0
1  26 0 0 25
4 C0 14 0 13 0
0

0101000
+168 0 -144 0 *
Wi

0101100
-143 0 -150 0 -141 0 +140 0 +165 0 +139 0 *
Fa
0  1e-07 14 0

0111000
+138 0 *
Ve
1e-07
0 0 0
0 0

0101101
*
Ed
 1e-07 1 1 0
1  27 0 0 315
4 C0 13 0 20 0
0

0101000
+144 0 -136 0 *
Ed
 1e-07 1 1 0
1  28 0 0 25
4 C0 13 0 12 0
0

0101000
+170 0 -136 0 *
Wi

0101100
-135 0 -139 0 +167 0 +134 0 *
Fa
0  1e-07 13 0

0111000
+133 0 *
Ed
 1e-07 1 1 0
1  29 0 0 225
4 C0 12 0 20 0
0

0101000
+136 0 -149 0 *
Wi

0101100
-131 0 -134 0 +169 0 +147 0 *
Fa
0  1e-07 12 0

0111000
+130 0 *
Wi

0101100
+148 0 +143 0 +135 0 +131 0 *
Fa
0  1e-07 20 0

0111000
+128 0 *
Ve
1e-07
83.4489877029946 -105 185
0 0

0101101
*
Ve
1e-07
274.849214681695 -105 185
0 0

0101101
*
Ed
 1e-07 1 1 0
1  30 0 4.9999999999999 196.4002269787
4 C0 17 0 19 0
0

0101000
+126 0 -125 0 *
Ve
1e-07
78.4489877029947 -100 185
0 0

0101101
*
Ed
 1e-07 1 1 0
1  31 0 1.5707963267949 3.14159265358979
2  6 18 0 1.5707963267949 3.14159265358979
4 C0 17 0 18 0
0

0101000
+126 0 -123 0 *
Ed
 1e-07 1 1 0
1  32 0 5 80
4 C0 17 0 10 0
0

0101000
+123 0 -174 0 *
Ed
 1e-07 1 1 0
1  33 0 0 80
4 C0 17 0 16 0
0

0101000
+125 0 -162 0 *
Wi

0101100
-124 0 +122 0 +121 0 +160 0 -120 0 *
Fa
0  1e-07 17 0

0111000
-119 0 *
Ve
1e-05
274.849214681695 -73.297326908187 64.7436834343291
0 0

0101101
*
Ed
 1e-07 1 1 0
1  34 0 0 6.28318530717959
2  7 21 0 0 6.28318530717959
4 C0 16 0 21 0
0

0101000
+117 0 -117 0 *
Wi

0101100
-116 0 *
Ve
1e-07
274.849214681695 -105 46.0145714726135
0 0

0101101
*
Ed
 1e-07 1 1 0
1  35 0 0 80
4 C0 16 0 15 0
0

0101000
+114 0 -164 0 *
Ed
 1e-07 1 1 0
1  36 0 0 138.985428527386
4 C0 16 0 19 0
0

0101000
+125 0 -114 0 *
Wi

0101100
+161 0 -113 0 -112 0 +120 0 *
Fa
0  1e-07 16 0

0101000
-115 0 -111 0 *
Ed
 1e-07 1 1 0
1  37 0 0 40.150785318305
4 C0 15 0 19 0
0

0101000
+114 0 -142 0 *
Wi

0101100
+163 0 -140 0 -109 0 +113 0 *
Fa
0  1e-07 15 0

0111000
-108 0 *
Ed
 1e-07 1 1 0
1  38 0 -40 0
2  8 18 0 -40 0
4 G1 10 0 18 0
0

0101000
+123 0 -157 0 *
Wi

0101100
-121 0 +106 0 +156 0 +173 0 *
Fa
0  1e-07 10 0

0111000
-105 0 *
Ed
 1e-07 1 1 0
1  39 0 -225 -185
2  9 18 0 -225 -185
4 G1 19 0 18 0
0

0101000
+155 0 -126 0 *
Wi

0101100
+152 0 +103 0 +124 0 +112 0 +109 0 +141 0 *
Fa
0  1e-07 19 0

0111000
-102 0 *
Ve
1e-05
194.849214681695 -73.297326908187 64.7436834343291
0 0

0101101
*
Ed
 1e-07 1 1 0
1  40 0 0 6.28318530717959
2  10 21 0 0 6.28318530717959
4 C0 21 0 22 0
0

0101000
-100 0 +100 0 *
Ed
 1e-05 1 1 0
1  41 0 0 80
3  11 12CN 21 0 0 80
0

0101000
+100 0 -117 0 *
Wi

0101100
-99 0 +98 0 +116 0 -98 0 *
Fa
0  1e-07 21 0

0111000
+97 0 *
Wi

0101100
+99 0 *
Fa
0  1e-07 22 0

0111000
+95 0 *
Wi

0101100
-154 0 -106 0 -122 0 -103 0 *
Fa
0  1e-07 18 0

0111000
+93 0 *
Ve
1e-07
153 -20 58.9999999999995
0 0

0101101
*
Ve
1e-07
153 -20 140.999999999999
0 0

0101101
*
Ed
 1e-07 1 1 0
1  42 0 -86.9999999999995 -5
4 C0 8 0 23 0
0

0101000
+91 0 -90 0 *
Ed
 1e-07 1 1 0
1  43 0 -5 0
2  13 9 0 -5 0
4 G1 8 0 9 0
0

0101000
+91 0 -179 0 *
Ed
 1e-07 1 1 0
1  44 0 -5 0
2  14 7 0 -5 0
4 G1 8 0 7 0
0

0101000
+181 0 -90 0 *
Wi

0101100
-89 0 +88 0 -178 0 +87 0 *
Fa
0  1e-07 8 0

0111000
+86 0 *
Ve
1e-07
58.0000000000002 -20 53.9999999999998
0 0

0101101
*
Ve
1e-07
148 -20 53.9999999999995
0 0

0101101
*
Ed
 1e-07 1 1 0
1  45 0 -94.9999999999998 -5
4 C0 2 0 23 0
0

0101000
+84 0 -83 0 *
Ed
 1e-07 1 1 0
1  46 0 -5 0
2  15 3 0 -5 0
4 G1 2 0 3 0
0

0101000
+84 0 -191 0 *
Ed
 1e-07 1 1 0
1  47 0 -5 0
2  16 9 0 -5 0
4 G1 2 0 9 0
0

0101000
+192 0 -83 0 *
Wi

0101100
-82 0 +81 0 -190 0 +80 0 *
Fa
0  1e-07 2 0

0111000
+79 0 *
Ve
1e-07
53.0000000000002 -20 58.9999999999998
0 0

0101101
*
Ed
 1e-07 1 1 0
1  48 0 -5 0
2  17 3 0 -5 0
4 G1 4 0 3 0
0

0101000
+189 0 -77 0 *
Ve
1e-07
53.0000000000005 -20 141
0 0

0101101
*
Ed
 1e-07 1 1 0
1  49 0 -87.0000000000002 -5
4 C0 4 0 23 0
0

0101000
+75 0 -77 0 *
Ed
 1e-07 1 1 0
1  50 0 -5 0
2  18 5 0 -5 0
4 G1 4 0 5 0
0

0101000
+75 0 -187 0 *
Wi

0101100
-186 0 +76 0 -74 0 +73 0 *
Fa
0  1e-07 4 0

0111000
+72 0 *
Ve
1e-07
58.0000000000005 -20 146
0 0

0101101
*
Ed
 1e-07 1 1 0
1  51 0 -5 0
2  19 5 0 -5 0
4 G1 6 0 5 0
0

0101000
+185 0 -70 0 *
Ve
1e-07
148.000000000001 -20 145.999999999999
0 0

0101101
*
Ed
 1e-07 1 1 0
1  52 0 -95.0000000000005 -5
4 C0 6 0 23 0
0

0101000
+68 0 -70 0 *
Ed
 1e-07 1 1 0
1  53 0 -5 0
2  20 7 0 -5 0
4 G1 6 0 7 0
0

0101000
+68 0 -183 0 *
Wi

0101100
-182 0 +69 0 -67 0 +66 0 *
Fa
0  1e-07 6 0

0111000
+65 0 *
Ed
 1e-07 1 1 0
1  54 0 1.5707963267949 3.14159265358979
2  21 3 0 1.5707963267949 3.14159265358979
4 C0 23 0 3 0
0

0101000
+77 0 -84 0 *
Ed
 1e-07 1 1 0
1  55 0 3.14159265358979 4.71238898038469
2  22 9 0 3.14159265358979 4.71238898038469
4 C0 23 0 9 0
0

0101000
+83 0 -91 0 *
Ed
 1e-07 1 1 0
1  56 0 4.71238898038469 6.28318530717959
2  23 7 0 4.71238898038469 6.28318530717959
4 C0 23 0 7 0
0

0101000
+90 0 -68 0 *
Ed
 1e-07 1 1 0
1  57 0 0 1.5707963267949
2  24 5 0 0 1.5707963267949
4 C0 23 0 5 0
0

0101000
+70 0 -75 0 *
Wi

0101100
+74 0 +63 0 +82 0 +62 0 +89 0 +61 0 +67 0 +60 0 *
Fa
0  1e-07 23 0

0111000
-59 0 *
Wi

0101100
+87 0 +61 0 +66 0 +180 0 *
Fa
0  1e-07 7 0

0111000
+57 0 *
Wi

0101100
+80 0 +62 0 +88 0 +177 0 *
Fa
0  1e-07 9 0

0111000
+55 0 *
Wi

0101100
+69 0 +60 0 +73 0 +184 0 *
Fa
0  1e-07 5 0

0111000
+53 0 *
Wi

0101100
+76 0 +63 0 +81 0 +188 0 *
Fa
0  1e-07 3 0

0111000
+51 0 *
Sh

0101100
-158 0 +145 0 +137 0 +132 0 +129 0 +127 0 -118 0 -110 0 -107 0 -104 0 
-101 0 +96 0 +94 0 +92 0 +85 0 +78 0 +71 0 +64 0 -58 0 -56 0 
-54 0 -52 0 -50 0 *
So

0100000
+49 0 *
Ve
1e-07
0 0 0
0 0

0101101
*
Ve
1e-07
0 0 0
0 0

0101101
*
Ve
1e-07
315 0 0
0 0

0101101
*
Ed
 1e-07 1 1 0
1  58 0 0 315
0

0101000
+46 0 -45 0 *
Ve
1e-07
315 0 0
0 0

0101101
*
Ve
1e-07
315 0 225
0 0

0101101
*
Ed
 1e-07 1 1 0
1  59 0 0 225
0

0101000
+43 0 -42 0 *
Ve
1e-07
315 0 225
0 0

0101101
*
Ve
1e-07
0 0 225
0 0

0101101
*
Ed
 1e-07 1 1 0
1  60 0 0 315
0

0101000
+40 0 -39 0 *
Ve
1e-07
0 0 225
0 0

0101101
*
Ve
1e-07
0 0 0
0 0

0101101
*
Ed
 1e-07 1 1 0
1  61 0 0 225
0

0101000
+37 0 -36 0 *
Ve
1e-07
315 -25 46.0145714726135
0 0

0101101
*
Ve
1e-07
315 -25 225.000000000001
0 0

0101101
*
Ed
 1e-07 1 1 0
1  62 0 0 178.985428527387
0

0101000
+34 0 -33 0 *
Ve
1e-07
78.4489877029947 -25 225
0 0

0101101
*
Ve
1e-07
78.4489877029946 -25 185
0 0

0101101
*
Ed
 1e-07 1 1 0
1  63 0 0 40
0

0101000
+31 0 -30 0 *
Ve
1e-07
274.849214681695 -25 185
0 0

0101101
*
Ve
1e-07
274.849214681695 -25 46.014571472613
0 0

0101101
*
Ed
 1e-07 1 1 0
1  64 0 0 138.985428527387
0

0101000
+28 0 -27 0 *
Ve
1e-07
315 -25 46.0145714726135
0 0

0101101
*
Ve
1e-07
274.849214681694 -25 46.0145714726135
0 0

0101101
*
Ed
 1e-07 1 1 0
1  65 0 0 40.1507853183055
0

0101000
+25 0 -24 0 *
Ve
1e-07
274.849214681695 -25 185
0 0

0101101
*
Ve
1e-07
78.448987702995 -25 185
0 0

0101101
*
Ed
 1e-07 1 1 0
1  66 0 0 196.4002269787
0

0101000
+22 0 -21 0 *
Ve
1e-07
78.4489877029947 -25 225
0 0

0101101
*
Ve
1e-07
315 -25 225
0 0

0101101
*
Ed
 1e-07 1 1 0
1  67 0 0 236.551012297005
0

0101000
+19 0 -18 0 *
Ve
1e-07
153.000000000001 -25 145.999999999999
0 0

0101101
*
Ve
1e-07
153.000000000001 -25 53.999999999999
0 0

0101101
*
Ed
 1e-07 1 1 0
1  68 0 0 92
0

0101000
+16 0 -15 0 *
Ve
1e-07
153 -25 53.9999999999995
0 0

0101101
*
Ve
1e-07
53 -25 53.9999999999999
0 0

0101101
*
Ed
 1e-07 1 1 0
1  69 0 0 100
0

0101000
+13 0 -12 0 *
Ve
1e-07
53.0000000000002 -25 53.9999999999998
0 0

0101101
*
Ve
1e-07
53.0000000000005 -25 146
0 0

0101101
*
Ed
 1e-07 1 1 0
1  70 0 0 92
0

0101000
+10 0 -9 0 *
Ve
1e-07
53.0000000000005 -25 146
0 0

0101101
*
Ve
1e-07
153.000000000001 -25 146
0 0

0101101
*
Ed
 1e-07 1 1 0
1  71 0 0 100
0

0101000
+7 0 -6 0 *
Ve
1e-07
274.849214681695 -73.297326908187 64.7436834343291
0 0

0101101
*
Ed
 1e-07 1 1 0
1  72 0 0 6.28318530717959
0

0101100
+4 0 -4 0 *
Co

0100000
+47 0 +44 0 +41 0 +38 0 +35 0 +32 0 +29 0 +26 0 +23 0 +20 0 
+17 0 +14 0 +11 0 +8 0 +5 0 +3 0 *
Co

1100000
+48 0 +2 0 *

+1 0 