                                                                        S0000001
,,31HOpen CASCADE IGES processor 7.8,13HFilename.iges,                  G0000001
16HOpen CASCADE 7.8,31HOpen CASCADE IGES processor 7.8,32,308,15,308,15,G0000002
,1.,2,2HMM,1,0.01,15H20261004.220729,4.06088E-07,315.,,,11,0,           G0000003
15H20261004.220729,;                                                    G0000004
     402       1       0       0       0       0       0       000000000D0000001
     402       0       0       2       1                               0D0000002
     402       3       0       0       0       0       0       000020000D0000003
     402       0       0       2       1                               0D0000004
     144       5       0       0       0       0       0       000020000D0000005
     144       0       0       1       0                               0D0000006
     108       6       0       0       0       0       0       000010000D0000007
     108       0       0       1       0                               0D0000008
     142       7       0       0       0       0       0       000010500D0000009
     142       0       0       1       0                               0D0000010
     102       8       0       0       0       0       0       000010000D0000011
     102       0       0       1       0                               0D0000012
     110       9       0       0       0       0       0       000010000D0000013
     110       0       0       1       0                               0D0000014
     110      10       0       0       0       0       0       000010000D0000015
     110       0       0       1       0                               0D0000016
     110      11       0       0       0       0       0       000010000D0000017
     110       0       0       1       0                               0D0000018
     110      12       0       0       0       0       0       000010000D0000019
     110       0       0       1       0                               0D0000020
     110      13       0       0       0       0       0       000010000D0000021
     110       0       0       1       0                               0D0000022
     110      14       0       0       0       0       0       000010000D0000023
     110       0       0       1       0                               0D0000024
     110      15       0       0       0       0       0       000010000D0000025
     110       0       0       1       0                               0D0000026
     110      16       0       0       0       0       0       000010000D0000027
     110       0       0       1       0                               0D0000028
     142      17       0       0       0       0       0       000010500D0000029
     142       0       0       1       0                               0D0000030
     102      18       0       0       0       0       0       000010000D0000031
     102       0       0       1       0                               0D0000032
     110      19       0       0       0       0       0       000010000D0000033
     110       0       0       1       0                               0D0000034
     100      20       0       0       0       0      37       000010000D0000035
     100       0       0       1       0                               0D0000036
     124      21       0       0       0       0       0       000000000D0000037
     124       0       0       1       0                               0D0000038
     110      22       0       0       0       0       0       000010000D0000039
     110       0       0       1       0                               0D0000040
     100      23       0       0       0       0      43       000010000D0000041
     100       0       0       1       0                               0D0000042
     124      24       0       0       0       0       0       000000000D0000043
     124       0       0       1       0                               0D0000044
     110      25       0       0       0       0       0       000010000D0000045
     110       0       0       1       0                               0D0000046
     100      26       0       0       0       0      49       000010000D0000047
     100       0       0       1       0                               0D0000048
     124      27       0       0       0       0       0       000000000D0000049
     124       0       0       1       0                               0D0000050
     110      28       0       0       0       0       0       000010000D0000051
     110       0       0       1       0                               0D0000052
     100      29       0       0       0       0      55       000010000D0000053
     100       0       0       1       0                               0D0000054
     124      30       0       0       0       0       0       000000000D0000055
     124       0       0       1       0                               0D0000056
     144      31       0       0       0       0       0       000020000D0000057
     144       0       0       1       0                               0D0000058
     108      32       0       0       0       0       0       000010000D0000059
     108       0       0       1       0                               0D0000060
     142      33       0       0       0       0       0       000010500D0000061
     142       0       0       1       0                               0D0000062
     102      34       0       0       0       0       0       000010000D0000063
     102       0       0       1       0                               0D0000064
     110      35       0       0       0       0       0       000010000D0000065
     110       0       0       1       0                               0D0000066
     100      36       0       0       0       0      69       000010000D0000067
     100       0       0       1       0                               0D0000068
     124      37       0       0       0       0       0       000000000D0000069
     124       0       0       1       0                               0D0000070
     110      38       0       0       0       0       0       000010000D0000071
     110       0       0       1       0                               0D0000072
     110      39       0       0       0       0       0       000010000D0000073
     110       0       0       1       0                               0D0000074
     110      40       0       0       0       0       0       000010000D0000075
     110       0       0       1       0                               0D0000076
     110      41       0       0       0       0       0       000010000D0000077
     110       0       0       1       0                               0D0000078
     110      42       0       0       0       0       0       000010000D0000079
     110       0       0       1       0                               0D0000080
     144      43       0       0       0       0       0       000020000D0000081
     144       0       0       1       0                               0D0000082
     108      44       0       0       0       0       0       000010000D0000083
     108       0       0       1       0                               0D0000084
     142      45       0       0       0       0       0       000010500D0000085
     142       0       0       1       0                               0D0000086
     102      46       0       0       0       0       0       000010000D0000087
     102       0       0       1       0                               0D0000088
     110      47       0       0       0       0       0       000010000D0000089
     110       0       0       1       0                               0D0000090
     110      48       0       0       0       0       0       000010000D0000091
     110       0       0       1       0                               0D0000092
     110      49       0       0       0       0       0       000010000D0000093
     110       0       0       1       0                               0D0000094
     110      50       0       0       0       0       0       000010000D0000095
     110       0       0       1       0                               0D0000096
     110      51       0       0       0       0       0       000010000D0000097
     110       0       0       1       0                               0D0000098
     110      52       0       0       0       0       0       000010000D0000099
     110       0       0       1       0                               0D0000100
     144      53       0       0       0       0       0       000020000D0000101
     144       0       0       1       0                               0D0000102
     108      54       0       0       0       0       0       000010000D0000103
     108       0       0       1       0                               0D0000104
     142      55       0       0       0       0       0       000010500D0000105
     142       0       0       1       0                               0D0000106
     102      56       0       0       0       0       0       000010000D0000107
     102       0       0       1       0                               0D0000108
     110      57       0       0       0       0       0       000010000D0000109
     110       0       0       1       0                               0D0000110
     110      58       0       0       0       0       0       000010000D0000111
     110       0       0       1       0                               0D0000112
     110      59       0       0       0       0       0       000010000D0000113
     110       0       0       1       0                               0D0000114
     110      60       0       0       0       0       0       000010000D0000115
     110       0       0       1       0                               0D0000116
     144      61       0       0       0       0       0       000020000D0000117
     144       0       0       1       0                               0D0000118
     108      62       0       0       0       0       0       000010000D0000119
     108       0       0       1       0                               0D0000120
     142      63       0       0       0       0       0       000010500D0000121
     142       0       0       1       0                               0D0000122
     102      64       0       0       0       0       0       000010000D0000123
     102       0       0       1       0                               0D0000124
     110      65       0       0       0       0       0       000010000D0000125
     110       0       0       1       0                               0D0000126
     110      66       0       0       0       0       0       000010000D0000127
     110       0       0       1       0                               0D0000128
     110      67       0       0       0       0       0       000010000D0000129
     110       0       0       1       0                               0D0000130
     110      68       0       0       0       0       0       000010000D0000131
     110       0       0       1       0                               0D0000132
     144      69       0       0       0       0       0       000020000D0000133
     144       0       0       1       0                               0D0000134
     108      70       0       0       0       0       0       000010000D0000135
     108       0       0       1       0                               0D0000136
     142      71       0       0       0       0       0       000010500D0000137
     142       0       0       1       0                               0D0000138
     102      72       0       0       0       0       0       000010000D0000139
     102       0       0       1       0                               0D0000140
     110      73       0       0       0       0       0       000010000D0000141
     110       0       0       1       0                               0D0000142
     110      74       0       0       0       0       0       000010000D0000143
     110       0       0       1       0                               0D0000144
     110      75       0       0       0       0       0       000010000D0000145
     110       0       0       1       0                               0D0000146
     110      76       0       0       0       0       0       000010000D0000147
     110       0       0       1       0                               0D0000148
     144      77       0       0       0       0       0       000020000D0000149
     144       0       0       1       0                               0D0000150
     108      78       0       0       0       0       0       000010000D0000151
     108       0       0       1       0                               0D0000152
     142      79       0       0       0       0       0       000010500D0000153
     142       0       0       1       0                               0D0000154
     102      80       0       0       0       0       0       000010000D0000155
     102       0       0       1       0                               0D0000156
     110      81       0       0       0       0       0       000010000D0000157
     110       0       0       1       0                               0D0000158
     100      82       0       0       0       0     161       000010000D0000159
     100       0       0       1       0                               0D0000160
     124      83       0       0       0       0       0       000000000D0000161
     124       0       0       2       0                               0D0000162
     110      85       0       0       0       0       0       000010000D0000163
     110       0       0       1       0                               0D0000164
     110      86       0       0       0       0       0       000010000D0000165
     110       0       0       1       0                               0D0000166
     110      87       0       0       0       0       0       000010000D0000167
     110       0       0       1       0                               0D0000168
     144      88       0       0       0       0       0       000020000D0000169
     144       0       0       1       0                               0D0000170
     108      89       0       0       0       0       0       000010000D0000171
     108       0       0       1       0                               0D0000172
     142      90       0       0       0       0       0       000010500D0000173
     142       0       0       1       0                               0D0000174
     102      91       0       0       0       0       0       000010000D0000175
     102       0       0       1       0                               0D0000176
     110      92       0       0       0       0       0       000010000D0000177
     110       0       0       1       0                               0D0000178
     110      93       0       0       0       0       0       000010000D0000179
     110       0       0       2       0                               0D0000180
     110      95       0       0       0       0       0       000010000D0000181
     110       0       0       1       0                               0D0000182
     110      96       0       0       0       0       0       000010000D0000183
     110       0       0       1       0                               0D0000184
     142      97       0       0       0       0       0       000010500D0000185
     142       0       0       1       0                               0D0000186
     100      98       0       0       0       0     189       000010000D0000187
     100       0       0       1       0                               0D0000188
     124      99       0       0       0       0       0       000000000D0000189
     124       0       0       2       0                               0D0000190
     144     101       0       0       0       0       0       000020000D0000191
     144       0       0       1       0                               0D0000192
     108     102       0       0       0       0       0       000010000D0000193
     108       0       0       2       0                               0D0000194
     142     104       0       0       0       0       0       000010500D0000195
     142       0       0       1       0                               0D0000196
     102     105       0       0       0       0       0       000010000D0000197
     102       0       0       1       0                               0D0000198
     110     106       0       0       0       0       0       000010000D0000199
     110       0       0       1       0                               0D0000200
     110     107       0       0       0       0       0       000010000D0000201
     110       0       0       1       0                               0D0000202
     110     108       0       0       0       0       0       000010000D0000203
     110       0       0       1       0                               0D0000204
     110     109       0       0       0       0       0       000010000D0000205
     110       0       0       2       0                               0D0000206
     144     111       0       0       0       0       0       000020000D0000207
     144       0       0       1       0                               0D0000208
     108     112       0       0       0       0       0       000010000D0000209
     108       0       0       2       0                               0D0000210
     142     114       0       0       0       0       0       000010500D0000211
     142       0       0       1       0                               0D0000212
     102     115       0       0       0       0       0       000010000D0000213
     102       0       0       1       0                               0D0000214
     110     116       0       0       0       0       0       000010000D0000215
     110       0       0       1       0                               0D0000216
     110     117       0       0       0       0       0       000010000D0000217
     110       0       0       1       0                               0D0000218
     110     118       0       0       0       0       0       000010000D0000219
     110       0       0       1       0                               0D0000220
     110     119       0       0       0       0       0       000010000D0000221
     110       0       0       1       0                               0D0000222
     144     120       0       0       0       0       0       000020000D0000223
     144       0       0       1       0                               0D0000224
     108     121       0       0       0       0       0       000010000D0000225
     108       0       0       1       0                               0D0000226
     142     122       0       0       0       0       0       000010500D0000227
     142       0       0       1       0                               0D0000228
     102     123       0       0       0       0       0       000010000D0000229
     102       0       0       1       0                               0D0000230
     110     124       0       0       0       0       0       000010000D0000231
     110       0       0       1       0                               0D0000232
     110     125       0       0       0       0       0       000010000D0000233
     110       0       0       1       0                               0D0000234
     110     126       0       0       0       0       0       000010000D0000235
     110       0       0       1       0                               0D0000236
     110     127       0       0       0       0       0       000010000D0000237
     110       0       0       1       0                               0D0000238
     110     128       0       0       0       0       0       000010000D0000239
     110       0       0       1       0                               0D0000240
     110     129       0       0       0       0       0       000010000D0000241
     110       0       0       1       0                               0D0000242
     144     130       0       0       0       0       0       000020000D0000243
     144       0       0       1       0                               0D0000244
     120     131       0       0       0       0     247       000010000D0000245
     120       0       0       1       0                               0D0000246
     124     132       0       0       0       0       0       000000000D0000247
     124       0       0       2       0                               0D0000248
     110     134       0       0       0       0       0       000010000D0000249
     110       0       0       1       0                               0D0000250
     110     135       0       0       0       0       0       000010000D0000251
     110       0       0       1       0                               0D0000252
     142     136       0       0       0       0       0       000010500D0000253
     142       0       0       1       0                               0D0000254
     102     137       0       0       0       0       0       000010000D0000255
     102       0       0       1       0                               0D0000256
     100     138       0       0       0       0     259       000010000D0000257
     100       0       0       1       0                               0D0000258
     124     139       0       0       0       0       0       000000000D0000259
     124       0       0       2       0                               0D0000260
     126     141       0       0       0       0       0       000010000D0000261
     126       0       0       3       0                               0D0000262
     100     144       0       0       0       0     265       000010000D0000263
     100       0       0       1       0                               0D0000264
     124     145       0       0       0       0       0       000000000D0000265
     124       0       0       2       0                               0D0000266
     126     147       0       0       0       0       0       000010000D0000267
     126       0       0       3       0                               0D0000268
     144     150       0       0       0       0       0       000020000D0000269
     144       0       0       1       0                               0D0000270
     108     151       0       0       0       0       0       000010000D0000271
     108       0       0       2       0                               0D0000272
     142     153       0       0       0       0       0       000010500D0000273
     142       0       0       1       0                               0D0000274
     100     154       0       0       0       0     277       000010000D0000275
     100       0       0       1       0                               0D0000276
     124     155       0       0       0       0       0       000000000D0000277
     124       0       0       2       0                               0D0000278
     144     157       0       0       0       0       0       000020000D0000279
     144       0       0       1       0                               0D0000280
     120     158       0       0       0       0     283       000010000D0000281
     120       0       0       1       0                               0D0000282
     124     159       0       0       0       0       0       000000000D0000283
     124       0       0       2       0                               0D0000284
     110     161       0       0       0       0       0       000010000D0000285
     110       0       0       1       0                               0D0000286
     110     162       0       0       0       0       0       000010000D0000287
     110       0       0       1       0                               0D0000288
     142     163       0       0       0       0       0       000010500D0000289
     142       0       0       1       0                               0D0000290
     102     164       0       0       0       0       0       000010000D0000291
     102       0       0       1       0                               0D0000292
     100     165       0       0       0       0     295       000010000D0000293
     100       0       0       1       0                               0D0000294
     124     166       0       0       0       0       0       000000000D0000295
     124       0       0       1       0                               0D0000296
     110     167       0       0       0       0       0       000010000D0000297
     110       0       0       1       0                               0D0000298
     100     168       0       0       0       0     301       000010000D0000299
     100       0       0       1       0                               0D0000300
     124     169       0       0       0       0       0       000000000D0000301
     124       0       0       2       0                               0D0000302
     110     171       0       0       0       0       0       000010000D0000303
     110       0       0       1       0                               0D0000304
     144     172       0       0       0       0       0       000020000D0000305
     144       0       0       1       0                               0D0000306
     108     173       0       0       0       0       0       000010000D0000307
     108       0       0       1       0                               0D0000308
     142     174       0       0       0       0       0       000010500D0000309
     142       0       0       1       0                               0D0000310
     102     175       0       0       0       0       0       000010000D0000311
     102       0       0       1       0                               0D0000312
     110     176       0       0       0       0       0       000010000D0000313
     110       0       0       1       0                               0D0000314
     110     177       0       0       0       0       0       000010000D0000315
     110       0       0       1       0                               0D0000316
     110     178       0       0       0       0       0       000010000D0000317
     110       0       0       1       0                               0D0000318
     110     179       0       0       0       0       0       000010000D0000319
     110       0       0       1       0                               0D0000320
     144     180       0       0       0       0       0       000020000D0000321
     144       0       0       1       0                               0D0000322
     108     181       0       0       0       0       0       000010000D0000323
     108       0       0       1       0                               0D0000324
     142     182       0       0       0       0       0       000010500D0000325
     142       0       0       1       0                               0D0000326
     102     183       0       0       0       0       0       000010000D0000327
     102       0       0       1       0                               0D0000328
     110     184       0       0       0       0       0       000010000D0000329
     110       0       0       1       0                               0D0000330
     110     185       0       0       0       0       0       000010000D0000331
     110       0       0       1       0                               0D0000332
     110     186       0       0       0       0       0       000010000D0000333
     110       0       0       1       0                               0D0000334
     110     187       0       0       0       0       0       000010000D0000335
     110       0       0       1       0                               0D0000336
     144     188       0       0       0       0       0       000020000D0000337
     144       0       0       1       0                               0D0000338
     108     189       0       0       0       0       0       000010000D0000339
     108       0       0       1       0                               0D0000340
     142     190       0       0       0       0       0       000010500D0000341
     142       0       0       1       0                               0D0000342
     102     191       0       0       0       0       0       000010000D0000343
     102       0       0       1       0                               0D0000344
     110     192       0       0       0       0       0       000010000D0000345
     110       0       0       1       0                               0D0000346
     110     193       0       0       0       0       0       000010000D0000347
     110       0       0       1       0                               0D0000348
     110     194       0       0       0       0       0       000010000D0000349
     110       0       0       1       0                               0D0000350
     110     195       0       0       0       0       0       000010000D0000351
     110       0       0       1       0                               0D0000352
     144     196       0       0       0       0       0       000020000D0000353
     144       0       0       1       0                               0D0000354
     108     197       0       0       0       0       0       000010000D0000355
     108       0       0       1       0                               0D0000356
     142     198       0       0       0       0       0       000010500D0000357
     142       0       0       1       0                               0D0000358
     102     199       0       0       0       0       0       000010000D0000359
     102       0       0       1       0                               0D0000360
     110     200       0       0       0       0       0       000010000D0000361
     110       0       0       1       0                               0D0000362
     110     201       0       0       0       0       0       000010000D0000363
     110       0       0       1       0                               0D0000364
     110     202       0       0       0       0       0       000010000D0000365
     110       0       0       1       0                               0D0000366
     110     203       0       0       0       0       0       000010000D0000367
     110       0       0       1       0                               0D0000368
     144     204       0       0       0       0       0       000020000D0000369
     144       0       0       1       0                               0D0000370
     108     205       0       0       0       0       0       000010000D0000371
     108       0       0       1       0                               0D0000372
     142     206       0       0       0       0       0       000010500D0000373
     142       0       0       1       0                               0D0000374
     102     207       0       0       0       0       0       000010000D0000375
     102       0       0       1       0                               0D0000376
     110     208       0       0       0       0       0       000010000D0000377
     110       0       0       1       0                               0D0000378
     100     209       0       0       0       0     381       000010000D0000379
     100       0       0       1       0                               0D0000380
     124     210       0       0       0       0       0       000000000D0000381
     124       0       0       1       0                               0D0000382
     110     211       0       0       0       0       0       000010000D0000383
     110       0       0       1       0                               0D0000384
     100     212       0       0       0       0     387       000010000D0000385
     100       0       0       1       0                               0D0000386
     124     213       0       0       0       0       0       000000000D0000387
     124       0       0       1       0                               0D0000388
     110     214       0       0       0       0       0       000010000D0000389
     110       0       0       1       0                               0D0000390
     100     215       0       0       0       0     393       000010000D0000391
     100       0       0       1       0                               0D0000392
     124     216       0       0       0       0       0       000000000D0000393
     124       0       0       1       0                               0D0000394
     110     217       0       0       0       0       0       000010000D0000395
     110       0       0       1       0                               0D0000396
     100     218       0       0       0       0     399       000010000D0000397
     100       0       0       1       0                               0D0000398
     124     219       0       0       0       0       0       000000000D0000399
     124       0       0       1       0                               0D0000400
     144     220       0       0       0       0       0       000020000D0000401
     144       0       0       1       0                               0D0000402
     120     221       0       0       0       0     405       000010000D0000403
     120       0       0       1       0                               0D0000404
     124     222       0       0       0       0       0       000000000D0000405
     124       0       0       1       1                               0D0000406
     110     223       0       0       0       0       0       000010000D0000407
     110       0       0       1       0                               0D0000408
     110     224       0       0       0       0       0       000010000D0000409
     110       0       0       1       0                               0D0000410
     142     225       0       0       0       0       0       000010500D0000411
     142       0       0       1       0                               0D0000412
     102     226       0       0       0       0       0       000010000D0000413
     102       0       0       1       0                               0D0000414
     100     227       0       0       0       0     417       000010000D0000415
     100       0       0       1       0                               0D0000416
     124     228       0       0       0       0       0       000000000D0000417
     124       0       0       1       0                               0D0000418
     110     229       0       0       0       0       0       000010000D0000419
     110       0       0       1       0                               0D0000420
     100     230       0       0       0       0     423       000010000D0000421
     100       0       0       1       0                               0D0000422
     124     231       0       0       0       0       0       000000000D0000423
     124       0       0       1       0                               0D0000424
     110     232       0       0       0       0       0       000010000D0000425
     110       0       0       1       0                               0D0000426
     144     233       0       0       0       0       0       000020000D0000427
     144       0       0       1       0                               0D0000428
     120     234       0       0       0       0     431       000010000D0000429
     120       0       0       1       0                               0D0000430
     124     235       0       0       0       0       0       000000000D0000431
     124       0       0       1       1                               0D0000432
     110     236       0       0       0       0       0       000010000D0000433
     110       0       0       1       0                               0D0000434
     110     237       0       0       0       0       0       000010000D0000435
     110       0       0       1       0                               0D0000436
     142     238       0       0       0       0       0       000010500D0000437
     142       0       0       1       0                               0D0000438
     102     239       0       0       0       0       0       000010000D0000439
     102       0       0       1       0                               0D0000440
     100     240       0       0       0       0     443       000010000D0000441
     100       0       0       1       0                               0D0000442
     124     241       0       0       0       0       0       000000000D0000443
     124       0       0       1       0                               0D0000444
     110     242       0       0       0       0       0       000010000D0000445
     110       0       0       1       0                               0D0000446
     100     243       0       0       0       0     449       000010000D0000447
     100       0       0       1       0                               0D0000448
     124     244       0       0       0       0       0       000000000D0000449
     124       0       0       1       0                               0D0000450
     110     245       0       0       0       0       0       000010000D0000451
     110       0       0       1       0                               0D0000452
     144     246       0       0       0       0       0       000020000D0000453
     144       0       0       1       0                               0D0000454
     120     247       0       0       0       0     457       000010000D0000455
     120       0       0       1       0                               0D0000456
     124     248       0       0       0       0       0       000000000D0000457
     124       0       0       1       1                               0D0000458
     110     249       0       0       0       0       0       000010000D0000459
     110       0       0       1       0                               0D0000460
     110     250       0       0       0       0       0       000010000D0000461
     110       0       0       1       0                               0D0000462
     142     251       0       0       0       0       0       000010500D0000463
     142       0       0       1       0                               0D0000464
     102     252       0       0       0       0       0       000010000D0000465
     102       0       0       1       0                               0D0000466
     100     253       0       0       0       0     469       000010000D0000467
     100       0       0       1       0                               0D0000468
     124     254       0       0       0       0       0       000000000D0000469
     124       0       0       1       0                               0D0000470
     110     255       0       0       0       0       0       000010000D0000471
     110       0       0       1       0                               0D0000472
     100     256       0       0       0       0     475       000010000D0000473
     100       0       0       1       0                               0D0000474
     124     257       0       0       0       0       0       000000000D0000475
     124       0       0       1       0                               0D0000476
     110     258       0       0       0       0       0       000010000D0000477
     110       0       0       1       0                               0D0000478
     144     259       0       0       0       0       0       000020000D0000479
     144       0       0       1       0                               0D0000480
     120     260       0       0       0       0     483       000010000D0000481
     120       0       0       1       0                               0D0000482
     124     261       0       0       0       0       0       000000000D0000483
     124       0       0       1       1                               0D0000484
     110     262       0       0       0       0       0       000010000D0000485
     110       0       0       1       0                               0D0000486
     110     263       0       0       0       0       0       000010000D0000487
     110       0       0       1       0                               0D0000488
     142     264       0       0       0       0       0       000010500D0000489
     142       0       0       1       0                               0D0000490
     102     265       0       0       0       0       0       000010000D0000491
     102       0       0       1       0                               0D0000492
     100     266       0       0       0       0     495       000010000D0000493
     100       0       0       1       0                               0D0000494
     124     267       0       0       0       0       0       000000000D0000495
     124       0       0       1       0                               0D0000496
     110     268       0       0       0       0       0       000010000D0000497
     110       0       0       1       0                               0D0000498
     100     269       0       0       0       0     501       000010000D0000499
     100       0       0       1       0                               0D0000500
     124     270       0       0       0       0       0       000000000D0000501
     124       0       0       1       0                               0D0000502
     110     271       0       0       0       0       0       000010000D0000503
     110       0       0       1       0                               0D0000504
     110     272       0       0       0       0       0       000020000D0000505
     110       0       0       1       0                               0D0000506
     110     273       0       0       0       0       0       000020000D0000507
     110       0       0       1       0                               0D0000508
     110     274       0       0       0       0       0       000020000D0000509
     110       0       0       1       0                               0D0000510
     110     275       0       0       0       0       0       000020000D0000511
     110       0       0       1       0                               0D0000512
     110     276       0       0       0       0       0       000020000D0000513
     110       0       0       1       0                               0D0000514
     110     277       0       0       0       0       0       000020000D0000515
     110       0       0       1       0                               0D0000516
     110     278       0       0       0       0       0       000020000D0000517
     110       0       0       1       0                               0D0000518
     110     279       0       0       0       0       0       000020000D0000519
     110       0       0       1       0                               0D0000520
     110     280       0       0       0       0       0       000020000D0000521
     110       0       0       1       0                               0D0000522
     110     281       0       0       0       0       0       000020000D0000523
     110       0       0       1       0                               0D0000524
     110     282       0       0       0       0       0       000020000D0000525
     110       0       0       1       0                               0D0000526
     110     283       0       0       0       0       0       000020000D0000527
     110       0       0       1       0                               0D0000528
     110     284       0       0       0       0       0       000020000D0000529
     110       0       0       1       0                               0D0000530
     110     285       0       0       0       0       0       000020000D0000531
     110       0       0       1       0                               0D0000532
     100     286       0       0       0       0     535       000020000D0000533
     100       0       0       1       0                               0D0000534
     124     287       0       0       0       0       0       000000000D0000535
     124       0       0       2       0                               0D0000536
     116     289       0       0       0       0       0       000020400D0000537
     116       0       0       1       0                               0D0000538
402,17,3,505,507,509,511,513,515,517,519,521,523,525,527,529,    0000001P0000001
531,533,537;                                                     0000001P0000002
402,23,5,57,81,101,117,133,149,169,191,207,223,243,269,279,305,  0000003P0000003
321,337,353,369,401,427,453,479;                                 0000003P0000004
144,7,1,1,9,29;                                                  0000005P0000005
108,-0.,-1.,-0.,25.,0,0.,-25.,0.,0.;                             0000007P0000006
142,0,7,0,11,2;                                                  0000009P0000007
102,8,13,15,17,19,21,23,25,27;                                   0000011P0000008
110,78.448987703,-25.,185.,78.448987703,-25.,225.;               0000013P0000009
110,78.448987703,-25.,225.,0.,-25.,225.;                         0000015P0000010
110,0.,-25.,225.,0.,-25.,0.;                                     0000017P0000011
110,0.,-25.,0.,315.,-25.,0.;                                     0000019P0000012
110,315.,-25.,0.,315.,-25.,46.014571473;                         0000021P0000013
110,315.,-25.,46.014571473,274.849214682,-25.,46.014571473;      0000023P0000014
110,274.849214682,-25.,46.014571473,274.849214682,-25.,185.;     0000025P0000015
110,274.849214682,-25.,185.,78.448987703,-25.,185.;              0000027P0000016
142,0,7,0,31,2;                                                  0000029P0000017
102,8,33,35,39,41,45,47,51,53;                                   0000031P0000018
110,148.,-25.,54.,58.,-25.,54.;                                  0000033P0000019
100,0.,0.,0.,-5.,0.,0.,-5.;                                      0000035P0000020
124,0.,1.,0.,58.,0.,0.,1.,-25.,1.,0.,0.,59.;                     0000037P0000021
110,53.,-25.,59.,53.,-25.,141.;                                  0000039P0000022
100,0.,0.,0.,0.,-5.,5.,0.;                                       0000041P0000023
124,0.,1.,0.,58.,0.,0.,1.,-25.,1.,0.,0.,141.;                    0000043P0000024
110,58.,-25.,146.,148.,-25.,146.;                                0000045P0000025
100,0.,0.,0.,5.,0.,0.,5.;                                        0000047P0000026
124,0.,1.,0.,148.,0.,0.,1.,-25.,1.,0.,0.,141.;                   0000049P0000027
110,153.,-25.,141.,153.,-25.,59.;                                0000051P0000028
100,0.,0.,0.,0.,5.,-5.,0.;                                       0000053P0000029
124,0.,1.,0.,148.,0.,0.,1.,-25.,1.,0.,0.,59.;                    0000055P0000030
144,59,1,0,61;                                                   0000057P0000031
108,0.,0.,1.,225.,0,0.,-25.,225.,0.;                             0000059P0000032
142,0,59,0,63,2;                                                 0000061P0000033
102,7,65,67,71,73,75,77,79;                                      0000063P0000034
110,78.448987703,-25.,225.,78.448987703,-100.,225.;              0000065P0000035
100,0.,0.,0.,-5.,0.,0.,-5.;                                      0000067P0000036
124,1.,0.,0.,83.448987703,0.,1.,0.,-100.,0.,0.,1.,225.;          0000069P0000037
110,83.448987703,-105.,225.,315.,-105.,225.;                     0000071P0000038
110,315.,-105.,225.,315.,0.,225.;                                0000073P0000039
110,315.,0.,225.,0.,0.,225.;                                     0000075P0000040
110,0.,0.,225.,0.,-25.,225.;                                     0000077P0000041
110,0.,-25.,225.,78.448987703,-25.,225.;                         0000079P0000042
144,83,1,0,85;                                                   0000081P0000043
108,1.,0.,0.,315.,0,315.,-25.,225.,0.;                           0000083P0000044
142,0,83,0,87,2;                                                 0000085P0000045
102,6,89,91,93,95,97,99;                                         0000087P0000046
110,315.,0.,0.,315.,0.,225.;                                     0000089P0000047
110,315.,0.,225.,315.,-105.,225.;                                0000091P0000048
110,315.,-105.,225.,315.,-105.,46.014571473;                     0000093P0000049
110,315.,-105.,46.014571473,315.,-25.,46.014571473;              0000095P0000050
110,315.,-25.,46.014571473,315.,-25.,0.;                         0000097P0000051
110,315.,-25.,0.,315.,0.,0.;                                     0000099P0000052
144,103,1,0,105;                                                 0000101P0000053
108,0.,0.,-1.,0.,0,315.,-25.,0.,0.;                              0000103P0000054
142,0,103,0,107,2;                                               0000105P0000055
102,4,109,111,113,115;                                           0000107P0000056
110,0.,0.,0.,315.,0.,0.;                                         0000109P0000057
110,315.,0.,0.,315.,-25.,0.;                                     0000111P0000058
110,315.,-25.,0.,0.,-25.,0.;                                     0000113P0000059
110,0.,-25.,0.,0.,0.,0.;                                         0000115P0000060
144,119,1,0,121;                                                 0000117P0000061
108,-1.,0.,0.,0.,0,0.,-25.,0.,0.;                                0000119P0000062
142,0,119,0,123,2;                                               0000121P0000063
102,4,125,127,129,131;                                           0000123P0000064
110,0.,0.,225.,0.,0.,0.;                                         0000125P0000065
110,0.,0.,0.,0.,-25.,0.;                                         0000127P0000066
110,0.,-25.,0.,0.,-25.,225.;                                     0000129P0000067
110,0.,-25.,225.,0.,0.,225.;                                     0000131P0000068
144,135,1,0,137;                                                 0000133P0000069
108,0.,1.,0.,0.,0,0.,0.,0.,0.;                                   0000135P0000070
142,0,135,0,139,2;                                               0000137P0000071
102,4,141,143,145,147;                                           0000139P0000072
110,0.,0.,225.,315.,0.,225.;                                     0000141P0000073
110,315.,0.,225.,315.,0.,0.;                                     0000143P0000074
110,315.,0.,0.,0.,0.,0.;                                         0000145P0000075
110,0.,0.,0.,0.,0.,225.;                                         0000147P0000076
144,151,1,0,153;                                                 0000149P0000077
108,-9.892505335E-16,-0.,-1.,-185.,0,78.448987703,-105.,185.,0.; 0000151P0000078
142,0,151,0,155,2;                                               0000153P0000079
102,5,157,159,163,165,167;                                       0000155P0000080
110,274.849214682,-105.,185.,83.448987703,-105.,185.;            0000157P0000081
100,0.,0.,0.,0.,5.,-5.,0.;                                       0000159P0000082
124,1.,0.,-9.892505335E-16,83.448987703,0.,-1.,0.,-100.,         0000161P0000083
-9.892505335E-16,0.,-1.,185.;                                    0000161P0000084
110,78.448987703,-100.,185.,78.448987703,-25.,185.;              0000163P0000085
110,78.448987703,-25.,185.,274.849214682,-25.,185.;              0000165P0000086
110,274.849214682,-25.,185.,274.849214682,-105.,185.;            0000167P0000087
144,171,1,1,173,185;                                             0000169P0000088
108,-1.,-0.,-0.,-274.849214682,0,274.849214682,-105.,185.,0.;    0000171P0000089
142,0,171,0,175,2;                                               0000173P0000090
102,4,177,179,181,183;                                           0000175P0000091
110,274.849214682,-25.,185.,274.849214682,-25.,46.014571473;     0000177P0000092
110,274.849214682,-25.,46.014571473,274.849214682,-105.,         0000179P0000093
46.014571473;                                                    0000179P0000094
110,274.849214682,-105.,46.014571473,274.849214682,-105.,185.;   0000181P0000095
110,274.849214682,-105.,185.,274.849214682,-25.,185.;            0000183P0000096
142,0,171,0,187,2;                                               0000185P0000097
100,0.,0.,0.,23.128323605,0.,23.128323605,0.;                    0000187P0000098
124,0.,0.,1.,274.849214682,0.,1.,-0.,-73.297326908,-1.,0.,0.,    0000189P0000099
87.872007039;                                                    0000189P0000100
144,193,1,0,195;                                                 0000191P0000101
108,-6.912835053E-16,-0.,-1.,-46.014571473,0,274.849214682,      0000193P0000102
-105.,46.014571473,0.;                                           0000193P0000103
142,0,193,0,197,2;                                               0000195P0000104
102,4,199,201,203,205;                                           0000197P0000105
110,274.849214682,-25.,46.014571473,315.,-25.,46.014571473;      0000199P0000106
110,315.,-25.,46.014571473,315.,-105.,46.014571473;              0000201P0000107
110,315.,-105.,46.014571473,274.849214682,-105.,46.014571473;    0000203P0000108
110,274.849214682,-105.,46.014571473,274.849214682,-25.,         0000205P0000109
46.014571473;                                                    0000205P0000110
144,209,1,0,211;                                                 0000207P0000111
108,-1.,-0.,3.469446952E-15,-78.448987703,0,78.448987703,-105.,  0000209P0000112
225.,0.;                                                         0000209P0000113
142,0,209,0,213,2;                                               0000211P0000114
102,4,215,217,219,221;                                           0000213P0000115
110,78.448987703,-25.,185.,78.448987703,-100.,185.;              0000215P0000116
110,78.448987703,-100.,185.,78.448987703,-100.,225.;             0000217P0000117
110,78.448987703,-100.,225.,78.448987703,-25.,225.;              0000219P0000118
110,78.448987703,-25.,225.,78.448987703,-25.,185.;               0000221P0000119
144,225,1,0,227;                                                 0000223P0000120
108,-0.,-1.,-0.,105.,0,0.,-105.,0.,0.;                           0000225P0000121
142,0,225,0,229,2;                                               0000227P0000122
102,6,231,233,235,237,239,241;                                   0000229P0000123
110,315.,-105.,225.,83.448987703,-105.,225.;                     0000231P0000124
110,83.448987703,-105.,225.,83.448987703,-105.,185.;             0000233P0000125
110,83.448987703,-105.,185.,274.849214682,-105.,185.;            0000235P0000126
110,274.849214682,-105.,185.,274.849214682,-105.,46.014571473;   0000237P0000127
110,274.849214682,-105.,46.014571473,315.,-105.,46.014571473;    0000239P0000128
110,315.,-105.,46.014571473,315.,-105.,225.;                     0000241P0000129
144,245,1,0,253;                                                 0000243P0000130
120,249,251,0.,6.283185307;                                      0000245P0000131
124,0.,0.,1.,194.849214682,0.,1.,0.,-73.297326908,-1.,0.,0.,     0000247P0000132
87.872007039;                                                    0000247P0000133
110,0.,0.,1.,0.,0.,0.;                                           0000249P0000134
110,23.128323605,0.,0.,23.128323605,0.,80.;                      0000251P0000135
142,0,245,0,255,2;                                               0000253P0000136
102,4,257,261,263,267;                                           0000255P0000137
100,0.,0.,0.,23.128323605,0.,23.128323605,0.;                    0000257P0000138
124,0.,0.,1.,194.849214682,0.,1.,-0.,-73.297326908,-1.,0.,0.,    0000259P0000139
87.872007039;                                                    0000259P0000140
126,1,1,1,0,1,0,0.,0.,80.,80.,1.,1.,194.849214682,-73.297326908, 0000261P0000141
64.743683434,274.849214682,-73.297326908,64.743683434,0.,80.,0., 0000261P0000142
0.,1.;                                                           0000261P0000143
100,0.,0.,0.,23.128323605,0.,23.128323605,0.;                    0000263P0000144
124,0.,0.,-1.,274.849214682,0.,-1.,0.,-73.297326908,-1.,-0.,0.,  0000265P0000145
87.872007039;                                                    0000265P0000146
126,1,1,1,0,1,0,0.,0.,80.,80.,1.,1.,274.849214682,-73.297326908, 0000267P0000147
64.743683434,194.849214682,-73.297326908,64.743683434,0.,80.,0., 0000267P0000148
0.,1.;                                                           0000267P0000149
144,271,1,0,273;                                                 0000269P0000150
108,-1.,0.,0.,-194.849214682,0,194.849214682,-73.297326908,      0000271P0000151
87.872007039,0.;                                                 0000271P0000152
142,0,271,0,275,2;                                               0000273P0000153
100,0.,0.,0.,23.128323605,0.,23.128323605,0.;                    0000275P0000154
124,0.,0.,-1.,194.849214682,0.,-1.,0.,-73.297326908,-1.,-0.,0.,  0000277P0000155
87.872007039;                                                    0000277P0000156
144,281,1,0,289;                                                 0000279P0000157
120,285,287,-8.881784197E-15,1.570796327;                        0000281P0000158
124,-1.,0.,-3.469446952E-15,83.448987703,0.,1.,0.,-100.,         0000283P0000159
3.469446952E-15,0.,-1.,-2.89521836E-13;                          0000283P0000160
110,0.,0.,1.,0.,0.,0.;                                           0000285P0000161
110,5.,0.,-225.,5.,0.,-185.;                                     0000287P0000162
142,0,281,0,291,2;                                               0000289P0000163
102,4,293,297,299,303;                                           0000291P0000164
100,0.,0.,0.,0.,5.,-5.,0.;                                       0000293P0000165
124,1.,0.,0.,83.448987703,0.,-1.,0.,-100.,0.,0.,-1.,225.;        0000295P0000166
110,78.448987703,-100.,225.,78.448987703,-100.,185.;             0000297P0000167
100,0.,0.,0.,-5.,0.,0.,-5.;                                      0000299P0000168
124,1.,0.,9.892505335E-16,83.448987703,0.,1.,0.,-100.,           0000301P0000169
-9.892505335E-16,0.,1.,185.;                                     0000301P0000170
110,83.448987703,-105.,185.,83.448987703,-105.,225.;             0000303P0000171
144,307,1,0,309;                                                 0000305P0000172
108,-1.,0.,3.620292472E-15,-153.,0,153.,-20.,146.,0.;            0000307P0000173
142,0,307,0,311,2;                                               0000309P0000174
102,4,313,315,317,319;                                           0000311P0000175
110,153.,-20.,141.,153.,-20.,59.;                                0000313P0000176
110,153.,-20.,59.,153.,-25.,59.;                                 0000315P0000177
110,153.,-25.,59.,153.,-25.,141.;                                0000317P0000178
110,153.,-25.,141.,153.,-20.,141.;                               0000319P0000179
144,323,1,0,325;                                                 0000321P0000180
108,3.538835891E-15,0.,1.,54.,0,153.,-20.,54.,0.;                0000323P0000181
142,0,323,0,327,2;                                               0000325P0000182
102,4,329,331,333,335;                                           0000327P0000183
110,148.,-20.,54.,58.,-20.,54.;                                  0000329P0000184
110,58.,-20.,54.,58.,-25.,54.;                                   0000331P0000185
110,58.,-25.,54.,148.,-25.,54.;                                  0000333P0000186
110,148.,-25.,54.,148.,-20.,54.;                                 0000335P0000187
144,339,1,0,341;                                                 0000337P0000188
108,1.,0.,-3.469446952E-15,53.,0,53.,-20.,54.,0.;                0000339P0000189
142,0,339,0,343,2;                                               0000341P0000190
102,4,345,347,349,351;                                           0000343P0000191
110,53.,-25.,141.,53.,-25.,59.;                                  0000345P0000192
110,53.,-25.,59.,53.,-20.,59.;                                   0000347P0000193
110,53.,-20.,59.,53.,-20.,141.;                                  0000349P0000194
110,53.,-20.,141.,53.,-25.,141.;                                 0000351P0000195
144,355,1,0,357;                                                 0000353P0000196
108,-3.60822483E-15,0.,-1.,-146.,0,53.,-20.,146.,0.;             0000355P0000197
142,0,355,0,359,2;                                               0000357P0000198
102,4,361,363,365,367;                                           0000359P0000199
110,148.,-25.,146.,58.,-25.,146.;                                0000361P0000200
110,58.,-25.,146.,58.,-20.,146.;                                 0000363P0000201
110,58.,-20.,146.,148.,-20.,146.;                                0000365P0000202
110,148.,-20.,146.,148.,-25.,146.;                               0000367P0000203
144,371,1,0,373;                                                 0000369P0000204
108,-0.,-1.,-0.,20.,0,0.,-20.,0.,0.;                             0000371P0000205
142,0,371,0,375,2;                                               0000373P0000206
102,8,377,379,383,385,389,391,395,397;                           0000375P0000207
110,53.,-20.,141.,53.,-20.,59.;                                  0000377P0000208
100,0.,0.,0.,0.,5.,-5.,0.;                                       0000379P0000209
124,0.,-1.,0.,58.,0.,0.,-1.,-20.,1.,0.,0.,59.;                   0000381P0000210
110,58.,-20.,54.,148.,-20.,54.;                                  0000383P0000211
100,0.,0.,0.,-5.,0.,0.,-5.;                                      0000385P0000212
124,0.,-1.,0.,148.,0.,0.,-1.,-20.,1.,0.,0.,59.;                  0000387P0000213
110,153.,-20.,59.,153.,-20.,141.;                                0000389P0000214
100,0.,0.,0.,0.,-5.,5.,0.;                                       0000391P0000215
124,0.,-1.,0.,148.,0.,0.,-1.,-20.,1.,0.,0.,141.;                 0000393P0000216
110,148.,-20.,146.,58.,-20.,146.;                                0000395P0000217
100,0.,0.,0.,5.,0.,0.,5.;                                        0000397P0000218
124,0.,-1.,0.,58.,0.,0.,-1.,-20.,1.,0.,0.,141.;                  0000399P0000219
144,403,1,0,411;                                                 0000401P0000220
120,407,409,1.570796327,3.141592654;                             0000403P0000221
124,0.,-1.,0.,148.,0.,0.,-1.,-20.,-1.,-0.,0.,141.;               0000405P0000222
110,0.,0.,1.,0.,0.,0.;                                           0000407P0000223
110,5.,0.,0.,5.,0.,5.;                                           0000409P0000224
142,0,403,0,413,2;                                               0000411P0000225
102,4,415,419,421,425;                                           0000413P0000226
100,0.,0.,0.,0.,-5.,5.,0.;                                       0000415P0000227
124,0.,-1.,0.,148.,0.,0.,-1.,-25.,1.,0.,-0.,141.;                0000417P0000228
110,148.,-25.,146.,148.,-20.,146.;                               0000419P0000229
100,0.,0.,0.,5.,0.,0.,5.;                                        0000421P0000230
124,0.,1.,0.,148.,0.,0.,1.,-20.,1.,0.,0.,141.;                   0000423P0000231
110,153.,-20.,141.,153.,-25.,141.;                               0000425P0000232
144,429,1,0,437;                                                 0000427P0000233
120,433,435,0.,1.570796327;                                      0000429P0000234
124,0.,-1.,0.,148.,0.,0.,-1.,-20.,-1.,-0.,0.,59.;                0000431P0000235
110,0.,0.,1.,0.,0.,0.;                                           0000433P0000236
110,5.,0.,0.,5.,0.,5.;                                           0000435P0000237
142,0,429,0,439,2;                                               0000437P0000238
102,4,441,445,447,451;                                           0000439P0000239
100,0.,0.,0.,-5.,0.,0.,-5.;                                      0000441P0000240
124,0.,-1.,0.,148.,0.,0.,-1.,-25.,1.,0.,-0.,59.;                 0000443P0000241
110,153.,-25.,59.,153.,-20.,59.;                                 0000445P0000242
100,0.,0.,0.,0.,5.,-5.,0.;                                       0000447P0000243
124,0.,1.,0.,148.,0.,0.,1.,-20.,1.,0.,0.,59.;                    0000449P0000244
110,148.,-20.,54.,148.,-25.,54.;                                 0000451P0000245
144,455,1,0,463;                                                 0000453P0000246
120,459,461,3.141592654,4.71238898;                              0000455P0000247
124,0.,-1.,0.,58.,0.,0.,-1.,-20.,-1.,-0.,0.,141.;                0000457P0000248
110,0.,0.,1.,0.,0.,0.;                                           0000459P0000249
110,5.,0.,0.,5.,0.,5.;                                           0000461P0000250
142,0,455,0,465,2;                                               0000463P0000251
102,4,467,471,473,477;                                           0000465P0000252
100,0.,0.,0.,5.,0.,0.,5.;                                        0000467P0000253
124,0.,-1.,0.,58.,0.,0.,-1.,-25.,1.,0.,-0.,141.;                 0000469P0000254
110,53.,-25.,141.,53.,-20.,141.;                                 0000471P0000255
100,0.,0.,0.,0.,-5.,5.,0.;                                       0000473P0000256
124,0.,1.,0.,58.,0.,0.,1.,-20.,1.,0.,0.,141.;                    0000475P0000257
110,58.,-20.,146.,58.,-25.,146.;                                 0000477P0000258
144,481,1,0,489;                                                 0000479P0000259
120,485,487,4.71238898,6.283185307;                              0000481P0000260
124,0.,-1.,0.,58.,0.,0.,-1.,-20.,-1.,-0.,0.,59.;                 0000483P0000261
110,0.,0.,1.,0.,0.,0.;                                           0000485P0000262
110,5.,0.,0.,5.,0.,5.;                                           0000487P0000263
142,0,481,0,491,2;                                               0000489P0000264
102,4,493,497,499,503;                                           0000491P0000265
100,0.,0.,0.,0.,5.,-5.,0.;                                       0000493P0000266
124,0.,-1.,0.,58.,0.,0.,-1.,-25.,1.,0.,-0.,59.;                  0000495P0000267
110,58.,-25.,54.,58.,-20.,54.;                                   0000497P0000268
100,0.,0.,0.,-5.,0.,0.,-5.;                                      0000499P0000269
124,0.,1.,0.,58.,0.,0.,1.,-20.,1.,0.,0.,59.;                     0000501P0000270
110,53.,-20.,59.,53.,-25.,59.;                                   0000503P0000271
110,0.,0.,0.,315.,0.,0.;                                         0000505P0000272
110,315.,0.,0.,315.,0.,225.;                                     0000507P0000273
110,315.,0.,225.,0.,0.,225.;                                     0000509P0000274
110,0.,0.,225.,0.,0.,0.;                                         0000511P0000275
110,315.,-25.,46.014571473,315.,-25.,225.;                       0000513P0000276
110,78.448987703,-25.,225.,78.448987703,-25.,185.;               0000515P0000277
110,274.849214682,-25.,185.,274.849214682,-25.,46.014571473;     0000517P0000278
110,315.,-25.,46.014571473,274.849214682,-25.,46.014571473;      0000519P0000279
110,274.849214682,-25.,185.,78.448987703,-25.,185.;              0000521P0000280
110,78.448987703,-25.,225.,315.,-25.,225.;                       0000523P0000281
110,153.,-25.,146.,153.,-25.,54.;                                0000525P0000282
110,153.,-25.,54.,53.,-25.,54.;                                  0000527P0000283
110,53.,-25.,54.,53.,-25.,146.;                                  0000529P0000284
110,53.,-25.,146.,153.,-25.,146.;                                0000531P0000285
100,0.,0.,0.,23.128323605,0.,23.128323605,0.;                    0000533P0000286
124,0.,0.,-1.,274.849214682,0.,-1.,0.,-73.297326908,-1.,-0.,0.,  0000535P0000287
87.872007039;                                                    0000535P0000288
116,0.,0.,0.,0;                                                  0000537P0000289
S      1G      4D    538P    289                                        T0000001
