# .PCD v0.7 - Point Cloud Data
VERSION 0.7
FIELDS x y z rgb
SIZE 4 4 4 4
TYPE F F F U
COUNT 1 1 1 1
WIDTH 1200
HEIGHT 1
VIEWPOINT 0 0 0 1 0 0 0
POINTS 1200
DATA ascii
5.0000 0.0000 -20.0000 8388352
5.0267 0.1580 -19.9667 8650240
5.0484 0.3176 -19.9333 8912384
5.0649 0.4788 -19.9000 9174528
5.0763 0.6413 -19.8667 9436416
5.0825 0.8050 -19.8333 9698561
5.0833 0.9697 -19.8000 9960449
5.0788 1.1353 -19.7667 10222337
5.0689 1.3015 -19.7333 10484225
5.0535 1.4682 -19.7000 10746113
5.0327 1.6352 -19.6667 10942466
5.0063 1.8024 -19.6333 11204354
4.9743 1.9695 -19.6000 11466242
4.9368 2.1363 -19.5667 11727874
4.8936 2.3028 -19.5333 11923970
4.8448 2.4686 -19.5000 12185859
4.7905 2.6336 -19.4667 12381955
4.7305 2.7976 -19.4333 12643587
4.6649 2.9604 -19.4000 12839683
4.5937 3.1219 -19.3667 13101060
4.5170 3.2818 -19.3333 13297156
4.4347 3.4399 -19.3000 13493252
4.3470 3.5961 -19.2667 13689092
4.2538 3.7502 -19.2333 13885188
4.1551 3.9019 -19.2000 14081029
4.0511 4.0511 -19.1667 14276869
3.9419 4.1976 -19.1333 14472709
3.8273 4.3413 -19.1000 14668549
3.7077 4.4818 -19.0667 14798853
3.5830 4.6191 -19.0333 14994694
3.4532 4.7530 -19.0000 15124998
3.3186 4.8832 -18.9667 15255302
3.1792 5.0097 -18.9333 15450886
3.0352 5.1322 -18.9000 15581191
2.8865 5.2505 -18.8667 15711239
2.7334 5.3646 -18.8333 15841543
2.5760 5.4742 -18.8000 15906055
2.4143 5.5792 -18.7667 16036359
2.2486 5.6794 -18.7333 16166408
2.0790 5.7747 -18.7000 16230920
1.9056 5.8648 -18.6667 16295432
1.7286 5.9498 -18.6333 16360200
1.5481 6.0294 -18.6000 16424712
1.3643 6.1035 -18.5667 16489225
1.1774 6.1720 -18.5333 16553737
0.9875 6.2348 -18.5000 16618249
0.7948 6.2917 -18.4667 16617225
0.5995 6.3426 -18.4333 16681737
0.4019 6.3874 -18.4000 16680714
0.2019 6.4260 -18.3667 16679690
0.0000 6.4583 -18.3333 16744202
-0.2038 6.4843 -18.3000 16677642
-0.4092 6.5038 -18.2667 16676619
-0.6160 6.5168 -18.2333 16675595
-0.8241 6.5232 -18.2000 16609035
-1.0331 6.5229 -18.1667 16608011
-1.2430 6.5158 -18.1333 16541451
-1.4534 6.5020 -18.1000 16474892
-1.6641 6.4814 -18.0667 16408332
-1.8751 6.4540 -18.0333 16341772
-2.0859 6.4196 -18.0000 16275468
-2.2964 6.3784 -17.9667 16208908
-2.5063 6.3302 -17.9333 16142349
-2.7155 6.2751 -17.9000 16010253
-2.9237 6.2131 -17.8667 15878413
-3.1306 6.1442 -17.8333 15811853
-3.3361 6.0684 -17.8000 15680014
-3.5400 5.9857 -17.7667 15547918
-3.7419 5.8962 -17.7333 15416078
-3.9416 5.7999 -17.7000 15218446
-4.1390 5.6968 -17.6667 15086606
-4.3338 5.5871 -17.6333 14954767
-4.5257 5.4706 -17.6000 14757391
-4.7146 5.3477 -17.5667 14625551
-4.9002 5.2182 -17.5333 14428175
-5.0823 5.0823 -17.5000 14230799
-5.2607 4.9401 -17.4667 14033424
-5.4352 4.7918 -17.4333 13836048
-5.6055 4.6373 -17.4000 13638928
-5.7714 4.4768 -17.3667 13441552
-5.9328 4.3104 -17.3333 13244433
-6.0894 4.1383 -17.3000 13047313
-6.2410 3.9607 -17.2667 12784401
-6.3874 3.7775 -17.2333 12587281
-6.5285 3.5891 -17.2000 12324625
-6.6640 3.3955 -17.1667 12127506
-6.7937 3.1969 -17.1333 11865106
-6.9176 2.9935 -17.1000 11667986
-7.0353 2.7855 -17.0667 11405330
-7.1468 2.5730 -17.0333 11142930
-7.2518 2.3563 -17.0000 10880531
-7.3502 2.1354 -16.9667 10683667
-7.4419 1.9108 -16.9333 10421267
-7.5268 1.6824 -16.9000 10158867
-7.6045 1.4506 -16.8667 9896467
-7.6752 1.2156 -16.8333 9634068
-7.7385 0.9776 -16.8000 9371924
-7.7944 0.7368 -16.7667 9109524
-7.8428 0.4934 -16.7333 8847380
-7.8836 0.2478 -16.7000 8585237
-7.9167 0.0000 -16.6667 8323093
-7.9419 -0.2496 -16.6333 8060949
-7.9593 -0.5008 -16.6000 7798805
-7.9686 -0.7533 -16.5667 7536661
-7.9700 -1.0068 -16.5333 7274774
-7.9632 -1.2613 -16.5000 7012630
-7.9483 -1.5162 -16.4667 6750742
-7.9253 -1.7715 -16.4333 6488854
-7.8940 -2.0268 -16.4000 6226966
-7.8544 -2.2819 -16.3667 5965079
-7.8066 -2.5365 -16.3333 5768727
-7.7505 -2.7904 -16.3000 5506839
-7.6862 -3.0432 -16.2667 5244951
-7.6135 -3.2947 -16.2333 4983320
-7.5327 -3.5446 -16.2000 4787224
-7.4436 -3.7927 -16.1667 4525336
-7.3464 -4.0387 -16.1333 4329240
-7.2410 -4.2823 -16.1000 4067608
-7.1275 -4.5233 -16.0667 3871513
-7.0061 -4.7613 -16.0333 3610137
-6.8766 -4.9962 -16.0000 3414041
-6.7394 -5.2276 -15.9667 3217945
-6.5943 -5.4553 -15.9333 3022105
-6.4416 -5.6790 -15.9000 2826010
-6.2813 -5.8985 -15.8667 2630170
-6.1135 -6.1135 -15.8333 2434330
-5.9384 -6.3238 -15.8000 2238490
-5.7562 -6.5291 -15.7667 2042650
-5.5668 -6.7291 -15.7333 1912347
-5.3706 -6.9237 -15.7000 1716507
-5.1676 -7.1126 -15.6667 1586203
-4.9580 -7.2955 -15.6333 1455899
-4.7421 -7.4723 -15.6000 1260316
-4.5199 -7.6427 -15.5667 1130012
-4.2916 -7.8064 -15.5333 999964
-4.0575 -7.9634 -15.5000 869660
-3.8178 -8.1133 -15.4667 805148
-3.5727 -8.2560 -15.4333 674845
-3.3223 -8.3912 -15.4000 544797
-3.0670 -8.5189 -15.3667 480285
-2.8069 -8.6388 -15.3333 415773
-2.5423 -8.7507 -15.3000 351005
-2.2734 -8.8545 -15.2667 286494
-2.0006 -8.9500 -15.2333 221982
-1.7239 -9.0370 -15.2000 157470
-1.4438 -9.1155 -15.1667 92958
-1.1604 -9.1853 -15.1333 93983
-0.8740 -9.2463 -15.1000 29471
-0.5850 -9.2983 -15.0667 30495
-0.2936 -9.3412 -15.0333 31519
-0.0000 -9.3750 -15.0000 32543
0.2954 -9.3995 -14.9667 33568
0.5923 -9.4147 -14.9333 34592
0.8905 -9.4205 -14.9000 35616
1.1896 -9.4168 -14.8667 102176
1.4894 -9.4036 -14.8333 103200
1.7895 -9.3808 -14.8000 169761
2.0896 -9.3485 -14.7667 236321
2.3895 -9.3065 -14.7333 302881
2.6888 -9.2548 -14.7000 369441
2.9872 -9.1935 -14.6667 435746
3.2843 -9.1226 -14.6333 502306
3.5800 -9.0421 -14.6000 568866
3.8738 -8.9519 -14.5667 700962
4.1655 -8.8522 -14.5333 832802
4.4548 -8.7430 -14.5000 899363
4.7413 -8.6243 -14.4667 1031203
5.0247 -8.4962 -14.4333 1163299
5.3047 -8.3588 -14.4000 1295139
5.5810 -8.2122 -14.3667 1492771
5.8534 -8.0565 -14.3333 1624612
6.1214 -7.8917 -14.3000 1756452
6.3849 -7.7180 -14.2667 1953828
6.6434 -7.5355 -14.2333 2085668
6.8968 -7.3444 -14.2000 2283044
7.1447 -7.1447 -14.1667 2480421
7.3869 -6.9367 -14.1333 2677797
7.6230 -6.7206 -14.1000 2875173
7.8528 -6.4964 -14.0667 3072293
8.0760 -6.2644 -14.0333 3269670
8.2924 -6.0248 -14.0000 3466790
8.5017 -5.7777 -13.9667 3663910
8.7036 -5.5235 -13.9333 3926822
8.8979 -5.2622 -13.9000 4123942
9.0844 -4.9942 -13.8667 4386599
9.2628 -4.7196 -13.8333 4583719
9.4328 -4.4387 -13.8000 4846119
9.5944 -4.1519 -13.7667 5043239
9.7472 -3.8592 -13.7333 5305895
9.8910 -3.5610 -13.7000 5568296
10.0257 -3.2576 -13.6667 5830696
10.1511 -2.9492 -13.6333 6027560
10.2670 -2.6361 -13.6000 6289960
10.3732 -2.3187 -13.5667 6552361
10.4695 -1.9972 -13.5333 6814761
10.5559 -1.6719 -13.5000 7077161
10.6322 -1.3432 -13.4667 7339305
10.6981 -1.0113 -13.4333 7601705
10.7537 -0.6766 -13.4000 7863850
10.7988 -0.3394 -13.3667 8125994
10.8333 -0.0000 -13.3333 8388394
10.8571 0.3412 -13.3000 8650282
10.8702 0.6839 -13.2667 8912426
10.8724 1.0277 -13.2333 9174571
10.8637 1.3724 -13.2000 9436459
10.8440 1.7175 -13.1667 9698603
10.8133 2.0628 -13.1333 9960491
10.7717 2.4078 -13.1000 10222379
10.7190 2.7522 -13.0667 10484268
10.6553 3.0956 -13.0333 10746156
10.5805 3.4378 -13.0000 10942508
10.4947 3.7783 -12.9667 11204396
10.3980 4.1169 -12.9333 11466285
10.2903 4.4530 -12.9000 11727917
10.1718 4.7865 -12.8667 11924013
10.0424 5.1169 -12.8333 12185901
9.9023 5.4438 -12.8000 12381997
9.7515 5.7670 -12.7667 12643630
9.5902 6.0861 -12.7333 12839726
9.4184 6.4007 -12.7000 13101102
9.2363 6.7105 -12.6667 13297198
9.0440 7.0152 -12.6333 13493294
8.8416 7.3144 -12.6000 13689135
8.6294 7.6078 -12.5667 13885231
8.4074 7.8951 -12.5333 14081071
8.1759 8.1759 -12.5000 14276911
7.9350 8.4500 -12.4667 14472752
7.6850 8.7169 -12.4333 14668592
7.4260 8.9765 -12.4000 14798896
7.1582 9.2284 -12.3667 14994736
6.8820 9.4722 -12.3333 15125040
6.5975 9.7079 -12.3000 15255345
6.3049 9.9349 -12.2667 15450929
6.0046 10.1532 -12.2333 15581233
5.6967 10.3623 -12.2000 15711281
5.3817 10.5621 -12.1667 15841585
5.0597 10.7524 -12.1333 15906098
4.7310 10.9328 -12.1000 16036402
4.3960 11.1031 -12.0667 16166450
4.0550 11.2631 -12.0333 16230962
3.7082 11.4127 -12.0000 16295475
3.3560 11.5515 -11.9667 16360243
2.9988 11.6795 -11.9333 16424755
2.6368 11.7964 -11.9000 16489267
2.2704 11.9020 -11.8667 16553779
1.9000 11.9963 -11.8333 16618292
1.5259 12.0790 -11.8000 16617268
1.1485 12.1500 -11.7667 16681780
0.7681 12.2092 -11.7333 16680756
0.3852 12.2564 -11.7000 16679732
0.0000 12.2917 -11.6667 16744245
-0.3870 12.3148 -11.6333 16677685
-0.7755 12.3256 -11.6000 16676661
-1.1650 12.3242 -11.5667 16675637
-1.5552 12.3105 -11.5333 16609077
-1.9457 12.2844 -11.5000 16608054
-2.3360 12.2458 -11.4667 16541494
-2.7259 12.1949 -11.4333 16474934
-3.1148 12.1315 -11.4000 16408374
-3.5025 12.0557 -11.3667 16341815
-3.8885 11.9675 -11.3333 16275511
-4.2723 11.8669 -11.3000 16208951
-4.6537 11.7539 -11.2667 16142391
-5.0322 11.6287 -11.2333 16010295
-5.4074 11.4913 -11.2000 15878456
-5.7789 11.3418 -11.1667 15811896
-6.1464 11.1802 -11.1333 15680056
-6.5094 11.0067 -11.1000 15547960
-6.8675 10.8215 -11.0667 15416120
-7.2204 10.6245 -11.0333 15218489
-7.5677 10.4161 -11.0000 15086649
-7.9091 10.1963 -10.9667 14954809
-8.2440 9.9653 -10.9333 14757433
-8.5723 9.7233 -10.9000 14625594
-8.8934 9.4705 -10.8667 14428218
-9.2071 9.2071 -10.8333 14230842
-9.5130 8.9333 -10.8000 14033466
-9.8108 8.6494 -10.7667 13836090
-10.1001 8.3556 -10.7333 13638971
-10.3807 8.0521 -10.7000 13441595
-10.6521 7.7392 -10.6667 13244475
-10.9140 7.4172 -10.6333 13047355
-11.1662 7.0863 -10.6000 12784443
-11.4084 6.7469 -10.5667 12587324
-11.6403 6.3993 -10.5333 12324668
-11.8615 6.0437 -10.5000 12127548
-12.0719 5.6806 -10.4667 11865148
-12.2711 5.3102 -10.4333 11668028
-12.4590 4.9329 -10.4000 11405373
-12.6352 4.5490 -10.3667 11142973
-12.7996 4.1589 -10.3333 10880573
-12.9520 3.7629 -10.3000 10683709
-13.0920 3.3615 -10.2667 10421310
-13.2196 2.9549 -10.2333 10158910
-13.3345 2.5437 -10.2000 9896510
-13.4367 2.1282 -10.1667 9634110
-13.5258 1.7087 -10.1333 9371966
-13.6019 1.2858 -10.1000 9109567
-13.6646 0.8597 -10.0667 8847423
-13.7141 0.4310 -10.0333 8585279
-13.7500 0.0000 -10.0000 8323135
-13.7724 -0.4328 -9.9667 8060991
-13.7811 -0.8670 -9.9333 7798848
-13.7761 -1.3022 -9.9000 7536704
-13.7573 -1.7380 -9.8667 7274816
-13.7248 -2.1738 -9.8333 7012672
-13.6783 -2.6093 -9.8000 6750785
-13.6181 -3.0440 -9.7667 6488897
-13.5440 -3.4775 -9.7333 6227009
-13.4561 -3.9094 -9.7000 5965121
-13.3544 -4.3391 -9.6667 5768769
-13.2390 -4.7663 -9.6333 5506882
-13.1098 -5.1906 -9.6000 5244994
-12.9671 -5.6114 -9.5667 4983362
-12.8108 -6.0283 -9.5333 4787266
-12.6412 -6.4410 -9.5000 4525378
-12.4582 -6.8489 -9.4667 4329283
-12.2620 -7.2517 -9.4333 4067651
-12.0528 -7.6489 -9.4000 3871555
-11.8307 -8.0401 -9.3667 3610179
-11.5959 -8.4249 -9.3333 3414084
-11.3486 -8.8029 -9.3000 3217988
-11.0890 -9.1736 -9.2667 3022148
-10.8172 -9.5367 -9.2333 2826052
-10.5336 -9.8917 -9.2000 2630212
-10.2383 -10.2383 -9.1667 2434373
-9.9316 -10.5761 -9.1333 2238533
-9.6138 -10.9047 -9.1000 2042693
-9.2851 -11.2238 -9.0667 1912389
-8.9459 -11.5330 -9.0333 1716549
-8.5964 -11.8319 -9.0000 1586246
-8.2369 -12.1202 -8.9667 1455942
-7.8677 -12.3975 -8.9333 1260358
-7.4893 -12.6637 -8.9000 1130054
-7.1019 -12.9182 -8.8667 1000006
-6.7058 -13.1609 -8.8333 869703
-6.3015 -13.3914 -8.8000 805191
-5.8894 -13.6095 -8.7667 674887
-5.4697 -13.8149 -8.7333 544839
-5.0430 -14.0074 -8.7000 480328
-4.6095 -14.1866 -8.6667 415816
-4.1698 -14.3524 -8.6333 351048
-3.7241 -14.5045 -8.6000 286536
-3.2731 -14.6428 -8.5667 222024
-2.8170 -14.7671 -8.5333 157513
-2.3563 -14.8771 -8.5000 93001
-1.8915 -14.9727 -8.4667 94025
-1.4230 -15.0537 -8.4333 29513
-0.9513 -15.1201 -8.4000 30537
-0.4768 -15.1717 -8.3667 31562
-0.0000 -15.2083 -8.3333 32586
0.4786 -15.2300 -8.3000 33610
0.9586 -15.2365 -8.2667 34634
1.4395 -15.2279 -8.2333 35659
1.9207 -15.2042 -8.2000 102219
2.4019 -15.1651 -8.1667 103243
2.8825 -15.1109 -8.1333 169803
3.3621 -15.0413 -8.1000 236363
3.8402 -14.9565 -8.0667 302924
4.3162 -14.8565 -8.0333 369484
4.7898 -14.7414 -8.0000 435788
5.2603 -14.6111 -7.9667 502348
5.7274 -14.4658 -7.9333 568908
6.1905 -14.3055 -7.9000 701005
6.6493 -14.1304 -7.8667 832845
7.1031 -13.9405 -7.8333 899405
7.5515 -13.7361 -7.8000 1031245
7.9941 -13.5172 -7.7667 1163341
8.4303 -13.2841 -7.7333 1295182
8.8598 -13.0369 -7.7000 1492814
9.2821 -12.7757 -7.6667 1624654
9.6967 -12.5009 -7.6333 1756494
10.1032 -12.2126 -7.6000 1953871
10.5011 -11.9111 -7.5667 2085711
10.8900 -11.5967 -7.5333 2283087
11.2695 -11.2695 -7.5000 2480463
11.6392 -10.9299 -7.4667 2677839
11.9987 -10.5782 -7.4333 2875216
12.3475 -10.2147 -7.4000 3072336
12.6853 -9.8397 -7.3667 3269712
13.0117 -9.4535 -7.3333 3466832
13.3263 -9.0566 -7.3000 3663952
13.6289 -8.6491 -7.2667 3926865
13.9189 -8.2316 -7.2333 4123985
14.1962 -7.8044 -7.2000 4386641
14.4603 -7.3679 -7.1667 4583761
14.7110 -6.9225 -7.1333 4846162
14.9479 -6.4685 -7.1000 5043282
15.1709 -6.0066 -7.0667 5305938
15.3795 -5.5370 -7.0333 5568338
15.5736 -5.0602 -7.0000 5830738
15.7528 -4.5766 -6.9667 6027603
15.9170 -4.0868 -6.9333 6290003
16.0660 -3.5912 -6.9000 6552403
16.1996 -3.0902 -6.8667 6814803
16.3174 -2.5844 -6.8333 7077203
16.4195 -2.0743 -6.8000 7339348
16.5056 -1.5602 -6.7667 7601748
16.5756 -1.0428 -6.7333 7863892
16.6293 -0.5226 -6.7000 8126036
16.6667 -0.0000 -6.6667 8388437
16.6876 0.5244 -6.6333 8650325
16.6920 1.0502 -6.6000 8912469
16.6798 1.5767 -6.5667 9174613
16.6510 2.1035 -6.5333 9436501
16.6055 2.6301 -6.5000 9698646
16.5434 3.1558 -6.4667 9960534
16.4645 3.6803 -6.4333 10222422
16.3691 4.2029 -6.4000 10484310
16.2570 4.7231 -6.3667 10746198
16.1283 5.2404 -6.3333 10942551
15.9832 5.7543 -6.3000 11204439
15.8217 6.2643 -6.2667 11466327
15.6439 6.7697 -6.2333 11727959
15.4499 7.2702 -6.2000 11924055
15.2399 7.7651 -6.1667 12185944
15.0141 8.2540 -6.1333 12382040
14.7725 8.7364 -6.1000 12643672
14.5154 9.2118 -6.0667 12839768
14.2430 9.6795 -6.0333 13101145
13.9555 10.1393 -6.0000 13297241
13.6532 10.5905 -5.9667 13493337
13.3363 11.0327 -5.9333 13689177
13.0051 11.4655 -5.9000 13885273
12.6598 11.8883 -5.8667 14081114
12.3007 12.3007 -5.8333 14276954
11.9282 12.7023 -5.8000 14472794
11.5426 13.0926 -5.7667 14668634
11.1443 13.4711 -5.7333 14798938
10.7335 13.8376 -5.7000 14994779
10.3107 14.1915 -5.6667 15125083
9.8763 14.5325 -5.6333 15255387
9.4306 14.8602 -5.6000 15450971
8.9740 15.1742 -5.5667 15581276
8.5070 15.4741 -5.5333 15711324
8.0300 15.7597 -5.5000 15841628
7.5434 16.0305 -5.4667 15906140
7.0477 16.2863 -5.4333 16036444
6.5434 16.5268 -5.4000 16166493
6.0309 16.7516 -5.3667 16231005
5.5108 16.9605 -5.3333 16295517
4.9835 17.1532 -5.3000 16360285
4.4495 17.3296 -5.2667 16424797
3.9093 17.4892 -5.2333 16489310
3.3635 17.6321 -5.2000 16553822
2.8126 17.7578 -5.1667 16618334
2.2570 17.8663 -5.1333 16617310
1.6975 17.9574 -5.1000 16681822
1.1344 18.0310 -5.0667 16680799
0.5684 18.0869 -5.0333 16679775
0.0000 18.1250 -5.0000 16744287
-0.5702 18.1452 -4.9667 16677727
-1.1417 18.1475 -4.9333 16676704
-1.7139 18.1317 -4.9000 16675680
-2.2863 18.0978 -4.8667 16609120
-2.8582 18.0459 -4.8333 16608096
-3.4291 17.9759 -4.8000 16541536
-3.9984 17.8877 -4.7667 16474977
-4.5655 17.7816 -4.7333 16408417
-5.1299 17.6574 -4.7000 16341857
-5.6911 17.5153 -4.6667 16275553
-6.2483 17.3553 -4.6333 16208993
-6.8011 17.1776 -4.6000 16142434
-7.3489 16.9823 -4.5667 16010338
-7.8911 16.7695 -4.5333 15878498
-8.4272 16.5393 -4.5000 15811938
-8.9566 16.2920 -4.4667 15680099
-9.4788 16.0277 -4.4333 15548003
-9.9932 15.7467 -4.4000 15416163
-10.4992 15.4492 -4.3667 15218531
-10.9965 15.1354 -4.3333 15086691
-11.4843 14.8055 -4.3000 14954852
-11.9623 14.4600 -4.2667 14757476
-12.4299 14.0990 -4.2333 14625636
-12.8866 13.7228 -4.2000 14428260
-13.3319 13.3319 -4.1667 14230884
-13.7654 12.9265 -4.1333 14033509
-14.1865 12.5071 -4.1000 13836133
-14.5948 12.0739 -4.0667 13639013
-14.9899 11.6274 -4.0333 13441637
-15.3713 11.1679 -4.0000 13244518
-15.7387 10.6960 -3.9667 13047398
-16.0915 10.2120 -3.9333 12784486
-16.4294 9.7163 -3.9000 12587366
-16.7521 9.2095 -3.8667 12324710
-17.0591 8.6920 -3.8333 12127591
-17.3501 8.1643 -3.8000 11865191
-17.6247 7.6269 -3.7667 11668071
-17.8827 7.0803 -3.7333 11405415
-18.1237 6.5249 -3.7000 11143015
-18.3475 5.9615 -3.6667 10880616
-18.5537 5.3903 -3.6333 10683752
-18.7421 4.8121 -3.6000 10421352
-18.9125 4.2274 -3.5667 10158952
-19.0646 3.6368 -3.5333 9896552
-19.1982 3.0407 -3.5000 9634153
-19.3132 2.4398 -3.4667 9372009
-19.4093 1.8347 -3.4333 9109609
-19.4865 1.2260 -3.4000 8847465
-19.5445 0.6142 -3.3667 8585322
-19.5833 0.0000 -3.3333 8323178
-19.6028 -0.6160 -3.3000 8061034
-19.6029 -1.2333 -3.2667 7798890
-19.5835 -1.8512 -3.2333 7536746
-19.5447 -2.4691 -3.2000 7274859
-19.4863 -3.0863 -3.1667 7012715
-19.4084 -3.7023 -3.1333 6750827
-19.3110 -4.3165 -3.1000 6488939
-19.1941 -4.9282 -3.0667 6227051
-19.0578 -5.5368 -3.0333 5965164
-18.9022 -6.1417 -3.0000 5768812
-18.7274 -6.7423 -2.9667 5506924
-18.5335 -7.3379 -2.9333 5245036
-18.3207 -7.9281 -2.9000 4983405
-18.0890 -8.5120 -2.8667 4787309
-17.8387 -9.0893 -2.8333 4525421
-17.5699 -9.6592 -2.8000 4329325
-17.2830 -10.2211 -2.7667 4067693
-16.9780 -10.7746 -2.7333 3871598
-16.6553 -11.3190 -2.7000 3610222
-16.3152 -11.8537 -2.6667 3414126
-15.9578 -12.3782 -2.6333 3218030
-15.5836 -12.8919 -2.6000 3022190
-15.1929 -13.3943 -2.5667 2826095
-14.7859 -13.8849 -2.5333 2630255
-14.3631 -14.3631 -2.5000 2434415
-13.9248 -14.8284 -2.4667 2238575
-13.4715 -15.2804 -2.4333 2042735
-13.0034 -15.7185 -2.4000 1912432
-12.5212 -16.1422 -2.3667 1716592
-12.0251 -16.5511 -2.3333 1586288
-11.5157 -16.9448 -2.3000 1455984
-10.9934 -17.3228 -2.2667 1260401
-10.4587 -17.6847 -2.2333 1130097
-9.9121 -18.0300 -2.2000 1000049
-9.3541 -18.3584 -2.1667 869745
-8.7852 -18.6696 -2.1333 805233
-8.2061 -18.9631 -2.1000 674930
-7.6171 -19.2386 -2.0667 544882
-7.0189 -19.4958 -2.0333 480370
-6.4121 -19.7344 -2.0000 415858
-5.7972 -19.9541 -1.9667 351090
-5.1748 -20.1546 -1.9333 286579
-4.5456 -20.3357 -1.9000 222067
-3.9100 -20.4971 -1.8667 157555
-3.2688 -20.6386 -1.8333 93043
-2.6226 -20.7600 -1.8000 94068
-1.9720 -20.8612 -1.7667 29556
-1.3176 -20.9419 -1.7333 30580
-0.6600 -21.0021 -1.7000 31604
-0.0000 -21.0417 -1.6667 32628
0.6619 -21.0604 -1.6333 33653
1.3249 -21.0584 -1.6000 34677
1.9884 -21.0354 -1.5667 35701
2.6518 -20.9915 -1.5333 102261
3.3145 -20.9266 -1.5000 103285
3.9756 -20.8409 -1.4667 169846
4.6346 -20.7342 -1.4333 236406
5.2909 -20.6066 -1.4000 302966
5.9437 -20.4583 -1.3667 369526
6.5924 -20.2892 -1.3333 435831
7.2363 -20.0996 -1.3000 502391
7.8748 -19.8895 -1.2667 568951
8.5072 -19.6591 -1.2333 701047
9.1330 -19.4085 -1.2000 832887
9.7513 -19.1381 -1.1667 899448
10.3617 -18.8479 -1.1333 1031288
10.9635 -18.5382 -1.1000 1163384
11.5560 -18.2093 -1.0667 1295224
12.1387 -17.8615 -1.0333 1492856
12.7109 -17.4950 -1.0000 1624697
13.2720 -17.1101 -0.9667 1756537
13.8215 -16.7073 -0.9333 1953913
14.3587 -16.2868 -0.9000 2085753
14.8832 -15.8490 -0.8667 2283129
15.3943 -15.3943 -0.8333 2480506
15.8915 -14.9231 -0.8000 2677882
16.3743 -14.4359 -0.7667 2875258
16.8421 -13.9330 -0.7333 3072378
17.2945 -13.4150 -0.7000 3269755
17.7310 -12.8823 -0.6667 3466875
18.1510 -12.3354 -0.6333 3663995
18.5541 -11.7748 -0.6000 3926907
18.9399 -11.2010 -0.5667 4124027
19.3080 -10.6146 -0.5333 4386684
19.6578 -10.0162 -0.5000 4583804
19.9891 -9.4062 -0.4667 4846204
20.3015 -8.7852 -0.4333 5043324
20.5945 -8.1540 -0.4000 5305980
20.8680 -7.5129 -0.3667 5568381
21.1214 -6.8628 -0.3333 5830781
21.3545 -6.2041 -0.3000 6027645
21.5671 -5.5375 -0.2667 6290045
21.7589 -4.8637 -0.2333 6552446
21.9296 -4.1833 -0.2000 6814846
22.0789 -3.4970 -0.1667 7077246
22.2068 -2.8054 -0.1333 7339390
22.3130 -2.1092 -0.1000 7601790
22.3974 -1.4091 -0.0667 7863935
22.4597 -0.7058 -0.0333 8126079
22.5000 -0.0000 0.0000 8388479
22.5180 0.7077 0.0333 8650367
22.5138 1.4164 0.0667 8912511
22.4873 2.1257 0.1000 9174656
22.4383 2.8346 0.1333 9436544
22.3670 3.5426 0.1667 9698688
22.2734 4.2489 0.2000 9960576
22.1574 4.9528 0.2333 10222464
22.0191 5.6536 0.2667 10484353
21.8587 6.3505 0.3000 10746241
21.6762 7.0430 0.3333 10942593
21.4717 7.7303 0.3667 11204481
21.2454 8.4116 0.4000 11466370
20.9975 9.0864 0.4333 11728002
20.7281 9.7539 0.4667 11924098
20.4375 10.4134 0.5000 12185986
20.1258 11.0643 0.5333 12382082
19.7935 11.7058 0.5667 12643715
19.4407 12.3374 0.6000 12839811
19.0677 12.9584 0.6333 13101187
18.6748 13.5680 0.6667 13297283
18.2625 14.1658 0.7000 13493379
17.8310 14.7511 0.7333 13689220
17.3807 15.3231 0.7667 13885316
16.9121 15.8815 0.8000 14081156
16.4255 16.4255 0.8333 14276996
15.9214 16.9546 0.8667 14472837
15.4003 17.4682 0.9000 14668677
14.8626 17.9658 0.9333 14798981
14.3088 18.4468 0.9667 14994821
13.7395 18.9108 1.0000 15125125
13.1551 19.3571 1.0333 15255430
12.5562 19.7854 1.0667 15451014
11.9434 20.1952 1.1000 15581318
11.3172 20.5859 1.1333 15711366
10.6782 20.9572 1.1667 15841670
10.0271 21.3087 1.2000 15906183
9.3644 21.6399 1.2333 16036487
8.6908 21.9505 1.2667 16166535
8.0069 22.2401 1.3000 16231047
7.3134 22.5083 1.3333 16295560
6.6109 22.7550 1.3667 16360328
5.9002 22.9796 1.4000 16424840
5.1818 23.1821 1.4333 16489352
4.4566 23.3621 1.4667 16553864
3.7251 23.5193 1.5000 16618377
2.9882 23.6537 1.5333 16617353
2.2464 23.7649 1.5667 16681865
1.5007 23.8528 1.6000 16680841
0.7516 23.9174 1.6333 16679817
-0.0000 23.9583 1.6667 16744330
-0.7535 23.9757 1.7000 16677770
-1.5080 23.9693 1.7333 16676746
-2.2629 23.9391 1.7667 16675722
-3.0174 23.8852 1.8000 16609162
-3.7707 23.8074 1.8333 16608139
-4.5221 23.7059 1.8667 16541579
-5.2709 23.5806 1.9000 16475019
-6.0162 23.4316 1.9333 16408459
-6.7574 23.2591 1.9667 16341900
-7.4937 23.0631 2.0000 16275596
-8.2243 22.8438 2.0333 16209036
-8.9485 22.6013 2.0667 16142476
-9.6656 22.3359 2.1000 16010380
-10.3748 22.0476 2.1333 15878541
-11.0755 21.7368 2.1667 15811981
-11.7668 21.4038 2.2000 15680141
-12.4482 21.0487 2.2333 15548045
-13.1188 20.6720 2.2667 15416205
-13.7781 20.2738 2.3000 15218574
-14.4252 19.8546 2.3333 15086734
-15.0596 19.4148 2.3667 14954894
-15.6806 18.9546 2.4000 14757518
-16.2876 18.4746 2.4333 14625679
-16.8798 17.9752 2.4667 14428303
-17.4567 17.4567 2.5000 14230927
-18.0177 16.9197 2.5333 14033551
-18.5621 16.3647 2.5667 13836175
-19.0895 15.7922 2.6000 13639056
-19.5991 15.2026 2.6333 13441680
-20.0906 14.5967 2.6667 13244560
-20.5633 13.9748 2.7000 13047440
-21.0167 13.3376 2.7333 12784528
-21.4504 12.6857 2.7667 12587409
-21.8639 12.0198 2.8000 12324753
-22.2566 11.3403 2.8333 12127633
-22.6282 10.6480 2.8667 11865233
-22.9783 9.9436 2.9000 11668113
-23.3064 9.2277 2.9333 11405458
-23.6122 8.5009 2.9667 11143058
-23.8953 7.7641 3.0000 10880658
-24.1554 7.0178 3.0333 10683794
-24.3922 6.2628 3.0667 10421395
-24.6053 5.4999 3.1000 10158995
-24.7946 4.7298 3.1333 9896595
-24.9597 3.9532 3.1667 9634195
-25.1005 3.1709 3.2000 9372051
-25.2168 2.3837 3.2333 9109652
-25.3083 1.5923 3.2667 8847508
-25.3750 0.7974 3.3000 8585364
-25.4167 0.0000 3.3333 8323220
-25.4333 -0.7993 3.3667 8061076
-25.4247 -1.5996 3.4000 7798933
-25.3910 -2.4002 3.4333 7536789
-25.3320 -3.2002 3.4667 7274901
-25.2478 -3.9989 3.5000 7012757
-25.1384 -4.7954 3.5333 6750870
-25.0038 -5.5890 3.5667 6488982
-24.8442 -6.3789 3.6000 6227094
-24.6595 -7.1643 3.6333 5965206
-24.4501 -7.9443 3.6667 5768854
-24.2159 -8.7183 3.7000 5506967
-23.9572 -9.4853 3.7333 5245079
-23.6742 -10.2448 3.7667 4983447
-23.3672 -10.9958 3.8000 4787351
-23.0362 -11.7375 3.8333 4525463
-22.6817 -12.4694 3.8667 4329368
-22.3040 -13.1905 3.9000 4067736
-21.9033 -13.9002 3.9333 3871640
-21.4800 -14.5978 3.9667 3610264
-21.0344 -15.2824 4.0000 3414169
-20.5671 -15.9535 4.0333 3218073
-20.0783 -16.6102 4.0667 3022233
-19.5685 -17.2520 4.1000 2826137
-19.0382 -17.8781 4.1333 2630297
-18.4879 -18.4879 4.1667 2434458
-17.9180 -19.0808 4.2000 2238618
-17.3291 -19.6560 4.2333 2042778
-16.7218 -20.2131 4.2667 1912474
-16.0965 -20.7514 4.3000 1716634
-15.4539 -21.2704 4.3333 1586331
-14.7945 -21.7694 4.3667 1456027
-14.1190 -22.2480 4.4000 1260443
-13.4281 -22.7057 4.4333 1130139
-12.7223 -23.1418 4.4667 1000091
-12.0024 -23.5560 4.5000 869788
-11.2690 -23.9478 4.5333 805276
-10.5228 -24.3167 4.5667 674972
-9.7645 -24.6623 4.6000 544924
-8.9949 -24.9843 4.6333 480413
-8.2147 -25.2823 4.6667 415901
-7.4247 -25.5558 4.7000 351133
-6.6255 -25.8047 4.7333 286621
-5.8181 -26.0285 4.7667 222109
-5.0031 -26.2271 4.8000 157598
-4.1814 -26.4001 4.8333 93086
-3.3537 -26.5473 4.8667 94110
-2.5209 -26.6686 4.9000 29598
-1.6838 -26.7638 4.9333 30622
-0.8432 -26.8326 4.9667 31647
-0.0000 -26.8750 5.0000 32671
0.8451 -26.8909 5.0333 33695
1.6912 -26.8802 5.0667 34719
2.5374 -26.8428 5.1000 35744
3.3830 -26.7788 5.1333 102304
4.2270 -26.6882 5.1667 103328
5.0687 -26.5709 5.2000 169888
5.9071 -26.4270 5.2333 236448
6.7416 -26.2567 5.2667 303009
7.5711 -26.0600 5.3000 369569
8.3950 -25.8370 5.3333 435873
9.2123 -25.5880 5.3667 502433
10.0222 -25.3132 5.4000 568993
10.8239 -25.0126 5.4333 701090
11.6167 -24.6867 5.4667 832930
12.3996 -24.3356 5.5000 899490
13.1719 -23.9597 5.5333 1031330
13.9329 -23.5592 5.5667 1163426
14.6817 -23.1346 5.6000 1295267
15.4175 -22.6861 5.6333 1492899
16.1396 -22.2143 5.6667 1624739
16.8473 -21.7194 5.7000 1756579
17.5398 -21.2020 5.7333 1953956
18.2164 -20.6624 5.7667 2085796
18.8764 -20.1013 5.8000 2283172
19.5191 -19.5191 5.8333 2480548
20.1438 -18.9163 5.8667 2677924
20.7499 -18.2935 5.9000 2875301
21.3368 -17.6513 5.9333 3072421
21.9038 -16.9903 5.9667 3269797
22.4502 -16.3110 6.0000 3466917
22.9756 -15.6142 6.0333 3664037
23.4794 -14.9005 6.0667 3926950
23.9609 -14.1704 6.1000 4124070
24.4197 -13.4249 6.1333 4386726
24.8554 -12.6644 6.1667 4583846
25.2673 -11.8899 6.2000 4846247
25.6551 -11.1019 6.2333 5043367
26.0182 -10.3014 6.2667 5306023
26.3564 -9.4889 6.3000 5568423
26.6692 -8.6654 6.3333 5830823
26.9562 -7.8315 6.3667 6027688
27.2172 -6.9882 6.4000 6290088
27.4517 -6.1362 6.4333 6552488
27.6596 -5.2763 6.4667 6814888
27.8405 -4.4095 6.5000 7077288
27.9942 -3.5365 6.5333 7339433
28.1205 -2.6582 6.5667 7601833
28.2192 -1.7754 6.6000 7863977
28.2902 -0.8891 6.6333 8126121
28.3333 -0.0000 6.6667 8388522
28.3485 0.8909 6.7000 8650410
28.3356 1.7827 6.7333 8912554
28.2947 2.6746 6.7667 9174698
28.2257 3.5657 6.8000 9436586
28.1285 4.4551 6.8333 9698731
28.0034 5.3419 6.8667 9960619
27.8502 6.2253 6.9000 10222507
27.6692 7.1042 6.9333 10484395
27.4604 7.9780 6.9667 10746283
27.2240 8.8456 7.0000 10942636
26.9602 9.7063 7.0333 11204524
26.6691 10.5590 7.0667 11466412
26.3510 11.4031 7.1000 11728044
26.0062 12.2376 7.1333 11924140
25.6350 13.0617 7.1667 12186029
25.2376 13.8745 7.2000 12382125
24.8145 14.6752 7.2333 12643757
24.3659 15.4631 7.2667 12839853
23.8923 16.2372 7.3000 13101230
23.3941 16.9968 7.3333 13297326
22.8717 17.7411 7.3667 13493422
22.3256 18.4694 7.4000 13689262
21.7563 19.1808 7.4333 13885358
21.1644 19.8747 7.4667 14081199
20.5503 20.5503 7.5000 14277039
19.9146 21.2069 7.5333 14472879
19.2580 21.8439 7.5667 14668719
18.5809 22.4605 7.6000 14799023
17.8841 23.0561 7.6333 14994864
17.1682 23.6300 7.6667 15125168
16.4339 24.1818 7.7000 15255472
15.6819 24.7107 7.7333 15451056
14.9128 25.2162 7.7667 15581361
14.1274 25.6977 7.8000 15711409
13.3265 26.1548 7.8333 15841713
12.5108 26.5868 7.8667 15906225
11.6811 26.9935 7.9000 16036529
10.8382 27.3742 7.9333 16166578
9.9829 27.7285 7.9667 16231090
9.1160 28.0562 8.0000 16295602
8.2384 28.3567 8.0333 16360370
7.3509 28.6297 8.0667 16424882
6.4543 28.8749 8.1000 16489395
5.5496 29.0921 8.1333 16553907
4.6376 29.2808 8.1667 16618419
3.7193 29.4410 8.2000 16617395
2.7954 29.5723 8.2333 16681907
1.8670 29.6747 8.2667 16680884
0.9349 29.7478 8.3000 16679860
-0.0000 29.7917 8.3333 16744372
-0.9367 29.8061 8.3667 16677812
-1.8743 29.7911 8.4000 16676789
-2.8119 29.7466 8.4333 16675765
-3.7485 29.6725 8.4667 16609205
-4.6833 29.5689 8.5000 16608181
-5.6152 29.4359 8.5333 16541621
-6.5434 29.2734 8.5667 16475062
-7.4669 29.0817 8.6000 16408502
-8.3848 28.8608 8.6333 16341942
-9.2963 28.6110 8.6667 16275638
-10.2002 28.3323 8.7000 16209078
-11.0959 28.0250 8.7333 16142519
-11.9823 27.6894 8.7667 16010423
-12.8585 27.3258 8.8000 15878583
-13.7238 26.9344 8.8333 15812023
-14.5771 26.5156 8.8667 15680184
-15.4176 26.0697 8.9000 15548088
-16.2445 25.5972 8.9333 15416248
-17.0569 25.0984 8.9667 15218616
-17.8540 24.5739 9.0000 15086776
-18.6349 24.0240 9.0333 14954937
-19.3989 23.4493 9.0667 14757561
-20.1452 22.8503 9.1000 14625721
-20.8730 22.2275 9.1333 14428345
-21.5815 21.5815 9.1667 14230969
-22.2700 20.9129 9.2000 14033594
-22.9378 20.2224 9.2333 13836218
-23.5841 19.5105 9.2667 13639098
-24.2084 18.7779 9.3000 13441722
-24.8099 18.0254 9.3333 13244603
-25.3879 17.2536 9.3667 13047483
-25.9420 16.4633 9.4000 12784571
-26.4714 15.6551 9.4333 12587451
-26.9756 14.8300 9.4667 12324795
-27.4541 13.9886 9.5000 12127676
-27.9064 13.1317 9.5333 11865276
-28.3319 12.2603 9.5667 11668156
-28.7301 11.3750 9.6000 11405500
-29.1007 10.4769 9.6333 11143100
-29.4431 9.5667 9.6667 10880701
-29.7571 8.6452 9.7000 10683837
-30.0422 7.7135 9.7333 10421437
-30.2981 6.7724 9.7667 10159037
-30.5246 5.8229 9.8000 9896637
-30.7212 4.8658 9.8333 9634238
-30.8878 3.9020 9.8667 9372094
-31.0242 2.9327 9.9000 9109694
-31.1301 1.9585 9.9333 8847550
-31.2054 0.9807 9.9667 8585407
-31.2500 0.0000 10.0000 8323263
-31.2637 -0.9825 10.0333 8061119
-31.2466 -1.9659 10.0667 7798975
-31.1984 -2.9491 10.1000 7536831
-31.1193 -3.9313 10.1333 7274944
-31.0093 -4.9114 10.1667 7012800
-30.8684 -5.8885 10.2000 6750912
-30.6966 -6.8615 10.2333 6489024
-30.4942 -7.8296 10.2667 6227136
-30.2613 -8.7917 10.3000 5965249
-29.9979 -9.7469 10.3333 5768897
-29.7044 -10.6942 10.3667 5507009
-29.3809 -11.6327 10.4000 5245121
-29.0278 -12.5615 10.4333 4983490
-28.6453 -13.4795 10.4667 4787394
-28.2338 -14.3858 10.5000 4525506
-27.7935 -15.2796 10.5333 4329410
-27.3250 -16.1599 10.5667 4067778
-26.8285 -17.0259 10.6000 3871683
-26.3046 -17.8766 10.6333 3610307
-25.7537 -18.7112 10.6667 3414211
-25.1763 -19.5288 10.7000 3218115
-24.5730 -20.3285 10.7333 3022275
-23.9442 -21.1096 10.7667 2826180
-23.2905 -21.8713 10.8000 2630340
-22.6127 -22.6127 10.8333 2434500
-21.9112 -23.3331 10.8667 2238660
-21.1868 -24.0317 10.9000 2042820
-20.4401 -24.7078 10.9333 1912517
-19.6718 -25.3607 10.9667 1716677
-18.8826 -25.9897 11.0000 1586373
-18.0733 -26.5941 11.0333 1456069
-17.2447 -27.1733 11.0667 1260486
-16.3975 -27.7267 11.1000 1130182
-15.5325 -28.2536 11.1333 1000134
-14.6507 -28.7535 11.1667 869830
-13.7527 -29.2259 11.2000 805318
-12.8395 -29.6702 11.2333 675015
-11.9119 -30.0860 11.2667 544967
-10.9709 -30.4728 11.3000 480455
-10.0173 -30.8301 11.3333 415943
-9.0521 -31.1575 11.3667 351175
-8.0762 -31.4547 11.4000 286664
-7.0906 -31.7214 11.4333 222152
-6.0961 -31.9571 11.4667 157640
-5.0939 -32.1616 11.5000 93128
-4.0848 -32.3347 11.5333 94153
-3.0699 -32.4761 11.5667 29641
-2.0501 -32.5856 11.6000 30665
-1.0265 -32.6630 11.6333 31689
-0.0000 -32.7083 11.6667 32713
1.0283 -32.7213 11.7000 33738
2.0574 -32.7020 11.7333 34762
3.0864 -32.6503 11.7667 35786
4.1141 -32.5662 11.8000 102346
5.1395 -32.4497 11.8333 103370
6.1617 -32.3009 11.8667 169931
7.1796 -32.1199 11.9000 236491
8.1923 -31.9067 11.9333 303051
9.1986 -31.6617 11.9667 369611
10.1976 -31.3849 12.0000 435916
11.1882 -31.0765 12.0333 502476
12.1696 -30.7369 12.0667 569036
13.1406 -30.3662 12.1000 701132
14.1004 -29.9649 12.1333 832972
15.0479 -29.5332 12.1667 899533
15.9822 -29.0715 12.2000 1031373
16.9023 -28.5802 12.2333 1163469
17.8073 -28.0598 12.2667 1295309
18.6963 -27.5108 12.3000 1492941
19.5684 -26.9335 12.3333 1624782
20.4226 -26.3286 12.3667 1756622
21.2581 -25.6966 12.4000 1953998
22.0740 -25.0381 12.4333 2085838
22.8696 -24.3536 12.4667 2283214
23.6439 -23.6439 12.5000 2480591
24.3962 -22.9095 12.5333 2677967
25.1256 -22.1512 12.5667 2875343
25.8315 -21.3696 12.6000 3072463
26.5130 -20.5656 12.6333 3269840
27.1695 -19.7398 12.6667 3466960
27.8002 -18.8930 12.7000 3664080
28.4046 -18.0261 12.7333 3926992
28.9819 -17.1398 12.7667 4124112
29.5315 -16.2351 12.8000 4386769
30.0529 -15.3127 12.8333 4583889
30.5455 -14.3736 12.8667 4846289
31.0086 -13.4186 12.9000 5043409
31.4419 -12.4487 12.9333 5306065
31.8449 -11.4649 12.9667 5568466
32.2170 -10.4680 13.0000 5830866
32.5580 -9.4590 13.0333 6027730
32.8673 -8.4389 13.0667 6290130
33.1446 -7.4087 13.1000 6552531
33.3896 -6.3694 13.1333 6814931
33.6020 -5.3220 13.1667 7077331
33.7815 -4.2676 13.2000 7339475
33.9279 -3.2071 13.2333 7601875
34.0410 -2.1417 13.2667 7864020
34.1207 -1.0723 13.3000 8126164
34.1667 -0.0000 13.3333 8388564
34.1790 1.0741 13.3667 8650452
34.1575 2.1490 13.4000 8912596
34.1021 3.2236 13.4333 9174741
34.0130 4.2968 13.4667 9436629
33.8901 5.3677 13.5000 9698773
33.7334 6.4350 13.5333 9960661
33.5431 7.4978 13.5667 10222549
33.3193 8.5549 13.6000 10484438
33.0621 9.6054 13.6333 10746326
32.7718 10.6482 13.6667 10942678
32.4486 11.6822 13.7000 11204566
32.0928 12.7064 13.7333 11466455
31.7046 13.7198 13.7667 11728087
31.2844 14.7213 13.8000 11924183
30.8325 15.7100 13.8333 12186071
30.3494 16.6847 13.8667 12382167
29.8355 17.6446 13.9000 12643800
29.2911 18.5887 13.9333 12839896
28.7169 19.5160 13.9667 13101272
28.1133 20.4255 14.0000 13297368
27.4809 21.3164 14.0333 13493464
26.8203 22.1877 14.0667 13689305
26.1320 23.0385 14.1000 13885401
25.4167 23.8679 14.1333 14081241
24.6751 24.6751 14.1667 14277081
23.9078 25.4592 14.2000 14472922
23.1156 26.2195 14.2333 14668762
22.2992 26.9551 14.2667 14799066
21.4594 27.6653 14.3000 14994906
20.5970 28.3493 14.3333 15125210
19.7127 29.0064 14.3667 15255515
18.8075 29.6359 14.4000 15451099
17.8822 30.2372 14.4333 15581403
16.9377 30.8095 14.4667 15711451
15.9748 31.3523 14.5000 15841755
14.9945 31.8650 14.5333 15906268
13.9978 32.3470 14.5667 16036572
12.9856 32.7979 14.6000 16166620
11.9589 33.2170 14.6333 16231132
10.9186 33.6040 14.6667 16295645
9.8658 33.9584 14.7000 16360413
8.8015 34.2798 14.7333 16424925
7.7268 34.5678 14.7667 16489437
6.6427 34.8221 14.8000 16553949
5.5502 35.0424 14.8333 16618462
4.4504 35.2283 14.8667 16617438
3.3444 35.3798 14.9000 16681950
2.2332 35.4965 14.9333 16680926
1.1181 35.5783 14.9667 16679902
-0.0000 35.6250 15.0000 16744415
-1.1199 35.6366 15.0333 16677855
-2.2406 35.6129 15.0667 16676831
-3.3608 35.5540 15.1000 16675807
-4.4796 35.4598 15.1333 16609247
-5.5958 35.3304 15.1667 16608224
-6.7083 35.1659 15.2000 16541664
-7.8159 34.9663 15.2333 16475104
-8.9176 34.7318 15.2667 16408544
-10.0123 34.4625 15.3000 16341985
-11.0989 34.1588 15.3333 16275681
-12.1762 33.8207 15.3667 16209121
-13.2433 33.4487 15.4000 16142561
-14.2990 33.0430 15.4333 16010465
-15.3422 32.6039 15.4667 15878626
-16.3720 32.1319 15.5000 15812066
-17.3873 31.6274 15.5333 15680226
-18.3870 31.0907 15.5667 15548130
-19.3701 30.5225 15.6000 15416290
-20.3357 29.9231 15.6333 15218659
-21.2827 29.2932 15.6667 15086819
-22.2102 28.6332 15.7000 14954979
-23.1172 27.9439 15.7333 14757603
-24.0029 27.2259 15.7667 14625764
-24.8662 26.4798 15.8000 14428388
-25.7063 25.7063 15.8333 14231012
-26.5223 24.9061 15.8667 14033636
-27.3134 24.0800 15.9000 13836260
-28.0788 23.2288 15.9333 13639141
-28.8176 22.3532 15.9667 13441765
-29.5291 21.4542 16.0000 13244645
-30.2126 20.5324 16.0333 13047525
-30.8672 19.5889 16.0667 12784613
-31.4924 18.6246 16.1000 12587494
-32.0874 17.6402 16.1333 12324838
-32.6517 16.6369 16.1667 12127718
-33.1845 15.6155 16.2000 11865318
-33.6854 14.5770 16.2333 11668198
-34.1538 13.5224 16.2667 11405543
-34.5891 12.4529 16.3000 11143143
-34.9910 11.3693 16.3333 10880743
-35.3588 10.2727 16.3667 10683879
-35.6923 9.1642 16.4000 10421480
-35.9910 8.0449 16.4333 10159080
-36.2546 6.9159 16.4667 9896680
-36.4827 5.7783 16.5000 9634280
-36.6752 4.6332 16.5333 9372136
-36.8316 3.4816 16.5667 9109737
-36.9519 2.3248 16.6000 8847593
-37.0359 1.1639 16.6333 8585449
-37.0833 0.0000 16.6667 8323305
-37.0942 -1.1657 16.7000 8061161
-37.0684 -2.3321 16.7333 7799018
-37.0059 -3.4981 16.7667 7536874
-36.9067 -4.6624 16.8000 7274986
-36.7708 -5.8239 16.8333 7012842
-36.5984 -6.9815 16.8667 6750955
-36.3895 -8.1340 16.9000 6489067
-36.1443 -9.2803 16.9333 6227179
-35.8630 -10.4192 16.9667 5965291
-35.5457 -11.5495 17.0000 5768939
-35.1929 -12.6702 17.0333 5507052
-34.8046 -13.7801 17.0667 5245164
-34.3814 -14.8782 17.1000 4983532
-33.9235 -15.9632 17.1333 4787436
-33.4313 -17.0341 17.1667 4525548
-32.9053 -18.0899 17.2000 4329453
-32.3460 -19.1294 17.2333 4067821
-31.7538 -20.1516 17.2667 3871725
-31.1292 -21.1554 17.3000 3610349
-30.4730 -22.1399 17.3333 3414254
-29.7856 -23.1040 17.3667 3218158
-29.0676 -24.0468 17.4000 3022318
-28.3198 -24.9673 17.4333 2826222
-27.5429 -25.8645 17.4667 2630382
-26.7375 -26.7375 17.5000 2434543
-25.9044 -27.5854 17.5333 2238703
-25.0444 -28.4073 17.5667 2042863
-24.1584 -29.2025 17.6000 1912559
-23.2471 -29.9699 17.6333 1716719
-22.3113 -30.7089 17.6667 1586416
-21.3521 -31.4187 17.7000 1456112
-20.3703 -32.0985 17.7333 1260528
-19.3669 -32.7476 17.7667 1130224
-18.3428 -33.3654 17.8000 1000176
-17.2989 -33.9511 17.8333 869873
-16.2364 -34.5041 17.8667 805361
-15.1562 -35.0238 17.9000 675057
-14.0593 -35.5097 17.9333 545009
-12.9468 -35.9612 17.9667 480498
-11.8199 -36.3779 18.0000 415986
-10.6795 -36.7592 18.0333 351218
-9.5269 -37.1048 18.0667 286706
-8.3631 -37.4142 18.1000 222194
-7.1892 -37.6871 18.1333 157683
-6.0064 -37.9231 18.1667 93171
-4.8159 -38.1220 18.2000 94195
-3.6189 -38.2835 18.2333 29683
-2.4164 -38.4074 18.2667 30707
-1.2097 -38.4935 18.3000 31732
-0.0000 -38.5417 18.3333 32756
1.2115 -38.5518 18.3667 33780
2.4237 -38.5238 18.4000 34804
3.6353 -38.4577 18.4333 35829
4.8452 -38.3535 18.4667 102389
6.0521 -38.2112 18.5000 103413
7.2548 -38.0309 18.5333 169973
8.4521 -37.8127 18.5667 236533
9.6430 -37.5568 18.6000 303094
10.8260 -37.2634 18.6333 369654
12.0002 -36.9327 18.6667 435958
13.1642 -36.5650 18.7000 502518
14.3170 -36.1606 18.7333 569078
15.4573 -35.7198 18.7667 701175
16.5841 -35.2430 18.8000 833015
17.6962 -34.7307 18.8333 899575
18.7924 -34.1833 18.8667 1031415
19.8717 -33.6012 18.9000 1163511
20.9330 -32.9851 18.9333 1295352
21.9751 -32.3354 18.9667 1492984
22.9971 -31.6528 19.0000 1624824
23.9979 -30.9379 19.0333 1756664
24.9764 -30.1913 19.0667 1954041
25.9317 -29.4137 19.1000 2085881
26.8628 -28.6059 19.1333 2283257
27.7687 -27.7687 19.1667 2480633
28.6485 -26.9027 19.2000 2678009
29.5012 -26.0088 19.2333 2875386
30.3261 -25.0879 19.2667 3072506
31.1222 -24.1409 19.3000 3269882
31.8888 -23.1685 19.3333 3467002
32.6249 -22.1718 19.3667 3664122
33.3298 -21.1518 19.4000 3927035
34.0029 -20.1093 19.4333 4124155
34.6433 -19.0453 19.4667 4386811
35.2504 -17.9610 19.5000 4583931
35.8236 -16.8573 19.5333 4846332
36.3622 -15.7353 19.5667 5043452
36.8656 -14.5961 19.6000 5306108
37.3334 -13.4408 19.6333 5568508
37.7649 -12.2705 19.6667 5830908
38.1597 -11.0864 19.7000 6027773
38.5173 -9.8896 19.7333 6290173
38.8374 -8.6812 19.7667 6552573
39.1196 -7.4625 19.8000 6814973
39.3635 -6.2346 19.8333 7077373
39.5688 -4.9987 19.8667 7339518
39.7354 -3.7561 19.9000 7601918
39.8629 -2.5080 19.9333 7864062
39.9511 -1.2555 19.9667 8126206
