ply
format ascii 1.0
comment Created for ModelPeek Sample Suite
element vertex 384
property float x
property float y
property float z
property uchar red
property uchar green
property uchar blue
element face 768
property list uchar int vertex_indices
end_header
33.000 0.000 0.000 128 255 200
32.391 0.000 3.061 128 245 200
30.657 0.000 5.657 128 217 200
28.061 0.000 7.391 128 176 200
25.000 0.000 8.000 128 128 200
21.939 0.000 7.391 128 79 200
19.343 0.000 5.657 128 38 200
17.609 0.000 3.061 128 10 200
17.000 0.000 0.000 128 1 200
17.609 0.000 -3.061 128 10 200
19.343 0.000 -5.657 128 38 200
21.939 0.000 -7.391 128 79 200
25.000 0.000 -8.000 128 127 200
28.061 0.000 -7.391 128 176 200
30.657 0.000 -5.657 128 217 200
32.391 0.000 -3.061 128 245 200
31.876 8.541 0.000 160 255 200
31.287 8.383 3.061 160 245 200
29.612 7.935 5.657 160 217 200
27.105 7.263 7.391 160 176 200
24.148 6.470 8.000 160 128 200
21.191 5.678 7.391 160 79 200
18.684 5.006 5.657 160 38 200
17.009 4.558 3.061 160 10 200
16.421 4.400 0.000 160 1 200
17.009 4.558 -3.061 160 10 200
18.684 5.006 -5.657 160 38 200
21.191 5.678 -7.391 160 79 200
24.148 6.470 -8.000 160 127 200
27.105 7.263 -7.391 160 176 200
29.612 7.935 -5.657 160 217 200
31.287 8.383 -3.061 160 245 200
28.579 16.500 0.000 191 255 200
28.051 16.196 3.061 191 245 200
26.550 15.328 5.657 191 217 200
24.302 14.031 7.391 191 176 200
21.651 12.500 8.000 191 128 200
18.999 10.969 7.391 191 79 200
16.752 9.672 5.657 191 38 200
15.250 8.804 3.061 191 10 200
14.722 8.500 0.000 191 1 200
15.250 8.804 -3.061 191 10 200
16.752 9.672 -5.657 191 38 200
18.999 10.969 -7.391 191 79 200
21.651 12.500 -8.000 191 127 200
24.302 14.031 -7.391 191 176 200
26.550 15.328 -5.657 191 217 200
28.051 16.196 -3.061 191 245 200
23.335 23.335 0.000 217 255 200
22.904 22.904 3.061 217 245 200
21.678 21.678 5.657 217 217 200
19.842 19.842 7.391 217 176 200
17.678 17.678 8.000 217 128 200
15.513 15.513 7.391 217 79 200
13.678 13.678 5.657 217 38 200
12.451 12.451 3.061 217 10 200
12.021 12.021 0.000 217 1 200
12.451 12.451 -3.061 217 10 200
13.678 13.678 -5.657 217 38 200
15.513 15.513 -7.391 217 79 200
17.678 17.678 -8.000 217 127 200
19.842 19.842 -7.391 217 176 200
21.678 21.678 -5.657 217 217 200
22.904 22.904 -3.061 217 245 200
16.500 28.579 0.000 237 255 200
16.196 28.051 3.061 237 245 200
15.328 26.550 5.657 237 217 200
14.031 24.302 7.391 237 176 200
12.500 21.651 8.000 237 128 200
10.969 18.999 7.391 237 79 200
9.672 16.752 5.657 237 38 200
8.804 15.250 3.061 237 10 200
8.500 14.722 0.000 237 1 200
8.804 15.250 -3.061 237 10 200
9.672 16.752 -5.657 237 38 200
10.969 18.999 -7.391 237 79 200
12.500 21.651 -8.000 237 127 200
14.031 24.302 -7.391 237 176 200
15.328 26.550 -5.657 237 217 200
16.196 28.051 -3.061 237 245 200
8.541 31.876 0.000 250 255 200
8.383 31.287 3.061 250 245 200
7.935 29.612 5.657 250 217 200
7.263 27.105 7.391 250 176 200
6.470 24.148 8.000 250 128 200
5.678 21.191 7.391 250 79 200
5.006 18.684 5.657 250 38 200
4.558 17.009 3.061 250 10 200
4.400 16.421 0.000 250 1 200
4.558 17.009 -3.061 250 10 200
5.006 18.684 -5.657 250 38 200
5.678 21.191 -7.391 250 79 200
6.470 24.148 -8.000 250 127 200
7.263 27.105 -7.391 250 176 200
7.935 29.612 -5.657 250 217 200
8.383 31.287 -3.061 250 245 200
0.000 33.000 0.000 255 255 200
0.000 32.391 3.061 255 245 200
0.000 30.657 5.657 255 217 200
0.000 28.061 7.391 255 176 200
0.000 25.000 8.000 255 128 200
0.000 21.939 7.391 255 79 200
0.000 19.343 5.657 255 38 200
0.000 17.609 3.061 255 10 200
0.000 17.000 0.000 255 1 200
0.000 17.609 -3.061 255 10 200
0.000 19.343 -5.657 255 38 200
0.000 21.939 -7.391 255 79 200
0.000 25.000 -8.000 255 127 200
0.000 28.061 -7.391 255 176 200
0.000 30.657 -5.657 255 217 200
0.000 32.391 -3.061 255 245 200
-8.541 31.876 0.000 250 255 200
-8.383 31.287 3.061 250 245 200
-7.935 29.612 5.657 250 217 200
-7.263 27.105 7.391 250 176 200
-6.470 24.148 8.000 250 128 200
-5.678 21.191 7.391 250 79 200
-5.006 18.684 5.657 250 38 200
-4.558 17.009 3.061 250 10 200
-4.400 16.421 0.000 250 1 200
-4.558 17.009 -3.061 250 10 200
-5.006 18.684 -5.657 250 38 200
-5.678 21.191 -7.391 250 79 200
-6.470 24.148 -8.000 250 127 200
-7.263 27.105 -7.391 250 176 200
-7.935 29.612 -5.657 250 217 200
-8.383 31.287 -3.061 250 245 200
-16.500 28.579 0.000 237 255 200
-16.196 28.051 3.061 237 245 200
-15.328 26.550 5.657 237 217 200
-14.031 24.302 7.391 237 176 200
-12.500 21.651 8.000 237 128 200
-10.969 18.999 7.391 237 79 200
-9.672 16.752 5.657 237 38 200
-8.804 15.250 3.061 237 10 200
-8.500 14.722 0.000 237 1 200
-8.804 15.250 -3.061 237 10 200
-9.672 16.752 -5.657 237 38 200
-10.969 18.999 -7.391 237 79 200
-12.500 21.651 -8.000 237 127 200
-14.031 24.302 -7.391 237 176 200
-15.328 26.550 -5.657 237 217 200
-16.196 28.051 -3.061 237 245 200
-23.335 23.335 0.000 217 255 200
-22.904 22.904 3.061 217 245 200
-21.678 21.678 5.657 217 217 200
-19.842 19.842 7.391 217 176 200
-17.678 17.678 8.000 217 128 200
-15.513 15.513 7.391 217 79 200
-13.678 13.678 5.657 217 38 200
-12.451 12.451 3.061 217 10 200
-12.021 12.021 0.000 217 1 200
-12.451 12.451 -3.061 217 10 200
-13.678 13.678 -5.657 217 38 200
-15.513 15.513 -7.391 217 79 200
-17.678 17.678 -8.000 217 127 200
-19.842 19.842 -7.391 217 176 200
-21.678 21.678 -5.657 217 217 200
-22.904 22.904 -3.061 217 245 200
-28.579 16.500 0.000 191 255 200
-28.051 16.196 3.061 191 245 200
-26.550 15.328 5.657 191 217 200
-24.302 14.031 7.391 191 176 200
-21.651 12.500 8.000 191 128 200
-18.999 10.969 7.391 191 79 200
-16.752 9.672 5.657 191 38 200
-15.250 8.804 3.061 191 10 200
-14.722 8.500 0.000 191 1 200
-15.250 8.804 -3.061 191 10 200
-16.752 9.672 -5.657 191 38 200
-18.999 10.969 -7.391 191 79 200
-21.651 12.500 -8.000 191 127 200
-24.302 14.031 -7.391 191 176 200
-26.550 15.328 -5.657 191 217 200
-28.051 16.196 -3.061 191 245 200
-31.876 8.541 0.000 160 255 200
-31.287 8.383 3.061 160 245 200
-29.612 7.935 5.657 160 217 200
-27.105 7.263 7.391 160 176 200
-24.148 6.470 8.000 160 128 200
-21.191 5.678 7.391 160 79 200
-18.684 5.006 5.657 160 38 200
-17.009 4.558 3.061 160 10 200
-16.421 4.400 0.000 160 1 200
-17.009 4.558 -3.061 160 10 200
-18.684 5.006 -5.657 160 38 200
-21.191 5.678 -7.391 160 79 200
-24.148 6.470 -8.000 160 127 200
-27.105 7.263 -7.391 160 176 200
-29.612 7.935 -5.657 160 217 200
-31.287 8.383 -3.061 160 245 200
-33.000 0.000 0.000 128 255 200
-32.391 0.000 3.061 128 245 200
-30.657 0.000 5.657 128 217 200
-28.061 0.000 7.391 128 176 200
-25.000 0.000 8.000 128 128 200
-21.939 0.000 7.391 128 79 200
-19.343 0.000 5.657 128 38 200
-17.609 0.000 3.061 128 10 200
-17.000 0.000 0.000 128 1 200
-17.609 0.000 -3.061 128 10 200
-19.343 0.000 -5.657 128 38 200
-21.939 0.000 -7.391 128 79 200
-25.000 0.000 -8.000 128 127 200
-28.061 0.000 -7.391 128 176 200
-30.657 0.000 -5.657 128 217 200
-32.391 0.000 -3.061 128 245 200
-31.876 -8.541 0.000 95 255 200
-31.287 -8.383 3.061 95 245 200
-29.612 -7.935 5.657 95 217 200
-27.105 -7.263 7.391 95 176 200
-24.148 -6.470 8.000 95 128 200
-21.191 -5.678 7.391 95 79 200
-18.684 -5.006 5.657 95 38 200
-17.009 -4.558 3.061 95 10 200
-16.421 -4.400 0.000 95 1 200
-17.009 -4.558 -3.061 95 10 200
-18.684 -5.006 -5.657 95 38 200
-21.191 -5.678 -7.391 95 79 200
-24.148 -6.470 -8.000 95 127 200
-27.105 -7.263 -7.391 95 176 200
-29.612 -7.935 -5.657 95 217 200
-31.287 -8.383 -3.061 95 245 200
-28.579 -16.500 0.000 64 255 200
-28.051 -16.196 3.061 64 245 200
-26.550 -15.328 5.657 64 217 200
-24.302 -14.031 7.391 64 176 200
-21.651 -12.500 8.000 64 128 200
-18.999 -10.969 7.391 64 79 200
-16.752 -9.672 5.657 64 38 200
-15.250 -8.804 3.061 64 10 200
-14.722 -8.500 0.000 64 1 200
-15.250 -8.804 -3.061 64 10 200
-16.752 -9.672 -5.657 64 38 200
-18.999 -10.969 -7.391 64 79 200
-21.651 -12.500 -8.000 64 127 200
-24.302 -14.031 -7.391 64 176 200
-26.550 -15.328 -5.657 64 217 200
-28.051 -16.196 -3.061 64 245 200
-23.335 -23.335 0.000 38 255 200
-22.904 -22.904 3.061 38 245 200
-21.678 -21.678 5.657 38 217 200
-19.842 -19.842 7.391 38 176 200
-17.678 -17.678 8.000 38 128 200
-15.513 -15.513 7.391 38 79 200
-13.678 -13.678 5.657 38 38 200
-12.451 -12.451 3.061 38 10 200
-12.021 -12.021 0.000 38 1 200
-12.451 -12.451 -3.061 38 10 200
-13.678 -13.678 -5.657 38 38 200
-15.513 -15.513 -7.391 38 79 200
-17.678 -17.678 -8.000 38 127 200
-19.842 -19.842 -7.391 38 176 200
-21.678 -21.678 -5.657 38 217 200
-22.904 -22.904 -3.061 38 245 200
-16.500 -28.579 0.000 18 255 200
-16.196 -28.051 3.061 18 245 200
-15.328 -26.550 5.657 18 217 200
-14.031 -24.302 7.391 18 176 200
-12.500 -21.651 8.000 18 128 200
-10.969 -18.999 7.391 18 79 200
-9.672 -16.752 5.657 18 38 200
-8.804 -15.250 3.061 18 10 200
-8.500 -14.722 0.000 18 1 200
-8.804 -15.250 -3.061 18 10 200
-9.672 -16.752 -5.657 18 38 200
-10.969 -18.999 -7.391 18 79 200
-12.500 -21.651 -8.000 18 127 200
-14.031 -24.302 -7.391 18 176 200
-15.328 -26.550 -5.657 18 217 200
-16.196 -28.051 -3.061 18 245 200
-8.541 -31.876 0.000 5 255 200
-8.383 -31.287 3.061 5 245 200
-7.935 -29.612 5.657 5 217 200
-7.263 -27.105 7.391 5 176 200
-6.470 -24.148 8.000 5 128 200
-5.678 -21.191 7.391 5 79 200
-5.006 -18.684 5.657 5 38 200
-4.558 -17.009 3.061 5 10 200
-4.400 -16.421 0.000 5 1 200
-4.558 -17.009 -3.061 5 10 200
-5.006 -18.684 -5.657 5 38 200
-5.678 -21.191 -7.391 5 79 200
-6.470 -24.148 -8.000 5 127 200
-7.263 -27.105 -7.391 5 176 200
-7.935 -29.612 -5.657 5 217 200
-8.383 -31.287 -3.061 5 245 200
-0.000 -33.000 0.000 1 255 200
-0.000 -32.391 3.061 1 245 200
-0.000 -30.657 5.657 1 217 200
-0.000 -28.061 7.391 1 176 200
-0.000 -25.000 8.000 1 128 200
-0.000 -21.939 7.391 1 79 200
-0.000 -19.343 5.657 1 38 200
-0.000 -17.609 3.061 1 10 200
-0.000 -17.000 0.000 1 1 200
-0.000 -17.609 -3.061 1 10 200
-0.000 -19.343 -5.657 1 38 200
-0.000 -21.939 -7.391 1 79 200
-0.000 -25.000 -8.000 1 127 200
-0.000 -28.061 -7.391 1 176 200
-0.000 -30.657 -5.657 1 217 200
-0.000 -32.391 -3.061 1 245 200
8.541 -31.876 0.000 5 255 200
8.383 -31.287 3.061 5 245 200
7.935 -29.612 5.657 5 217 200
7.263 -27.105 7.391 5 176 200
6.470 -24.148 8.000 5 128 200
5.678 -21.191 7.391 5 79 200
5.006 -18.684 5.657 5 38 200
4.558 -17.009 3.061 5 10 200
4.400 -16.421 0.000 5 1 200
4.558 -17.009 -3.061 5 10 200
5.006 -18.684 -5.657 5 38 200
5.678 -21.191 -7.391 5 79 200
6.470 -24.148 -8.000 5 127 200
7.263 -27.105 -7.391 5 176 200
7.935 -29.612 -5.657 5 217 200
8.383 -31.287 -3.061 5 245 200
16.500 -28.579 0.000 18 255 200
16.196 -28.051 3.061 18 245 200
15.328 -26.550 5.657 18 217 200
14.031 -24.302 7.391 18 176 200
12.500 -21.651 8.000 18 128 200
10.969 -18.999 7.391 18 79 200
9.672 -16.752 5.657 18 38 200
8.804 -15.250 3.061 18 10 200
8.500 -14.722 0.000 18 1 200
8.804 -15.250 -3.061 18 10 200
9.672 -16.752 -5.657 18 38 200
10.969 -18.999 -7.391 18 79 200
12.500 -21.651 -8.000 18 127 200
14.031 -24.302 -7.391 18 176 200
15.328 -26.550 -5.657 18 217 200
16.196 -28.051 -3.061 18 245 200
23.335 -23.335 0.000 38 255 200
22.904 -22.904 3.061 38 245 200
21.678 -21.678 5.657 38 217 200
19.842 -19.842 7.391 38 176 200
17.678 -17.678 8.000 38 128 200
15.513 -15.513 7.391 38 79 200
13.678 -13.678 5.657 38 38 200
12.451 -12.451 3.061 38 10 200
12.021 -12.021 0.000 38 1 200
12.451 -12.451 -3.061 38 10 200
13.678 -13.678 -5.657 38 38 200
15.513 -15.513 -7.391 38 79 200
17.678 -17.678 -8.000 38 127 200
19.842 -19.842 -7.391 38 176 200
21.678 -21.678 -5.657 38 217 200
22.904 -22.904 -3.061 38 245 200
28.579 -16.500 0.000 64 255 200
28.051 -16.196 3.061 64 245 200
26.550 -15.328 5.657 64 217 200
24.302 -14.031 7.391 64 176 200
21.651 -12.500 8.000 64 128 200
18.999 -10.969 7.391 64 79 200
16.752 -9.672 5.657 64 38 200
15.250 -8.804 3.061 64 10 200
14.722 -8.500 0.000 64 1 200
15.250 -8.804 -3.061 64 10 200
16.752 -9.672 -5.657 64 38 200
18.999 -10.969 -7.391 64 79 200
21.651 -12.500 -8.000 64 127 200
24.302 -14.031 -7.391 64 176 200
26.550 -15.328 -5.657 64 217 200
28.051 -16.196 -3.061 64 245 200
31.876 -8.541 0.000 95 255 200
31.287 -8.383 3.061 95 245 200
29.612 -7.935 5.657 95 217 200
27.105 -7.263 7.391 95 176 200
24.148 -6.470 8.000 95 128 200
21.191 -5.678 7.391 95 79 200
18.684 -5.006 5.657 95 38 200
17.009 -4.558 3.061 95 10 200
16.421 -4.400 0.000 95 1 200
17.009 -4.558 -3.061 95 10 200
18.684 -5.006 -5.657 95 38 200
21.191 -5.678 -7.391 95 79 200
24.148 -6.470 -8.000 95 127 200
27.105 -7.263 -7.391 95 176 200
29.612 -7.935 -5.657 95 217 200
31.287 -8.383 -3.061 95 245 200
3 0 16 17
3 0 17 1
3 1 17 18
3 1 18 2
3 2 18 19
3 2 19 3
3 3 19 20
3 3 20 4
3 4 20 21
3 4 21 5
3 5 21 22
3 5 22 6
3 6 22 23
3 6 23 7
3 7 23 24
3 7 24 8
3 8 24 25
3 8 25 9
3 9 25 26
3 9 26 10
3 10 26 27
3 10 27 11
3 11 27 28
3 11 28 12
3 12 28 29
3 12 29 13
3 13 29 30
3 13 30 14
3 14 30 31
3 14 31 15
3 15 31 16
3 15 16 0
3 16 32 33
3 16 33 17
3 17 33 34
3 17 34 18
3 18 34 35
3 18 35 19
3 19 35 36
3 19 36 20
3 20 36 37
3 20 37 21
3 21 37 38
3 21 38 22
3 22 38 39
3 22 39 23
3 23 39 40
3 23 40 24
3 24 40 41
3 24 41 25
3 25 41 42
3 25 42 26
3 26 42 43
3 26 43 27
3 27 43 44
3 27 44 28
3 28 44 45
3 28 45 29
3 29 45 46
3 29 46 30
3 30 46 47
3 30 47 31
3 31 47 32
3 31 32 16
3 32 48 49
3 32 49 33
3 33 49 50
3 33 50 34
3 34 50 51
3 34 51 35
3 35 51 52
3 35 52 36
3 36 52 53
3 36 53 37
3 37 53 54
3 37 54 38
3 38 54 55
3 38 55 39
3 39 55 56
3 39 56 40
3 40 56 57
3 40 57 41
3 41 57 58
3 41 58 42
3 42 58 59
3 42 59 43
3 43 59 60
3 43 60 44
3 44 60 61
3 44 61 45
3 45 61 62
3 45 62 46
3 46 62 63
3 46 63 47
3 47 63 48
3 47 48 32
3 48 64 65
3 48 65 49
3 49 65 66
3 49 66 50
3 50 66 67
3 50 67 51
3 51 67 68
3 51 68 52
3 52 68 69
3 52 69 53
3 53 69 70
3 53 70 54
3 54 70 71
3 54 71 55
3 55 71 72
3 55 72 56
3 56 72 73
3 56 73 57
3 57 73 74
3 57 74 58
3 58 74 75
3 58 75 59
3 59 75 76
3 59 76 60
3 60 76 77
3 60 77 61
3 61 77 78
3 61 78 62
3 62 78 79
3 62 79 63
3 63 79 64
3 63 64 48
3 64 80 81
3 64 81 65
3 65 81 82
3 65 82 66
3 66 82 83
3 66 83 67
3 67 83 84
3 67 84 68
3 68 84 85
3 68 85 69
3 69 85 86
3 69 86 70
3 70 86 87
3 70 87 71
3 71 87 88
3 71 88 72
3 72 88 89
3 72 89 73
3 73 89 90
3 73 90 74
3 74 90 91
3 74 91 75
3 75 91 92
3 75 92 76
3 76 92 93
3 76 93 77
3 77 93 94
3 77 94 78
3 78 94 95
3 78 95 79
3 79 95 80
3 79 80 64
3 80 96 97
3 80 97 81
3 81 97 98
3 81 98 82
3 82 98 99
3 82 99 83
3 83 99 100
3 83 100 84
3 84 100 101
3 84 101 85
3 85 101 102
3 85 102 86
3 86 102 103
3 86 103 87
3 87 103 104
3 87 104 88
3 88 104 105
3 88 105 89
3 89 105 106
3 89 106 90
3 90 106 107
3 90 107 91
3 91 107 108
3 91 108 92
3 92 108 109
3 92 109 93
3 93 109 110
3 93 110 94
3 94 110 111
3 94 111 95
3 95 111 96
3 95 96 80
3 96 112 113
3 96 113 97
3 97 113 114
3 97 114 98
3 98 114 115
3 98 115 99
3 99 115 116
3 99 116 100
3 100 116 117
3 100 117 101
3 101 117 118
3 101 118 102
3 102 118 119
3 102 119 103
3 103 119 120
3 103 120 104
3 104 120 121
3 104 121 105
3 105 121 122
3 105 122 106
3 106 122 123
3 106 123 107
3 107 123 124
3 107 124 108
3 108 124 125
3 108 125 109
3 109 125 126
3 109 126 110
3 110 126 127
3 110 127 111
3 111 127 112
3 111 112 96
3 112 128 129
3 112 129 113
3 113 129 130
3 113 130 114
3 114 130 131
3 114 131 115
3 115 131 132
3 115 132 116
3 116 132 133
3 116 133 117
3 117 133 134
3 117 134 118
3 118 134 135
3 118 135 119
3 119 135 136
3 119 136 120
3 120 136 137
3 120 137 121
3 121 137 138
3 121 138 122
3 122 138 139
3 122 139 123
3 123 139 140
3 123 140 124
3 124 140 141
3 124 141 125
3 125 141 142
3 125 142 126
3 126 142 143
3 126 143 127
3 127 143 128
3 127 128 112
3 128 144 145
3 128 145 129
3 129 145 146
3 129 146 130
3 130 146 147
3 130 147 131
3 131 147 148
3 131 148 132
3 132 148 149
3 132 149 133
3 133 149 150
3 133 150 134
3 134 150 151
3 134 151 135
3 135 151 152
3 135 152 136
3 136 152 153
3 136 153 137
3 137 153 154
3 137 154 138
3 138 154 155
3 138 155 139
3 139 155 156
3 139 156 140
3 140 156 157
3 140 157 141
3 141 157 158
3 141 158 142
3 142 158 159
3 142 159 143
3 143 159 144
3 143 144 128
3 144 160 161
3 144 161 145
3 145 161 162
3 145 162 146
3 146 162 163
3 146 163 147
3 147 163 164
3 147 164 148
3 148 164 165
3 148 165 149
3 149 165 166
3 149 166 150
3 150 166 167
3 150 167 151
3 151 167 168
3 151 168 152
3 152 168 169
3 152 169 153
3 153 169 170
3 153 170 154
3 154 170 171
3 154 171 155
3 155 171 172
3 155 172 156
3 156 172 173
3 156 173 157
3 157 173 174
3 157 174 158
3 158 174 175
3 158 175 159
3 159 175 160
3 159 160 144
3 160 176 177
3 160 177 161
3 161 177 178
3 161 178 162
3 162 178 179
3 162 179 163
3 163 179 180
3 163 180 164
3 164 180 181
3 164 181 165
3 165 181 182
3 165 182 166
3 166 182 183
3 166 183 167
3 167 183 184
3 167 184 168
3 168 184 185
3 168 185 169
3 169 185 186
3 169 186 170
3 170 186 187
3 170 187 171
3 171 187 188
3 171 188 172
3 172 188 189
3 172 189 173
3 173 189 190
3 173 190 174
3 174 190 191
3 174 191 175
3 175 191 176
3 175 176 160
3 176 192 193
3 176 193 177
3 177 193 194
3 177 194 178
3 178 194 195
3 178 195 179
3 179 195 196
3 179 196 180
3 180 196 197
3 180 197 181
3 181 197 198
3 181 198 182
3 182 198 199
3 182 199 183
3 183 199 200
3 183 200 184
3 184 200 201
3 184 201 185
3 185 201 202
3 185 202 186
3 186 202 203
3 186 203 187
3 187 203 204
3 187 204 188
3 188 204 205
3 188 205 189
3 189 205 206
3 189 206 190
3 190 206 207
3 190 207 191
3 191 207 192
3 191 192 176
3 192 208 209
3 192 209 193
3 193 209 210
3 193 210 194
3 194 210 211
3 194 211 195
3 195 211 212
3 195 212 196
3 196 212 213
3 196 213 197
3 197 213 214
3 197 214 198
3 198 214 215
3 198 215 199
3 199 215 216
3 199 216 200
3 200 216 217
3 200 217 201
3 201 217 218
3 201 218 202
3 202 218 219
3 202 219 203
3 203 219 220
3 203 220 204
3 204 220 221
3 204 221 205
3 205 221 222
3 205 222 206
3 206 222 223
3 206 223 207
3 207 223 208
3 207 208 192
3 208 224 225
3 208 225 209
3 209 225 226
3 209 226 210
3 210 226 227
3 210 227 211
3 211 227 228
3 211 228 212
3 212 228 229
3 212 229 213
3 213 229 230
3 213 230 214
3 214 230 231
3 214 231 215
3 215 231 232
3 215 232 216
3 216 232 233
3 216 233 217
3 217 233 234
3 217 234 218
3 218 234 235
3 218 235 219
3 219 235 236
3 219 236 220
3 220 236 237
3 220 237 221
3 221 237 238
3 221 238 222
3 222 238 239
3 222 239 223
3 223 239 224
3 223 224 208
3 224 240 241
3 224 241 225
3 225 241 242
3 225 242 226
3 226 242 243
3 226 243 227
3 227 243 244
3 227 244 228
3 228 244 245
3 228 245 229
3 229 245 246
3 229 246 230
3 230 246 247
3 230 247 231
3 231 247 248
3 231 248 232
3 232 248 249
3 232 249 233
3 233 249 250
3 233 250 234
3 234 250 251
3 234 251 235
3 235 251 252
3 235 252 236
3 236 252 253
3 236 253 237
3 237 253 254
3 237 254 238
3 238 254 255
3 238 255 239
3 239 255 240
3 239 240 224
3 240 256 257
3 240 257 241
3 241 257 258
3 241 258 242
3 242 258 259
3 242 259 243
3 243 259 260
3 243 260 244
3 244 260 261
3 244 261 245
3 245 261 262
3 245 262 246
3 246 262 263
3 246 263 247
3 247 263 264
3 247 264 248
3 248 264 265
3 248 265 249
3 249 265 266
3 249 266 250
3 250 266 267
3 250 267 251
3 251 267 268
3 251 268 252
3 252 268 269
3 252 269 253
3 253 269 270
3 253 270 254
3 254 270 271
3 254 271 255
3 255 271 256
3 255 256 240
3 256 272 273
3 256 273 257
3 257 273 274
3 257 274 258
3 258 274 275
3 258 275 259
3 259 275 276
3 259 276 260
3 260 276 277
3 260 277 261
3 261 277 278
3 261 278 262
3 262 278 279
3 262 279 263
3 263 279 280
3 263 280 264
3 264 280 281
3 264 281 265
3 265 281 282
3 265 282 266
3 266 282 283
3 266 283 267
3 267 283 284
3 267 284 268
3 268 284 285
3 268 285 269
3 269 285 286
3 269 286 270
3 270 286 287
3 270 287 271
3 271 287 272
3 271 272 256
3 272 288 289
3 272 289 273
3 273 289 290
3 273 290 274
3 274 290 291
3 274 291 275
3 275 291 292
3 275 292 276
3 276 292 293
3 276 293 277
3 277 293 294
3 277 294 278
3 278 294 295
3 278 295 279
3 279 295 296
3 279 296 280
3 280 296 297
3 280 297 281
3 281 297 298
3 281 298 282
3 282 298 299
3 282 299 283
3 283 299 300
3 283 300 284
3 284 300 301
3 284 301 285
3 285 301 302
3 285 302 286
3 286 302 303
3 286 303 287
3 287 303 288
3 287 288 272
3 288 304 305
3 288 305 289
3 289 305 306
3 289 306 290
3 290 306 307
3 290 307 291
3 291 307 308
3 291 308 292
3 292 308 309
3 292 309 293
3 293 309 310
3 293 310 294
3 294 310 311
3 294 311 295
3 295 311 312
3 295 312 296
3 296 312 313
3 296 313 297
3 297 313 314
3 297 314 298
3 298 314 315
3 298 315 299
3 299 315 316
3 299 316 300
3 300 316 317
3 300 317 301
3 301 317 318
3 301 318 302
3 302 318 319
3 302 319 303
3 303 319 304
3 303 304 288
3 304 320 321
3 304 321 305
3 305 321 322
3 305 322 306
3 306 322 323
3 306 323 307
3 307 323 324
3 307 324 308
3 308 324 325
3 308 325 309
3 309 325 326
3 309 326 310
3 310 326 327
3 310 327 311
3 311 327 328
3 311 328 312
3 312 328 329
3 312 329 313
3 313 329 330
3 313 330 314
3 314 330 331
3 314 331 315
3 315 331 332
3 315 332 316
3 316 332 333
3 316 333 317
3 317 333 334
3 317 334 318
3 318 334 335
3 318 335 319
3 319 335 320
3 319 320 304
3 320 336 337
3 320 337 321
3 321 337 338
3 321 338 322
3 322 338 339
3 322 339 323
3 323 339 340
3 323 340 324
3 324 340 341
3 324 341 325
3 325 341 342
3 325 342 326
3 326 342 343
3 326 343 327
3 327 343 344
3 327 344 328
3 328 344 345
3 328 345 329
3 329 345 346
3 329 346 330
3 330 346 347
3 330 347 331
3 331 347 348
3 331 348 332
3 332 348 349
3 332 349 333
3 333 349 350
3 333 350 334
3 334 350 351
3 334 351 335
3 335 351 336
3 335 336 320
3 336 352 353
3 336 353 337
3 337 353 354
3 337 354 338
3 338 354 355
3 338 355 339
3 339 355 356
3 339 356 340
3 340 356 357
3 340 357 341
3 341 357 358
3 341 358 342
3 342 358 359
3 342 359 343
3 343 359 360
3 343 360 344
3 344 360 361
3 344 361 345
3 345 361 362
3 345 362 346
3 346 362 363
3 346 363 347
3 347 363 364
3 347 364 348
3 348 364 365
3 348 365 349
3 349 365 366
3 349 366 350
3 350 366 367
3 350 367 351
3 351 367 352
3 351 352 336
3 352 368 369
3 352 369 353
3 353 369 370
3 353 370 354
3 354 370 371
3 354 371 355
3 355 371 372
3 355 372 356
3 356 372 373
3 356 373 357
3 357 373 374
3 357 374 358
3 358 374 375
3 358 375 359
3 359 375 376
3 359 376 360
3 360 376 377
3 360 377 361
3 361 377 378
3 361 378 362
3 362 378 379
3 362 379 363
3 363 379 380
3 363 380 364
3 364 380 381
3 364 381 365
3 365 381 382
3 365 382 366
3 366 382 383
3 366 383 367
3 367 383 368
3 367 368 352
3 368 0 1
3 368 1 369
3 369 1 2
3 369 2 370
3 370 2 3
3 370 3 371
3 371 3 4
3 371 4 372
3 372 4 5
3 372 5 373
3 373 5 6
3 373 6 374
3 374 6 7
3 374 7 375
3 375 7 8
3 375 8 376
3 376 8 9
3 376 9 377
3 377 9 10
3 377 10 378
3 378 10 11
3 378 11 379
3 379 11 12
3 379 12 380
3 380 12 13
3 380 13 381
3 381 13 14
3 381 14 382
3 382 14 15
3 382 15 383
3 383 15 0
3 383 0 368
